<svg width="41" height="40" viewBox="0 0 41 40" fill="none" xmlns="http://www.w3.org/2000/svg">
<path d="M20.5 36.6666L20.0833 31.6666H19.6667C15.7222 31.6666 12.375 30.2916 9.625 27.5416C6.875 24.7916 5.5 21.4444 5.5 17.5C5.5 13.5555 6.875 10.2083 9.625 7.45831C12.375 4.70831 15.7222 3.33331 19.6667 3.33331C21.6389 3.33331 23.4794 3.70109 25.1883 4.43665C26.8972 5.1722 28.3972 6.18609 29.6883 7.47831C30.9794 8.77054 31.9928 10.2705 32.7283 11.9783C33.4639 13.6861 33.8322 15.5266 33.8333 17.5C33.8333 19.5833 33.4933 21.5833 32.8133 23.5C32.1333 25.4166 31.2022 27.1944 30.02 28.8333C28.84 30.4722 27.4372 31.9583 25.8117 33.2916C24.1861 34.625 22.4156 35.75 20.5 36.6666ZM19.625 26.625C20.0972 26.625 20.5 26.4583 20.8333 26.125C21.1667 25.7916 21.3333 25.3889 21.3333 24.9166C21.3333 24.4444 21.1667 24.0416 20.8333 23.7083C20.5 23.375 20.0972 23.2083 19.625 23.2083C19.1528 23.2083 18.75 23.375 18.4167 23.7083C18.0833 24.0416 17.9167 24.4444 17.9167 24.9166C17.9167 25.3889 18.0833 25.7916 18.4167 26.125C18.75 26.4583 19.1528 26.625 19.625 26.625ZM18.4167 21.3333H20.9167C20.9167 20.5 21 19.9166 21.1667 19.5833C21.3333 19.25 21.8611 18.6389 22.75 17.75C23.25 17.25 23.6667 16.7083 24 16.125C24.3333 15.5416 24.5 14.9166 24.5 14.25C24.5 12.8333 24.0211 11.7705 23.0633 11.0616C22.1056 10.3528 20.9733 9.99887 19.6667 9.99998C18.4444 9.99998 17.4167 10.3405 16.5833 11.0216C15.75 11.7028 15.1667 12.5289 14.8333 13.5L17.1667 14.4166C17.3056 13.9444 17.5694 13.4794 17.9583 13.0216C18.3472 12.5639 18.9167 12.3344 19.6667 12.3333C20.4167 12.3333 20.9794 12.5416 21.355 12.9583C21.7306 13.375 21.9178 13.8333 21.9167 14.3333C21.9167 14.8055 21.7778 15.2294 21.5 15.605C21.2222 15.9805 20.8889 16.3622 20.5 16.75C19.5278 17.5833 18.9378 18.2433 18.73 18.73C18.5222 19.2166 18.4178 20.0844 18.4167 21.3333Z" fill="#0C0C0C"/>
</svg>
