<svg width="41" height="40" viewBox="0 0 41 40" fill="none" xmlns="http://www.w3.org/2000/svg">
<path d="M5.5 28.75V35H11.75L30.1833 16.5666L23.9333 10.3167L5.5 28.75ZM35.0167 11.7333C35.1712 11.5791 35.2937 11.396 35.3774 11.1944C35.461 10.9927 35.5041 10.7766 35.5041 10.5583C35.5041 10.34 35.461 10.1239 35.3774 9.92228C35.2937 9.72065 35.1712 9.53751 35.0167 9.38332L31.1167 5.48332C30.9625 5.32881 30.7793 5.20623 30.5777 5.1226C30.3761 5.03896 30.1599 4.99591 29.9417 4.99591C29.7234 4.99591 29.5072 5.03896 29.3056 5.1226C29.104 5.20623 28.9209 5.32881 28.7667 5.48332L25.7167 8.53332L31.9667 14.7833L35.0167 11.7333Z" fill="#0C0C0C"/>
</svg>
