<svg width="40" height="40" viewBox="0 0 40 40" fill="none" xmlns="http://www.w3.org/2000/svg">
<path fill-rule="evenodd" clip-rule="evenodd" d="M21.1786 29.5118C20.5277 30.1627 19.4724 30.1627 18.8215 29.5118L12.1549 22.8452C11.504 22.1943 11.504 21.139 12.1549 20.4882C12.8057 19.8373 13.861 19.8373 14.5119 20.4882L20 25.9763L25.4882 20.4882C26.1391 19.8373 27.1943 19.8373 27.8452 20.4882C28.4961 21.139 28.4961 22.1943 27.8452 22.8452L21.1786 29.5118ZM20 15.9763L25.4882 10.4882C26.1391 9.83728 27.1943 9.83728 27.8452 10.4882C28.4961 11.139 28.4961 12.1943 27.8452 12.8452L21.1786 19.5118C20.5277 20.1627 19.4724 20.1627 18.8215 19.5118L12.1549 12.8452C11.504 12.1943 11.504 11.139 12.1549 10.4882C12.8057 9.83728 13.861 9.83728 14.5119 10.4882L20 15.9763Z" fill="white"/>
</svg>
