<svg width="40" height="40" viewBox="0 0 40 40" fill="none" xmlns="http://www.w3.org/2000/svg">
<g clip-path="url(#clip0_1708_156)">
<path fill-rule="evenodd" clip-rule="evenodd" d="M14.6667 21.7778C15.6097 21.7778 16.514 22.1524 17.1808 22.8192C17.8476 23.486 18.2222 24.3903 18.2222 25.3333V32.4444C18.2222 33.3874 17.8476 34.2918 17.1808 34.9586C16.514 35.6254 15.6097 36 14.6667 36H7.55556C6.61256 36 5.70819 35.6254 5.0414 34.9586C4.3746 34.2918 4 33.3874 4 32.4444V25.3333C4 24.3903 4.3746 23.486 5.0414 22.8192C5.70819 22.1524 6.61256 21.7778 7.55556 21.7778H14.6667ZM32.4444 21.7778C33.3874 21.7778 34.2918 22.1524 34.9586 22.8192C35.6254 23.486 36 24.3903 36 25.3333V32.4444C36 33.3874 35.6254 34.2918 34.9586 34.9586C34.2918 35.6254 33.3874 36 32.4444 36H25.3333C24.3903 36 23.486 35.6254 22.8192 34.9586C22.1524 34.2918 21.7778 33.3874 21.7778 32.4444V25.3333C21.7778 24.3903 22.1524 23.486 22.8192 22.8192C23.486 22.1524 24.3903 21.7778 25.3333 21.7778H32.4444ZM14.6667 4C15.6097 4 16.514 4.3746 17.1808 5.0414C17.8476 5.70819 18.2222 6.61256 18.2222 7.55556V14.6667C18.2222 15.6097 17.8476 16.514 17.1808 17.1808C16.514 17.8476 15.6097 18.2222 14.6667 18.2222H7.55556C6.61256 18.2222 5.70819 17.8476 5.0414 17.1808C4.3746 16.514 4 15.6097 4 14.6667V7.55556C4 6.61256 4.3746 5.70819 5.0414 5.0414C5.70819 4.3746 6.61256 4 7.55556 4H14.6667ZM32.4444 4C33.3874 4 34.2918 4.3746 34.9586 5.0414C35.6254 5.70819 36 6.61256 36 7.55556V14.6667C36 15.6097 35.6254 16.514 34.9586 17.1808C34.2918 17.8476 33.3874 18.2222 32.4444 18.2222H25.3333C24.3903 18.2222 23.486 17.8476 22.8192 17.1808C22.1524 16.514 21.7778 15.6097 21.7778 14.6667V7.55556C21.7778 6.61256 22.1524 5.70819 22.8192 5.0414C23.486 4.3746 24.3903 4 25.3333 4H32.4444Z" fill="white"/>
</g>
<defs>
<clipPath id="clip0_1708_156">
<rect width="40" height="40" fill="white"/>
</clipPath>
</defs>
</svg>
