<svg width="40" height="40" viewBox="0 0 40 40" fill="none" xmlns="http://www.w3.org/2000/svg">
<g clip-path="url(#clip0_1158_2172)">
<path d="M36.6667 21.1111C36.5204 21.1119 36.3755 21.0839 36.2401 21.0286C36.1047 20.9733 35.9816 20.8918 35.8778 20.7889L20 4.89997L4.12223 20.7889C3.90968 20.9709 3.63626 21.066 3.35662 21.0552C3.07698 21.0444 2.81171 20.9285 2.61383 20.7306C2.41595 20.5327 2.30002 20.2674 2.28922 19.9878C2.27842 19.7082 2.37354 19.4347 2.55557 19.2222L19.2222 2.55552C19.4304 2.34858 19.712 2.23242 20.0056 2.23242C20.2991 2.23242 20.5807 2.34858 20.7889 2.55552L37.4556 19.2222C37.6085 19.3782 37.712 19.5758 37.7532 19.7903C37.7944 20.0047 37.7715 20.2266 37.6874 20.4282C37.6032 20.6297 37.4615 20.802 37.2799 20.9235C37.0984 21.0449 36.8851 21.1102 36.6667 21.1111Z" fill="white"/>
<path d="M20 8.65552L6.66669 22.0333V35.5555C6.66669 36.1449 6.90081 36.7101 7.31756 37.1269C7.73431 37.5436 8.29954 37.7777 8.88891 37.7777H16.6667V26.6666H23.3334V37.7777H31.1111C31.7005 37.7777 32.2657 37.5436 32.6825 37.1269C33.0992 36.7101 33.3334 36.1449 33.3334 35.5555V21.9555L20 8.65552Z" fill="white"/>
</g>
<defs>
<clipPath id="clip0_1158_2172">
<rect width="40" height="40" fill="white"/>
</clipPath>
</defs>
</svg>
