<svg width="40" height="40" viewBox="0 0 40 40" fill="none" xmlns="http://www.w3.org/2000/svg">
<path d="M5.77778 23C6.75556 23 7.55556 21.875 7.55556 20.5C7.55556 19.125 6.75556 18 5.77778 18C4.8 18 4 19.125 4 20.5C4 21.875 4.8 23 5.77778 23ZM5.77778 33C6.75556 33 7.55556 31.875 7.55556 30.5C7.55556 29.125 6.75556 28 5.77778 28C4.8 28 4 29.125 4 30.5C4 31.875 4.8 33 5.77778 33ZM5.77778 13C6.75556 13 7.55556 11.875 7.55556 10.5C7.55556 9.125 6.75556 8 5.77778 8C4.8 8 4 9.125 4 10.5C4 11.875 4.8 13 5.77778 13ZM12.8889 23H34.2222C35.2 23 36 21.875 36 20.5C36 19.125 35.2 18 34.2222 18H12.8889C11.9111 18 11.1111 19.125 11.1111 20.5C11.1111 21.875 11.9111 23 12.8889 23ZM12.8889 33H34.2222C35.2 33 36 31.875 36 30.5C36 29.125 35.2 28 34.2222 28H12.8889C11.9111 28 11.1111 29.125 11.1111 30.5C11.1111 31.875 11.9111 33 12.8889 33ZM11.1111 10.5C11.1111 11.875 11.9111 13 12.8889 13H34.2222C35.2 13 36 11.875 36 10.5C36 9.125 35.2 8 34.2222 8H12.8889C11.9111 8 11.1111 9.125 11.1111 10.5ZM5.77778 23C6.75556 23 7.55556 21.875 7.55556 20.5C7.55556 19.125 6.75556 18 5.77778 18C4.8 18 4 19.125 4 20.5C4 21.875 4.8 23 5.77778 23ZM5.77778 33C6.75556 33 7.55556 31.875 7.55556 30.5C7.55556 29.125 6.75556 28 5.77778 28C4.8 28 4 29.125 4 30.5C4 31.875 4.8 33 5.77778 33ZM5.77778 13C6.75556 13 7.55556 11.875 7.55556 10.5C7.55556 9.125 6.75556 8 5.77778 8C4.8 8 4 9.125 4 10.5C4 11.875 4.8 13 5.77778 13ZM12.8889 23H34.2222C35.2 23 36 21.875 36 20.5C36 19.125 35.2 18 34.2222 18H12.8889C11.9111 18 11.1111 19.125 11.1111 20.5C11.1111 21.875 11.9111 23 12.8889 23ZM12.8889 33H34.2222C35.2 33 36 31.875 36 30.5C36 29.125 35.2 28 34.2222 28H12.8889C11.9111 28 11.1111 29.125 11.1111 30.5C11.1111 31.875 11.9111 33 12.8889 33ZM11.1111 10.5C11.1111 11.875 11.9111 13 12.8889 13H34.2222C35.2 13 36 11.875 36 10.5C36 9.125 35.2 8 34.2222 8H12.8889C11.9111 8 11.1111 9.125 11.1111 10.5Z" fill="white"/>
</svg>
