<svg width="40" height="40" viewBox="0 0 40 40" fill="none" xmlns="http://www.w3.org/2000/svg">
<path fill-rule="evenodd" clip-rule="evenodd" d="M6.64632 6.64632C7.35896 5.93368 8.3255 5.53333 9.33333 5.53333H17.8667C18.7871 5.53333 19.5333 6.27952 19.5333 7.19999C19.5333 8.12047 18.7871 8.86666 17.8667 8.86666H9.33333C9.20956 8.86666 9.09086 8.91583 9.00334 9.00334C8.91583 9.09086 8.86666 9.20956 8.86666 9.33333V24.9778C8.86666 25.1015 8.91582 25.2202 9.00334 25.3078C9.09086 25.3953 9.20956 25.4444 9.33333 25.4444H30.6667C30.7904 25.4444 30.9091 25.3953 30.9966 25.3078C31.0842 25.2202 31.1333 25.1015 31.1333 24.9778V17.8667C31.1333 16.9462 31.8795 16.2 32.8 16.2C33.7205 16.2 34.4667 16.9462 34.4667 17.8667V24.9778C34.4667 25.9856 34.0663 26.9521 33.3537 27.6648C32.641 28.3774 31.6745 28.7778 30.6667 28.7778H21.6667V31.1333H27.1111C28.0316 31.1333 28.7778 31.8795 28.7778 32.8C28.7778 33.7205 28.0316 34.4667 27.1111 34.4667H12.8889C11.9684 34.4667 11.2222 33.7205 11.2222 32.8C11.2222 31.8795 11.9684 31.1333 12.8889 31.1333H18.3333V28.7778H9.33333C8.3255 28.7778 7.35896 28.3774 6.64632 27.6648C5.93368 26.9521 5.53333 25.9856 5.53333 24.9778V9.33333C5.53333 8.3255 5.93368 7.35896 6.64632 6.64632ZM24.5104 6.02148C25.1613 5.37061 26.2165 5.37061 26.8674 6.02148C27.5183 6.67235 27.5183 7.72763 26.8674 8.3785L25.2015 10.0444L26.8674 11.7104C27.5183 12.3612 27.5183 13.4165 26.8674 14.0674C26.2165 14.7183 25.1613 14.7183 24.5104 14.0674L21.666 11.2229C21.0151 10.5721 21.0151 9.5168 21.666 8.86593L24.5104 6.02148ZM28.7771 6.02148C29.4279 5.37061 30.4832 5.37061 31.1341 6.02148L33.9785 8.86593C34.6294 9.5168 34.6294 10.5721 33.9785 11.2229L31.1341 14.0674C30.4832 14.7183 29.4279 14.7183 28.7771 14.0674C28.1262 13.4165 28.1262 12.3612 28.7771 11.7104L30.443 10.0444L28.7771 8.3785C28.1262 7.72763 28.1262 6.67235 28.7771 6.02148Z" fill="white"/>
</svg>
