<svg width="41" height="40" viewBox="0 0 41 40" fill="none" xmlns="http://www.w3.org/2000/svg">
<path d="M8.55556 36H33.4444C34.3874 36 35.2918 35.6254 35.9586 34.9586C36.6254 34.2918 37 33.3874 37 32.4444V12.8889L28.1111 4H8.55556C7.61256 4 6.70819 4.3746 6.0414 5.0414C5.3746 5.70819 5 6.61256 5 7.55556V32.4444C5 33.3874 5.3746 34.2918 6.0414 34.9586C6.70819 35.6254 7.61256 36 8.55556 36ZM12.1111 7.55556H19.2222V11.1111H22.7778V7.55556H26.3333V14.6667H12.1111V7.55556ZM12.1111 21.7778H29.8889V32.4444H12.1111V21.7778Z" fill="black"/>
</svg>
