<svg width="41" height="40" viewBox="0 0 41 40" fill="none" xmlns="http://www.w3.org/2000/svg">
<path d="M27.8702 24.1258H26.4248L25.9125 23.6318C27.7675 21.4802 28.787 18.7333 28.785 15.8925C28.785 13.5404 28.0875 11.2411 26.7808 9.28539C25.474 7.32968 23.6166 5.80538 21.4436 4.90527C19.2705 4.00515 16.8793 3.76964 14.5724 4.22852C12.2655 4.68739 10.1464 5.82004 8.48324 7.48324C6.82004 9.14644 5.68739 11.2655 5.22852 13.5724C4.76964 15.8793 5.00515 18.2705 5.90527 20.4436C6.80538 22.6166 8.32968 24.474 10.2854 25.7808C12.2411 27.0875 14.5404 27.785 16.8925 27.785C19.8382 27.785 22.546 26.7055 24.6318 24.9125L25.1258 25.4248V26.8702L34.2739 36L37 33.2739L27.8702 24.1258ZM16.8925 24.1258C12.3368 24.1258 8.65924 20.4483 8.65924 15.8925C8.65924 11.3368 12.3368 7.65924 16.8925 7.65924C21.4483 7.65924 25.1258 11.3368 25.1258 15.8925C25.1258 20.4483 21.4483 24.1258 16.8925 24.1258Z" fill="#0C0C0C"/>
</svg>
