<svg width="5000" height="3866" viewBox="0 0 5000 3866" fill="none" xmlns="http://www.w3.org/2000/svg">
<g clip-path="url(#clip0_392_43)">
<path fill-rule="evenodd" clip-rule="evenodd" d="M1565.39 1374.03C1373.63 1618.95 1296.21 1956.42 1387.29 2325.01L1290.21 2348.99C1192.31 1952.8 1274.56 1583.27 1486.65 1312.39C1698.75 1041.5 2037.76 873 2445.87 873C3264.35 873 3831.46 1536.2 3704.39 2344.76L3605.6 2329.24C3723.14 1581.35 3202.94 973 2445.87 973C2066.2 973 1757.16 1129.11 1565.39 1374.03Z" fill="white"/>
<path d="M2500.32 749.717C2529.08 749.717 2552.43 726.365 2552.43 697.603V163.114C2552.43 134.307 2529.08 111 2500.32 111C2471.56 111 2448.2 134.352 2448.2 163.114V697.603C2448.16 726.41 2471.51 749.717 2500.32 749.717Z" fill="white"/>
<path d="M4492.52 1938.66H4027.5C3998.74 1938.66 3975.39 1962.01 3975.39 1990.77C3975.39 2019.53 3998.74 2042.88 4027.5 2042.88H4492.52C4521.28 2042.88 4544.64 2019.53 4544.64 1990.77C4544.64 1962.01 4521.28 1938.66 4492.52 1938.66Z" fill="white"/>
<path d="M1025.2 1990.77C1025.2 1961.96 1001.85 1938.66 973.087 1938.66H508.114C479.352 1938.66 456 1962.01 456 1990.77C456 2019.53 479.352 2042.88 508.114 2042.88H973.087C1001.85 2042.88 1025.2 2019.58 1025.2 1990.77Z" fill="white"/>
<path d="M3556.81 1164.51C3570.15 1164.51 3583.5 1159.42 3593.68 1149.23L3971.6 771.266C3991.98 750.889 3991.98 717.889 3971.6 697.558C3951.23 677.181 3918.23 677.181 3897.9 697.558L3519.98 1075.52C3499.6 1095.9 3499.6 1128.9 3519.98 1149.23C3530.12 1159.46 3543.46 1164.51 3556.81 1164.51Z" fill="white"/>
<path d="M1423 1149.28C1433.19 1159.46 1446.53 1164.56 1459.88 1164.56C1473.22 1164.56 1486.57 1159.46 1496.76 1149.28C1517.13 1128.94 1517.13 1095.9 1496.76 1075.57L1118.79 697.603C1098.41 677.226 1065.41 677.226 1045.08 697.603C1024.71 717.934 1024.71 750.979 1045.08 771.311L1423 1149.28Z" fill="white"/>
<path d="M1904.25 815.717C1913.49 833.704 1931.75 844.073 1950.68 844.073C1958.71 844.073 1966.82 842.225 1974.44 838.302C2000.05 825.184 2010.19 793.762 1997.03 768.11L1829.41 441.313C1816.25 415.662 1784.83 405.564 1759.22 418.727C1733.61 431.846 1723.47 463.268 1736.63 488.92L1904.25 815.717Z" fill="white"/>
<path d="M3038.55 838.302C3046.17 842.225 3054.28 844.073 3062.31 844.073C3081.24 844.073 3099.5 833.704 3108.74 815.717L3276.35 488.92C3289.47 463.313 3279.37 431.891 3253.77 418.727C3228.21 405.564 3196.69 415.662 3183.58 441.313L3015.96 768.11C3002.84 793.762 3012.94 825.184 3038.55 838.302Z" fill="white"/>
<path d="M3836.76 1561.46C3844.38 1582.69 3864.44 1595.95 3885.81 1595.95C3891.67 1595.95 3897.67 1594.95 3903.48 1592.83L4249.04 1468.36C4276.17 1458.63 4290.2 1428.74 4280.41 1401.64C4270.67 1374.55 4240.56 1360.53 4213.74 1370.27L3868.19 1494.74C3841.05 1504.47 3826.98 1534.36 3836.76 1561.46Z" fill="white"/>
<path d="M769.498 1468.36L1115.05 1592.83C1120.86 1594.95 1126.82 1595.95 1132.72 1595.95C1154.09 1595.95 1174.15 1582.69 1181.77 1561.46C1191.55 1534.36 1177.49 1504.52 1150.39 1494.74L804.842 1370.27C777.883 1360.53 747.904 1374.55 738.166 1401.64C728.338 1428.74 742.359 1458.63 769.498 1468.36Z" fill="white"/>
<path d="M2363.74 2158.17V1387.13H2114V1285.3H2363.74V1027H2476.72V1285.3H2728.43V1387.13H2476.72V2158.17H2363.74Z" fill="white"/>
<path d="M151.515 2577.85V3714.21H4848.48V2577.85H4090.91C3808.09 2577.85 3632.64 2472.51 3367.74 2208.21C3354.3 2194.8 3307.37 2147.66 3298.71 2138.99C3012.08 1852.37 2825.79 1744.52 2500 1744.52C2174.21 1744.52 1987.92 1852.37 1701.29 2138.99C1692.63 2147.66 1645.7 2194.8 1632.26 2208.21C1367.36 2472.51 1191.91 2577.85 909.091 2577.85H151.515ZM75.7576 2426.33H909.091C1141.47 2426.33 1286.23 2339.42 1525.24 2100.95C1538.46 2087.77 1585.31 2040.71 1594.16 2031.86C1906.49 1719.52 2125.03 1593 2500 1593C2874.97 1593 3093.51 1719.52 3405.84 2031.86C3414.69 2040.71 3461.54 2087.77 3474.76 2100.95C3713.77 2339.42 3858.53 2426.33 4090.91 2426.33H4924.24C4966.08 2426.33 5000 2460.25 5000 2502.09V3789.97C5000 3831.81 4966.08 3865.73 4924.24 3865.73H75.7576C33.9178 3865.73 0 3831.81 0 3789.97V2502.09C0 2460.25 33.9178 2426.33 75.7576 2426.33Z" fill="white"/>
<path d="M299.593 3472.06C282.915 3472.06 269.48 3466.96 259.288 3456.77C249.096 3446.58 244 3433.04 244 3416.16V3306.52C244 3289.64 249.096 3276.15 259.288 3266.06C269.48 3255.97 282.915 3250.93 299.593 3250.93C316.477 3250.93 330.015 3255.97 340.207 3266.06C350.399 3276.15 355.495 3289.64 355.495 3306.52V3311.46C355.495 3313.52 354.465 3314.55 352.406 3314.55L328.934 3315.78C326.875 3315.78 325.845 3314.75 325.845 3312.7V3304.67C325.845 3296.22 323.426 3289.43 318.587 3284.28C313.749 3279.13 307.417 3276.56 299.593 3276.56C291.769 3276.56 285.489 3279.13 280.753 3284.28C276.017 3289.43 273.65 3296.22 273.65 3304.67V3418.32C273.65 3426.76 276.017 3433.56 280.753 3438.71C285.489 3443.85 291.769 3446.43 299.593 3446.43C307.417 3446.43 313.749 3443.85 318.587 3438.71C323.426 3433.56 325.845 3426.76 325.845 3418.32V3410.29C325.845 3408.23 326.875 3407.2 328.934 3407.2L352.406 3408.44C354.465 3408.44 355.495 3409.47 355.495 3411.53V3416.16C355.495 3433.04 350.399 3446.58 340.207 3456.77C330.015 3466.96 316.477 3472.06 299.593 3472.06ZM447.532 3310.23C460.504 3310.23 470.439 3314.6 477.336 3323.35C484.234 3332.1 487.683 3344.51 487.683 3360.57V3466.5C487.683 3468.56 486.653 3469.59 484.594 3469.59H461.122C459.063 3469.59 458.033 3468.56 458.033 3466.5V3363.04C458.033 3354.39 456.18 3347.7 452.474 3342.96C448.768 3338.23 443.62 3335.86 437.031 3335.86C429.825 3335.86 424.265 3338.38 420.353 3343.43C416.441 3348.47 414.485 3355.42 414.485 3364.27V3466.5C414.485 3468.56 413.456 3469.59 411.397 3469.59H387.924C385.865 3469.59 384.836 3468.56 384.836 3466.5V3256.49C384.836 3254.43 385.865 3253.4 387.924 3253.4H411.397C413.456 3253.4 414.485 3254.43 414.485 3256.49V3323.51C414.485 3323.92 414.691 3324.17 415.103 3324.28C415.515 3324.38 415.927 3324.23 416.338 3323.81C423.751 3314.75 434.149 3310.23 447.532 3310.23ZM589.603 3315.48C589.603 3313.42 590.633 3312.39 592.692 3312.39H616.164C618.223 3312.39 619.253 3313.42 619.253 3315.48V3466.5C619.253 3468.56 618.223 3469.59 616.164 3469.59H592.692C590.633 3469.59 589.603 3468.56 589.603 3466.5V3457.54C589.603 3456.93 589.449 3456.62 589.14 3456.62C588.831 3456.62 588.471 3456.82 588.059 3457.24C581.882 3466.91 571.999 3471.75 558.409 3471.75C546.055 3471.75 536.069 3467.99 528.451 3460.48C520.833 3452.96 517.023 3441.48 517.023 3426.04V3315.48C517.023 3313.42 518.053 3312.39 520.112 3312.39H543.585C545.644 3312.39 546.673 3313.42 546.673 3315.48V3419.56C546.673 3437.26 553.674 3446.12 567.675 3446.12C574.675 3446.12 580.08 3443.6 583.889 3438.55C587.699 3433.51 589.603 3426.56 589.603 3417.7V3315.48ZM711.29 3310.84C716.438 3310.84 720.865 3311.98 724.571 3314.24C726.012 3315.06 726.527 3316.4 726.115 3318.26L721.482 3341.73C721.276 3343.58 720.041 3344.2 717.776 3343.58C715.099 3342.55 712.011 3342.04 708.511 3342.04C706.246 3342.04 704.598 3342.14 703.569 3342.35C697.186 3343.17 691.884 3346.77 687.663 3353.15C683.442 3359.54 681.332 3367.26 681.332 3376.32V3466.5C681.332 3468.56 680.302 3469.59 678.243 3469.59H654.771C652.712 3469.59 651.682 3468.56 651.682 3466.5V3315.48C651.682 3313.42 652.712 3312.39 654.771 3312.39H678.243C680.302 3312.39 681.332 3313.42 681.332 3315.48V3333.39C681.332 3334.01 681.486 3334.37 681.795 3334.47C682.104 3334.57 682.361 3334.31 682.567 3333.7C688.538 3318.46 698.113 3310.84 711.29 3310.84ZM793.135 3472.06C777.281 3472.06 764.67 3467.63 755.301 3458.78C745.933 3449.93 741.249 3437.98 741.249 3422.95V3359.02C741.249 3344.4 745.933 3332.56 755.301 3323.51C764.67 3314.45 777.281 3309.92 793.135 3309.92C803.636 3309.92 812.85 3311.92 820.778 3315.94C828.705 3319.95 834.779 3325.41 839 3332.31C843.221 3339.21 845.331 3346.98 845.331 3355.63V3359.64C845.331 3361.7 844.302 3362.73 842.243 3362.73L818.77 3363.66C816.711 3363.66 815.681 3362.63 815.681 3360.57V3357.48C815.681 3351.51 813.52 3346.36 809.196 3342.04C804.872 3337.71 799.518 3335.55 793.135 3335.55C786.547 3335.55 781.193 3337.92 777.075 3342.65C772.957 3347.39 770.898 3353.46 770.898 3360.88V3421.1C770.898 3428.51 772.957 3434.59 777.075 3439.32C781.193 3444.06 786.547 3446.43 793.135 3446.43C799.518 3446.43 804.872 3444.26 809.196 3439.94C813.52 3435.62 815.681 3430.47 815.681 3424.5V3421.41C815.681 3419.35 816.711 3418.32 818.77 3418.32L842.243 3418.63C844.302 3418.63 845.331 3419.66 845.331 3421.72V3426.35C845.331 3439.73 840.595 3450.7 831.124 3459.24C821.653 3467.79 808.99 3472.06 793.135 3472.06ZM934.28 3310.23C947.252 3310.23 957.186 3314.6 964.084 3323.35C970.982 3332.1 974.43 3344.51 974.43 3360.57V3466.5C974.43 3468.56 973.401 3469.59 971.342 3469.59H947.869C945.81 3469.59 944.781 3468.56 944.781 3466.5V3363.04C944.781 3354.39 942.928 3347.7 939.221 3342.96C935.515 3338.23 930.368 3335.86 923.779 3335.86C916.572 3335.86 911.013 3338.38 907.101 3343.43C903.189 3348.47 901.233 3355.42 901.233 3364.27V3466.5C901.233 3468.56 900.203 3469.59 898.144 3469.59H874.672C872.613 3469.59 871.583 3468.56 871.583 3466.5V3256.49C871.583 3254.43 872.613 3253.4 874.672 3253.4H898.144C900.203 3253.4 901.233 3254.43 901.233 3256.49V3323.51C901.233 3323.92 901.439 3324.17 901.851 3324.28C902.262 3324.38 902.674 3324.23 903.086 3323.81C910.498 3314.75 920.896 3310.23 934.28 3310.23ZM1148.62 3256.49C1148.62 3254.43 1149.65 3253.4 1151.71 3253.4H1175.18C1177.24 3253.4 1178.27 3254.43 1178.27 3256.49V3466.5C1178.27 3468.56 1177.24 3469.59 1175.18 3469.59H1151.71C1149.65 3469.59 1148.62 3468.56 1148.62 3466.5V3375.39C1148.62 3374.57 1148.21 3374.16 1147.39 3374.16H1100.75C1099.93 3374.16 1099.51 3374.57 1099.51 3375.39V3466.5C1099.51 3468.56 1098.49 3469.59 1096.43 3469.59H1072.95C1070.89 3469.59 1069.87 3468.56 1069.87 3466.5V3256.49C1069.87 3254.43 1070.89 3253.4 1072.95 3253.4H1096.43C1098.49 3253.4 1099.51 3254.43 1099.51 3256.49V3347.29C1099.51 3348.11 1099.93 3348.52 1100.75 3348.52H1147.39C1148.21 3348.52 1148.62 3348.11 1148.62 3347.29V3256.49ZM1230.16 3289.22C1224.6 3289.22 1220.07 3287.37 1216.57 3283.66C1213.07 3279.96 1211.32 3275.22 1211.32 3269.46C1211.32 3263.69 1213.07 3259.01 1216.57 3255.4C1220.07 3251.8 1224.6 3250 1230.16 3250C1235.72 3250 1240.2 3251.8 1243.59 3255.4C1246.99 3259.01 1248.69 3263.69 1248.69 3269.46C1248.69 3275.43 1246.99 3280.22 1243.59 3283.82C1240.2 3287.42 1235.72 3289.22 1230.16 3289.22ZM1218.42 3469.59C1216.36 3469.59 1215.33 3468.56 1215.33 3466.5V3315.48C1215.33 3313.42 1216.36 3312.39 1218.42 3312.39H1241.89C1243.95 3312.39 1244.98 3313.42 1244.98 3315.48V3466.5C1244.98 3468.56 1243.95 3469.59 1241.89 3469.59H1218.42ZM1280.5 3469.59C1278.44 3469.59 1277.41 3468.56 1277.41 3466.5V3256.49C1277.41 3254.43 1278.44 3253.4 1280.5 3253.4H1303.97C1306.03 3253.4 1307.06 3254.43 1307.06 3256.49V3466.5C1307.06 3468.56 1306.03 3469.59 1303.97 3469.59H1280.5ZM1339.49 3469.59C1337.43 3469.59 1336.4 3468.56 1336.4 3466.5V3256.49C1336.4 3254.43 1337.43 3253.4 1339.49 3253.4H1362.96C1365.02 3253.4 1366.05 3254.43 1366.05 3256.49V3466.5C1366.05 3468.56 1365.02 3469.59 1362.96 3469.59H1339.49ZM1564.64 3275.94C1564.64 3278 1563.61 3279.03 1561.55 3279.03H1492.37C1491.55 3279.03 1491.14 3279.44 1491.14 3280.27V3347.29C1491.14 3348.11 1491.55 3348.52 1492.37 3348.52H1534.68C1536.74 3348.52 1537.77 3349.55 1537.77 3351.61V3371.07C1537.77 3373.13 1536.74 3374.16 1534.68 3374.16H1492.37C1491.55 3374.16 1491.14 3374.57 1491.14 3375.39V3466.5C1491.14 3468.56 1490.11 3469.59 1488.05 3469.59H1464.58C1462.52 3469.59 1461.49 3468.56 1461.49 3466.5V3256.49C1461.49 3254.43 1462.52 3253.4 1464.58 3253.4H1561.55C1563.61 3253.4 1564.64 3254.43 1564.64 3256.49V3275.94ZM1601.7 3289.22C1596.15 3289.22 1591.62 3287.37 1588.12 3283.66C1584.62 3279.96 1582.87 3275.22 1582.87 3269.46C1582.87 3263.69 1584.62 3259.01 1588.12 3255.4C1591.62 3251.8 1596.15 3250 1601.7 3250C1607.26 3250 1611.74 3251.8 1615.14 3255.4C1618.54 3259.01 1620.24 3263.69 1620.24 3269.46C1620.24 3275.43 1618.54 3280.22 1615.14 3283.82C1611.74 3287.42 1607.26 3289.22 1601.7 3289.22ZM1589.97 3469.59C1587.91 3469.59 1586.88 3468.56 1586.88 3466.5V3315.48C1586.88 3313.42 1587.91 3312.39 1589.97 3312.39H1613.44C1615.5 3312.39 1616.53 3313.42 1616.53 3315.48V3466.5C1616.53 3468.56 1615.5 3469.59 1613.44 3469.59H1589.97ZM1709.8 3310.84C1714.95 3310.84 1719.38 3311.98 1723.08 3314.24C1724.52 3315.06 1725.04 3316.4 1724.63 3318.26L1719.99 3341.73C1719.79 3343.58 1718.55 3344.2 1716.29 3343.58C1713.61 3342.55 1710.52 3342.04 1707.02 3342.04C1704.76 3342.04 1703.11 3342.14 1702.08 3342.35C1695.7 3343.17 1690.4 3346.77 1686.18 3353.15C1681.95 3359.54 1679.84 3367.26 1679.84 3376.32V3466.5C1679.84 3468.56 1678.81 3469.59 1676.76 3469.59H1653.28C1651.22 3469.59 1650.19 3468.56 1650.19 3466.5V3315.48C1650.19 3313.42 1651.22 3312.39 1653.28 3312.39H1676.76C1678.81 3312.39 1679.84 3313.42 1679.84 3315.48V3333.39C1679.84 3334.01 1680 3334.37 1680.31 3334.47C1680.62 3334.57 1680.87 3334.31 1681.08 3333.7C1687.05 3318.46 1696.62 3310.84 1709.8 3310.84ZM1788.87 3471.44C1773.43 3471.44 1761.23 3467.69 1752.27 3460.17C1743.31 3452.65 1738.83 3442.51 1738.83 3429.75V3426.97C1738.83 3424.91 1739.86 3423.88 1741.92 3423.88H1763.85C1765.91 3423.88 1766.94 3424.7 1766.94 3426.35V3429.13C1766.94 3434.69 1769.1 3439.37 1773.43 3443.18C1777.75 3446.99 1783.1 3448.9 1789.49 3448.9C1795.66 3448.9 1800.66 3447.04 1804.46 3443.34C1808.27 3439.63 1810.18 3434.9 1810.18 3429.13C1810.18 3424.6 1808.84 3420.79 1806.16 3417.7C1803.49 3414.62 1800.35 3412.2 1796.74 3410.45C1793.14 3408.7 1787.63 3406.28 1780.22 3403.19C1772.19 3399.69 1765.55 3396.29 1760.3 3393C1755.05 3389.7 1750.36 3384.97 1746.25 3378.79C1742.13 3372.61 1740.07 3364.79 1740.07 3355.32C1740.07 3341.32 1744.45 3330.4 1753.2 3322.58C1761.95 3314.75 1773.73 3310.84 1788.56 3310.84C1803.8 3310.84 1815.79 3314.86 1824.54 3322.89C1833.29 3330.92 1837.67 3341.83 1837.67 3355.63V3356.55C1837.67 3358.61 1836.64 3359.64 1834.58 3359.64H1813.27C1812.44 3359.64 1811.72 3359.38 1811.11 3358.87C1810.49 3358.35 1810.18 3357.68 1810.18 3356.86V3354.39C1810.18 3348.83 1808.22 3344.1 1804.31 3340.18C1800.4 3336.27 1795.35 3334.31 1789.18 3334.31C1782.79 3334.31 1777.75 3336.27 1774.04 3340.18C1770.34 3344.1 1768.48 3348.83 1768.48 3354.39C1768.48 3358.71 1769.72 3362.32 1772.19 3365.2C1774.66 3368.08 1777.65 3370.4 1781.15 3372.15C1784.65 3373.9 1790.21 3376.42 1797.82 3379.72C1806.27 3383.42 1813.27 3386.97 1818.83 3390.37C1824.39 3393.77 1829.28 3398.56 1833.5 3404.73C1837.72 3410.91 1839.83 3418.63 1839.83 3427.9C1839.83 3441.28 1835.25 3451.88 1826.08 3459.71C1816.92 3467.53 1804.52 3471.44 1788.87 3471.44ZM1925.07 3330.92C1925.07 3332.98 1924.04 3334.01 1921.98 3334.01H1900.36C1899.54 3334.01 1899.13 3334.42 1899.13 3335.24V3422.03C1899.13 3430.26 1900.57 3435.98 1903.45 3439.17C1906.33 3442.36 1910.86 3443.85 1917.04 3443.65H1919.82C1921.88 3443.65 1922.91 3444.68 1922.91 3446.73V3466.5C1922.91 3468.56 1921.88 3469.59 1919.82 3469.59H1910.25C1897.07 3469.59 1887.13 3467.02 1880.44 3461.87C1873.75 3456.72 1870.4 3446.94 1870.4 3432.53V3335.24C1870.4 3334.42 1869.99 3334.01 1869.17 3334.01H1857.12C1855.06 3334.01 1854.04 3332.98 1854.04 3330.92V3315.48C1854.04 3313.42 1855.06 3312.39 1857.12 3312.39H1869.17C1869.99 3312.39 1870.4 3311.98 1870.4 3311.15V3276.25C1870.4 3274.19 1871.43 3273.16 1873.49 3273.16H1896.04C1898.1 3273.16 1899.13 3274.19 1899.13 3276.25V3311.15C1899.13 3311.98 1899.54 3312.39 1900.36 3312.39H1921.98C1924.04 3312.39 1925.07 3313.42 1925.07 3315.48V3330.92ZM2067.76 3472.06C2050.88 3472.06 2037.34 3466.45 2027.15 3455.23C2016.95 3444.01 2011.86 3429.23 2011.86 3410.91V3256.49C2011.86 3254.43 2012.89 3253.4 2014.95 3253.4H2038.42C2040.48 3253.4 2041.51 3254.43 2041.51 3256.49V3414C2041.51 3423.67 2043.93 3431.5 2048.77 3437.47C2053.6 3443.44 2059.94 3446.43 2067.76 3446.43C2075.79 3446.43 2082.22 3443.44 2087.06 3437.47C2091.9 3431.5 2094.32 3423.67 2094.32 3414V3256.49C2094.32 3254.43 2095.35 3253.4 2097.41 3253.4H2120.88C2122.94 3253.4 2123.97 3254.43 2123.97 3256.49V3410.91C2123.97 3429.23 2118.82 3444.01 2108.53 3455.23C2098.23 3466.45 2084.64 3472.06 2067.76 3472.06ZM2220.33 3310.23C2233.3 3310.23 2243.24 3314.6 2250.14 3323.35C2257.03 3332.1 2260.48 3344.51 2260.48 3360.57V3466.5C2260.48 3468.56 2259.45 3469.59 2257.39 3469.59H2233.92C2231.86 3469.59 2230.83 3468.56 2230.83 3466.5V3363.04C2230.83 3354.39 2228.98 3347.7 2225.27 3342.96C2221.57 3338.23 2216.42 3335.86 2209.83 3335.86C2202.62 3335.86 2197.06 3338.38 2193.15 3343.43C2189.24 3348.47 2187.28 3355.42 2187.28 3364.27V3466.5C2187.28 3468.56 2186.26 3469.59 2184.2 3469.59H2160.72C2158.66 3469.59 2157.63 3468.56 2157.63 3466.5V3315.48C2157.63 3313.42 2158.66 3312.39 2160.72 3312.39H2184.2C2186.26 3312.39 2187.28 3313.42 2187.28 3315.48V3323.51C2187.28 3323.92 2187.49 3324.17 2187.9 3324.28C2188.31 3324.38 2188.73 3324.23 2189.14 3323.81C2196.55 3314.75 2206.95 3310.23 2220.33 3310.23ZM2307.74 3289.22C2302.18 3289.22 2297.65 3287.37 2294.15 3283.66C2290.65 3279.96 2288.9 3275.22 2288.9 3269.46C2288.9 3263.69 2290.65 3259.01 2294.15 3255.4C2297.65 3251.8 2302.18 3250 2307.74 3250C2313.3 3250 2317.77 3251.8 2321.17 3255.4C2324.57 3259.01 2326.27 3263.69 2326.27 3269.46C2326.27 3275.43 2324.57 3280.22 2321.17 3283.82C2317.77 3287.42 2313.3 3289.22 2307.74 3289.22ZM2296 3469.59C2293.94 3469.59 2292.91 3468.56 2292.91 3466.5V3315.48C2292.91 3313.42 2293.94 3312.39 2296 3312.39H2319.47C2321.53 3312.39 2322.56 3313.42 2322.56 3315.48V3466.5C2322.56 3468.56 2321.53 3469.59 2319.47 3469.59H2296ZM2417.69 3330.92C2417.69 3332.98 2416.66 3334.01 2414.6 3334.01H2392.98C2392.15 3334.01 2391.74 3334.42 2391.74 3335.24V3422.03C2391.74 3430.26 2393.18 3435.98 2396.07 3439.17C2398.95 3442.36 2403.48 3443.85 2409.66 3443.65H2412.44C2414.5 3443.65 2415.52 3444.68 2415.52 3446.73V3466.5C2415.52 3468.56 2414.5 3469.59 2412.44 3469.59H2402.86C2389.68 3469.59 2379.75 3467.02 2373.06 3461.87C2366.37 3456.72 2363.02 3446.94 2363.02 3432.53V3335.24C2363.02 3334.42 2362.61 3334.01 2361.78 3334.01H2349.74C2347.68 3334.01 2346.65 3332.98 2346.65 3330.92V3315.48C2346.65 3313.42 2347.68 3312.39 2349.74 3312.39H2361.78C2362.61 3312.39 2363.02 3311.98 2363.02 3311.15V3276.25C2363.02 3274.19 2364.05 3273.16 2366.11 3273.16H2388.65C2390.71 3273.16 2391.74 3274.19 2391.74 3276.25V3311.15C2391.74 3311.98 2392.15 3312.39 2392.98 3312.39H2414.6C2416.66 3312.39 2417.69 3313.42 2417.69 3315.48V3330.92ZM2542.15 3400.1C2542.15 3402.16 2541.12 3403.19 2539.06 3403.19H2469.26C2468.44 3403.19 2468.03 3403.6 2468.03 3404.42V3421.1C2468.03 3428.51 2470.09 3434.59 2474.21 3439.32C2478.32 3444.06 2483.68 3446.43 2490.27 3446.43C2496.03 3446.43 2500.87 3444.68 2504.78 3441.18C2508.69 3437.68 2511.17 3433.15 2512.19 3427.59C2512.81 3425.94 2513.94 3425.12 2515.59 3425.12L2538.45 3426.35C2539.48 3426.35 2540.25 3426.66 2540.76 3427.28C2541.28 3427.9 2541.43 3428.62 2541.23 3429.44C2539.79 3442.82 2534.69 3453.27 2525.94 3460.79C2517.19 3468.3 2505.3 3472.06 2490.27 3472.06C2474.41 3472.06 2461.8 3467.63 2452.43 3458.78C2443.06 3449.93 2438.38 3438.09 2438.38 3423.26V3359.02C2438.38 3344.4 2443.06 3332.56 2452.43 3323.51C2461.8 3314.45 2474.41 3309.92 2490.27 3309.92C2506.33 3309.92 2518.99 3314.45 2528.26 3323.51C2537.52 3332.56 2542.15 3344.4 2542.15 3359.02V3400.1ZM2490.27 3335.55C2483.68 3335.55 2478.32 3337.92 2474.21 3342.65C2470.09 3347.39 2468.03 3353.46 2468.03 3360.88V3377.24C2468.03 3378.07 2468.44 3378.48 2469.26 3378.48H2511.58C2512.4 3378.48 2512.81 3378.07 2512.81 3377.24V3360.88C2512.81 3353.46 2510.75 3347.39 2506.64 3342.65C2502.52 3337.92 2497.06 3335.55 2490.27 3335.55ZM2641.29 3256.49C2641.29 3254.43 2642.32 3253.4 2644.38 3253.4H2667.86C2669.91 3253.4 2670.94 3254.43 2670.94 3256.49V3466.5C2670.94 3468.56 2669.91 3469.59 2667.86 3469.59H2644.38C2642.32 3469.59 2641.29 3468.56 2641.29 3466.5V3459.4C2641.29 3458.99 2641.14 3458.68 2640.83 3458.47C2640.52 3458.27 2640.16 3458.37 2639.75 3458.78C2635.84 3463.31 2631.2 3466.66 2625.85 3468.82C2620.5 3470.98 2615.25 3472.06 2610.1 3472.06C2596.51 3472.06 2585.96 3467.63 2578.44 3458.78C2570.93 3449.93 2567.17 3438.09 2567.17 3423.26V3359.02C2567.17 3343.79 2570.98 3331.84 2578.6 3323.2C2586.22 3314.55 2596.72 3310.23 2610.1 3310.23C2615.45 3310.23 2620.76 3311.31 2626.01 3313.47C2631.26 3315.63 2635.84 3318.98 2639.75 3323.51C2640.16 3323.92 2640.52 3324.02 2640.83 3323.81C2641.14 3323.61 2641.29 3323.3 2641.29 3322.89V3256.49ZM2640.99 3360.88C2640.99 3353.46 2638.98 3347.39 2634.96 3342.65C2630.95 3337.92 2625.65 3335.55 2619.06 3335.55C2612.47 3335.55 2607.11 3337.92 2603 3342.65C2598.88 3347.39 2596.82 3353.46 2596.82 3360.88V3421.41C2596.82 3428.82 2598.88 3434.84 2603 3439.48C2607.11 3444.11 2612.47 3446.43 2619.06 3446.43C2625.65 3446.43 2630.95 3444.11 2634.96 3439.48C2638.98 3434.84 2640.99 3428.82 2640.99 3421.41V3360.88ZM2770.7 3469.59C2768.64 3469.59 2767.61 3468.56 2767.61 3466.5V3256.49C2767.61 3254.43 2768.64 3253.4 2770.7 3253.4H2794.17C2795.82 3253.4 2796.95 3254.22 2797.57 3255.87L2829.07 3330.92C2829.28 3331.33 2829.59 3331.54 2830 3331.54C2830.41 3331.54 2830.72 3331.33 2830.93 3330.92L2863.05 3255.87C2863.67 3254.22 2864.8 3253.4 2866.45 3253.4H2889.92C2891.98 3253.4 2893.01 3254.43 2893.01 3256.49V3466.5C2893.01 3468.56 2891.98 3469.59 2889.92 3469.59H2866.45C2864.39 3469.59 2863.36 3468.56 2863.36 3466.5V3326.59C2863.36 3325.98 2863.2 3325.67 2862.89 3325.67C2862.59 3325.67 2862.22 3325.87 2861.81 3326.29L2833.09 3387.44C2832.47 3388.88 2831.65 3389.6 2830.62 3389.6C2829.18 3389.6 2828.15 3388.88 2827.53 3387.44L2798.81 3325.98C2798.4 3325.56 2798.04 3325.36 2797.73 3325.36C2797.42 3325.36 2797.26 3325.67 2797.26 3326.29V3466.5C2797.26 3468.56 2796.23 3469.59 2794.17 3469.59H2770.7ZM3028.9 3400.1C3028.9 3402.16 3027.87 3403.19 3025.81 3403.19H2956.01C2955.19 3403.19 2954.78 3403.6 2954.78 3404.42V3421.1C2954.78 3428.51 2956.84 3434.59 2960.95 3439.32C2965.07 3444.06 2970.43 3446.43 2977.01 3446.43C2982.78 3446.43 2987.62 3444.68 2991.53 3441.18C2995.44 3437.68 2997.91 3433.15 2998.94 3427.59C2999.56 3425.94 3000.69 3425.12 3002.34 3425.12L3025.19 3426.35C3026.22 3426.35 3027 3426.66 3027.51 3427.28C3028.03 3427.9 3028.18 3428.62 3027.97 3429.44C3026.53 3442.82 3021.44 3453.27 3012.69 3460.79C3003.94 3468.3 2992.04 3472.06 2977.01 3472.06C2961.16 3472.06 2948.55 3467.63 2939.18 3458.78C2929.81 3449.93 2925.13 3438.09 2925.13 3423.26V3359.02C2925.13 3344.4 2929.81 3332.56 2939.18 3323.51C2948.55 3314.45 2961.16 3309.92 2977.01 3309.92C2993.07 3309.92 3005.74 3314.45 3015 3323.51C3024.27 3332.56 3028.9 3344.4 3028.9 3359.02V3400.1ZM2977.01 3335.55C2970.43 3335.55 2965.07 3337.92 2960.95 3342.65C2956.84 3347.39 2954.78 3353.46 2954.78 3360.88V3377.24C2954.78 3378.07 2955.19 3378.48 2956.01 3378.48H2998.32C2999.15 3378.48 2999.56 3378.07 2999.56 3377.24V3360.88C2999.56 3353.46 2997.5 3347.39 2993.38 3342.65C2989.27 3337.92 2983.81 3335.55 2977.01 3335.55ZM3116.92 3330.92C3116.92 3332.98 3115.89 3334.01 3113.83 3334.01H3092.22C3091.39 3334.01 3090.98 3334.42 3090.98 3335.24V3422.03C3090.98 3430.26 3092.42 3435.98 3095.3 3439.17C3098.19 3442.36 3102.72 3443.85 3108.89 3443.65H3111.67C3113.73 3443.65 3114.76 3444.68 3114.76 3446.73V3466.5C3114.76 3468.56 3113.73 3469.59 3111.67 3469.59H3102.1C3088.92 3469.59 3078.99 3467.02 3072.29 3461.87C3065.6 3456.72 3062.26 3446.94 3062.26 3432.53V3335.24C3062.26 3334.42 3061.84 3334.01 3061.02 3334.01H3048.98C3046.92 3334.01 3045.89 3332.98 3045.89 3330.92V3315.48C3045.89 3313.42 3046.92 3312.39 3048.98 3312.39H3061.02C3061.84 3312.39 3062.26 3311.98 3062.26 3311.15V3276.25C3062.26 3274.19 3063.29 3273.16 3065.35 3273.16H3087.89C3089.95 3273.16 3090.98 3274.19 3090.98 3276.25V3311.15C3090.98 3311.98 3091.39 3312.39 3092.22 3312.39H3113.83C3115.89 3312.39 3116.92 3313.42 3116.92 3315.48V3330.92ZM3203.09 3310.23C3216.06 3310.23 3226 3314.6 3232.9 3323.35C3239.79 3332.1 3243.24 3344.51 3243.24 3360.57V3466.5C3243.24 3468.56 3242.21 3469.59 3240.15 3469.59H3216.68C3214.62 3469.59 3213.59 3468.56 3213.59 3466.5V3363.04C3213.59 3354.39 3211.74 3347.7 3208.03 3342.96C3204.33 3338.23 3199.18 3335.86 3192.59 3335.86C3185.38 3335.86 3179.83 3338.38 3175.91 3343.43C3172 3348.47 3170.05 3355.42 3170.05 3364.27V3466.5C3170.05 3468.56 3169.02 3469.59 3166.96 3469.59H3143.48C3141.43 3469.59 3140.4 3468.56 3140.4 3466.5V3256.49C3140.4 3254.43 3141.43 3253.4 3143.48 3253.4H3166.96C3169.02 3253.4 3170.05 3254.43 3170.05 3256.49V3323.51C3170.05 3323.92 3170.25 3324.17 3170.66 3324.28C3171.07 3324.38 3171.49 3324.23 3171.9 3323.81C3179.31 3314.75 3189.71 3310.23 3203.09 3310.23ZM3323.23 3472.06C3307.17 3472.06 3294.46 3467.63 3285.09 3458.78C3275.72 3449.93 3271.04 3438.09 3271.04 3423.26V3359.02C3271.04 3344.4 3275.77 3332.56 3285.25 3323.51C3294.72 3314.45 3307.38 3309.92 3323.23 3309.92C3339.3 3309.92 3352.01 3314.45 3361.38 3323.51C3370.75 3332.56 3375.43 3344.4 3375.43 3359.02V3423.26C3375.43 3438.09 3370.75 3449.93 3361.38 3458.78C3352.01 3467.63 3339.3 3472.06 3323.23 3472.06ZM3323.23 3446.12C3329.82 3446.12 3335.23 3443.8 3339.45 3439.17C3343.67 3434.54 3345.78 3428.51 3345.78 3421.1V3360.88C3345.78 3353.46 3343.67 3347.39 3339.45 3342.65C3335.23 3337.92 3329.82 3335.55 3323.23 3335.55C3316.65 3335.55 3311.24 3337.92 3307.02 3342.65C3302.8 3347.39 3300.69 3353.46 3300.69 3360.88V3421.1C3300.69 3428.51 3302.8 3434.54 3307.02 3439.17C3311.24 3443.8 3316.65 3446.12 3323.23 3446.12ZM3476.12 3256.49C3476.12 3254.43 3477.15 3253.4 3479.2 3253.4H3502.68C3504.74 3253.4 3505.77 3254.43 3505.77 3256.49V3466.5C3505.77 3468.56 3504.74 3469.59 3502.68 3469.59H3479.2C3477.15 3469.59 3476.12 3468.56 3476.12 3466.5V3459.4C3476.12 3458.99 3475.96 3458.68 3475.65 3458.47C3475.34 3458.27 3474.98 3458.37 3474.57 3458.78C3470.66 3463.31 3466.03 3466.66 3460.67 3468.82C3455.32 3470.98 3450.07 3472.06 3444.92 3472.06C3431.33 3472.06 3420.78 3467.63 3413.26 3458.78C3405.75 3449.93 3401.99 3438.09 3401.99 3423.26V3359.02C3401.99 3343.79 3405.8 3331.84 3413.42 3323.2C3421.04 3314.55 3431.54 3310.23 3444.92 3310.23C3450.28 3310.23 3455.58 3311.31 3460.83 3313.47C3466.08 3315.63 3470.66 3318.98 3474.57 3323.51C3474.98 3323.92 3475.34 3324.02 3475.65 3323.81C3475.96 3323.61 3476.12 3323.3 3476.12 3322.89V3256.49ZM3475.81 3360.88C3475.81 3353.46 3473.8 3347.39 3469.78 3342.65C3465.77 3337.92 3460.47 3335.55 3453.88 3335.55C3447.29 3335.55 3441.94 3337.92 3437.82 3342.65C3433.7 3347.39 3431.64 3353.46 3431.64 3360.88V3421.41C3431.64 3428.82 3433.7 3434.84 3437.82 3439.48C3441.94 3444.11 3447.29 3446.43 3453.88 3446.43C3460.47 3446.43 3465.77 3444.11 3469.78 3439.48C3473.8 3434.84 3475.81 3428.82 3475.81 3421.41V3360.88ZM3554.56 3289.22C3549 3289.22 3544.47 3287.37 3540.97 3283.66C3537.47 3279.96 3535.72 3275.22 3535.72 3269.46C3535.72 3263.69 3537.47 3259.01 3540.97 3255.4C3544.47 3251.8 3549 3250 3554.56 3250C3560.12 3250 3564.6 3251.8 3568 3255.4C3571.4 3259.01 3573.09 3263.69 3573.09 3269.46C3573.09 3275.43 3571.4 3280.22 3568 3283.82C3564.6 3287.42 3560.12 3289.22 3554.56 3289.22ZM3542.83 3469.59C3540.77 3469.59 3539.74 3468.56 3539.74 3466.5V3315.48C3539.74 3313.42 3540.77 3312.39 3542.83 3312.39H3566.3C3568.36 3312.39 3569.39 3313.42 3569.39 3315.48V3466.5C3569.39 3468.56 3568.36 3469.59 3566.3 3469.59H3542.83ZM3647.84 3471.44C3632.39 3471.44 3620.19 3467.69 3611.24 3460.17C3602.28 3452.65 3597.8 3442.51 3597.8 3429.75V3426.97C3597.8 3424.91 3598.83 3423.88 3600.89 3423.88H3622.82C3624.88 3423.88 3625.91 3424.7 3625.91 3426.35V3429.13C3625.91 3434.69 3628.07 3439.37 3632.39 3443.18C3636.72 3446.99 3642.07 3448.9 3648.45 3448.9C3654.63 3448.9 3659.62 3447.04 3663.43 3443.34C3667.24 3439.63 3669.15 3434.9 3669.15 3429.13C3669.15 3424.6 3667.81 3420.79 3665.13 3417.7C3662.46 3414.62 3659.32 3412.2 3655.71 3410.45C3652.11 3408.7 3646.6 3406.28 3639.19 3403.19C3631.16 3399.69 3624.52 3396.29 3619.27 3393C3614.02 3389.7 3609.33 3384.97 3605.22 3378.79C3601.1 3372.61 3599.04 3364.79 3599.04 3355.32C3599.04 3341.32 3603.41 3330.4 3612.16 3322.58C3620.92 3314.75 3632.7 3310.84 3647.53 3310.84C3662.76 3310.84 3674.76 3314.86 3683.51 3322.89C3692.26 3330.92 3696.63 3341.83 3696.63 3355.63V3356.55C3696.63 3358.61 3695.61 3359.64 3693.55 3359.64H3672.24C3671.41 3359.64 3670.69 3359.38 3670.07 3358.87C3669.46 3358.35 3669.15 3357.68 3669.15 3356.86V3354.39C3669.15 3348.83 3667.19 3344.1 3663.28 3340.18C3659.37 3336.27 3654.32 3334.31 3648.15 3334.31C3641.76 3334.31 3636.72 3336.27 3633.01 3340.18C3629.31 3344.1 3627.45 3348.83 3627.45 3354.39C3627.45 3358.71 3628.69 3362.32 3631.16 3365.2C3633.63 3368.08 3636.61 3370.4 3640.12 3372.15C3643.62 3373.9 3649.17 3376.42 3656.79 3379.72C3665.24 3383.42 3672.24 3386.97 3677.79 3390.37C3683.35 3393.77 3688.24 3398.56 3692.47 3404.73C3696.69 3410.91 3698.8 3418.63 3698.8 3427.9C3698.8 3441.28 3694.22 3451.88 3685.05 3459.71C3675.89 3467.53 3663.48 3471.44 3647.84 3471.44ZM3784.04 3330.92C3784.04 3332.98 3783.01 3334.01 3780.95 3334.01H3759.33C3758.51 3334.01 3758.1 3334.42 3758.1 3335.24V3422.03C3758.1 3430.26 3759.54 3435.98 3762.42 3439.17C3765.3 3442.36 3769.83 3443.85 3776.01 3443.65H3778.79C3780.85 3443.65 3781.88 3444.68 3781.88 3446.73V3466.5C3781.88 3468.56 3780.85 3469.59 3778.79 3469.59H3769.21C3756.04 3469.59 3746.1 3467.02 3739.41 3461.87C3732.72 3456.72 3729.37 3446.94 3729.37 3432.53V3335.24C3729.37 3334.42 3728.96 3334.01 3728.14 3334.01H3716.09C3714.03 3334.01 3713 3332.98 3713 3330.92V3315.48C3713 3313.42 3714.03 3312.39 3716.09 3312.39H3728.14C3728.96 3312.39 3729.37 3311.98 3729.37 3311.15V3276.25C3729.37 3274.19 3730.4 3273.16 3732.46 3273.16H3755.01C3757.07 3273.16 3758.1 3274.19 3758.1 3276.25V3311.15C3758.1 3311.98 3758.51 3312.39 3759.33 3312.39H3780.95C3783.01 3312.39 3784.04 3313.42 3784.04 3315.48V3330.92ZM3923.64 3472.06C3906.96 3472.06 3893.53 3466.96 3883.33 3456.77C3873.14 3446.58 3868.05 3433.04 3868.05 3416.16V3306.52C3868.05 3289.64 3873.14 3276.15 3883.33 3266.06C3893.53 3255.97 3906.96 3250.93 3923.64 3250.93C3940.52 3250.93 3954.06 3255.97 3964.25 3266.06C3974.45 3276.15 3979.54 3289.64 3979.54 3306.52V3311.46C3979.54 3313.52 3978.51 3314.55 3976.45 3314.55L3952.98 3315.78C3950.92 3315.78 3949.89 3314.75 3949.89 3312.7V3304.67C3949.89 3296.22 3947.47 3289.43 3942.63 3284.28C3937.8 3279.13 3931.46 3276.56 3923.64 3276.56C3915.82 3276.56 3909.54 3279.13 3904.8 3284.28C3900.06 3289.43 3897.7 3296.22 3897.7 3304.67V3418.32C3897.7 3426.76 3900.06 3433.56 3904.8 3438.71C3909.54 3443.85 3915.82 3446.43 3923.64 3446.43C3931.46 3446.43 3937.8 3443.85 3942.63 3438.71C3947.47 3433.56 3949.89 3426.76 3949.89 3418.32V3410.29C3949.89 3408.23 3950.92 3407.2 3952.98 3407.2L3976.45 3408.44C3978.51 3408.44 3979.54 3409.47 3979.54 3411.53V3416.16C3979.54 3433.04 3974.45 3446.58 3964.25 3456.77C3954.06 3466.96 3940.52 3472.06 3923.64 3472.06ZM4071.58 3310.23C4084.55 3310.23 4094.49 3314.6 4101.38 3323.35C4108.28 3332.1 4111.73 3344.51 4111.73 3360.57V3466.5C4111.73 3468.56 4110.7 3469.59 4108.64 3469.59H4085.17C4083.11 3469.59 4082.08 3468.56 4082.08 3466.5V3363.04C4082.08 3354.39 4080.23 3347.7 4076.52 3342.96C4072.81 3338.23 4067.67 3335.86 4061.08 3335.86C4053.87 3335.86 4048.31 3338.38 4044.4 3343.43C4040.49 3348.47 4038.53 3355.42 4038.53 3364.27V3466.5C4038.53 3468.56 4037.5 3469.59 4035.44 3469.59H4011.97C4009.91 3469.59 4008.88 3468.56 4008.88 3466.5V3256.49C4008.88 3254.43 4009.91 3253.4 4011.97 3253.4H4035.44C4037.5 3253.4 4038.53 3254.43 4038.53 3256.49V3323.51C4038.53 3323.92 4038.74 3324.17 4039.15 3324.28C4039.56 3324.38 4039.97 3324.23 4040.38 3323.81C4047.8 3314.75 4058.2 3310.23 4071.58 3310.23ZM4213.65 3315.48C4213.65 3313.42 4214.68 3312.39 4216.74 3312.39H4240.21C4242.27 3312.39 4243.3 3313.42 4243.3 3315.48V3466.5C4243.3 3468.56 4242.27 3469.59 4240.21 3469.59H4216.74C4214.68 3469.59 4213.65 3468.56 4213.65 3466.5V3457.54C4213.65 3456.93 4213.5 3456.62 4213.19 3456.62C4212.88 3456.62 4212.52 3456.82 4212.11 3457.24C4205.93 3466.91 4196.05 3471.75 4182.46 3471.75C4170.1 3471.75 4160.12 3467.99 4152.5 3460.48C4144.88 3452.96 4141.07 3441.48 4141.07 3426.04V3315.48C4141.07 3313.42 4142.1 3312.39 4144.16 3312.39H4167.63C4169.69 3312.39 4170.72 3313.42 4170.72 3315.48V3419.56C4170.72 3437.26 4177.72 3446.12 4191.72 3446.12C4198.72 3446.12 4204.13 3443.6 4207.94 3438.55C4211.75 3433.51 4213.65 3426.56 4213.65 3417.7V3315.48ZM4335.34 3310.84C4340.48 3310.84 4344.91 3311.98 4348.62 3314.24C4350.06 3315.06 4350.57 3316.4 4350.16 3318.26L4345.53 3341.73C4345.32 3343.58 4344.09 3344.2 4341.82 3343.58C4339.15 3342.55 4336.06 3342.04 4332.56 3342.04C4330.29 3342.04 4328.65 3342.14 4327.62 3342.35C4321.23 3343.17 4315.93 3346.77 4311.71 3353.15C4307.49 3359.54 4305.38 3367.26 4305.38 3376.32V3466.5C4305.38 3468.56 4304.35 3469.59 4302.29 3469.59H4278.82C4276.76 3469.59 4275.73 3468.56 4275.73 3466.5V3315.48C4275.73 3313.42 4276.76 3312.39 4278.82 3312.39H4302.29C4304.35 3312.39 4305.38 3313.42 4305.38 3315.48V3333.39C4305.38 3334.01 4305.53 3334.37 4305.84 3334.47C4306.15 3334.57 4306.41 3334.31 4306.61 3333.7C4312.59 3318.46 4322.16 3310.84 4335.34 3310.84ZM4417.18 3472.06C4401.33 3472.06 4388.72 3467.63 4379.35 3458.78C4369.98 3449.93 4365.3 3437.98 4365.3 3422.95V3359.02C4365.3 3344.4 4369.98 3332.56 4379.35 3323.51C4388.72 3314.45 4401.33 3309.92 4417.18 3309.92C4427.68 3309.92 4436.9 3311.92 4444.82 3315.94C4452.75 3319.95 4458.83 3325.41 4463.05 3332.31C4467.27 3339.21 4469.38 3346.98 4469.38 3355.63V3359.64C4469.38 3361.7 4468.35 3362.73 4466.29 3362.73L4442.82 3363.66C4440.76 3363.66 4439.73 3362.63 4439.73 3360.57V3357.48C4439.73 3351.51 4437.57 3346.36 4433.24 3342.04C4428.92 3337.71 4423.57 3335.55 4417.18 3335.55C4410.59 3335.55 4405.24 3337.92 4401.12 3342.65C4397 3347.39 4394.95 3353.46 4394.95 3360.88V3421.1C4394.95 3428.51 4397 3434.59 4401.12 3439.32C4405.24 3444.06 4410.59 3446.43 4417.18 3446.43C4423.57 3446.43 4428.92 3444.26 4433.24 3439.94C4437.57 3435.62 4439.73 3430.47 4439.73 3424.5V3421.41C4439.73 3419.35 4440.76 3418.32 4442.82 3418.32L4466.29 3418.63C4468.35 3418.63 4469.38 3419.66 4469.38 3421.72V3426.35C4469.38 3439.73 4464.64 3450.7 4455.17 3459.24C4445.7 3467.79 4433.04 3472.06 4417.18 3472.06ZM4558.33 3310.23C4571.3 3310.23 4581.23 3314.6 4588.13 3323.35C4595.03 3332.1 4598.48 3344.51 4598.48 3360.57V3466.5C4598.48 3468.56 4597.45 3469.59 4595.39 3469.59H4571.92C4569.86 3469.59 4568.83 3468.56 4568.83 3466.5V3363.04C4568.83 3354.39 4566.97 3347.7 4563.27 3342.96C4559.56 3338.23 4554.41 3335.86 4547.83 3335.86C4540.62 3335.86 4535.06 3338.38 4531.15 3343.43C4527.24 3348.47 4525.28 3355.42 4525.28 3364.27V3466.5C4525.28 3468.56 4524.25 3469.59 4522.19 3469.59H4498.72C4496.66 3469.59 4495.63 3468.56 4495.63 3466.5V3256.49C4495.63 3254.43 4496.66 3253.4 4498.72 3253.4H4522.19C4524.25 3253.4 4525.28 3254.43 4525.28 3256.49V3323.51C4525.28 3323.92 4525.49 3324.17 4525.9 3324.28C4526.31 3324.38 4526.72 3324.23 4527.13 3323.81C4534.55 3314.75 4544.94 3310.23 4558.33 3310.23Z" fill="white"/>
</g>
<defs>
<clipPath id="clip0_392_43">
<rect width="5000" height="3865.98" fill="white"/>
</clipPath>
</defs>
</svg>
