<svg width="133" height="133" viewBox="0 0 133 133" fill="none" xmlns="http://www.w3.org/2000/svg">
<g style="mix-blend-mode:lighten" opacity="0.3" clip-path="url(#clip0_206_177)">
<path d="M23.0537 84.8337L49.975 10.4928L119.897 43.0978L80.2498 111.491L47.9143 106.077L23.0537 84.8337Z" fill="#1572B6"/>
<path d="M50.7857 100.031L76.9162 104.406L110.797 45.9609L82.2139 32.6325L50.7857 100.031Z" fill="#33A9DC"/>
<path d="M70.1561 58.4906L81.7398 63.8922L86.7185 55.3007L74.336 49.5267L78.4183 40.7723L100.368 51.0076L99.0635 53.2578L85.6643 76.3802L66.0739 67.245L70.1561 58.4906V58.4906Z" fill="white"/>
<path d="M59.6088 81.2499L59.5639 81.2427L51.0437 74.063L53.6761 66.791L44.8877 62.6929L39.7048 77.0095L55.3137 90.3498L55.3615 90.3583L59.6088 81.2499V81.2499Z" fill="#EBEBEB"/>
<path d="M77.0857 71.9282L70.5659 83.1594L59.575 81.241L55.3277 90.3494L75.5917 93.7439L76.4142 92.3275L85.8684 76.0236L77.0857 71.9282V71.9282Z" fill="white"/>
<path d="M78.4495 40.7868L74.3672 49.5412L53.2219 39.681L53.9642 37.6307L55.6344 33.0064L56.5197 30.5608L78.4495 40.7868V40.7868Z" fill="#EBEBEB"/>
<path d="M70.1561 58.4906L66.0739 67.245L56.4472 62.756L57.1895 60.7057L58.8625 56.0828L59.7477 53.6371L70.1561 58.4906V58.4906Z" fill="#EBEBEB"/>
</g>
<defs>
<clipPath id="clip0_206_177">
<rect width="100" height="100" fill="white" transform="translate(42.2618) rotate(25)"/>
</clipPath>
</defs>
</svg>
