<svg width="129" height="129" viewBox="0 0 129 129" fill="none" xmlns="http://www.w3.org/2000/svg">
<g style="mix-blend-mode:lighten" opacity="0.3" clip-path="url(#clip0_206_169)">
<path d="M46.4042 107.771L12.8707 36.1686L85.3738 9.77959L105.698 86.1764L79.005 105.213L46.4042 107.771Z" fill="#E44F26"/>
<path d="M76.7596 98.9071L98.3303 83.5237L80.9606 18.2398L51.3251 29.0263L76.7596 98.9071Z" fill="#F1662A"/>
<path d="M61.3142 56.4712L49.3038 60.8426L45.0929 51.8499L57.9314 47.1771L54.6277 38.1002L31.8695 46.3835L32.9739 48.7417L44.3059 72.941L64.6179 65.548L61.3142 56.4712Z" fill="#EBEBEB"/>
<path d="M69.8936 80.0428L69.8567 80.0695L58.7562 81.0203L55.4756 74.0169L46.3635 77.3334L52.8209 91.1187L73.294 89.5134L73.3309 89.4867L69.8936 80.0428Z" fill="#EBEBEB"/>
<path d="M61.2819 56.483L64.5856 65.5598L75.7621 61.4919L78.9957 73.6471L69.8645 80.0634L73.3018 89.5073L90.0327 77.5747L89.6099 75.9927L83.0449 51.3221L82.3809 48.8036L61.2819 56.483Z" fill="white"/>
<path d="M54.5954 38.112L57.8991 47.1888L79.8233 39.2091L79.2636 37.1048L78.0029 32.3526L77.333 29.8362L54.5954 38.112Z" fill="white"/>
</g>
<defs>
<clipPath id="clip0_206_169">
<rect width="100" height="100" fill="white" transform="translate(0 34.202) rotate(-20)"/>
</clipPath>
</defs>
</svg>
