<svg width="142" height="142" viewBox="0 0 142 142" fill="none" xmlns="http://www.w3.org/2000/svg">
<g style="mix-blend-mode:lighten" opacity="0.3" clip-path="url(#clip0_206_185)">
<path d="M70.7107 0L141.421 70.7107L70.7107 141.421L1.64509e-05 70.7107L70.7107 0Z" fill="#F7DF1E"/>
<path d="M30.2123 77.6834L38.8981 79.8197C38.0912 82.7146 37.4747 85.2304 39.7527 87.5083C41.9361 89.6918 44.1671 90.2147 47.4894 86.8924L70.0831 64.2987L76.728 70.9435L54.0404 93.6312C47.158 100.514 39.9908 99.612 34.1047 93.7259C28.7889 88.4102 28.4564 82.5716 30.2125 77.6826" fill="black"/>
<path d="M54.4216 100.469L62.9646 102.746C62.063 106.497 62.2055 110.057 65.4803 113.332C68.2339 116.085 71.3662 116.464 73.2648 114.565C75.5431 112.287 74.5465 109.676 72.8373 105.31L71.889 102.937C69.1352 96.1019 68.5184 90.3586 73.9294 84.9476C78.9134 79.9636 86.5079 79.9633 92.4412 85.8966C96.6657 90.121 98.2318 94.6305 96.5704 100.658L88.0735 98.8071C88.975 95.6268 88.5483 93.5864 86.6496 91.6877C84.7034 89.7415 82.2352 89.7415 80.6215 91.3552C78.6281 93.3486 79.0548 95.3901 80.6685 99.472L81.6178 101.845C84.8454 109.914 85.5574 115.563 80.0045 121.116C74.0233 127.097 66.0496 125.672 59.7367 119.36C53.5664 113.189 52.522 106.259 54.421 100.469" fill="black"/>
</g>
<defs>
<clipPath id="clip0_206_185">
<rect width="100" height="100" fill="white" transform="translate(70.7107) rotate(45)"/>
</clipPath>
</defs>
</svg>
