<svg width="116" height="117" viewBox="0 0 116 117" fill="none" xmlns="http://www.w3.org/2000/svg">
<g style="mix-blend-mode:lighten" opacity="0.3" clip-path="url(#clip0_207_195)">
<path d="M86.5906 35.1844C85.4714 34.9655 84.3486 34.7778 83.2232 34.6216C83.2574 33.7694 83.2791 32.9296 83.2848 32.1073C83.3781 18.6049 79.9515 8.34446 73.9818 5.81992C68.2583 3.39984 60.4684 8.34922 53.4457 18.1371C52.7538 19.1032 52.0847 20.0897 51.4389 21.0955C50.803 20.6145 50.1597 20.1463 49.5092 19.6912C39.0534 12.3934 29.4812 10.2284 24.7426 14.6513C20.1983 18.8926 20.4252 29.0661 24.7711 41.0808C25.2025 42.2705 25.6605 43.4491 26.1447 44.6153C24.954 45.2403 23.8121 45.8834 22.7274 46.545C13.0213 52.4651 7.49116 60.0356 8.66108 66.6705C9.86938 73.5231 18.2291 79.1362 29.8229 81.3892C30.7625 81.5704 31.7052 81.7257 32.65 81.8549C32.5901 83.2134 32.5643 84.5751 32.5728 85.9382C32.6611 98.4819 35.9747 107.87 41.6778 110.282C47.5682 112.774 55.8211 107.69 62.9655 97.686C63.5446 96.8729 64.1047 96.0431 64.6454 95.1972C65.6751 95.9815 66.7231 96.7344 67.7882 97.4551C77.5835 104.066 86.4248 105.874 90.9523 101.648C95.6286 97.2834 95.5134 86.591 91.0558 74.3434C90.7056 73.3841 90.335 72.4334 89.9443 71.4923C90.5308 71.1751 91.1048 70.8538 91.6619 70.5267C102.21 64.3365 108.358 56.2513 107.134 49.3071C105.96 42.648 97.9509 37.4203 86.5906 35.1844V35.1844ZM89.5485 66.2765C89.0452 66.5714 88.5269 66.8619 87.9969 67.1491C85.9694 62.9385 83.4571 58.5244 80.5405 54.0198C81.6668 48.9223 82.4639 43.9865 82.8991 39.3715C83.9642 39.5213 85.0025 39.6941 86.0091 39.892C95.7429 41.8081 102.219 46.0358 102.927 50.0489C103.681 54.3233 98.6562 60.9308 89.5485 66.2765V66.2765ZM87.091 75.9885C89.062 81.4039 90.0935 86.4328 90.1373 90.4988C90.1771 94.1522 89.415 96.7267 88.1236 97.932C85.3762 100.496 78.2774 99.0447 69.9005 93.3906C68.91 92.7206 67.9352 92.0207 66.9774 91.2917C69.1515 87.3949 71.2261 82.9447 73.1567 78.0678C77.8336 76.7541 82.1943 75.1854 86.0861 73.4075C86.4474 74.2822 86.7832 75.1431 87.091 75.9885V75.9885ZM49.9132 104.31C47.0933 106.047 44.6845 106.507 43.0581 105.82C39.5973 104.356 36.9367 96.8177 36.8613 86.0906C36.8536 84.8228 36.8775 83.5564 36.9329 82.2928C41.1432 82.5837 45.7349 82.5169 50.5832 82.11C54.0673 85.9346 57.618 89.3885 61.1043 92.3465C60.6103 93.1182 60.0989 93.8754 59.5704 94.6175C56.4108 99.0413 53.0515 102.377 49.9132 104.31V104.31ZM30.3957 76.6796C25.269 75.6832 20.8812 73.9873 17.7024 71.8529C14.8457 69.9352 13.2017 67.8206 12.8681 65.9287C12.1581 61.9022 16.5982 55.824 24.8987 50.7614C25.9061 50.1473 26.9681 49.5481 28.0771 48.966C30.1032 53.2494 32.5493 57.6703 35.339 62.085C34.2144 67.2624 33.4181 72.3325 32.9767 77.1058C32.1142 76.9872 31.2536 76.8451 30.3957 76.6796V76.6796ZM28.7396 39.4453C25.0164 29.1517 24.8328 20.9239 27.5714 18.3679C30.488 15.6455 38.311 17.4144 47.3391 23.7161C47.928 24.1281 48.5106 24.5518 49.0865 24.9868C46.8337 28.9411 44.6994 33.3671 42.7533 38.1229C38.2071 39.4216 33.9103 40.9773 30.0174 42.733C29.5672 41.6483 29.1411 40.5522 28.7397 39.4458L28.7396 39.4453ZM73.2931 43.7335C72.0011 42.036 70.6776 40.3682 69.3234 38.7315C72.544 38.6237 75.6587 38.685 78.6132 38.9105C78.3033 42.1148 77.8085 45.4946 77.1407 48.9882C75.8887 47.2096 74.6059 45.4577 73.2931 43.7335V43.7335ZM52.6306 27.8428C54.9871 29.8612 57.395 32.1538 59.8106 34.6761C55.8969 35.1542 52.013 35.8382 48.1715 36.7257C49.5852 33.5553 51.081 30.578 52.6306 27.8428ZM38.5437 49.8941C37.9093 51.9459 37.3186 54.0159 36.772 56.1022C34.972 53.0558 33.3582 50.0327 31.9561 47.0858C34.6412 45.8846 37.5355 44.7792 40.5802 43.7908C39.8579 45.8051 39.1789 47.84 38.5436 49.8937L38.5437 49.8941ZM46.6295 77.5737C43.3328 77.7382 40.1952 77.7271 37.2653 77.5356C37.5787 74.2292 38.0723 70.7641 38.736 67.2111C39.967 68.9855 41.2341 70.7291 42.5363 72.4403C43.8753 74.1994 45.2427 75.9126 46.6295 77.5737ZM63.4336 88.4303C61.0136 86.3666 58.5537 84.0448 56.1048 81.5132C58.005 81.2637 59.9346 80.9671 61.8883 80.6226C63.8955 80.2687 65.8706 79.8683 67.8063 79.4263C66.4047 82.6903 64.9406 85.708 63.4336 88.4303ZM79.1086 59.9169C81.0189 63.0538 82.7029 66.1172 84.1303 69.061C81.4043 70.2961 78.4256 71.4288 75.2547 72.439C75.9688 70.4028 76.6459 68.3492 77.2856 66.2796C77.9361 64.176 78.5439 62.0545 79.1086 59.9169V59.9169ZM73.2256 64.5621C72.247 67.7347 71.1748 70.867 70.0108 73.9538C67.0516 74.7217 64.0646 75.3706 61.0555 75.8994C57.9909 76.4398 54.9913 76.8582 52.0841 77.1553C49.8924 74.6668 47.7826 72.0905 45.7594 69.4318L45.7598 69.4318C43.7464 66.7873 41.8208 64.0625 39.9872 61.2631C40.7493 58.0054 41.6223 54.7856 42.6044 51.6107L42.6041 51.6112C43.5854 48.4356 44.6761 45.3076 45.8738 42.2339C48.7583 41.4687 51.7385 40.8096 54.7735 40.2745L54.7739 40.2744C57.8227 39.7368 60.8526 39.3375 63.8244 39.0718C65.9834 41.5494 68.0663 44.1077 70.0692 46.7421C72.0817 49.3824 74.0192 52.0916 75.8786 54.8655C75.0991 58.1364 74.2142 61.3706 73.2256 64.5621V64.5621ZM72.6024 10.2825C76.2762 11.8366 79.0771 20.2219 78.9966 31.8801C78.9913 32.6239 78.9722 33.3839 78.9419 34.1567C74.6693 33.818 70.0942 33.8128 65.3631 34.1424C61.8945 30.2928 58.3971 26.8536 54.9821 23.9445C55.579 23.016 56.197 22.1052 56.8357 21.2127C62.8531 12.8268 69.1532 8.82377 72.6024 10.2825V10.2825ZM56.1563 48.1148C61.0127 47.2585 65.7291 50.9852 66.6907 56.4383C67.6522 61.8915 64.4948 67.0065 59.6384 67.8628C54.7821 68.7191 50.0656 64.9925 49.1041 59.5393C48.1426 54.0862 51.3 48.9711 56.1563 48.1148V48.1148Z" fill="#00D8FF"/>
</g>
<defs>
<clipPath id="clip0_207_195">
<rect width="100" height="100" fill="white" transform="translate(0 17.5742) rotate(-10)"/>
</clipPath>
</defs>
</svg>
