<svg width="100" height="120" viewBox="0 0 100 120" fill="none" xmlns="http://www.w3.org/2000/svg">
<g style="mix-blend-mode:lighten" opacity="0.3" clip-path="url(#clip0_206_189)">
<path d="M21.7141 27.5166C21.7141 27.5166 21.5291 28.114 22.0377 28.7887C22.3479 29.2059 23.0623 29.6184 23.8418 30.048C23.8418 30.048 32.0412 34.6493 33.084 35.3534C37.8001 38.5457 40.4624 42.2193 42.1203 47.8271C43.1794 51.4256 43.3373 54.7997 42.6321 58.9616C41.3677 66.4136 36.914 75.4535 29.1938 86.2443L30.5133 85.3731C31.2645 84.4256 32.3317 83.3373 34.8871 80.8969C40.772 75.2824 47.5819 69.7394 56.1346 63.6172C68.4374 54.8121 89.3229 42.7497 101.604 37.3581L102.881 36.7959L102.594 36.5279C100.931 35.0236 99.8335 34.1142 98.5484 33.1818C94.8125 30.4601 90.6525 28.538 85.8625 27.3238C79.2799 25.6497 71.1868 25.1481 61.2968 25.7965C58.2182 26.0307 55.1436 26.3153 52.0743 26.6501C46.5853 27.2542 41.0907 27.8062 35.5912 28.306C33.7999 28.4624 31.1299 28.7206 29.3373 28.8084C27.9563 28.8809 26.5724 28.8802 25.1914 28.8064C23.9995 28.6728 22.3722 28.6688 21.7141 27.5166V27.5166ZM26.4615 30.1656C26.4714 30.1543 26.7334 30.1661 27.0581 30.1869C27.6551 30.2254 28.4378 30.2486 29.3466 30.2596C29.9773 30.2631 30.6728 30.2666 31.4114 30.2542C32.3492 30.2445 33.1294 30.2425 33.1407 30.2524C33.2664 30.3352 36.0063 34.6523 36.9936 36.3246C37.3722 36.9651 37.6713 37.5018 37.6625 37.5171C37.4755 37.3801 37.3034 37.2238 37.1493 37.0507C34.6383 34.5055 31.1112 32.1765 27.3251 30.5554C27.0326 30.4361 26.7445 30.306 26.4615 30.1656V30.1656ZM34.1984 30.2235C34.4699 30.1778 34.7446 30.1533 35.0199 30.15C37.6578 30.0298 42.3399 29.6984 45.3269 29.4157C45.8274 29.3678 46.2393 29.3437 46.2469 29.3719C46.1583 29.5078 46.0476 29.6279 45.9193 29.7271C45.5051 30.0969 43.8728 31.7809 43.3413 32.3892C42.1216 33.7579 41.0304 35.2358 40.0813 36.8043C39.8944 37.1376 39.6991 37.4661 39.4955 37.7895C39.3783 37.6287 39.2737 37.4591 39.1827 37.2823C37.8424 35.014 36.3262 32.8544 34.6481 30.8233C34.4839 30.6353 34.3292 30.4393 34.1845 30.2358C34.1834 30.2318 34.1823 30.2278 34.1984 30.2235V30.2235ZM47.509 29.2365C47.597 29.2431 47.8907 29.695 48.4639 30.7233C49.8021 33.1518 50.7305 35.7844 51.2117 38.5151L51.2043 38.681L50.387 38.6412C48.1273 38.5467 45.866 38.4911 43.6044 38.4743C42.7912 38.4835 41.978 38.4567 41.1672 38.394C41.1435 38.3055 42.4664 36.0142 43.0587 35.1178C44.1923 33.4079 47.3563 29.2299 47.509 29.2365V29.2365ZM48.554 29.1117C48.5875 29.0596 54.8746 28.4879 57.7435 28.28C59.8846 28.1247 62.9916 27.9522 63.1892 27.9812C63.2864 27.9897 63.0258 28.2407 62.1664 28.9454C58.7686 31.7194 56.3215 34.0488 53.9821 36.716C53.3672 37.4156 52.8534 37.9933 52.8413 37.9965C52.8252 38.0008 52.705 37.5844 52.5691 37.0773C51.825 34.3003 50.5139 31.645 48.8645 29.5462C48.7477 29.4114 48.6438 29.2659 48.554 29.1117ZM64.9132 28.0239C64.9693 28.0564 65.0903 29.2965 65.1089 30.0421C65.1599 32.3577 64.6183 35.971 63.6939 39.4756C63.6032 39.8672 63.4874 40.2527 63.3474 40.6296C63.0066 40.5818 62.6703 40.506 62.342 40.4029C60.3772 39.8639 58.2021 39.4416 55.8552 39.1344C55.4372 39.0871 55.0208 39.026 54.6069 38.9513C54.4866 38.8886 58.3498 34.519 60.441 32.3583C62.1129 30.6292 64.8418 27.9827 64.9132 28.0239V28.0239ZM66.0704 27.8994C66.2032 27.8638 69.0617 27.8743 70.5492 27.92C74.2572 28.0264 78.6047 28.4101 81.4852 28.8893L82.6811 29.0865L81.9749 29.4612C76.0806 32.5935 71.1369 35.6997 66.5171 39.1936C66.1339 39.4861 65.7984 39.7312 65.7703 39.7388C65.774 39.4607 65.8084 39.1839 65.8726 38.9133C66.5467 35.1826 66.6211 31.4357 66.0922 28.4155C66.0441 28.1393 66.0342 27.9091 66.0704 27.8994V27.8994ZM41.2185 41.0806C41.2479 41.0296 43.4036 40.961 44.5935 40.9743C46.3808 40.9958 50.2355 41.2312 50.2603 41.3237C50.2646 41.3398 49.9659 41.7865 49.5978 42.3122C48.0056 44.5908 46.4978 46.9272 45.0774 49.3167C44.7865 49.8219 44.4755 50.3154 44.1452 50.7959C44.117 50.8034 44.0801 50.7141 44.0671 50.6011C43.7423 48.0525 42.8243 44.9166 41.5009 41.8289C41.3876 41.5886 41.2922 41.3402 41.2155 41.0858L41.2185 41.0806ZM83.9312 29.6789C83.968 29.7036 83.4046 31.4808 83.0328 32.5079C82.486 34.0089 81.6545 36.0089 79.723 40.4562L77.1797 46.3226C76.9509 46.8715 76.7097 47.4151 76.4562 47.953C76.4441 47.9562 76.1838 47.7412 75.8842 47.4764C73.5813 45.4623 70.9981 43.7933 68.2155 42.5216C67.7785 42.3182 67.3378 42.1228 66.8937 41.9354C66.7656 41.8916 66.6429 41.8333 66.528 41.7616C66.5172 41.7214 68.7157 39.9935 70.4043 38.7128C73.6812 36.2526 77.0549 33.924 80.5172 31.7325C82.1506 30.7125 83.8966 29.6623 83.9312 29.6789V29.6789ZM85.1288 29.6729C85.4487 29.6935 85.7647 29.7537 86.0698 29.8522C90.1632 30.9344 94.1063 32.5207 97.8088 34.5748C98.7944 35.1303 101.23 36.6044 101.206 36.628L99.7762 37.1362C93.7425 39.249 86.2207 42.6664 79.1267 46.5213C78.6439 46.7801 78.2292 47.0034 78.197 47.012C78.1688 47.0196 78.5813 46.3051 79.1122 45.4209C82.4212 39.9489 83.726 36.7048 84.8226 31.2346C84.9848 30.4233 85.1195 29.7186 85.1219 29.6791L85.1299 29.677L85.1288 29.6729ZM53.4722 41.7356C53.6882 41.7209 55.8252 42.0973 57.4499 42.4298C58.9337 42.7353 61.2015 43.2622 61.3269 43.3278C61.3422 43.3366 60.743 43.8854 59.9902 44.553C57.7543 46.5246 55.6055 48.5928 53.5501 50.7519C52.9612 51.3712 52.4714 51.8777 52.4513 51.8831C52.3909 51.8993 52.397 51.8416 52.5995 51.0195C53.2793 48.1204 53.5524 45.1407 53.4107 42.1662C53.4002 41.9016 53.4236 41.7314 53.4711 41.7316L53.4722 41.7356ZM51.6511 42.586C51.7021 42.6154 51.6964 44.5581 51.6413 45.6081C51.4718 48.3773 50.9987 51.1194 50.2304 53.7853L50.0267 54.4739L48.9973 53.9C47.9852 53.3028 46.8849 52.8696 45.7374 52.6167C45.4578 52.5708 45.1837 52.4969 44.919 52.3959C44.8867 52.2752 46.7748 49.3407 48.2619 47.1952C49.3296 45.6581 51.6092 42.5584 51.6511 42.586V42.586ZM64.5555 44.2528L65.3919 44.5248C67.3147 45.1484 69.6334 46.0584 71.4394 46.8902C72.4539 47.3603 74.4458 48.3708 74.8686 48.6285L75.0964 48.7703L74.0016 49.4173C68.3936 52.6886 62.9304 56.2019 57.6273 59.9474C57.2462 60.2241 56.857 60.4895 56.4602 60.7433C56.3757 60.7659 56.3117 60.865 57.4489 59.0721C60.3604 54.483 62.72 49.6536 64.2474 45.1636L64.5555 44.2528ZM61.7057 45.836C61.7516 45.8626 60.4912 49.2241 59.7229 51.1382C58.8002 53.4258 57.1027 57.2971 55.9033 59.84C55.6016 60.5065 55.28 61.1637 54.9389 61.8109C54.9019 61.8338 54.8246 61.6259 54.7311 61.2929C54.2566 59.522 53.2989 57.7512 52.0809 56.3607C51.5657 55.7741 51.4662 55.6282 51.5173 55.5455C51.7242 55.2226 55.335 51.6497 57.6344 49.4936C59.2165 48.0085 61.6638 45.8084 61.7057 45.836ZM44.4456 55.3137C45.7653 55.5607 47.0502 55.9667 48.2722 56.5228C48.3098 56.5343 48.0116 56.9507 47.6125 57.4416C46.4925 58.8158 44.8056 60.9717 43.8471 62.2724C42.8341 63.6438 42.7985 63.6879 42.883 63.4237C43.4531 61.6878 43.7129 60.7253 43.9331 59.5188C44.1334 58.4471 44.2782 57.2005 44.337 56.1322C44.334 55.855 44.3719 55.5788 44.4496 55.3127L44.4456 55.3137ZM50.403 57.8585C50.4682 57.8281 50.5942 57.9281 51.1512 58.413C52.3186 59.4374 53.4028 60.9241 53.9302 62.2322L54.0411 62.5173L52.2479 63.8261C49.4918 65.8304 46.7888 67.9067 44.1417 70.0529C43.5955 70.5099 42.6369 71.3275 42.0136 71.8828C41.3902 72.438 40.8781 72.8772 40.8738 72.8611C40.8695 72.845 41.2286 72.3821 41.6772 71.8348C45.2001 67.4831 48.0435 62.9942 49.9562 58.7504C50.1588 58.2993 50.3502 57.9029 50.38 57.869C50.3863 57.8628 50.3937 57.8578 50.402 57.8545L50.403 57.8585ZM48.2841 59.0302C48.3596 59.0704 47.1921 61.4106 46.3737 62.8636C44.4008 66.3906 42.0118 69.668 39.2577 72.6255C38.8975 73.0197 38.5689 73.3709 38.5211 73.4181C38.4437 73.4993 38.5296 73.321 39.6066 71.2552C40.2852 69.9561 40.7858 68.8945 41.3329 67.5876C41.5691 66.9257 41.9379 66.3191 42.4167 65.8046C44.1595 63.664 48.2116 58.9849 48.283 59.0262L48.2841 59.0302ZM39.9451 11.8259C39.6123 11.8719 34.9179 15.1356 31.9438 17.3819C27.9169 20.4323 24.8746 23.1325 23.117 25.234C22.463 26.0132 21.7216 27.3032 21.6813 27.7324C21.6668 27.9065 21.6831 28.0817 21.7295 28.2501L24.1896 29.5752L29.2492 29.8155L40.886 28.8284L54.1604 27.6095L53.998 26.4883L53.8799 26.4984L52.1385 26.6803L51.6368 26.1763C49.0965 23.5954 46.679 20.8964 44.3924 18.0882C43.0432 16.3938 41.803 14.6154 40.6795 12.7636C40.1437 11.8589 40.0994 11.8061 39.9451 11.8259ZM39.9002 12.6403L39.9203 12.6349C39.9356 12.6437 40.1019 13.0391 40.2917 13.5059C41.0891 15.4836 42.0785 17.3408 43.3664 19.2819C44.3371 20.7473 44.3203 20.6526 43.6279 20.644C42.0276 20.6285 35.0313 21.2738 30.0135 21.8979C29.5167 21.9653 29.0186 22.0226 28.5195 22.0696C28.443 22.0254 31.4945 19.2148 32.8708 18.0567C34.637 16.5826 39.5222 12.8235 39.9002 12.6403V12.6403ZM27.5613 22.9691L28.1806 23.0102C31.5702 23.2321 39.753 22.6356 44.1502 21.837C44.644 21.7478 45.0664 21.6821 45.0817 21.6909C45.097 21.6998 44.7418 22.0322 44.2956 22.4278C42.5011 24.0216 40.5548 25.9019 39.2384 27.3158C38.8532 27.7296 38.4932 28.0762 38.4317 28.0884C38.1944 28.1175 37.9566 28.1424 37.7184 28.163L37.114 28.2258L35.2622 27.1906C32.0137 25.3866 29.4838 23.9939 28.5089 23.4787L27.5613 22.9691ZM27.1087 23.5821L29.8534 25.5988C31.3658 26.7033 32.8771 27.8038 33.2075 28.0388C33.542 28.2727 33.8031 28.4745 33.7932 28.4858C33.7487 28.5452 30.6747 28.7606 29.0292 28.8176C27.8766 28.878 26.7218 28.8823 25.5688 28.8303L24.6948 28.7884L24.646 28.5901C24.3939 27.6009 25.2471 25.8107 26.9581 23.7605L27.1087 23.5821ZM45.5613 22.3863C45.6228 22.3742 45.7246 22.4806 46.0125 22.8305C46.8049 23.7915 49.1521 26.3374 49.6796 26.8086C49.851 26.9654 50.0555 26.9236 47.9013 27.1428C42.7374 27.6723 41.0593 27.8329 41.0507 27.8007C41.128 27.6862 41.2209 27.583 41.3265 27.4939C42.6682 26.1847 43.883 24.7514 44.9547 23.2132L45.5005 22.4328C45.5192 22.4062 45.5401 22.3877 45.5613 22.3863V22.3863ZM71.971 51.579L54.3113 63.0748L39.4788 75.0121L35.1042 77.5215C33.2412 80.5492 31.2577 83.5012 29.1585 86.3702C28.0765 87.8927 27.1338 89.5096 26.3421 91.2013C25.4524 93.2255 24.8804 95.2768 24.7953 96.7619C24.6481 99.4327 25.705 101.815 27.8813 103.691C30.6586 106.087 35.4209 108.003 40.5727 108.797C43.2032 109.196 47.5256 109.47 50.7044 109.421C56.0034 109.347 65.9506 108.139 71.285 106.926C72.3663 106.679 73.791 106.297 73.8465 106.231C73.9387 106.124 74.3475 104.35 74.7783 102.142C76.2472 94.6482 76.9285 87.8053 76.7709 82.1622C76.674 78.7415 76.1222 74.2997 75.1476 69.117C74.5717 66.4923 73.8975 63.8901 73.1263 61.316C72.4092 59.0409 71.5487 56.8135 70.55 54.6472C70.4462 54.464 70.3751 54.2641 70.34 54.0564C70.3855 54.0011 70.5505 53.8922 72.7436 52.5626L71.971 51.579ZM68.2394 55.3612C68.4206 55.3127 70.0847 59.6722 70.9709 62.4802C71.1579 63.0814 71.2574 63.4689 71.2211 63.4786C71.1084 63.5088 68.3739 62.7533 66.4141 62.1525C64.563 61.5793 62.726 60.9611 60.9049 60.2986C60.7339 60.2236 60.7489 60.2153 61.8342 59.4845C63.679 58.2396 68.0905 55.4011 68.2435 55.3601L68.2394 55.3612ZM59.253 61.233C59.3737 61.2006 59.7665 61.2981 60.7062 61.5855C64.2316 62.6683 68.93 63.8466 70.8816 64.1433C71.4937 64.2381 71.5282 64.1253 70.504 65.3099C68.325 67.8349 65.4853 70.5025 61.9016 73.4039C61.516 73.7226 61.1229 74.0322 60.7226 74.3323C60.679 74.0508 60.6647 73.7655 60.6799 73.481C60.69 69.5744 60.2587 65.743 59.4832 62.7846C59.1009 61.3255 59.0987 61.3175 59.2299 61.2435L59.254 61.237L59.253 61.233ZM57.4327 62.5533C57.5409 62.6192 58.3562 65.9034 58.491 66.8249C58.8585 69.4225 58.9586 72.051 58.7897 74.6691C58.7517 74.7526 56.2284 73.3366 55.3572 72.7418C53.9862 71.831 52.7299 70.7585 51.6154 69.5472C51.1107 68.9836 50.2322 67.83 50.2708 67.7809C50.453 67.5595 57.3623 62.516 57.4327 62.5533ZM48.8834 68.8816C48.8995 68.8773 48.9167 68.877 48.928 68.8869C49.0626 69.0324 49.1852 69.1885 49.2946 69.3538C50.3296 70.7328 51.535 71.9752 52.8822 73.0512C54.4969 74.31 56.2544 75.3738 58.1184 76.2207C58.2325 76.2764 58.2564 76.2527 56.1153 77.7927C53.3733 79.7601 50.5825 81.6586 47.7454 83.4863C46.5437 84.2655 45.5248 84.9225 45.4859 84.9545C45.365 85.0343 45.3837 84.943 45.6093 84.2398C46.6097 81.0989 47.8034 75.154 48.266 71.0529C48.343 70.3421 48.4119 69.6334 48.4174 69.4767C48.4217 69.2512 48.4667 69.1615 48.6401 69.0201C48.7096 68.956 48.7928 68.9087 48.8834 68.8816V68.8816ZM46.277 70.8741C46.3269 70.8995 46.0059 72.6636 45.6541 74.2806C44.906 77.6996 44.0096 81.0846 42.9675 84.4258L42.5455 85.7811C42.5022 85.9092 42.4603 85.8816 42.1141 85.4913C41.3002 84.5584 40.6158 83.5201 40.0792 82.4044C39.4843 81.012 39.1171 79.5331 38.9918 78.0241C38.9361 77.0598 38.9335 77.0821 39.3059 76.7494C40.9097 75.2973 46.2026 70.838 46.277 70.8741V70.8741ZM71.7787 65.1409L71.9448 65.7607C72.9842 69.8058 73.7197 73.9229 74.1451 78.0776C71.2859 78.0228 68.4414 77.6537 65.6629 76.9771C64.029 76.5781 61.6348 75.8694 61.679 75.7929C61.6868 75.7735 62.2093 75.2927 62.8324 74.7203C65.307 72.4612 67.6164 70.1169 69.576 67.8836C70.3099 67.0486 71.3902 65.7195 71.618 65.3781L71.7787 65.1409ZM36.6653 79.1781C36.7257 79.1619 36.7398 79.2789 36.7907 79.839C36.8503 80.3807 36.9356 80.9192 37.0462 81.4528C37.4992 83.6263 38.2721 85.1102 39.9086 86.9838C40.3682 87.5077 40.7354 87.9442 40.7254 87.9555C40.6416 88.0772 31.7284 93.4979 28.9089 95.1463L27.2876 96.0984C27.1876 96.1597 27.1731 96.1377 27.1424 95.8785C26.9017 93.6438 27.7859 90.3917 29.4378 87.4126C30.5386 85.4353 31.5038 84.1759 33.2606 82.4413C34.3754 81.3328 35.5105 80.2448 36.6653 79.1781V79.1781ZM60.5759 77.1496C60.5818 77.1394 60.9907 77.2326 61.4842 77.3678C65.0955 78.337 69.9083 78.8634 73.8506 78.7173L74.2103 78.7072L73.8154 79.0847C72.1645 80.6832 66.4821 85.0571 60.6057 89.2544C59.9854 89.6966 59.3669 90.1412 58.7502 90.5884C58.6595 90.6676 58.5582 90.7339 58.4493 90.7855C58.445 90.7694 58.5766 90.1819 58.7406 89.4737C59.657 85.5529 60.3681 80.8978 60.5356 77.7557C60.5494 77.4371 60.5671 77.1649 60.5759 77.1496V77.1496ZM58.4545 78.5376C58.447 78.7883 58.4232 79.0382 58.3832 79.2857C57.8381 83.19 57.058 87.0579 56.0473 90.8683C55.8835 91.5447 55.7011 92.2165 55.5 92.8828C55.4799 92.8882 54.97 92.7401 54.3616 92.5623C50.7536 91.493 47.3833 89.8942 44.9709 88.1034L44.627 87.8504L45.8651 87.1261C49.9312 84.7809 53.8242 82.1477 57.5144 79.2468C58.0212 78.8522 58.4432 78.5277 58.4545 78.5376V78.5376ZM74.2544 79.7091C74.2584 79.708 74.2635 79.7109 74.2657 79.719C74.352 80.0409 74.4221 83.2488 74.3908 85.5951C74.3642 87.5564 74.3124 89.1016 74.1898 91.8477C74.1685 92.5855 74.1243 93.3224 74.0571 94.0573C69.7367 94.4581 65.3862 94.408 61.0761 93.9078C60.111 93.8 59.1511 93.6499 58.1992 93.4579C58.1675 93.4362 58.9378 92.7855 59.9071 92.0082C65.7904 87.3216 71.8023 82.1649 73.7801 80.1122C73.9136 79.9513 74.0741 79.8149 74.2544 79.7091V79.7091ZM41.207 89.7848C41.2529 89.8114 40.1034 92.975 38.4794 97.314L37.0045 101.259C36.764 101.923 36.4045 102.964 36.2066 103.578L35.8453 104.693L35.0456 104.316C33.8399 103.721 32.6804 103.037 31.5768 102.269C29.9016 101.04 28.6113 99.6217 27.8677 98.199C27.5271 97.5397 27.4242 97.1877 27.5612 97.1035C29.9849 95.7842 32.4159 94.4785 34.8543 93.1866L39.7575 90.5572C40.5447 90.1305 41.1979 89.783 41.207 89.7848V89.7848ZM43.2704 89.9998L43.8826 90.4008C46.4476 92.1067 49.2749 93.3805 52.252 94.1715C52.5707 94.2358 52.8806 94.3381 53.1749 94.4764C47.9454 98.1282 42.6862 101.737 37.3979 105.304C37.2822 105.271 37.1682 105.232 37.0564 105.188L36.735 105.067L36.9937 104.342C37.8304 101.991 38.9685 99.3484 41.5242 93.8021L43.2704 89.9998ZM57.1776 95.2156C57.1864 95.2003 57.8999 95.255 58.7726 95.3403C60.8671 95.5426 62.4843 95.6054 64.6446 95.57C67.295 95.5285 71.0562 95.1893 73.2287 94.797C73.5571 94.7349 73.7369 94.7298 73.6973 94.7749C73.6139 94.8663 71.6527 96.1596 70.2047 97.0825C64.5079 100.631 58.7782 104.126 53.0161 107.568C52.8828 107.634 52.3573 107.636 52.3411 107.576C52.3314 107.54 52.5629 107.003 52.8526 106.378C54.2978 103.259 55.5668 100.062 56.6534 96.8011C56.8263 96.272 57.001 95.7435 57.1776 95.2156V95.2156ZM54.6131 95.9804C54.6387 95.9951 54.0457 97.9355 52.9925 101.298C52.5443 102.716 52.042 104.335 51.8703 104.885C51.6957 105.441 51.4511 106.283 51.3277 106.756L51.0966 107.616L50.8641 107.618C50.3032 107.617 46.254 107.3 45.1765 107.175C43.8908 107.027 42.6141 106.809 41.3521 106.522C40.0207 106.206 38.2975 105.667 38.4005 105.6L42.5221 103.193C48.4614 99.7295 51.7386 97.7772 53.8657 96.4265C54.2688 96.1762 54.6029 95.9745 54.6091 95.9814L54.6131 95.9804ZM73.961 95.3729L73.9852 95.3664C74.0865 95.5032 73.4719 102.708 73.1652 105.024C73.0931 105.544 73.056 105.679 72.9492 105.699C70.9581 105.972 68.9636 106.219 66.9661 106.44C63.1709 106.861 56.7797 107.431 55.1444 107.493L54.7646 107.509L56.8185 106.432C61.2207 104.123 63.3184 102.952 65.4128 101.641C68.1117 99.9471 70.6899 98.0687 73.129 96.0186C73.3943 95.7883 73.672 95.5727 73.961 95.3729V95.3729Z" fill="white"/>
</g>
<defs>
<clipPath id="clip0_206_189">
<rect width="100" height="100" fill="white" transform="translate(0 22.5291) rotate(-15)"/>
</clipPath>
</defs>
</svg>
