<svg width="181" height="200" viewBox="0 0 181 200" fill="none" xmlns="http://www.w3.org/2000/svg">
<path d="M174.139 0.377507H6.93103C3.36143 0.377507 0.46769 3.1257 0.46769 6.51578V193.484C0.46769 196.874 3.36143 199.622 6.93103 199.622H174.139C177.709 199.622 180.603 196.874 180.603 193.484V6.51578C180.603 3.1257 177.709 0.377507 174.139 0.377507Z" fill="white"/>
<path d="M174.139 200H6.93103C5.11207 199.998 3.36821 199.311 2.08201 198.089C0.795805 196.868 0.0722945 195.212 0.0701904 193.484V6.51578C0.0722945 4.7883 0.795805 3.13215 2.08201 1.91063C3.36821 0.689122 5.11207 0.00199824 6.93103 0H174.139C175.958 0.00199824 177.702 0.689122 178.988 1.91063C180.274 3.13215 180.998 4.7883 181 6.51578V193.484C180.998 195.212 180.274 196.868 178.988 198.089C177.702 199.311 175.958 199.998 174.139 200ZM6.93103 0.755015C5.32285 0.756813 3.78108 1.36433 2.64392 2.44429C1.50677 3.52425 0.867083 4.98848 0.865189 6.51578V193.484C0.867083 195.012 1.50677 196.476 2.64392 197.556C3.78108 198.636 5.32285 199.243 6.93103 199.245H174.139C175.747 199.243 177.289 198.636 178.426 197.556C179.563 196.476 180.203 195.012 180.205 193.484V6.51578C180.203 4.98848 179.563 3.52425 178.426 2.44429C177.289 1.36433 175.747 0.756813 174.139 0.755015H6.93103Z" fill="#292A2E"/>
<path d="M109.467 30.5222C111.607 30.5222 113.341 28.8748 113.341 26.8427C113.341 24.8105 111.607 23.1631 109.467 23.1631C107.327 23.1631 105.592 24.8105 105.592 26.8427C105.592 28.8748 107.327 30.5222 109.467 30.5222Z" fill="#367CFF"/>
<path d="M109.467 30.5222C111.607 30.5222 113.341 28.8748 113.341 26.8427C113.341 24.8105 111.607 23.1631 109.467 23.1631C107.327 23.1631 105.592 24.8105 105.592 26.8427C105.592 28.8748 107.327 30.5222 109.467 30.5222Z" fill="#367CFF"/>
<path d="M109.467 49.2783C111.607 49.2783 113.341 47.6309 113.341 45.5987C113.341 43.5665 111.607 41.9191 109.467 41.9191C107.327 41.9191 105.592 43.5665 105.592 45.5987C105.592 47.6309 107.327 49.2783 109.467 49.2783Z" fill="#292A2E"/>
<path opacity="0.5" d="M109.467 68.0344C111.607 68.0344 113.341 66.387 113.341 64.3548C113.341 62.3226 111.607 60.6752 109.467 60.6752C107.327 60.6752 105.592 62.3226 105.592 64.3548C105.592 66.387 107.327 68.0344 109.467 68.0344Z" fill="#367CFF"/>
<path opacity="0.2" d="M109.467 86.7905C111.607 86.7905 113.341 85.1431 113.341 83.1109C113.341 81.0787 111.607 79.4313 109.467 79.4313C107.327 79.4313 105.592 81.0787 105.592 83.1109C105.592 85.1431 107.327 86.7905 109.467 86.7905Z" fill="#367CFF"/>
<path d="M32.5606 54.9768C32.5619 59.4618 34.0273 63.8361 36.755 67.4973C39.4827 71.1585 43.3386 73.9264 47.7916 75.4199L41.5286 89.9223C32.9153 86.8394 25.7139 80.9843 21.1792 73.3771C16.6444 65.7698 15.0637 56.8927 16.7125 48.2924C18.3612 39.692 23.135 31.9137 30.202 26.3125C37.2689 20.7114 46.1811 17.6425 55.3858 17.6406V33.2999C49.3323 33.2999 43.5266 35.5837 39.2461 39.6489C34.9655 43.7141 32.5607 49.2277 32.5606 54.9768Z" fill="#292A2E"/>
<path d="M94.6997 54.9768H78.211C78.2109 49.2277 75.8061 43.7141 71.5255 39.6489C67.245 35.5837 61.4394 33.2999 55.3858 33.2999V17.6406C65.8122 17.6412 75.8115 21.575 83.1841 28.5767C90.5567 35.5785 94.699 45.0748 94.6997 54.9768Z" fill="#367CFF"/>
<path opacity="0.5" d="M94.6997 54.9768C94.6987 63.4367 91.6738 71.6457 86.1201 78.2601C80.5664 84.8745 72.8129 89.5025 64.1288 91.3866L61.3351 75.9088C66.1789 74.6658 70.4567 71.9421 73.5074 68.1589C76.558 64.3757 78.2116 59.7435 78.2126 54.9783L94.6997 54.9768Z" fill="#367CFF"/>
<path opacity="0.2" d="M64.1288 91.3866C56.6071 93.0046 48.7512 92.4961 41.5302 89.9238L47.7928 75.4199C52.1525 76.8728 56.8723 77.0427 61.3352 75.9073L64.1288 91.3866Z" fill="#367CFF"/>
<path d="M163.364 27.1095H118.486C118.412 27.1095 118.34 27.0814 118.287 27.0314C118.235 26.9813 118.205 26.9134 118.205 26.8426C118.205 26.7719 118.235 26.704 118.287 26.6539C118.34 26.6039 118.412 26.5757 118.486 26.5757H163.364C163.438 26.5757 163.51 26.6039 163.563 26.6539C163.615 26.704 163.645 26.7719 163.645 26.8426C163.645 26.9134 163.615 26.9813 163.563 27.0314C163.51 27.0814 163.438 27.1095 163.364 27.1095Z" fill="#367CFF"/>
<path d="M163.364 45.8671H118.486C118.412 45.8671 118.34 45.839 118.287 45.7889C118.235 45.7389 118.205 45.671 118.205 45.6002C118.205 45.5294 118.235 45.4615 118.287 45.4115C118.34 45.3614 118.412 45.3333 118.486 45.3333H163.364C163.438 45.3333 163.51 45.3614 163.563 45.4115C163.615 45.4615 163.645 45.5294 163.645 45.6002C163.645 45.671 163.615 45.7389 163.563 45.7889C163.51 45.839 163.438 45.8671 163.364 45.8671Z" fill="#292A2E"/>
<g opacity="0.5">
<path d="M163.364 64.6217H118.486C118.413 64.6191 118.345 64.5898 118.294 64.5401C118.244 64.4904 118.216 64.424 118.216 64.355C118.216 64.2859 118.244 64.2196 118.294 64.1698C118.345 64.1201 118.413 64.0909 118.486 64.0883H163.364C163.401 64.0869 163.439 64.0928 163.474 64.1056C163.51 64.1184 163.542 64.1378 163.569 64.1627C163.596 64.1876 163.618 64.2175 163.633 64.2505C163.648 64.2836 163.655 64.3191 163.655 64.355C163.655 64.3909 163.648 64.4264 163.633 64.4594C163.618 64.4925 163.596 64.5223 163.569 64.5472C163.542 64.5721 163.51 64.5915 163.474 64.6043C163.439 64.6171 163.401 64.623 163.364 64.6217Z" fill="#367CFF"/>
</g>
<g opacity="0.2">
<path d="M163.364 83.3778H118.486C118.413 83.3752 118.345 83.3459 118.294 83.2962C118.244 83.2465 118.216 83.1801 118.216 83.1111C118.216 83.042 118.244 82.9757 118.294 82.9259C118.345 82.8762 118.413 82.847 118.486 82.8444H163.364C163.401 82.843 163.439 82.8489 163.474 82.8617C163.51 82.8745 163.542 82.8939 163.569 82.9188C163.596 82.9437 163.618 82.9736 163.633 83.0066C163.648 83.0397 163.655 83.0752 163.655 83.1111C163.655 83.147 163.648 83.1825 163.633 83.2155C163.618 83.2486 163.596 83.2784 163.569 83.3033C163.542 83.3282 163.51 83.3476 163.474 83.3604C163.439 83.3732 163.401 83.3791 163.364 83.3778Z" fill="#367CFF"/>
</g>
<g opacity="0.1">
<path d="M163.557 185.315H17.5133C16.2435 185.314 15.0262 184.834 14.1284 183.981C13.2305 183.128 12.7255 181.972 12.7242 180.766V110.496C12.7257 109.291 13.2307 108.135 14.1285 107.282C15.0263 106.429 16.2436 105.95 17.5133 105.948H163.557C164.827 105.949 166.044 106.429 166.942 107.282C167.84 108.134 168.345 109.291 168.346 110.496V180.766C168.345 181.972 167.84 183.128 166.942 183.981C166.044 184.834 164.827 185.314 163.557 185.315Z" fill="#367CFF"/>
</g>
<path opacity="0.5" d="M32.6321 121.888H29.7888C29.361 121.888 29.0141 122.218 29.0141 122.624V174.207C29.0141 174.614 29.361 174.943 29.7888 174.943H32.6321C33.06 174.943 33.4069 174.614 33.4069 174.207V122.624C33.4069 122.218 33.06 121.888 32.6321 121.888Z" fill="#367CFF"/>
<path d="M28.239 138.552H25.3956C24.9678 138.552 24.6209 138.881 24.6209 139.288V174.208C24.6209 174.614 24.9678 174.943 25.3956 174.943H28.239C28.6668 174.943 29.0137 174.614 29.0137 174.208V139.288C29.0137 138.881 28.6668 138.552 28.239 138.552Z" fill="#367CFF"/>
<path opacity="0.5" d="M67.7869 168.23H64.9436C64.5157 168.23 64.1689 168.56 64.1689 168.966V174.208C64.1689 174.614 64.5157 174.943 64.9436 174.943H67.7869C68.2148 174.943 68.5616 174.614 68.5616 174.208V168.966C68.5616 168.56 68.2148 168.23 67.7869 168.23Z" fill="#367CFF"/>
<path d="M63.3942 135.556H60.5509C60.123 135.556 59.7762 135.885 59.7762 136.291V174.207C59.7762 174.614 60.123 174.943 60.5509 174.943H63.3942C63.8221 174.943 64.1689 174.614 64.1689 174.207V136.291C64.1689 135.885 63.8221 135.556 63.3942 135.556Z" fill="#367CFF"/>
<path opacity="0.5" d="M50.2095 143.186H47.3662C46.9384 143.186 46.5915 143.516 46.5915 143.922V174.207C46.5915 174.614 46.9384 174.943 47.3662 174.943H50.2095C50.6374 174.943 50.9843 174.614 50.9843 174.207V143.922C50.9843 143.516 50.6374 143.186 50.2095 143.186Z" fill="#367CFF"/>
<path d="M45.8164 154.159H42.9731C42.5452 154.159 42.1984 154.488 42.1984 154.895V174.207C42.1984 174.614 42.5452 174.943 42.9731 174.943H45.8164C46.2443 174.943 46.5911 174.614 46.5911 174.207V154.895C46.5911 154.488 46.2443 154.159 45.8164 154.159Z" fill="#367CFF"/>
<path opacity="0.5" d="M120.519 132.149H117.676C117.248 132.149 116.901 132.479 116.901 132.885V174.208C116.901 174.614 117.248 174.943 117.676 174.943H120.519C120.947 174.943 121.294 174.614 121.294 174.208V132.885C121.294 132.479 120.947 132.149 120.519 132.149Z" fill="#367CFF"/>
<path d="M116.126 147.905H113.283C112.855 147.905 112.508 148.234 112.508 148.64V174.208C112.508 174.614 112.855 174.943 113.283 174.943H116.126C116.554 174.943 116.901 174.614 116.901 174.208V148.64C116.901 148.234 116.554 147.905 116.126 147.905Z" fill="#367CFF"/>
<path opacity="0.5" d="M85.3644 138.825H82.5211C82.0933 138.825 81.7464 139.154 81.7464 139.56V174.207C81.7464 174.614 82.0933 174.943 82.5211 174.943H85.3644C85.7923 174.943 86.1392 174.614 86.1392 174.207V139.56C86.1392 139.154 85.7923 138.825 85.3644 138.825Z" fill="#367CFF"/>
<path d="M80.9717 142.914H78.1284C77.7005 142.914 77.3536 143.243 77.3536 143.65V174.207C77.3536 174.614 77.7005 174.943 78.1284 174.943H80.9717C81.3995 174.943 81.7464 174.614 81.7464 174.207V143.65C81.7464 143.243 81.3995 142.914 80.9717 142.914Z" fill="#367CFF"/>
<path opacity="0.5" d="M102.942 121.888H100.099C99.6707 121.888 99.3239 122.218 99.3239 122.624V174.207C99.3239 174.614 99.6707 174.943 100.099 174.943H102.942C103.37 174.943 103.717 174.614 103.717 174.207V122.624C103.717 122.218 103.37 121.888 102.942 121.888Z" fill="#367CFF"/>
<path d="M98.5491 124.444H95.7058C95.2779 124.444 94.931 124.774 94.931 125.18V174.207C94.931 174.614 95.2779 174.943 95.7058 174.943H98.5491C98.9769 174.943 99.3238 174.614 99.3238 174.207V125.18C99.3238 124.774 98.9769 124.444 98.5491 124.444Z" fill="#367CFF"/>
<path opacity="0.5" d="M138.097 121.888H135.253C134.825 121.888 134.479 122.218 134.479 122.624V174.207C134.479 174.614 134.825 174.943 135.253 174.943H138.097C138.525 174.943 138.871 174.614 138.871 174.207V122.624C138.871 122.218 138.525 121.888 138.097 121.888Z" fill="#367CFF"/>
<path d="M133.704 138.552H130.861C130.433 138.552 130.086 138.881 130.086 139.288V174.208C130.086 174.614 130.433 174.943 130.861 174.943H133.704C134.132 174.943 134.479 174.614 134.479 174.208V139.288C134.479 138.881 134.132 138.552 133.704 138.552Z" fill="#367CFF"/>
<path opacity="0.5" d="M155.674 143.186H152.831C152.403 143.186 152.056 143.516 152.056 143.922V174.207C152.056 174.614 152.403 174.943 152.831 174.943H155.674C156.102 174.943 156.449 174.614 156.449 174.207V143.922C156.449 143.516 156.102 143.186 155.674 143.186Z" fill="#367CFF"/>
<path d="M151.281 154.159H148.438C148.01 154.159 147.663 154.488 147.663 154.895V174.207C147.663 174.614 148.01 174.943 148.438 174.943H151.281C151.709 174.943 152.056 174.614 152.056 174.207V154.895C152.056 154.488 151.709 154.159 151.281 154.159Z" fill="#367CFF"/>
</svg>
