<svg width="1144" height="699" viewBox="0 0 1144 699" fill="none" xmlns="http://www.w3.org/2000/svg">
<g clip-path="url(#clip0_955_259)">
<path d="M1092.03 679.685C1103.76 679.68 1115.1 675.535 1124.07 667.98C1133.03 660.424 1139.04 649.945 1141.04 638.391C1150.72 582.491 1142.33 477.617 992.658 372.832C848.352 271.8 913.438 -19.0818 606.826 0.989165C300.214 21.0602 329.448 236.029 141.442 334.557C7.58678 404.707 -3.77423 549.914 0.786774 627.742C1.59597 641.783 7.74241 654.984 17.9675 664.64C28.1925 674.297 41.7225 679.679 55.7868 679.685H1092.03Z" fill="#F3F5FD"/>
<path d="M1075.41 679.685H914.738C902.951 670.279 902.138 649.085 914.355 639.624C923.771 632.331 938.006 634.282 946.855 641.868C945.2 636.221 945.165 630.222 946.755 624.556C949.634 614.356 956.03 603.988 965.797 599.862C990.722 589.345 1008.43 611.381 1011.98 623.702C1018.36 614.317 1032.64 609.357 1041.6 615.675C1052.95 623.675 1052.44 636.29 1043.38 645.344C1055.45 643.095 1064.53 644.83 1072.9 653.812C1079.28 660.648 1080.25 672.3 1075.41 679.685Z" fill="#DEE8F5"/>
<path d="M730.892 102.998H485.493C466.701 102.998 451.467 118.232 451.467 137.024V637.744C451.467 656.536 466.701 671.77 485.493 671.77H730.892C749.684 671.77 764.918 656.536 764.918 637.744V137.024C764.918 118.232 749.684 102.998 730.892 102.998Z" fill="white"/>
<path d="M730.892 680.593H485.492C474.132 680.58 463.24 676.061 455.207 668.028C447.174 659.995 442.655 649.104 442.642 637.743V137.024C442.655 125.664 447.174 114.773 455.207 106.74C463.24 98.7069 474.132 94.1883 485.492 94.175H730.892C742.252 94.1883 753.144 98.7069 761.177 106.74C769.21 114.773 773.728 125.664 773.742 137.024V637.743C773.729 649.104 769.21 659.995 761.177 668.028C753.144 676.061 742.252 680.58 730.892 680.593ZM485.492 111.821C478.811 111.83 472.406 114.487 467.682 119.211C462.958 123.935 460.3 130.34 460.292 137.021V637.743C460.3 644.424 462.958 650.829 467.682 655.553C472.406 660.277 478.811 662.935 485.492 662.943H730.892C737.573 662.935 743.978 660.277 748.702 655.553C753.426 650.829 756.084 644.424 756.092 637.743V137.024C756.083 130.343 753.426 123.938 748.702 119.214C743.978 114.49 737.573 111.833 730.892 111.824L485.492 111.821Z" fill="#DEE8F5"/>
<path d="M554.462 103H661.924V123.849C661.924 127.988 660.28 131.958 657.353 134.885C654.426 137.812 650.456 139.456 646.317 139.456H570.067C565.928 139.456 561.958 137.812 559.031 134.885C556.104 131.958 554.46 127.988 554.46 123.849V103H554.462Z" fill="#DEE8F5"/>
<path d="M338.833 294.4C338.833 294.4 328.389 284.995 327.807 281.812C327.225 278.629 335.341 272.946 335.341 272.946C335.341 272.946 333.263 270.574 331.25 267.894C328.928 264.802 326.693 261.301 327.842 260.564C328.949 259.853 331.68 262.484 334.4 265.664C337.9 269.754 341.374 274.756 341.374 274.756C341.374 274.756 340.023 269.225 342.146 269C343.019 268.908 343.646 269.8 344.764 273.721C346.033 278.192 348.703 284.966 348.703 284.966L338.833 294.4Z" fill="#E98862"/>
<path d="M359.735 346.54C357.566 346.54 355.446 345.893 353.647 344.682C351.848 343.47 350.451 341.75 349.635 339.74L330.035 291.474L350.235 283.274L356.169 297.887L360.826 274.609L382.207 278.886L370.423 337.78C369.963 340.079 368.775 342.169 367.033 343.738C365.292 345.308 363.091 346.275 360.757 346.495C360.42 346.524 360.076 346.54 359.735 346.54Z" fill="#367CFF"/>
<path d="M324.354 307.409L336.475 305.475C336.952 305.399 337.407 305.223 337.811 304.959C338.215 304.694 338.559 304.347 338.82 303.941C339.081 303.535 339.253 303.078 339.325 302.6C339.396 302.123 339.367 301.635 339.237 301.17L331.61 273.8C331.384 272.989 330.868 272.29 330.159 271.835C329.45 271.38 328.599 271.202 327.768 271.335L315.647 273.269C315.17 273.345 314.715 273.521 314.311 273.786C313.906 274.05 313.563 274.397 313.302 274.803C313.041 275.21 312.869 275.666 312.797 276.144C312.726 276.621 312.755 277.109 312.885 277.574L320.512 304.946C320.738 305.757 321.255 306.456 321.964 306.91C322.672 307.364 323.523 307.542 324.354 307.409Z" fill="#C1D8ED"/>
<path d="M434.185 553.52C416.008 548.928 414.22 548.243 413.632 548.02L421.14 528.408C421.081 528.385 421.004 528.356 420.91 528.324C422.388 528.812 431.621 531.214 439.328 533.16L434.185 553.52Z" fill="#E98862"/>
<path d="M433.368 580.948C433.186 581.483 432.896 581.974 432.515 582.391C432.135 582.809 431.672 583.143 431.156 583.374C430.641 583.604 430.083 583.726 429.518 583.731C428.954 583.736 428.394 583.625 427.874 583.404C427.153 583.098 426.535 582.593 426.092 581.948C425.649 581.302 425.4 580.543 425.374 579.761L425.388 553.984C425.39 553.485 425.499 552.993 425.709 552.54C425.919 552.088 426.224 551.686 426.604 551.363C429.884 548.919 432.293 545.487 433.477 541.572C434.275 538.481 434.189 535.229 433.228 532.185C433.124 531.911 433.1 531.613 433.159 531.325C433.218 531.038 433.357 530.773 433.561 530.562C433.765 530.351 434.024 530.202 434.309 530.133C434.594 530.064 434.893 530.077 435.171 530.171L446.502 533.971C446.836 534.083 447.145 534.26 447.41 534.492C447.676 534.724 447.893 535.006 448.05 535.322C448.206 535.637 448.299 535.981 448.322 536.333C448.345 536.684 448.299 537.037 448.186 537.371L433.368 580.948Z" fill="#C1D8ED"/>
<path d="M384.424 670.953C384.424 670.953 384.353 649.205 384.353 647.279H405.353C405.353 649.199 405.424 670.885 405.424 670.885L384.424 670.953Z" fill="#E98862"/>
<path d="M439.448 369.829C425.973 356.355 363.371 374.524 363.371 374.524L363.313 374.915L362.031 374.195C346.108 406.202 323.563 454.095 307.959 486.721C306.768 488.964 306.05 491.428 305.85 493.96C305.65 496.492 305.973 499.039 306.798 501.441C307.623 503.843 308.933 506.05 310.647 507.925C312.36 509.8 314.441 511.303 316.759 512.34L384.909 542.661C381.409 581.1 377.392 619.507 374.046 657.886L410.761 662.468C417.433 616.682 424.294 570.949 430.421 525.106L431.421 522.858L430.763 522.565C434.52 494.322 437.991 466.036 440.957 437.665C441.528 431.896 442.03 425.622 442.277 419.523C442.275 419.526 446.7 377.078 439.448 369.829ZM350.883 487.029C364.021 465.129 379.477 439.32 392.859 417.415C392.173 446.178 390.468 474.921 388.228 503.644L350.883 487.029Z" fill="#262626"/>
<path d="M415.361 268.385C415.361 268.385 407.628 264.285 409.355 243.229L393.378 240.266C393.378 240.266 395.178 259.145 387.091 265.138L415.361 268.385Z" fill="#E98862"/>
<g opacity="0.15">
<path d="M390.365 261.192L403.637 251.038L393.213 250.93C392.911 254.498 391.945 257.979 390.365 261.192Z" fill="black"/>
</g>
<path d="M418.42 235.064C417.314 241.452 413.827 247.502 408.192 249.564C401.503 252.014 396.548 252.18 388.835 252.18C378.309 252.18 378.657 241.203 378.362 230.141C378.062 219.041 378.948 207.123 383.108 203.253C391.408 195.529 415.781 200.42 418.745 213.34C420.279 220.023 419.472 228.983 418.42 235.064Z" fill="#E98862"/>
<path d="M408.609 248.959C408.941 250.022 409.173 250.485 410.13 249.916C413.886 247.685 422.339 242.828 425.219 224.634C427.8 208.334 417.743 201.608 409.719 199.209C402.806 197.141 386.672 196.715 379.1 201.279C372.575 205.212 379.1 214.36 379.1 214.36C381.984 214.493 382.565 216.972 389.369 216.972C394.629 216.972 398.049 214.621 402.974 214.828C407.482 215.018 408.408 217.766 408.248 219.528C407.282 230.21 407.435 245.2 408.609 248.959Z" fill="#0F1011"/>
<path d="M393.401 230.143C394.201 230.143 394.85 229.494 394.85 228.694C394.85 227.894 394.201 227.245 393.401 227.245C392.601 227.245 391.952 227.894 391.952 228.694C391.952 229.494 392.601 230.143 393.401 230.143Z" fill="#0F1011"/>
<path d="M381.97 229.205C382.77 229.205 383.419 228.556 383.419 227.756C383.419 226.956 382.77 226.307 381.97 226.307C381.17 226.307 380.521 226.956 380.521 227.756C380.521 228.556 381.17 229.205 381.97 229.205Z" fill="#0F1011"/>
<path d="M379.459 224.668C379.283 224.662 379.116 224.589 378.993 224.463C378.87 224.336 378.801 224.168 378.8 223.991C378.799 223.815 378.866 223.646 378.987 223.518C379.109 223.39 379.275 223.315 379.451 223.307L383.289 223.259C383.379 223.256 383.468 223.272 383.552 223.304C383.636 223.337 383.712 223.386 383.776 223.449C383.84 223.512 383.891 223.587 383.926 223.669C383.961 223.752 383.978 223.841 383.978 223.931C383.979 224.02 383.963 224.109 383.93 224.192C383.896 224.275 383.847 224.351 383.785 224.415C383.722 224.479 383.648 224.53 383.566 224.565C383.484 224.6 383.395 224.619 383.306 224.62L379.467 224.668H379.459Z" fill="#0F1011"/>
<path d="M396.528 226.067C396.475 226.067 396.421 226.061 396.369 226.049L392.584 225.139C392.41 225.095 392.261 224.984 392.169 224.831C392.076 224.677 392.048 224.494 392.09 224.32C392.132 224.145 392.241 223.995 392.393 223.9C392.545 223.806 392.728 223.775 392.903 223.815L396.687 224.725C396.85 224.763 396.993 224.86 397.089 224.997C397.184 225.134 397.227 225.301 397.207 225.467C397.187 225.633 397.107 225.786 396.982 225.897C396.857 226.007 396.695 226.068 396.528 226.067Z" fill="#0F1011"/>
<path d="M400.939 232.239C400.83 233.85 401.36 235.438 402.413 236.661C403.467 237.884 404.959 238.644 406.568 238.775C408.177 238.906 409.773 238.399 411.011 237.363C412.248 236.327 413.029 234.846 413.183 233.239C413.263 232.432 413.18 231.618 412.938 230.844C412.697 230.07 412.302 229.353 411.778 228.735C411.253 228.117 410.61 227.611 409.886 227.247C409.162 226.882 408.372 226.668 407.563 226.615C403.185 226.476 401.216 228.858 400.939 232.239Z" fill="#E98862"/>
<g opacity="0.15">
<path d="M386.969 236.731C386.919 236.731 386.869 236.723 386.822 236.708L383.334 235.637C383.266 235.616 383.204 235.581 383.15 235.534C383.097 235.487 383.055 235.43 383.025 235.365C382.996 235.301 382.981 235.231 382.981 235.16C382.981 235.089 382.996 235.019 383.025 234.954L385.318 229.847C385.373 229.728 385.474 229.635 385.597 229.589C385.72 229.543 385.856 229.548 385.976 229.602C386.096 229.656 386.19 229.755 386.238 229.877C386.285 230 386.282 230.136 386.23 230.257L384.169 234.848L387.116 235.748C387.23 235.783 387.329 235.858 387.392 235.96C387.456 236.061 387.482 236.182 387.464 236.3C387.446 236.419 387.386 236.527 387.295 236.605C387.205 236.683 387.089 236.726 386.969 236.726V236.731Z" fill="black"/>
</g>
<path d="M392.731 240.105C392.731 240.105 387.382 240.669 383.631 239.359C383.631 239.359 383.661 242.882 387.893 243.229C392.125 243.576 392.731 240.105 392.731 240.105Z" fill="white"/>
<path d="M343.875 300.235L336.726 309.935C336.726 309.935 317.51 306.083 315.708 291.28C315.5 289.58 315.68 284.86 317.791 285.492C323.291 287.141 330.135 295.58 334.934 296.702C333.84 294.741 332.503 291.972 333.365 291.466C335.631 290.134 341.726 298.17 343.875 300.235Z" fill="#E98862"/>
<path d="M440.518 269.77C435.948 265.2 428.058 262.25 418.438 262.24C417.718 267.85 383.658 267.87 383.398 262.37C382.098 262.39 381.088 262.41 380.458 262.44C357.34 263.44 357.408 282.069 359.683 302.661L340.661 294.272L331.861 314.221L362.135 327.573C362.154 328.173 362.17 328.773 362.177 329.373C362.567 361.833 353.797 367.953 358.117 377.873C362.307 387.503 444.637 391.503 445.737 374.563C446.437 363.783 436.937 354.373 436.937 333.363C436.937 312.353 456.268 285.52 440.518 269.77Z" fill="#367CFF"/>
<path d="M358.92 679.5C358.355 679.497 357.797 679.378 357.281 679.15C356.764 678.922 356.3 678.59 355.917 678.175C355.535 677.759 355.242 677.269 355.057 676.736C354.873 676.202 354.8 675.636 354.844 675.073C354.905 674.293 355.187 673.546 355.658 672.921C356.129 672.295 356.769 671.818 357.502 671.544L381.945 663.357C382.418 663.2 382.92 663.147 383.416 663.202C383.912 663.257 384.389 663.419 384.817 663.676C388.177 666.008 392.197 667.2 396.285 667.076C399.469 666.85 402.525 665.733 405.105 663.854C405.332 663.668 405.607 663.55 405.898 663.515C406.189 663.479 406.484 663.527 406.749 663.653C407.014 663.778 407.238 663.977 407.395 664.225C407.551 664.473 407.634 664.761 407.633 665.054V677.006C407.633 677.359 407.563 677.708 407.428 678.033C407.293 678.359 407.095 678.655 406.845 678.903C406.595 679.152 406.298 679.349 405.972 679.483C405.646 679.617 405.297 679.685 404.944 679.684L358.92 679.5Z" fill="#C1D8ED"/>
<path d="M681.062 587.566H500.573L480.323 604.566V474.987H681.062V587.566Z" fill="#C1D8ED"/>
<path d="M736.062 447.527L716.573 432.754H535.323V313.275H736.062V447.527Z" fill="#DEE8F5"/>
<path d="M480.323 288.774L502.085 272.774H645.085V170.2H480.323V288.774Z" fill="#C1D8ED"/>
<path d="M205.845 679.685H45.176C33.39 670.279 32.576 649.085 44.793 639.624C54.21 632.331 68.444 634.282 77.293 641.868C75.6397 636.22 75.6071 630.221 77.199 624.556C80.077 614.356 86.474 603.988 96.241 599.862C121.166 589.345 138.877 611.381 142.426 623.702C148.807 614.317 163.083 609.357 172.043 615.675C183.394 623.675 182.88 636.29 173.826 645.344C185.89 643.095 194.976 644.83 203.343 653.812C209.714 660.648 210.69 672.3 205.845 679.685Z" fill="#DEE8F5"/>
<path d="M177.225 535.177L148.125 677.092C147.939 677.833 147.511 678.491 146.908 678.96C146.306 679.43 145.564 679.685 144.8 679.685C144.279 679.685 143.764 679.566 143.296 679.337C142.827 679.109 142.417 678.776 142.097 678.365C141.776 677.954 141.553 677.475 141.446 676.965C141.338 676.455 141.348 675.928 141.475 675.422L170.985 531.868L177.225 535.177Z" fill="#C1D8ED"/>
<path d="M245.587 534.95L274.687 676.866C274.873 677.607 275.301 678.264 275.904 678.734C276.506 679.204 277.248 679.459 278.012 679.459C278.533 679.459 279.048 679.34 279.516 679.111C279.985 678.883 280.395 678.55 280.716 678.139C281.036 677.728 281.259 677.249 281.367 676.739C281.474 676.229 281.464 675.701 281.337 675.195L251.827 531.641L245.587 534.95Z" fill="#C1D8ED"/>
<path d="M276.168 521.297H146.644C143.369 521.297 140.714 523.952 140.714 527.227V540.28C140.714 543.555 143.369 546.21 146.644 546.21H276.168C279.443 546.21 282.098 543.555 282.098 540.28V527.227C282.098 523.952 279.443 521.297 276.168 521.297Z" fill="#DEE8F5"/>
<path d="M383.4 262.37C383.66 267.87 386.65 275.96 395.88 276.57C408.18 277.38 417.72 267.85 418.44 262.24H418.41C406.3 262.24 390.458 262.26 383.4 262.37Z" fill="#E98862"/>
<path d="M237.691 459.985C234.049 458.793 230.311 460.134 226.734 462.85C231.445 450.95 233.389 440.212 225.334 439.728C219.7 439.389 215.383 443.713 212.104 449.858C210.951 439.052 207.975 430.992 201.309 433.664C193.992 436.598 192.879 446.652 193.988 457.171C190.762 451.798 187.294 448.802 184.142 451.952C174.736 461.358 197.824 487.866 197.824 487.866H203.557L206.83 491.418C206.166 492.818 205.805 493.653 205.805 493.653L209.961 502.11C209.961 502.11 252.81 464.932 237.691 459.985Z" fill="#8DDBE0"/>
<path d="M227.414 521.054H194.963L189.531 483.172H232.846L227.414 521.054Z" fill="#C1D8ED"/>
</g>
<defs>
<clipPath id="clip0_955_259">
<rect width="1143.8" height="698.079" fill="white"/>
</clipPath>
</defs>
</svg>
