<svg width="500" height="351" viewBox="0 0 500 351" fill="none" xmlns="http://www.w3.org/2000/svg">
<path d="M463.905 64.4658C409.286 -13.7121 273.223 -24.7964 124.2 53.4042C-24.8237 131.605 -30.4685 314.178 58.0988 335.352C146.666 356.525 180.919 294.068 313.866 344.717C417.053 384.066 570.48 216.874 463.905 64.4658Z" fill="#CFE3FF"/>
<g style="mix-blend-mode:overlay" opacity="0.6">
<path d="M278.25 2.43051C302.663 56.6494 355.385 110.225 435.761 115.797C452.959 116.925 470.404 114.049 487.546 108.319C481.414 92.7381 473.422 77.9532 463.742 64.2854C428.997 14.6571 361.291 -7.82224 278.25 2.43051Z" fill="#231F20"/>
</g>
<g style="mix-blend-mode:overlay" opacity="0.6">
<path d="M196.093 301.715C117.12 278.053 148.655 235.359 60.8264 193.865C44.9635 186.335 27.5436 182.687 9.99984 183.223C-13.7192 253.756 5.71911 322.807 58.1044 335.34C146.69 356.534 180.981 294.016 313.988 344.714C365.639 364.402 429.839 332.408 467.801 276.411C406.605 294.775 279.065 326.577 196.093 301.715Z" fill="#231F20"/>
</g>
<g style="mix-blend-mode:overlay" opacity="0.6">
<path d="M483.483 247.728C486.845 240.367 489.724 232.795 492.102 225.06C474.221 223.128 456.373 220.8 438.684 217.545C396.381 209.782 354.473 196.617 318.71 172.107C263.597 134.307 215.578 83.3765 174.055 30.0729C156.99 36.9266 140.284 44.6434 124.003 53.1934C117.3 56.704 110.899 60.4218 104.799 64.3468C131.797 96.3719 158.907 127.527 191.179 154.874C233.72 190.944 279.57 221.794 333.801 236.914C382.396 250.452 433.442 252.361 483.483 247.728Z" fill="#231F20"/>
</g>
<g style="mix-blend-mode:overlay" opacity="0.6">
<path d="M475.234 254.039C467.886 256.167 460.506 258.162 453.097 260.026C445.699 261.87 438.279 263.613 430.836 265.152C423.393 266.691 415.927 268.095 408.462 269.351C393.599 271.819 378.61 273.451 363.566 274.24C359.801 274.413 356.066 274.534 352.362 274.602C350.498 274.602 348.635 274.602 346.771 274.602H343.981L341.203 274.534C333.771 274.364 326.396 273.9 319.077 273.063C311.806 272.268 304.582 271.086 297.437 269.521C295.652 269.158 293.902 268.683 292.14 268.276L286.831 266.872C285.058 266.397 283.296 265.865 281.523 265.367C279.75 264.869 278.01 264.236 276.248 263.738C262.265 259.254 248.702 253.551 235.713 246.695C209.735 233.047 186.277 214.827 164.636 194.468C153.816 184.283 143.369 173.589 133.012 162.68L117.595 146.236L109.824 138.009C107.234 135.255 104.625 132.524 101.997 129.816C91.5249 118.758 80.3866 108.354 68.6446 98.661L65.2563 95.9903C64.0365 97.1899 62.8506 98.3894 61.6646 99.6116C62.7941 100.562 63.9235 101.524 65.053 102.509C76.1062 112.505 86.433 123.28 95.9547 134.75C115.155 157.519 133.091 181.59 153.703 204.099C164.052 215.519 175.124 226.258 186.853 236.249C192.809 241.274 198.998 246.069 205.421 250.633C211.87 255.16 218.534 259.437 225.446 263.376C239.364 271.331 254.045 277.864 269.268 282.874C271.177 283.474 273.086 284.119 275.017 284.685C276.949 285.251 278.88 285.817 280.823 286.371L286.662 287.921C288.65 288.374 290.638 288.895 292.637 289.291C300.606 291.004 308.669 292.243 316.784 293.003C332.849 294.456 349.015 294.391 365.068 292.81C373.031 292.029 380.937 291.011 388.787 289.619C396.636 288.227 404.362 286.62 412.019 284.73C419.677 282.84 427.256 280.69 434.744 278.37C438.509 277.171 442.224 275.93 445.891 274.647C449.585 273.379 453.244 271.999 456.881 270.607C463.477 268.072 469.975 265.348 476.375 262.436C478.273 259.049 480.072 255.601 481.774 252.093C479.56 252.749 477.403 253.406 475.234 254.039Z" fill="#231F20"/>
</g>
<g style="mix-blend-mode:overlay" opacity="0.6">
<path d="M456.865 54.6825C447.124 43.2807 435.59 33.5588 422.721 25.9028H421.131C402.174 25.923 383.94 18.5962 370.224 5.44786C354.968 2.11842 339.425 0.293804 323.815 0C342.137 37.178 379.841 60.7162 421.131 60.7533C433.298 60.7639 445.379 58.7114 456.865 54.6825Z" fill="#231F20"/>
</g>
<g style="mix-blend-mode:overlay" opacity="0.6">
<path d="M33.0516 250.304C22.0487 250.294 11.1084 251.963 0.607544 255.254C1.57698 266.934 4.24375 278.409 8.52348 289.317C27.844 282.523 49.1102 284.04 67.2739 293.51C85.4376 302.98 98.8793 319.557 104.408 339.307C116.076 338.583 127.677 337.031 139.125 334.663C127.576 285.304 83.6608 250.379 33.0516 250.304V250.304Z" fill="#231F20"/>
</g>
</svg>
