<svg width="170" height="200" viewBox="0 0 170 200" fill="none" xmlns="http://www.w3.org/2000/svg">
<path d="M157.223 0.462524H13.1478C6.47307 0.462524 1.06216 5.87343 1.06216 12.5481V187.452C1.06216 194.127 6.47307 199.538 13.1478 199.538H157.223C163.897 199.538 169.308 194.127 169.308 187.452V12.5481C169.308 5.87343 163.897 0.462524 157.223 0.462524Z" fill="white"/>
<path d="M157.223 200H13.1478C9.82085 199.996 6.63126 198.673 4.27882 196.321C1.92637 193.968 0.603221 190.778 0.59967 187.451V12.5481C0.603343 9.22126 1.92655 6.03174 4.27898 3.67931C6.63141 1.32688 9.82093 0.00367255 13.1478 0L157.223 0C160.549 0.00379494 163.739 1.32706 166.091 3.67947C168.443 6.03189 169.767 9.22134 169.77 12.5481V187.451C169.767 190.778 168.444 193.968 166.091 196.32C163.739 198.673 160.55 199.996 157.223 200ZM13.1478 0.925001C10.0662 0.928429 7.11179 2.1541 4.93278 4.33311C2.75377 6.51212 1.5281 9.46651 1.52467 12.5481V187.451C1.5281 190.533 2.75377 193.487 4.93278 195.666C7.11179 197.845 10.0662 199.071 13.1478 199.075H157.223C160.304 199.071 163.259 197.845 165.438 195.666C167.616 193.487 168.842 190.533 168.845 187.451V12.5481C168.842 9.46656 167.616 6.51217 165.438 4.33314C163.259 2.15412 160.304 0.928429 157.223 0.925001H13.1478Z" fill="#292A2E"/>
<path d="M144.641 99.7951H25.7292C22.8905 99.7951 20.5894 102.096 20.5894 104.935V121.605C20.5894 124.444 22.8905 126.745 25.7292 126.745H144.641C147.48 126.745 149.781 124.444 149.781 121.605V104.935C149.781 102.096 147.48 99.7951 144.641 99.7951Z" fill="white"/>
<path d="M144.641 127.207H25.7292C24.2439 127.205 22.8199 126.615 21.7697 125.564C20.7194 124.514 20.1286 123.09 20.1269 121.605V104.935C20.1286 103.45 20.7194 102.026 21.7696 100.975C22.8199 99.9249 24.2438 99.334 25.7292 99.3322H144.641C146.126 99.3339 147.55 99.9247 148.601 100.975C149.651 102.025 150.242 103.449 150.244 104.935V121.605C150.242 123.09 149.651 124.514 148.601 125.564C147.55 126.615 146.126 127.205 144.641 127.207ZM25.7292 100.257C24.489 100.259 23.3 100.752 22.4232 101.629C21.5463 102.506 21.0531 103.695 21.0519 104.935V121.605C21.0532 122.845 21.5465 124.034 22.4233 124.911C23.3002 125.787 24.4891 126.281 25.7292 126.282H144.641C145.881 126.281 147.07 125.788 147.947 124.911C148.824 124.034 149.317 122.845 149.319 121.605V104.935C149.317 103.695 148.824 102.506 147.947 101.629C147.07 100.752 145.881 100.259 144.641 100.257H25.7292Z" fill="#292A2E"/>
<path d="M144.641 138.309H25.7292C22.8905 138.309 20.5894 140.611 20.5894 143.449V160.12C20.5894 162.958 22.8905 165.259 25.7292 165.259H144.641C147.48 165.259 149.781 162.958 149.781 160.12V143.449C149.781 140.611 147.48 138.309 144.641 138.309Z" fill="white"/>
<path d="M144.641 165.721H25.7292C24.2436 165.72 22.8195 165.129 21.7692 164.078C20.7189 163.028 20.1282 161.603 20.1269 160.118V143.449C20.1286 141.964 20.7194 140.54 21.7697 139.49C22.8199 138.439 24.2439 137.849 25.7292 137.847H144.641C146.126 137.849 147.55 138.439 148.601 139.49C149.651 140.54 150.242 141.964 150.244 143.449V160.118C150.242 161.603 149.651 163.028 148.601 164.078C147.551 165.129 146.126 165.72 144.641 165.721ZM25.7292 138.772C24.4891 138.773 23.3002 139.266 22.4233 140.143C21.5465 141.02 21.0532 142.209 21.0519 143.449V160.118C21.0532 161.358 21.5465 162.547 22.4233 163.424C23.3002 164.3 24.4891 164.794 25.7292 164.795H144.641C145.881 164.794 147.07 164.301 147.947 163.424C148.824 162.547 149.317 161.358 149.319 160.118V143.449C149.317 142.209 148.824 141.02 147.947 140.143C147.07 139.266 145.881 138.773 144.641 138.772H25.7292Z" fill="#292A2E"/>
<path d="M85.1849 79.7489C100.433 79.7489 112.793 67.3882 112.793 52.1404C112.793 36.8927 100.433 24.5319 85.1849 24.5319C69.9372 24.5319 57.5764 36.8927 57.5764 52.1404C57.5764 67.3882 69.9372 79.7489 85.1849 79.7489Z" fill="white"/>
<path d="M85.185 80.2115C79.633 80.2115 74.2058 78.5651 69.5895 75.4807C64.9733 72.3962 61.3754 68.0121 59.2507 62.8828C57.1261 57.7535 56.5702 52.1093 57.6533 46.6641C58.7365 41.2189 61.41 36.2171 65.3358 32.2913C69.2616 28.3655 74.2633 25.692 79.7086 24.6088C85.1538 23.5257 90.798 24.0816 95.9273 26.2062C101.057 28.3309 105.441 31.9288 108.525 36.5451C111.61 41.1613 113.256 46.5886 113.256 52.1405C113.248 59.5828 110.288 66.7179 105.025 71.9805C99.7624 77.243 92.6273 80.2031 85.185 80.2115ZM85.185 24.9945C79.816 24.9945 74.5676 26.5866 70.1035 29.5694C65.6393 32.5522 62.1599 36.7919 60.1053 41.7521C58.0507 46.7124 57.5131 52.1706 58.5606 57.4364C59.608 62.7022 62.1934 67.5392 65.9898 71.3356C69.7863 75.132 74.6232 77.7174 79.889 78.7649C85.1549 79.8123 90.613 79.2747 95.5733 77.2201C100.534 75.1655 104.773 71.6861 107.756 67.222C110.739 62.7578 112.331 57.5094 112.331 52.1405C112.323 44.9434 109.46 38.0434 104.371 32.9543C99.2821 27.8652 92.382 25.0026 85.185 24.9945Z" fill="#292A2E"/>
<path opacity="0.5" d="M112.18 52.1405C112.188 58.5307 109.921 64.715 105.784 69.5855C103.236 66.6151 100.076 64.231 96.5198 62.5967C92.964 60.9624 89.0967 60.1166 85.1833 60.1173C81.2698 60.118 77.4029 60.9652 73.8476 62.6008C70.2923 64.2364 67.1329 66.6216 64.5861 69.5929C61.7771 66.2775 59.8098 62.333 58.8516 58.0946C57.8933 53.8561 57.9723 49.449 59.0819 45.2476C60.1915 41.0463 62.2989 37.1749 65.225 33.9623C68.1511 30.7497 71.8095 28.291 75.8893 26.795C79.969 25.2989 84.3496 24.8098 88.6589 25.3692C92.9682 25.9286 97.0787 27.52 100.641 30.0081C104.204 32.4962 107.113 35.8075 109.122 39.6607C111.131 43.5139 112.18 47.795 112.18 52.1405Z" fill="#367CFF"/>
<path d="M105.784 69.5855C103.25 72.5776 100.095 74.9818 96.538 76.6311C92.981 78.2803 89.1074 79.1351 85.1867 79.1358C81.2659 79.1365 77.3921 78.2832 73.8345 76.6352C70.2769 74.9872 67.121 72.584 64.5861 69.5929C67.1329 66.6216 70.2923 64.2364 73.8476 62.6008C77.4029 60.9652 81.2698 60.118 85.1833 60.1173C89.0967 60.1166 92.964 60.9624 96.5198 62.5967C100.076 64.231 103.236 66.6151 105.784 69.5855Z" fill="white"/>
<path d="M85.1854 55.0806C91.2118 55.0806 96.0972 50.1952 96.0972 44.1688C96.0972 38.1424 91.2118 33.257 85.1854 33.257C79.159 33.257 74.2737 38.1424 74.2737 44.1688C74.2737 50.1952 79.159 55.0806 85.1854 55.0806Z" fill="white"/>
<g opacity="0.4">
<path d="M30.5988 155.066C32.4114 155.066 33.8807 153.597 33.8807 151.784C33.8807 149.972 32.4114 148.502 30.5988 148.502C28.7863 148.502 27.3169 149.972 27.3169 151.784C27.3169 153.597 28.7863 155.066 30.5988 155.066Z" fill="#292A2E"/>
<path d="M40.865 155.066C42.6775 155.066 44.1469 153.597 44.1469 151.784C44.1469 149.972 42.6775 148.502 40.865 148.502C39.0524 148.502 37.5831 149.972 37.5831 151.784C37.5831 153.597 39.0524 155.066 40.865 155.066Z" fill="#292A2E"/>
<path d="M51.1311 155.066C52.9436 155.066 54.413 153.597 54.413 151.784C54.413 149.972 52.9436 148.502 51.1311 148.502C49.3185 148.502 47.8492 149.972 47.8492 151.784C47.8492 153.597 49.3185 155.066 51.1311 155.066Z" fill="#292A2E"/>
<path d="M61.3972 155.066C63.2098 155.066 64.6791 153.597 64.6791 151.784C64.6791 149.972 63.2098 148.502 61.3972 148.502C59.5847 148.502 58.1153 149.972 58.1153 151.784C58.1153 153.597 59.5847 155.066 61.3972 155.066Z" fill="#292A2E"/>
<path d="M71.6629 155.066C73.4754 155.066 74.9448 153.597 74.9448 151.784C74.9448 149.972 73.4754 148.502 71.6629 148.502C69.8503 148.502 68.381 149.972 68.381 151.784C68.381 153.597 69.8503 155.066 71.6629 155.066Z" fill="#292A2E"/>
<path d="M81.929 155.066C83.7415 155.066 85.2109 153.597 85.2109 151.784C85.2109 149.972 83.7415 148.502 81.929 148.502C80.1164 148.502 78.6471 149.972 78.6471 151.784C78.6471 153.597 80.1164 155.066 81.929 155.066Z" fill="#292A2E"/>
<path d="M92.1951 155.066C94.0077 155.066 95.477 153.597 95.477 151.784C95.477 149.972 94.0077 148.502 92.1951 148.502C90.3826 148.502 88.9132 149.972 88.9132 151.784C88.9132 153.597 90.3826 155.066 92.1951 155.066Z" fill="#292A2E"/>
</g>
<g opacity="0.3">
<path d="M33.8539 113.072V114.182H29.6391V113.072H33.8539Z" fill="black"/>
<path d="M39.0917 113.072V114.182H34.877V113.072H39.0917Z" fill="black"/>
<path d="M44.3291 113.072V114.182H40.1143V113.072H44.3291Z" fill="black"/>
<path d="M49.5664 113.072V114.182H45.3517V113.072H49.5664Z" fill="black"/>
<path d="M54.8047 113.072V114.182H50.5895V113.072H54.8047Z" fill="black"/>
<path d="M64.2568 119.335C63.3194 119.816 62.2749 120.052 61.2214 120.019C58.4229 120.019 56.0507 117.971 56.0507 114.695C56.0507 111.18 58.4913 108.142 62.2792 108.142C65.2484 108.142 67.245 110.223 67.245 113.073C67.245 115.633 65.8113 117.135 64.2073 117.135C63.5252 117.135 62.8938 116.672 62.9447 115.633H62.8763C62.6556 116.083 62.3134 116.462 61.8883 116.728C61.4632 116.993 60.9724 117.134 60.4713 117.135C59.4815 117.135 58.6282 116.333 58.6282 114.985C58.6263 114.453 58.7296 113.927 58.9322 113.435C59.1348 112.943 59.4327 112.497 59.8086 112.121C60.1846 111.745 60.6312 111.447 61.1227 111.244C61.6143 111.042 62.1411 110.939 62.6728 110.94C63.2998 110.931 63.9217 111.053 64.4987 111.299L63.9183 114.387C63.6625 115.682 63.8674 116.284 64.4303 116.299C65.3007 116.316 66.2733 115.155 66.2733 113.176C66.2733 110.702 64.7887 108.927 62.1437 108.927C59.3622 108.927 57.0243 111.128 57.0243 114.592C57.0243 117.442 58.8844 119.2 61.4101 119.2C62.3056 119.221 63.1917 119.015 63.9867 118.603L64.2568 119.335ZM63.3184 111.963C63.0414 111.882 62.7539 111.841 62.4651 111.844C60.9634 111.844 59.7521 113.26 59.7521 114.915C59.7521 115.666 60.1276 116.21 60.8783 116.21C61.868 116.21 62.7722 114.948 62.9595 113.889L63.3184 111.963Z" fill="black"/>
<path d="M72.6161 113.072V114.182H68.4013V113.072H72.6161Z" fill="black"/>
<path d="M77.8539 113.072V114.182H73.6387V113.072H77.8539Z" fill="black"/>
<path d="M83.0913 113.072V114.182H78.8765V113.072H83.0913Z" fill="black"/>
</g>
</svg>
