<svg width="801" height="86" viewBox="0 0 801 86" fill="none" xmlns="http://www.w3.org/2000/svg">
<path d="M50.8498 5.07583V61.0269C50.8498 68.7915 48.6041 74.8434 44.1128 79.1824C39.6215 83.4454 33.6077 85.5768 26.0714 85.5768C18.459 85.5768 12.293 83.3692 7.57334 78.9541C2.92978 74.5389 0.608002 68.3728 0.608002 60.456H16.594C16.6701 63.8815 17.4694 66.5459 18.9919 68.449C20.5905 70.3521 22.8742 71.3036 25.8431 71.3036C28.7358 71.3036 30.9434 70.3901 32.4658 68.5631C33.9883 66.7362 34.7496 64.2241 34.7496 61.0269V5.07583H50.8498Z" fill="#E44F26"/>
<path d="M106.494 85.5768C99.0338 85.5768 92.1826 83.826 85.9405 80.3243C79.6983 76.8226 74.7503 71.9887 71.0963 65.8227C67.4424 59.5805 65.6154 52.5391 65.6154 44.6983C65.6154 36.9337 67.4424 29.9683 71.0963 23.8023C74.7503 17.5601 79.6983 12.6882 85.9405 9.18652C92.1826 5.68482 99.0338 3.93398 106.494 3.93398C114.03 3.93398 120.881 5.68482 127.047 9.18652C133.29 12.6882 138.2 17.5601 141.777 23.8023C145.431 29.9683 147.258 36.9337 147.258 44.6983C147.258 52.5391 145.431 59.5805 141.777 65.8227C138.2 71.9887 133.29 76.8226 127.047 80.3243C120.805 83.826 113.954 85.5768 106.494 85.5768ZM106.494 71.3036C111.29 71.3036 115.515 70.2379 119.169 68.1064C122.822 65.8988 125.677 62.7777 127.732 58.7432C129.788 54.7086 130.816 50.027 130.816 44.6983C130.816 39.3696 129.788 34.7261 127.732 30.7676C125.677 26.7331 122.822 23.6501 119.169 21.5186C115.515 19.3871 111.29 18.3214 106.494 18.3214C101.698 18.3214 97.4352 19.3871 93.7051 21.5186C90.0512 23.6501 87.1965 26.7331 85.1412 30.7676C83.0858 34.7261 82.0582 39.3696 82.0582 44.6983C82.0582 50.027 83.0858 54.7086 85.1412 58.7432C87.1965 62.7777 90.0512 65.8988 93.7051 68.1064C97.4352 70.2379 101.698 71.3036 106.494 71.3036Z" fill="#E44F26"/>
<path d="M183.359 85.8052C178.182 85.8052 173.539 84.8917 169.428 83.0647C165.317 81.1616 162.044 78.6115 159.608 75.4143C157.248 72.2171 155.954 68.6773 155.726 64.795H171.826C172.131 67.231 173.31 69.2483 175.366 70.8469C177.497 72.4455 180.124 73.2448 183.245 73.2448C186.29 73.2448 188.649 72.6358 190.324 71.4178C192.075 70.1998 192.95 68.6393 192.95 66.7362C192.95 64.6808 191.885 63.1583 189.753 62.1687C187.698 61.103 184.386 59.9611 179.819 58.7432C175.099 57.6013 171.217 56.4214 168.172 55.2034C165.203 53.9854 162.615 52.1204 160.407 49.6083C158.276 47.0962 157.21 43.7087 157.21 39.4458C157.21 35.9441 158.2 32.7469 160.179 29.8542C162.234 26.9614 165.127 24.6777 168.857 23.003C172.663 21.3283 177.117 20.4909 182.217 20.4909C189.753 20.4909 195.767 22.394 200.258 26.2002C204.75 29.9303 207.224 34.9925 207.68 41.3869H192.379C192.151 38.8748 191.085 36.8956 189.182 35.4493C187.355 33.9268 184.881 33.1655 181.76 33.1655C178.868 33.1655 176.622 33.6984 175.023 34.7641C173.501 35.8299 172.74 37.3143 172.74 39.2174C172.74 41.3489 173.805 42.9855 175.937 44.1274C178.068 45.1931 181.38 46.2969 185.871 47.4388C190.438 48.5806 194.206 49.7605 197.175 50.9785C200.144 52.1965 202.694 54.0996 204.826 56.6878C207.033 59.1999 208.175 62.5494 208.251 66.7362C208.251 70.3901 207.224 73.6634 205.168 76.5561C203.189 79.4489 200.296 81.7326 196.49 83.4073C192.76 85.0059 188.383 85.8052 183.359 85.8052Z" fill="#E44F26"/>
<path d="M237.36 30.7676C239.415 27.7227 242.232 25.2487 245.81 23.3456C249.463 21.4425 253.612 20.4909 258.256 20.4909C263.661 20.4909 268.532 21.8231 272.872 24.4874C277.287 27.1518 280.75 30.9579 283.262 35.906C285.851 40.7779 287.145 46.4492 287.145 52.9197C287.145 59.3902 285.851 65.1376 283.262 70.1617C280.75 75.1098 277.287 78.954 272.872 81.6945C268.532 84.435 263.661 85.8052 258.256 85.8052C253.536 85.8052 249.387 84.8917 245.81 83.0647C242.308 81.1616 239.491 78.7257 237.36 75.7568V84.7775H221.374V0.280029H237.36V30.7676ZM270.816 52.9197C270.816 49.1135 270.017 45.8402 268.418 43.0997C266.896 40.2831 264.84 38.1517 262.252 36.7053C259.74 35.2589 257 34.5358 254.031 34.5358C251.138 34.5358 248.398 35.297 245.81 36.8195C243.297 38.2658 241.242 40.3973 239.643 43.2139C238.121 46.0305 237.36 49.3419 237.36 53.1481C237.36 56.9543 238.121 60.2656 239.643 63.0822C241.242 65.8988 243.297 68.0683 245.81 69.5908C248.398 71.0372 251.138 71.7603 254.031 71.7603C257 71.7603 259.74 70.9991 262.252 69.4766C264.84 67.9542 266.896 65.7846 268.418 62.968C270.017 60.1515 270.816 56.802 270.816 52.9197Z" fill="#E44F26"/>
<path d="M326.851 85.8052C320.761 85.8052 315.28 84.473 310.408 81.8087C305.536 79.0682 301.692 75.224 298.876 70.2759C296.135 65.3279 294.765 59.6186 294.765 53.1481C294.765 46.6775 296.173 40.9682 298.99 36.0202C301.882 31.0721 305.803 27.2659 310.751 24.6016C315.699 21.8611 321.218 20.4909 327.308 20.4909C333.398 20.4909 338.917 21.8611 343.865 24.6016C348.813 27.2659 352.695 31.0721 355.512 36.0202C358.404 40.9682 359.851 46.6775 359.851 53.1481C359.851 59.6186 358.366 65.3279 355.398 70.2759C352.505 75.224 348.546 79.0682 343.522 81.8087C338.574 84.473 333.017 85.8052 326.851 85.8052ZM326.851 71.8745C329.744 71.8745 332.446 71.1894 334.958 69.8192C337.546 68.3728 339.602 66.2414 341.124 63.4248C342.647 60.6082 343.408 57.1826 343.408 53.1481C343.408 47.1343 341.809 42.5288 338.612 39.3316C335.491 36.0582 331.647 34.4216 327.079 34.4216C322.512 34.4216 318.668 36.0582 315.547 39.3316C312.502 42.5288 310.979 47.1343 310.979 53.1481C310.979 59.1618 312.464 63.8054 315.433 67.0787C318.477 70.2759 322.284 71.8745 326.851 71.8745Z" fill="#E44F26"/>
<path d="M387.563 31.3386C389.619 27.9891 392.283 25.3628 395.556 23.4597C398.906 21.5566 402.712 20.6051 406.975 20.6051V37.3904H402.75C397.726 37.3904 393.92 38.5703 391.331 40.9302C388.819 43.29 387.563 47.4007 387.563 53.2622V84.7775H371.577V21.5186H387.563V31.3386Z" fill="#E44F26"/>
<path d="M452.797 20.6051C460.333 20.6051 466.423 23.003 471.067 27.7988C475.71 32.5185 478.032 39.1413 478.032 47.6671V84.7775H462.046V49.8367C462.046 44.8125 460.79 40.9682 458.278 38.3039C455.766 35.5634 452.34 34.1932 448.001 34.1932C443.586 34.1932 440.084 35.5634 437.496 38.3039C434.984 40.9682 433.728 44.8125 433.728 49.8367V84.7775H417.742V21.5186H433.728V29.3974C435.86 26.6569 438.562 24.5255 441.835 23.003C445.185 21.4044 448.839 20.6051 452.797 20.6051Z" fill="#E44F26"/>
<path d="M552.04 51.7778C552.04 54.0615 551.888 56.1169 551.583 57.9439H505.338C505.718 62.5113 507.317 66.0891 510.134 68.6773C512.95 71.2655 516.414 72.5596 520.524 72.5596C526.462 72.5596 530.687 70.0095 533.199 64.9092H550.441C548.614 70.9991 545.112 76.0233 539.936 79.9817C534.76 83.864 528.403 85.8052 520.867 85.8052C514.777 85.8052 509.296 84.473 504.424 81.8087C499.628 79.0682 495.86 75.224 493.12 70.2759C490.456 65.3279 489.123 59.6186 489.123 53.1481C489.123 46.6014 490.456 40.8541 493.12 35.906C495.784 30.9579 499.514 27.1518 504.31 24.4874C509.106 21.8231 514.625 20.4909 520.867 20.4909C526.881 20.4909 532.248 21.785 536.967 24.3732C541.763 26.9614 545.455 30.6535 548.043 35.4493C550.708 40.1689 552.04 45.6118 552.04 51.7778ZM535.483 47.2104C535.407 43.0997 533.922 39.8264 531.03 37.3904C528.137 34.8783 524.597 33.6223 520.41 33.6223C516.452 33.6223 513.102 34.8403 510.362 37.2762C507.698 39.6361 506.061 42.9475 505.452 47.2104H535.483Z" fill="#E44F26"/>
<path d="M570.788 85.5768C567.895 85.5768 565.497 84.7014 563.594 82.9506C561.767 81.1236 560.853 78.8779 560.853 76.2136C560.853 73.5493 561.767 71.3417 563.594 69.5908C565.497 67.7638 567.895 66.8504 570.788 66.8504C573.604 66.8504 575.926 67.7638 577.753 69.5908C579.58 71.3417 580.493 73.5493 580.493 76.2136C580.493 78.8779 579.58 81.1236 577.753 82.9506C575.926 84.7014 573.604 85.5768 570.788 85.5768Z" fill="#E44F26"/>
<path d="M589.259 52.9197C589.259 46.5253 590.515 40.8541 593.027 35.906C595.615 30.9579 599.117 27.1518 603.532 24.4874C607.947 21.8231 612.857 20.4909 618.262 20.4909C622.373 20.4909 626.293 21.4044 630.023 23.2314C633.753 24.9822 636.722 27.3421 638.93 30.3109V0.280029H655.144V84.7775H638.93V75.4143C636.951 78.5354 634.172 81.0475 630.594 82.9506C627.016 84.8537 622.868 85.8052 618.148 85.8052C612.819 85.8052 607.947 84.435 603.532 81.6945C599.117 78.954 595.615 75.1098 593.027 70.1617C590.515 65.1376 589.259 59.3902 589.259 52.9197ZM639.044 53.1481C639.044 49.2657 638.283 45.9544 636.76 43.2139C635.238 40.3973 633.182 38.2658 630.594 36.8195C628.006 35.297 625.228 34.5358 622.259 34.5358C619.29 34.5358 616.549 35.2589 614.037 36.7053C611.525 38.1517 609.47 40.2831 607.871 43.0997C606.349 45.8402 605.588 49.1135 605.588 52.9197C605.588 56.7259 606.349 60.0753 607.871 62.968C609.47 65.7846 611.525 67.9542 614.037 69.4766C616.626 70.9991 619.366 71.7603 622.259 71.7603C625.228 71.7603 628.006 71.0372 630.594 69.5908C633.182 68.0683 635.238 65.9369 636.76 63.1964C638.283 60.3798 639.044 57.0304 639.044 53.1481Z" fill="#E44F26"/>
<path d="M729.563 51.7778C729.563 54.0615 729.411 56.1169 729.106 57.9439H682.861C683.242 62.5113 684.84 66.0891 687.657 68.6773C690.473 71.2655 693.937 72.5596 698.048 72.5596C703.985 72.5596 708.21 70.0095 710.722 64.9092H727.964C726.137 70.9991 722.636 76.0233 717.459 79.9817C712.283 83.864 705.927 85.8052 698.39 85.8052C692.3 85.8052 686.819 84.473 681.948 81.8087C677.152 79.0682 673.384 75.224 670.643 70.2759C667.979 65.3279 666.647 59.6186 666.647 53.1481C666.647 46.6014 667.979 40.8541 670.643 35.906C673.307 30.9579 677.038 27.1518 681.833 24.4874C686.629 21.8231 692.148 20.4909 698.39 20.4909C704.404 20.4909 709.771 21.785 714.49 24.3732C719.286 26.9614 722.978 30.6535 725.567 35.4493C728.231 40.1689 729.563 45.6118 729.563 51.7778ZM713.006 47.2104C712.93 43.0997 711.446 39.8264 708.553 37.3904C705.66 34.8783 702.12 33.6223 697.934 33.6223C693.975 33.6223 690.626 34.8403 687.885 37.2762C685.221 39.6361 683.584 42.9475 682.975 47.2104H713.006Z" fill="#E44F26"/>
<path d="M767.608 70.0476L783.594 21.5186H800.608L777.2 84.7775H757.788L734.494 21.5186H751.622L767.608 70.0476Z" fill="#E44F26"/>
<path d="M50.8498 5.07583V61.0269C50.8498 68.7915 48.6041 74.8434 44.1128 79.1824C39.6215 83.4454 33.6077 85.5768 26.0714 85.5768C18.459 85.5768 12.293 83.3692 7.57334 78.9541C2.92978 74.5389 0.608002 68.3728 0.608002 60.456H16.594C16.6701 63.8815 17.4694 66.5459 18.9919 68.449C20.5905 70.3521 22.8742 71.3036 25.8431 71.3036C28.7358 71.3036 30.9434 70.3901 32.4658 68.5631C33.9883 66.7362 34.7496 64.2241 34.7496 61.0269V5.07583H50.8498Z" fill="black"/>
<path d="M106.494 85.5768C99.0338 85.5768 92.1826 83.826 85.9405 80.3243C79.6983 76.8226 74.7503 71.9887 71.0963 65.8227C67.4424 59.5805 65.6154 52.5391 65.6154 44.6983C65.6154 36.9337 67.4424 29.9683 71.0963 23.8023C74.7503 17.5601 79.6983 12.6882 85.9405 9.18652C92.1826 5.68482 99.0338 3.93398 106.494 3.93398C114.03 3.93398 120.881 5.68482 127.047 9.18652C133.29 12.6882 138.2 17.5601 141.777 23.8023C145.431 29.9683 147.258 36.9337 147.258 44.6983C147.258 52.5391 145.431 59.5805 141.777 65.8227C138.2 71.9887 133.29 76.8226 127.047 80.3243C120.805 83.826 113.954 85.5768 106.494 85.5768ZM106.494 71.3036C111.29 71.3036 115.515 70.2379 119.169 68.1064C122.822 65.8988 125.677 62.7777 127.732 58.7432C129.788 54.7086 130.816 50.027 130.816 44.6983C130.816 39.3696 129.788 34.7261 127.732 30.7676C125.677 26.7331 122.822 23.6501 119.169 21.5186C115.515 19.3871 111.29 18.3214 106.494 18.3214C101.698 18.3214 97.4352 19.3871 93.7051 21.5186C90.0512 23.6501 87.1965 26.7331 85.1412 30.7676C83.0858 34.7261 82.0582 39.3696 82.0582 44.6983C82.0582 50.027 83.0858 54.7086 85.1412 58.7432C87.1965 62.7777 90.0512 65.8988 93.7051 68.1064C97.4352 70.2379 101.698 71.3036 106.494 71.3036Z" fill="black"/>
<path d="M183.359 85.8052C178.182 85.8052 173.539 84.8917 169.428 83.0647C165.317 81.1616 162.044 78.6115 159.608 75.4143C157.248 72.2171 155.954 68.6773 155.726 64.795H171.826C172.131 67.231 173.31 69.2483 175.366 70.8469C177.497 72.4455 180.124 73.2448 183.245 73.2448C186.29 73.2448 188.649 72.6358 190.324 71.4178C192.075 70.1998 192.95 68.6393 192.95 66.7362C192.95 64.6808 191.885 63.1583 189.753 62.1687C187.698 61.103 184.386 59.9611 179.819 58.7432C175.099 57.6013 171.217 56.4214 168.172 55.2034C165.203 53.9854 162.615 52.1204 160.407 49.6083C158.276 47.0962 157.21 43.7087 157.21 39.4458C157.21 35.9441 158.2 32.7469 160.179 29.8542C162.234 26.9614 165.127 24.6777 168.857 23.003C172.663 21.3283 177.117 20.4909 182.217 20.4909C189.753 20.4909 195.767 22.394 200.258 26.2002C204.75 29.9303 207.224 34.9925 207.68 41.3869H192.379C192.151 38.8748 191.085 36.8956 189.182 35.4493C187.355 33.9268 184.881 33.1655 181.76 33.1655C178.868 33.1655 176.622 33.6984 175.023 34.7641C173.501 35.8299 172.74 37.3143 172.74 39.2174C172.74 41.3489 173.805 42.9855 175.937 44.1274C178.068 45.1931 181.38 46.2969 185.871 47.4388C190.438 48.5806 194.206 49.7605 197.175 50.9785C200.144 52.1965 202.694 54.0996 204.826 56.6878C207.033 59.1999 208.175 62.5494 208.251 66.7362C208.251 70.3901 207.224 73.6634 205.168 76.5561C203.189 79.4489 200.296 81.7326 196.49 83.4073C192.76 85.0059 188.383 85.8052 183.359 85.8052Z" fill="black"/>
<path d="M237.36 30.7676C239.415 27.7227 242.232 25.2487 245.81 23.3456C249.463 21.4425 253.612 20.4909 258.256 20.4909C263.661 20.4909 268.532 21.8231 272.872 24.4874C277.287 27.1518 280.75 30.9579 283.262 35.906C285.851 40.7779 287.145 46.4492 287.145 52.9197C287.145 59.3902 285.851 65.1376 283.262 70.1617C280.75 75.1098 277.287 78.954 272.872 81.6945C268.532 84.435 263.661 85.8052 258.256 85.8052C253.536 85.8052 249.387 84.8917 245.81 83.0647C242.308 81.1616 239.491 78.7257 237.36 75.7568V84.7775H221.374V0.280029H237.36V30.7676ZM270.816 52.9197C270.816 49.1135 270.017 45.8402 268.418 43.0997C266.896 40.2831 264.84 38.1517 262.252 36.7053C259.74 35.2589 257 34.5358 254.031 34.5358C251.138 34.5358 248.398 35.297 245.81 36.8195C243.297 38.2658 241.242 40.3973 239.643 43.2139C238.121 46.0305 237.36 49.3419 237.36 53.1481C237.36 56.9543 238.121 60.2656 239.643 63.0822C241.242 65.8988 243.297 68.0683 245.81 69.5908C248.398 71.0372 251.138 71.7603 254.031 71.7603C257 71.7603 259.74 70.9991 262.252 69.4766C264.84 67.9542 266.896 65.7846 268.418 62.968C270.017 60.1515 270.816 56.802 270.816 52.9197Z" fill="black"/>
<path d="M326.851 85.8052C320.761 85.8052 315.28 84.473 310.408 81.8087C305.536 79.0682 301.692 75.224 298.876 70.2759C296.135 65.3279 294.765 59.6186 294.765 53.1481C294.765 46.6775 296.173 40.9682 298.99 36.0202C301.882 31.0721 305.803 27.2659 310.751 24.6016C315.699 21.8611 321.218 20.4909 327.308 20.4909C333.398 20.4909 338.917 21.8611 343.865 24.6016C348.813 27.2659 352.695 31.0721 355.512 36.0202C358.404 40.9682 359.851 46.6775 359.851 53.1481C359.851 59.6186 358.366 65.3279 355.398 70.2759C352.505 75.224 348.546 79.0682 343.522 81.8087C338.574 84.473 333.017 85.8052 326.851 85.8052ZM326.851 71.8745C329.744 71.8745 332.446 71.1894 334.958 69.8192C337.546 68.3728 339.602 66.2414 341.124 63.4248C342.647 60.6082 343.408 57.1826 343.408 53.1481C343.408 47.1343 341.809 42.5288 338.612 39.3316C335.491 36.0582 331.647 34.4216 327.079 34.4216C322.512 34.4216 318.668 36.0582 315.547 39.3316C312.502 42.5288 310.979 47.1343 310.979 53.1481C310.979 59.1618 312.464 63.8054 315.433 67.0787C318.477 70.2759 322.284 71.8745 326.851 71.8745Z" fill="black"/>
<path d="M387.563 31.3386C389.619 27.9891 392.283 25.3628 395.556 23.4597C398.906 21.5566 402.712 20.6051 406.975 20.6051V37.3904H402.75C397.726 37.3904 393.92 38.5703 391.331 40.9302C388.819 43.29 387.563 47.4007 387.563 53.2622V84.7775H371.577V21.5186H387.563V31.3386Z" fill="black"/>
<path d="M452.797 20.6051C460.333 20.6051 466.423 23.003 471.067 27.7988C475.71 32.5185 478.032 39.1413 478.032 47.6671V84.7775H462.046V49.8367C462.046 44.8125 460.79 40.9682 458.278 38.3039C455.766 35.5634 452.34 34.1932 448.001 34.1932C443.586 34.1932 440.084 35.5634 437.496 38.3039C434.984 40.9682 433.728 44.8125 433.728 49.8367V84.7775H417.742V21.5186H433.728V29.3974C435.86 26.6569 438.562 24.5255 441.835 23.003C445.185 21.4044 448.839 20.6051 452.797 20.6051Z" fill="black"/>
<path d="M552.04 51.7778C552.04 54.0615 551.888 56.1169 551.583 57.9439H505.338C505.718 62.5113 507.317 66.0891 510.134 68.6773C512.95 71.2655 516.414 72.5596 520.524 72.5596C526.462 72.5596 530.687 70.0095 533.199 64.9092H550.441C548.614 70.9991 545.112 76.0233 539.936 79.9817C534.76 83.864 528.403 85.8052 520.867 85.8052C514.777 85.8052 509.296 84.473 504.424 81.8087C499.628 79.0682 495.86 75.224 493.12 70.2759C490.456 65.3279 489.123 59.6186 489.123 53.1481C489.123 46.6014 490.456 40.8541 493.12 35.906C495.784 30.9579 499.514 27.1518 504.31 24.4874C509.106 21.8231 514.625 20.4909 520.867 20.4909C526.881 20.4909 532.248 21.785 536.967 24.3732C541.763 26.9614 545.455 30.6535 548.043 35.4493C550.708 40.1689 552.04 45.6118 552.04 51.7778ZM535.483 47.2104C535.407 43.0997 533.922 39.8264 531.03 37.3904C528.137 34.8783 524.597 33.6223 520.41 33.6223C516.452 33.6223 513.102 34.8403 510.362 37.2762C507.698 39.6361 506.061 42.9475 505.452 47.2104H535.483Z" fill="black"/>
<path d="M50.8498 5.07583V61.0269C50.8498 68.7915 48.6041 74.8434 44.1128 79.1824C39.6215 83.4454 33.6077 85.5768 26.0714 85.5768C18.459 85.5768 12.293 83.3692 7.57334 78.9541C2.92978 74.5389 0.608002 68.3728 0.608002 60.456H16.594C16.6701 63.8815 17.4694 66.5459 18.9919 68.449C20.5905 70.3521 22.8742 71.3036 25.8431 71.3036C28.7358 71.3036 30.9434 70.3901 32.4658 68.5631C33.9883 66.7362 34.7496 64.2241 34.7496 61.0269V5.07583H50.8498Z" fill="#4893EB"/>
<path d="M106.494 85.5768C99.0338 85.5768 92.1826 83.826 85.9405 80.3243C79.6983 76.8226 74.7503 71.9887 71.0963 65.8227C67.4424 59.5805 65.6154 52.5391 65.6154 44.6983C65.6154 36.9337 67.4424 29.9683 71.0963 23.8023C74.7503 17.5601 79.6983 12.6882 85.9405 9.18652C92.1826 5.68482 99.0338 3.93398 106.494 3.93398C114.03 3.93398 120.881 5.68482 127.047 9.18652C133.29 12.6882 138.2 17.5601 141.777 23.8023C145.431 29.9683 147.258 36.9337 147.258 44.6983C147.258 52.5391 145.431 59.5805 141.777 65.8227C138.2 71.9887 133.29 76.8226 127.047 80.3243C120.805 83.826 113.954 85.5768 106.494 85.5768ZM106.494 71.3036C111.29 71.3036 115.515 70.2379 119.169 68.1064C122.822 65.8988 125.677 62.7777 127.732 58.7432C129.788 54.7086 130.816 50.027 130.816 44.6983C130.816 39.3696 129.788 34.7261 127.732 30.7676C125.677 26.7331 122.822 23.6501 119.169 21.5186C115.515 19.3871 111.29 18.3214 106.494 18.3214C101.698 18.3214 97.4352 19.3871 93.7051 21.5186C90.0512 23.6501 87.1965 26.7331 85.1412 30.7676C83.0858 34.7261 82.0582 39.3696 82.0582 44.6983C82.0582 50.027 83.0858 54.7086 85.1412 58.7432C87.1965 62.7777 90.0512 65.8988 93.7051 68.1064C97.4352 70.2379 101.698 71.3036 106.494 71.3036Z" fill="#4893EB"/>
</svg>
