<svg width="897" height="96" viewBox="0 0 897 96" fill="none" xmlns="http://www.w3.org/2000/svg">
<path d="M56.32 5.376V68.096C56.32 76.8 53.8027 83.584 48.768 88.448C43.7333 93.2267 36.992 95.616 28.544 95.616C20.0107 95.616 13.0987 93.1413 7.808 88.192C2.60267 83.2427 0 76.3307 0 67.456H17.92C18.0053 71.296 18.9013 74.2827 20.608 76.416C22.4 78.5493 24.96 79.616 28.288 79.616C31.5307 79.616 34.0053 78.592 35.712 76.544C37.4187 74.496 38.272 71.68 38.272 68.096V5.376H56.32Z" fill="#E44F26"/>
<path d="M118.696 95.616C110.333 95.616 102.653 93.6533 95.656 89.728C88.6587 85.8027 83.112 80.384 79.016 73.472C74.92 66.4747 72.872 58.5813 72.872 49.792C72.872 41.088 74.92 33.28 79.016 26.368C83.112 19.3707 88.6587 13.9093 95.656 9.98399C102.653 6.05867 110.333 4.096 118.696 4.096C127.144 4.096 134.824 6.05867 141.736 9.98399C148.733 13.9093 154.237 19.3707 158.248 26.368C162.344 33.28 164.392 41.088 164.392 49.792C164.392 58.5813 162.344 66.4747 158.248 73.472C154.237 80.384 148.733 85.8027 141.736 89.728C134.739 93.6533 127.059 95.616 118.696 95.616ZM118.696 79.616C124.072 79.616 128.808 78.4213 132.904 76.032C137 73.5573 140.2 70.0587 142.504 65.536C144.808 61.0133 145.96 55.7653 145.96 49.792C145.96 43.8187 144.808 38.6133 142.504 34.176C140.2 29.6533 137 26.1973 132.904 23.808C128.808 21.4187 124.072 20.224 118.696 20.224C113.32 20.224 108.541 21.4187 104.36 23.808C100.264 26.1973 97.064 29.6533 94.76 34.176C92.456 38.6133 91.304 43.8187 91.304 49.792C91.304 55.7653 92.456 61.0133 94.76 65.536C97.064 70.0587 100.264 73.5573 104.36 76.032C108.541 78.4213 113.32 79.616 118.696 79.616Z" fill="#E44F26"/>
<path d="M204.86 95.872C199.057 95.872 193.852 94.848 189.244 92.8C184.636 90.6667 180.967 87.808 178.236 84.224C175.591 80.64 174.14 76.672 173.884 72.32H191.932C192.273 75.0507 193.596 77.312 195.9 79.104C198.289 80.896 201.233 81.792 204.732 81.792C208.145 81.792 210.791 81.1093 212.668 79.744C214.631 78.3787 215.612 76.6293 215.612 74.496C215.612 72.192 214.417 70.4853 212.028 69.376C209.724 68.1813 206.012 66.9013 200.892 65.536C195.601 64.256 191.249 62.9333 187.836 61.568C184.508 60.2027 181.607 58.112 179.132 55.296C176.743 52.48 175.548 48.6827 175.548 43.904C175.548 39.9787 176.657 36.3947 178.876 33.152C181.18 29.9093 184.423 27.3493 188.604 25.472C192.871 23.5947 197.863 22.656 203.58 22.656C212.028 22.656 218.769 24.7893 223.804 29.056C228.839 33.2373 231.612 38.912 232.124 46.08H214.972C214.716 43.264 213.521 41.0453 211.388 39.424C209.34 37.7173 206.567 36.864 203.068 36.864C199.825 36.864 197.308 37.4613 195.516 38.656C193.809 39.8507 192.956 41.5147 192.956 43.648C192.956 46.0373 194.151 47.872 196.54 49.152C198.929 50.3467 202.641 51.584 207.676 52.864C212.796 54.144 217.02 55.4667 220.348 56.832C223.676 58.1973 226.535 60.3307 228.924 63.232C231.399 66.048 232.679 69.8027 232.764 74.496C232.764 78.592 231.612 82.2613 229.308 85.504C227.089 88.7467 223.847 91.3067 219.58 93.184C215.399 94.976 210.492 95.872 204.86 95.872Z" fill="#E44F26"/>
<path d="M265.394 34.176C267.698 30.7627 270.855 27.9893 274.866 25.856C278.962 23.7227 283.613 22.656 288.818 22.656C294.877 22.656 300.338 24.1493 305.202 27.136C310.151 30.1227 314.034 34.3893 316.85 39.936C319.751 45.3973 321.202 51.7547 321.202 59.008C321.202 66.2613 319.751 72.704 316.85 78.336C314.034 83.8827 310.151 88.192 305.202 91.264C300.338 94.336 294.877 95.872 288.818 95.872C283.527 95.872 278.877 94.848 274.866 92.8C270.941 90.6667 267.783 87.936 265.394 84.608V94.72H247.474V0H265.394V34.176ZM302.898 59.008C302.898 54.7413 302.002 51.072 300.21 48C298.503 44.8427 296.199 42.4533 293.298 40.832C290.482 39.2107 287.41 38.4 284.082 38.4C280.839 38.4 277.767 39.2533 274.866 40.96C272.05 42.5813 269.746 44.9707 267.954 48.128C266.247 51.2853 265.394 54.9973 265.394 59.264C265.394 63.5307 266.247 67.2427 267.954 70.4C269.746 73.5573 272.05 75.9893 274.866 77.696C277.767 79.3173 280.839 80.128 284.082 80.128C287.41 80.128 290.482 79.2747 293.298 77.568C296.199 75.8613 298.503 73.4293 300.21 70.272C302.002 67.1147 302.898 63.36 302.898 59.008Z" fill="#E44F26"/>
<path d="M365.712 95.872C358.885 95.872 352.741 94.3787 347.28 91.392C341.819 88.32 337.509 84.0107 334.352 78.464C331.28 72.9173 329.744 66.5173 329.744 59.264C329.744 52.0107 331.323 45.6107 334.48 40.064C337.723 34.5173 342.117 30.2507 347.664 27.264C353.211 24.192 359.397 22.656 366.224 22.656C373.051 22.656 379.237 24.192 384.784 27.264C390.331 30.2507 394.683 34.5173 397.84 40.064C401.083 45.6107 402.704 52.0107 402.704 59.264C402.704 66.5173 401.04 72.9173 397.712 78.464C394.469 84.0107 390.032 88.32 384.4 91.392C378.853 94.3787 372.624 95.872 365.712 95.872ZM365.712 80.256C368.955 80.256 371.984 79.488 374.8 77.952C377.701 76.3307 380.005 73.9413 381.712 70.784C383.419 67.6267 384.272 63.7867 384.272 59.264C384.272 52.5227 382.48 47.36 378.896 43.776C375.397 40.1067 371.088 38.272 365.968 38.272C360.848 38.272 356.539 40.1067 353.04 43.776C349.627 47.36 347.92 52.5227 347.92 59.264C347.92 66.0053 349.584 71.2107 352.912 74.88C356.325 78.464 360.592 80.256 365.712 80.256Z" fill="#E44F26"/>
<path d="M433.769 34.816C436.073 31.0613 439.06 28.1173 442.729 25.984C446.484 23.8507 450.75 22.784 455.529 22.784V41.6H450.793C445.161 41.6 440.894 42.9227 437.993 45.568C435.177 48.2133 433.769 52.8213 433.769 59.392V94.72H415.849V23.808H433.769V34.816Z" fill="#E44F26"/>
<path d="M506.895 22.784C515.343 22.784 522.17 25.472 527.375 30.848C532.58 36.1387 535.183 43.5627 535.183 53.12V94.72H517.263V55.552C517.263 49.92 515.855 45.6107 513.039 42.624C510.223 39.552 506.383 38.016 501.519 38.016C496.57 38.016 492.644 39.552 489.743 42.624C486.927 45.6107 485.519 49.92 485.519 55.552V94.72H467.599V23.808H485.519V32.64C487.908 29.568 490.938 27.1787 494.607 25.472C498.362 23.68 502.458 22.784 506.895 22.784Z" fill="#E44F26"/>
<path d="M618.144 57.728C618.144 60.288 617.973 62.592 617.632 64.64H565.792C566.219 69.76 568.011 73.7707 571.168 76.672C574.325 79.5733 578.208 81.024 582.816 81.024C589.472 81.024 594.208 78.1653 597.024 72.448H616.352C614.304 79.2747 610.379 84.9067 604.576 89.344C598.773 93.696 591.648 95.872 583.2 95.872C576.373 95.872 570.229 94.3787 564.768 91.392C559.392 88.32 555.168 84.0107 552.096 78.464C549.109 72.9173 547.616 66.5173 547.616 59.264C547.616 51.9253 549.109 45.4827 552.096 39.936C555.083 34.3893 559.264 30.1227 564.64 27.136C570.016 24.1493 576.203 22.656 583.2 22.656C589.941 22.656 595.957 24.1067 601.248 27.008C606.624 29.9093 610.763 34.048 613.664 39.424C616.651 44.7147 618.144 50.816 618.144 57.728ZM599.584 52.608C599.499 48 597.835 44.3307 594.592 41.6C591.349 38.784 587.381 37.376 582.688 37.376C578.251 37.376 574.496 38.7413 571.424 41.472C568.437 44.1173 566.603 47.8293 565.92 52.608H599.584Z" fill="#E44F26"/>
<path d="M639.16 95.616C635.917 95.616 633.229 94.6347 631.096 92.672C629.048 90.624 628.024 88.1067 628.024 85.12C628.024 82.1333 629.048 79.6587 631.096 77.696C633.229 75.648 635.917 74.624 639.16 74.624C642.317 74.624 644.92 75.648 646.968 77.696C649.016 79.6587 650.04 82.1333 650.04 85.12C650.04 88.1067 649.016 90.624 646.968 92.672C644.92 94.6347 642.317 95.616 639.16 95.616Z" fill="#E44F26"/>
<path d="M659.866 59.008C659.866 51.84 661.274 45.4827 664.09 39.936C666.991 34.3893 670.917 30.1227 675.866 27.136C680.815 24.1493 686.319 22.656 692.378 22.656C696.986 22.656 701.381 23.68 705.562 25.728C709.743 27.6907 713.071 30.336 715.546 33.664V0H733.722V94.72H715.546V84.224C713.327 87.7227 710.213 90.5387 706.202 92.672C702.191 94.8053 697.541 95.872 692.25 95.872C686.277 95.872 680.815 94.336 675.866 91.264C670.917 88.192 666.991 83.8827 664.09 78.336C661.274 72.704 659.866 66.2613 659.866 59.008ZM715.674 59.264C715.674 54.912 714.821 51.2 713.114 48.128C711.407 44.9707 709.103 42.5813 706.202 40.96C703.301 39.2533 700.186 38.4 696.858 38.4C693.53 38.4 690.458 39.2107 687.642 40.832C684.826 42.4533 682.522 44.8427 680.73 48C679.023 51.072 678.17 54.7413 678.17 59.008C678.17 63.2747 679.023 67.0293 680.73 70.272C682.522 73.4293 684.826 75.8613 687.642 77.568C690.543 79.2747 693.615 80.128 696.858 80.128C700.186 80.128 703.301 79.3173 706.202 77.696C709.103 75.9893 711.407 73.6 713.114 70.528C714.821 67.3707 715.674 63.616 715.674 59.264Z" fill="#E44F26"/>
<path d="M817.144 57.728C817.144 60.288 816.973 62.592 816.632 64.64H764.792C765.219 69.76 767.011 73.7707 770.168 76.672C773.325 79.5733 777.208 81.024 781.816 81.024C788.472 81.024 793.208 78.1653 796.024 72.448H815.352C813.304 79.2747 809.379 84.9067 803.576 89.344C797.773 93.696 790.648 95.872 782.2 95.872C775.373 95.872 769.229 94.3787 763.768 91.392C758.392 88.32 754.168 84.0107 751.096 78.464C748.109 72.9173 746.616 66.5173 746.616 59.264C746.616 51.9253 748.109 45.4827 751.096 39.936C754.083 34.3893 758.264 30.1227 763.64 27.136C769.016 24.1493 775.203 22.656 782.2 22.656C788.941 22.656 794.957 24.1067 800.248 27.008C805.624 29.9093 809.763 34.048 812.664 39.424C815.651 44.7147 817.144 50.816 817.144 57.728ZM798.584 52.608C798.499 48 796.835 44.3307 793.592 41.6C790.349 38.784 786.381 37.376 781.688 37.376C777.251 37.376 773.496 38.7413 770.424 41.472C767.437 44.1173 765.603 47.8293 764.92 52.608H798.584Z" fill="#E44F26"/>
<path d="M859.792 78.208L877.712 23.808H896.784L870.544 94.72H848.784L822.672 23.808H841.872L859.792 78.208Z" fill="#E44F26"/>
<path d="M56.32 5.376V68.096C56.32 76.8 53.8027 83.584 48.768 88.448C43.7333 93.2267 36.992 95.616 28.544 95.616C20.0107 95.616 13.0987 93.1413 7.808 88.192C2.60267 83.2427 0 76.3307 0 67.456H17.92C18.0053 71.296 18.9013 74.2827 20.608 76.416C22.4 78.5493 24.96 79.616 28.288 79.616C31.5307 79.616 34.0053 78.592 35.712 76.544C37.4187 74.496 38.272 71.68 38.272 68.096V5.376H56.32Z" fill="white"/>
<path d="M118.696 95.616C110.333 95.616 102.653 93.6533 95.656 89.728C88.6587 85.8027 83.112 80.384 79.016 73.472C74.92 66.4747 72.872 58.5813 72.872 49.792C72.872 41.088 74.92 33.28 79.016 26.368C83.112 19.3707 88.6587 13.9093 95.656 9.98399C102.653 6.05867 110.333 4.096 118.696 4.096C127.144 4.096 134.824 6.05867 141.736 9.98399C148.733 13.9093 154.237 19.3707 158.248 26.368C162.344 33.28 164.392 41.088 164.392 49.792C164.392 58.5813 162.344 66.4747 158.248 73.472C154.237 80.384 148.733 85.8027 141.736 89.728C134.739 93.6533 127.059 95.616 118.696 95.616ZM118.696 79.616C124.072 79.616 128.808 78.4213 132.904 76.032C137 73.5573 140.2 70.0587 142.504 65.536C144.808 61.0133 145.96 55.7653 145.96 49.792C145.96 43.8187 144.808 38.6133 142.504 34.176C140.2 29.6533 137 26.1973 132.904 23.808C128.808 21.4187 124.072 20.224 118.696 20.224C113.32 20.224 108.541 21.4187 104.36 23.808C100.264 26.1973 97.064 29.6533 94.76 34.176C92.456 38.6133 91.304 43.8187 91.304 49.792C91.304 55.7653 92.456 61.0133 94.76 65.536C97.064 70.0587 100.264 73.5573 104.36 76.032C108.541 78.4213 113.32 79.616 118.696 79.616Z" fill="white"/>
<path d="M204.86 95.872C199.057 95.872 193.852 94.848 189.244 92.8C184.636 90.6667 180.967 87.808 178.236 84.224C175.591 80.64 174.14 76.672 173.884 72.32H191.932C192.273 75.0507 193.596 77.312 195.9 79.104C198.289 80.896 201.233 81.792 204.732 81.792C208.145 81.792 210.791 81.1093 212.668 79.744C214.631 78.3787 215.612 76.6293 215.612 74.496C215.612 72.192 214.417 70.4853 212.028 69.376C209.724 68.1813 206.012 66.9013 200.892 65.536C195.601 64.256 191.249 62.9333 187.836 61.568C184.508 60.2027 181.607 58.112 179.132 55.296C176.743 52.48 175.548 48.6827 175.548 43.904C175.548 39.9787 176.657 36.3947 178.876 33.152C181.18 29.9093 184.423 27.3493 188.604 25.472C192.871 23.5947 197.863 22.656 203.58 22.656C212.028 22.656 218.769 24.7893 223.804 29.056C228.839 33.2373 231.612 38.912 232.124 46.08H214.972C214.716 43.264 213.521 41.0453 211.388 39.424C209.34 37.7173 206.567 36.864 203.068 36.864C199.825 36.864 197.308 37.4613 195.516 38.656C193.809 39.8507 192.956 41.5147 192.956 43.648C192.956 46.0373 194.151 47.872 196.54 49.152C198.929 50.3467 202.641 51.584 207.676 52.864C212.796 54.144 217.02 55.4667 220.348 56.832C223.676 58.1973 226.535 60.3307 228.924 63.232C231.399 66.048 232.679 69.8027 232.764 74.496C232.764 78.592 231.612 82.2613 229.308 85.504C227.089 88.7467 223.847 91.3067 219.58 93.184C215.399 94.976 210.492 95.872 204.86 95.872Z" fill="white"/>
<path d="M265.394 34.176C267.698 30.7627 270.855 27.9893 274.866 25.856C278.962 23.7227 283.613 22.656 288.818 22.656C294.877 22.656 300.338 24.1493 305.202 27.136C310.151 30.1227 314.034 34.3893 316.85 39.936C319.751 45.3973 321.202 51.7547 321.202 59.008C321.202 66.2613 319.751 72.704 316.85 78.336C314.034 83.8827 310.151 88.192 305.202 91.264C300.338 94.336 294.877 95.872 288.818 95.872C283.527 95.872 278.877 94.848 274.866 92.8C270.941 90.6667 267.783 87.936 265.394 84.608V94.72H247.474V0H265.394V34.176ZM302.898 59.008C302.898 54.7413 302.002 51.072 300.21 48C298.503 44.8427 296.199 42.4533 293.298 40.832C290.482 39.2107 287.41 38.4 284.082 38.4C280.839 38.4 277.767 39.2533 274.866 40.96C272.05 42.5813 269.746 44.9707 267.954 48.128C266.247 51.2853 265.394 54.9973 265.394 59.264C265.394 63.5307 266.247 67.2427 267.954 70.4C269.746 73.5573 272.05 75.9893 274.866 77.696C277.767 79.3173 280.839 80.128 284.082 80.128C287.41 80.128 290.482 79.2747 293.298 77.568C296.199 75.8613 298.503 73.4293 300.21 70.272C302.002 67.1147 302.898 63.36 302.898 59.008Z" fill="white"/>
<path d="M365.712 95.872C358.885 95.872 352.741 94.3787 347.28 91.392C341.819 88.32 337.509 84.0107 334.352 78.464C331.28 72.9173 329.744 66.5173 329.744 59.264C329.744 52.0107 331.323 45.6107 334.48 40.064C337.723 34.5173 342.117 30.2507 347.664 27.264C353.211 24.192 359.397 22.656 366.224 22.656C373.051 22.656 379.237 24.192 384.784 27.264C390.331 30.2507 394.683 34.5173 397.84 40.064C401.083 45.6107 402.704 52.0107 402.704 59.264C402.704 66.5173 401.04 72.9173 397.712 78.464C394.469 84.0107 390.032 88.32 384.4 91.392C378.853 94.3787 372.624 95.872 365.712 95.872ZM365.712 80.256C368.955 80.256 371.984 79.488 374.8 77.952C377.701 76.3307 380.005 73.9413 381.712 70.784C383.419 67.6267 384.272 63.7867 384.272 59.264C384.272 52.5227 382.48 47.36 378.896 43.776C375.397 40.1067 371.088 38.272 365.968 38.272C360.848 38.272 356.539 40.1067 353.04 43.776C349.627 47.36 347.92 52.5227 347.92 59.264C347.92 66.0053 349.584 71.2107 352.912 74.88C356.325 78.464 360.592 80.256 365.712 80.256Z" fill="white"/>
<path d="M433.769 34.816C436.073 31.0613 439.06 28.1173 442.729 25.984C446.484 23.8507 450.75 22.784 455.529 22.784V41.6H450.793C445.161 41.6 440.894 42.9227 437.993 45.568C435.177 48.2133 433.769 52.8213 433.769 59.392V94.72H415.849V23.808H433.769V34.816Z" fill="white"/>
<path d="M506.895 22.784C515.343 22.784 522.17 25.472 527.375 30.848C532.58 36.1387 535.183 43.5627 535.183 53.12V94.72H517.263V55.552C517.263 49.92 515.855 45.6107 513.039 42.624C510.223 39.552 506.383 38.016 501.519 38.016C496.57 38.016 492.644 39.552 489.743 42.624C486.927 45.6107 485.519 49.92 485.519 55.552V94.72H467.599V23.808H485.519V32.64C487.908 29.568 490.938 27.1787 494.607 25.472C498.362 23.68 502.458 22.784 506.895 22.784Z" fill="white"/>
<path d="M618.144 57.728C618.144 60.288 617.973 62.592 617.632 64.64H565.792C566.219 69.76 568.011 73.7707 571.168 76.672C574.325 79.5733 578.208 81.024 582.816 81.024C589.472 81.024 594.208 78.1653 597.024 72.448H616.352C614.304 79.2747 610.379 84.9067 604.576 89.344C598.773 93.696 591.648 95.872 583.2 95.872C576.373 95.872 570.229 94.3787 564.768 91.392C559.392 88.32 555.168 84.0107 552.096 78.464C549.109 72.9173 547.616 66.5173 547.616 59.264C547.616 51.9253 549.109 45.4827 552.096 39.936C555.083 34.3893 559.264 30.1227 564.64 27.136C570.016 24.1493 576.203 22.656 583.2 22.656C589.941 22.656 595.957 24.1067 601.248 27.008C606.624 29.9093 610.763 34.048 613.664 39.424C616.651 44.7147 618.144 50.816 618.144 57.728ZM599.584 52.608C599.499 48 597.835 44.3307 594.592 41.6C591.349 38.784 587.381 37.376 582.688 37.376C578.251 37.376 574.496 38.7413 571.424 41.472C568.437 44.1173 566.603 47.8293 565.92 52.608H599.584Z" fill="white"/>
<path d="M56.32 5.376V68.096C56.32 76.8 53.8027 83.584 48.768 88.448C43.7333 93.2267 36.992 95.616 28.544 95.616C20.0107 95.616 13.0987 93.1413 7.808 88.192C2.60267 83.2427 0 76.3307 0 67.456H17.92C18.0053 71.296 18.9013 74.2827 20.608 76.416C22.4 78.5493 24.96 79.616 28.288 79.616C31.5307 79.616 34.0053 78.592 35.712 76.544C37.4187 74.496 38.272 71.68 38.272 68.096V5.376H56.32Z" fill="#4893EB"/>
<path d="M118.696 95.616C110.333 95.616 102.653 93.6533 95.656 89.728C88.6587 85.8027 83.112 80.384 79.016 73.472C74.92 66.4747 72.872 58.5813 72.872 49.792C72.872 41.088 74.92 33.28 79.016 26.368C83.112 19.3707 88.6587 13.9093 95.656 9.98399C102.653 6.05867 110.333 4.096 118.696 4.096C127.144 4.096 134.824 6.05867 141.736 9.98399C148.733 13.9093 154.237 19.3707 158.248 26.368C162.344 33.28 164.392 41.088 164.392 49.792C164.392 58.5813 162.344 66.4747 158.248 73.472C154.237 80.384 148.733 85.8027 141.736 89.728C134.739 93.6533 127.059 95.616 118.696 95.616ZM118.696 79.616C124.072 79.616 128.808 78.4213 132.904 76.032C137 73.5573 140.2 70.0587 142.504 65.536C144.808 61.0133 145.96 55.7653 145.96 49.792C145.96 43.8187 144.808 38.6133 142.504 34.176C140.2 29.6533 137 26.1973 132.904 23.808C128.808 21.4187 124.072 20.224 118.696 20.224C113.32 20.224 108.541 21.4187 104.36 23.808C100.264 26.1973 97.064 29.6533 94.76 34.176C92.456 38.6133 91.304 43.8187 91.304 49.792C91.304 55.7653 92.456 61.0133 94.76 65.536C97.064 70.0587 100.264 73.5573 104.36 76.032C108.541 78.4213 113.32 79.616 118.696 79.616Z" fill="#4893EB"/>
</svg>
