<svg width="500" height="530" viewBox="0 0 500 530" fill="none" xmlns="http://www.w3.org/2000/svg">
<path d="M463.905 64.4658C409.286 -13.7121 273.223 -24.7964 124.2 53.4042C-24.8237 131.605 -30.4685 314.178 58.0988 335.352C146.666 356.525 180.919 294.068 313.866 344.717C417.053 384.066 570.48 216.874 463.905 64.4658Z" fill="#CFE3FF"/>
<g style="mix-blend-mode:overlay" opacity="0.6">
<path d="M278.25 2.43051C302.663 56.6494 355.385 110.225 435.761 115.797C452.959 116.925 470.404 114.049 487.546 108.319C481.414 92.7381 473.422 77.9532 463.742 64.2854C428.997 14.6571 361.291 -7.82224 278.25 2.43051Z" fill="#231F20"/>
</g>
<g style="mix-blend-mode:overlay" opacity="0.6">
<path d="M196.093 301.715C117.12 278.053 148.655 235.359 60.8264 193.865C44.9635 186.335 27.5436 182.687 9.99984 183.223C-13.7192 253.756 5.71911 322.807 58.1044 335.34C146.69 356.534 180.981 294.016 313.988 344.714C365.639 364.402 429.839 332.408 467.801 276.411C406.605 294.775 279.065 326.577 196.093 301.715Z" fill="#231F20"/>
</g>
<g style="mix-blend-mode:overlay" opacity="0.6">
<path d="M483.483 247.728C486.845 240.367 489.724 232.795 492.102 225.06C474.221 223.128 456.373 220.8 438.684 217.545C396.381 209.782 354.473 196.617 318.71 172.107C263.597 134.307 215.578 83.3765 174.055 30.0729C156.99 36.9266 140.284 44.6434 124.003 53.1934C117.3 56.704 110.899 60.4218 104.799 64.3468C131.797 96.3719 158.907 127.527 191.179 154.874C233.72 190.944 279.57 221.794 333.801 236.914C382.396 250.452 433.442 252.361 483.483 247.728Z" fill="#231F20"/>
</g>
<g style="mix-blend-mode:overlay" opacity="0.6">
<path d="M475.234 254.039C467.886 256.167 460.506 258.162 453.097 260.026C445.699 261.87 438.279 263.613 430.836 265.152C423.393 266.691 415.927 268.095 408.462 269.351C393.599 271.819 378.61 273.451 363.566 274.24C359.801 274.413 356.066 274.534 352.362 274.602C350.498 274.602 348.635 274.602 346.771 274.602H343.981L341.203 274.534C333.771 274.364 326.396 273.9 319.077 273.063C311.806 272.268 304.582 271.086 297.437 269.521C295.652 269.158 293.902 268.683 292.14 268.276L286.831 266.872C285.058 266.397 283.296 265.865 281.523 265.367C279.75 264.869 278.01 264.236 276.248 263.738C262.265 259.254 248.702 253.551 235.713 246.695C209.735 233.047 186.277 214.827 164.636 194.468C153.816 184.283 143.369 173.589 133.012 162.68L117.595 146.236L109.824 138.009C107.234 135.255 104.625 132.524 101.997 129.816C91.5249 118.758 80.3866 108.354 68.6446 98.661L65.2563 95.9903C64.0365 97.1899 62.8506 98.3894 61.6646 99.6116C62.7941 100.562 63.9235 101.524 65.053 102.509C76.1062 112.505 86.433 123.28 95.9547 134.75C115.155 157.519 133.091 181.59 153.703 204.099C164.052 215.519 175.124 226.258 186.853 236.249C192.809 241.274 198.998 246.069 205.421 250.633C211.87 255.16 218.534 259.437 225.446 263.376C239.364 271.331 254.045 277.864 269.268 282.874C271.177 283.474 273.086 284.119 275.017 284.685C276.949 285.251 278.88 285.817 280.823 286.371L286.662 287.921C288.65 288.374 290.638 288.895 292.637 289.291C300.606 291.004 308.669 292.243 316.784 293.003C332.849 294.456 349.015 294.391 365.068 292.81C373.031 292.029 380.937 291.011 388.787 289.619C396.636 288.227 404.362 286.62 412.019 284.73C419.677 282.84 427.256 280.69 434.744 278.37C438.509 277.171 442.224 275.93 445.891 274.647C449.585 273.38 453.244 271.999 456.881 270.607C463.477 268.072 469.975 265.348 476.375 262.436C478.273 259.049 480.072 255.601 481.774 252.093C479.56 252.749 477.403 253.406 475.234 254.039Z" fill="#231F20"/>
</g>
<g style="mix-blend-mode:overlay" opacity="0.6">
<path d="M456.865 54.6825C447.124 43.2807 435.59 33.5588 422.721 25.9028H421.131C402.174 25.923 383.94 18.5962 370.224 5.44786C354.968 2.11842 339.425 0.293804 323.815 0C342.137 37.178 379.841 60.7162 421.131 60.7533C433.298 60.7639 445.379 58.7114 456.865 54.6825Z" fill="#231F20"/>
</g>
<g style="mix-blend-mode:overlay" opacity="0.6">
<path d="M33.0516 250.304C22.0487 250.294 11.1084 251.963 0.607544 255.254C1.57698 266.934 4.24375 278.409 8.52348 289.317C27.844 282.523 49.1102 284.04 67.2739 293.51C85.4376 302.98 98.8793 319.557 104.408 339.307C116.076 338.583 127.677 337.031 139.125 334.663C127.576 285.304 83.6608 250.379 33.0516 250.304Z" fill="#231F20"/>
</g>
<path d="M434.239 189.486L316.9 189.486C314.67 189.486 312.531 188.6 310.954 187.023C309.377 185.446 308.491 183.307 308.491 181.077V95.6557C308.491 93.4265 309.376 91.2886 310.953 89.7122C312.529 88.1359 314.667 87.2504 316.896 87.2504L434.243 87.2504C436.473 87.2504 438.61 88.1359 440.187 89.7122C441.763 91.2886 442.649 93.4265 442.649 95.6557V181.077C442.649 183.307 441.763 185.446 440.186 187.023C438.609 188.6 436.47 189.486 434.239 189.486Z" fill="white"/>
<path d="M308.139 181.076V95.6552C308.139 93.3327 309.062 91.1054 310.704 89.4632C312.346 87.821 314.574 86.8984 316.896 86.8984H434.243C436.566 86.8984 438.793 87.821 440.435 89.4632C442.077 91.1054 443 93.3327 443 95.6552V181.076C443 182.227 442.773 183.366 442.333 184.429C441.893 185.492 441.248 186.457 440.434 187.271C439.621 188.084 438.655 188.73 437.592 189.17C436.529 189.61 435.39 189.837 434.239 189.837H316.9C315.75 189.837 314.61 189.61 313.548 189.17C312.485 188.73 311.519 188.084 310.705 187.271C309.892 186.457 309.247 185.492 308.806 184.429C308.366 183.366 308.139 182.227 308.139 181.076ZM316.896 87.6011C314.761 87.6017 312.713 88.4505 311.203 89.9609C309.693 91.4713 308.844 93.5195 308.844 95.6552V181.076C308.844 183.213 309.693 185.263 311.205 186.774C312.716 188.285 314.765 189.134 316.902 189.134H434.239C436.376 189.134 438.426 188.285 439.937 186.774C441.448 185.263 442.297 183.213 442.297 181.076V95.6552C442.297 93.5191 441.449 91.4705 439.938 89.9601C438.428 88.4497 436.379 87.6011 434.243 87.6011H316.896Z" fill="#292A2E"/>
<path d="M308.491 95.654V102.772H442.648V95.654C442.648 93.4248 441.762 91.2869 440.186 89.7105C438.609 88.1342 436.471 87.2487 434.242 87.2487H316.896C315.792 87.2487 314.699 87.4661 313.68 87.8885C312.66 88.3109 311.733 88.9301 310.953 89.7106C310.172 90.4911 309.553 91.4177 309.131 92.4375C308.709 93.4573 308.491 94.5503 308.491 95.654Z" fill="#292A2E"/>
<path d="M354.308 114.277H347.977C347.903 114.277 347.831 114.247 347.779 114.194C347.726 114.142 347.696 114.07 347.696 113.996C347.696 113.921 347.726 113.85 347.779 113.797C347.831 113.744 347.903 113.714 347.977 113.714H354.308C354.382 113.714 354.454 113.744 354.507 113.797C354.559 113.85 354.589 113.921 354.589 113.996C354.589 114.07 354.559 114.142 354.507 114.194C354.454 114.247 354.382 114.277 354.308 114.277Z" fill="#292A2E"/>
<path d="M343.412 114.277H341.017C340.942 114.277 340.871 114.247 340.818 114.194C340.765 114.142 340.736 114.07 340.736 113.996C340.736 113.921 340.765 113.85 340.818 113.797C340.871 113.744 340.942 113.714 341.017 113.714H343.412C343.487 113.714 343.558 113.744 343.611 113.797C343.664 113.85 343.693 113.921 343.693 113.996C343.693 114.07 343.664 114.142 343.611 114.194C343.558 114.247 343.487 114.277 343.412 114.277Z" fill="#367CFF"/>
<path d="M343.412 119.347H341.017C340.942 119.347 340.871 119.318 340.818 119.265C340.765 119.212 340.736 119.141 340.736 119.066C340.736 118.992 340.765 118.92 340.818 118.867C340.871 118.815 340.942 118.785 341.017 118.785H343.412C343.487 118.785 343.558 118.815 343.611 118.867C343.664 118.92 343.693 118.992 343.693 119.066C343.693 119.141 343.664 119.212 343.611 119.265C343.558 119.318 343.487 119.347 343.412 119.347Z" fill="#367CFF"/>
<path d="M343.412 124.418H341.017C340.942 124.418 340.871 124.388 340.818 124.336C340.765 124.283 340.736 124.211 340.736 124.137C340.736 124.062 340.765 123.991 340.818 123.938C340.871 123.885 340.942 123.856 341.017 123.856H343.412C343.487 123.856 343.558 123.885 343.611 123.938C343.664 123.991 343.693 124.062 343.693 124.137C343.693 124.211 343.664 124.283 343.611 124.336C343.558 124.388 343.487 124.418 343.412 124.418Z" fill="#367CFF"/>
<path d="M343.412 129.489H341.017C340.942 129.489 340.871 129.459 340.818 129.406C340.765 129.354 340.736 129.282 340.736 129.208C340.736 129.133 340.765 129.061 340.818 129.009C340.871 128.956 340.942 128.926 341.017 128.926H343.412C343.487 128.926 343.558 128.956 343.611 129.009C343.664 129.061 343.693 129.133 343.693 129.208C343.693 129.282 343.664 129.354 343.611 129.406C343.558 129.459 343.487 129.489 343.412 129.489Z" fill="#367CFF"/>
<path d="M343.412 134.559H341.017C340.942 134.559 340.871 134.53 340.818 134.477C340.765 134.424 340.736 134.353 340.736 134.278C340.736 134.204 340.765 134.132 340.818 134.079C340.871 134.027 340.942 133.997 341.017 133.997H343.412C343.487 133.997 343.558 134.027 343.611 134.079C343.664 134.132 343.693 134.204 343.693 134.278C343.693 134.353 343.664 134.424 343.611 134.477C343.558 134.53 343.487 134.559 343.412 134.559Z" fill="#367CFF"/>
<path d="M343.412 139.63H341.017C340.942 139.63 340.871 139.6 340.818 139.548C340.765 139.495 340.736 139.423 340.736 139.349C340.736 139.274 340.765 139.203 340.818 139.15C340.871 139.097 340.942 139.068 341.017 139.068H343.412C343.487 139.068 343.558 139.097 343.611 139.15C343.664 139.203 343.693 139.274 343.693 139.349C343.693 139.423 343.664 139.495 343.611 139.548C343.558 139.6 343.487 139.63 343.412 139.63Z" fill="#367CFF"/>
<path d="M343.412 144.701H341.017C340.942 144.701 340.871 144.671 340.818 144.618C340.765 144.566 340.736 144.494 340.736 144.42C340.736 144.345 340.765 144.274 340.818 144.221C340.871 144.168 340.942 144.138 341.017 144.138H343.412C343.487 144.138 343.558 144.168 343.611 144.221C343.664 144.274 343.693 144.345 343.693 144.42C343.693 144.494 343.664 144.566 343.611 144.618C343.558 144.671 343.487 144.701 343.412 144.701Z" fill="#367CFF"/>
<path d="M343.412 149.771H341.017C340.942 149.771 340.871 149.742 340.818 149.689C340.765 149.636 340.736 149.565 340.736 149.49C340.736 149.416 340.765 149.344 340.818 149.291C340.871 149.239 340.942 149.209 341.017 149.209H343.412C343.487 149.209 343.558 149.239 343.611 149.291C343.664 149.344 343.693 149.416 343.693 149.49C343.693 149.565 343.664 149.636 343.611 149.689C343.558 149.742 343.487 149.771 343.412 149.771Z" fill="#367CFF"/>
<path d="M343.412 154.842H341.017C340.942 154.842 340.871 154.812 340.818 154.76C340.765 154.707 340.736 154.635 340.736 154.561C340.736 154.486 340.765 154.415 340.818 154.362C340.871 154.309 340.942 154.28 341.017 154.28H343.412C343.487 154.28 343.558 154.309 343.611 154.362C343.664 154.415 343.693 154.486 343.693 154.561C343.693 154.635 343.664 154.707 343.611 154.76C343.558 154.812 343.487 154.842 343.412 154.842Z" fill="#367CFF"/>
<path d="M343.412 159.913H341.017C340.942 159.913 340.871 159.883 340.818 159.83C340.765 159.778 340.736 159.706 340.736 159.632C340.736 159.557 340.765 159.485 340.818 159.433C340.871 159.38 340.942 159.35 341.017 159.35H343.412C343.487 159.35 343.558 159.38 343.611 159.433C343.664 159.485 343.693 159.557 343.693 159.632C343.693 159.706 343.664 159.778 343.611 159.83C343.558 159.883 343.487 159.913 343.412 159.913Z" fill="#367CFF"/>
<path d="M343.412 164.983H341.017C340.942 164.983 340.871 164.954 340.818 164.901C340.765 164.848 340.736 164.777 340.736 164.702C340.736 164.628 340.765 164.556 340.818 164.503C340.871 164.451 340.942 164.421 341.017 164.421H343.412C343.487 164.421 343.558 164.451 343.611 164.503C343.664 164.556 343.693 164.628 343.693 164.702C343.693 164.777 343.664 164.848 343.611 164.901C343.558 164.954 343.487 164.983 343.412 164.983Z" fill="#367CFF"/>
<path d="M343.412 170.054H341.017C340.942 170.054 340.871 170.024 340.818 169.972C340.765 169.919 340.736 169.847 340.736 169.773C340.736 169.698 340.765 169.627 340.818 169.574C340.871 169.521 340.942 169.492 341.017 169.492H343.412C343.487 169.492 343.558 169.521 343.611 169.574C343.664 169.627 343.693 169.698 343.693 169.773C343.693 169.847 343.664 169.919 343.611 169.972C343.558 170.024 343.487 170.054 343.412 170.054Z" fill="#367CFF"/>
<path d="M343.412 175.125H341.017C340.942 175.125 340.871 175.095 340.818 175.042C340.765 174.99 340.736 174.918 340.736 174.844C340.736 174.769 340.765 174.697 340.818 174.645C340.871 174.592 340.942 174.562 341.017 174.562H343.412C343.487 174.562 343.558 174.592 343.611 174.645C343.664 174.697 343.693 174.769 343.693 174.844C343.693 174.918 343.664 174.99 343.611 175.042C343.558 175.095 343.487 175.125 343.412 175.125Z" fill="#367CFF"/>
<path d="M343.412 180.196H341.017C340.942 180.196 340.871 180.166 340.818 180.113C340.765 180.061 340.736 179.989 340.736 179.915C340.736 179.84 340.765 179.769 340.818 179.716C340.871 179.663 340.942 179.634 341.017 179.634H343.412C343.487 179.634 343.558 179.663 343.611 179.716C343.664 179.769 343.693 179.84 343.693 179.915C343.693 179.989 343.664 180.061 343.611 180.113C343.558 180.166 343.487 180.196 343.412 180.196Z" fill="#367CFF"/>
<path d="M359.367 119.347H353.599C353.524 119.347 353.453 119.318 353.4 119.265C353.347 119.212 353.318 119.141 353.318 119.066C353.318 118.992 353.347 118.92 353.4 118.867C353.453 118.815 353.524 118.785 353.599 118.785H359.367C359.442 118.785 359.513 118.815 359.566 118.867C359.619 118.92 359.648 118.992 359.648 119.066C359.648 119.141 359.619 119.212 359.566 119.265C359.513 119.318 359.442 119.347 359.367 119.347Z" fill="#292A2E"/>
<path d="M354.308 149.771H347.977C347.903 149.771 347.831 149.742 347.779 149.689C347.726 149.636 347.696 149.565 347.696 149.49C347.696 149.416 347.726 149.344 347.779 149.291C347.831 149.239 347.903 149.209 347.977 149.209H354.308C354.382 149.209 354.454 149.239 354.507 149.291C354.559 149.344 354.589 149.416 354.589 149.49C354.589 149.565 354.559 149.636 354.507 149.689C354.454 149.742 354.382 149.771 354.308 149.771Z" fill="#292A2E"/>
<path d="M359.367 154.842H353.599C353.524 154.842 353.453 154.812 353.4 154.76C353.347 154.707 353.318 154.635 353.318 154.561C353.318 154.486 353.347 154.415 353.4 154.362C353.453 154.309 353.524 154.28 353.599 154.28H359.367C359.442 154.28 359.513 154.309 359.566 154.362C359.619 154.415 359.648 154.486 359.648 154.561C359.648 154.635 359.619 154.707 359.566 154.76C359.513 154.812 359.442 154.842 359.367 154.842Z" fill="#292A2E"/>
<path d="M391.972 124.418H357.534C357.459 124.418 357.388 124.388 357.335 124.336C357.283 124.283 357.253 124.211 357.253 124.137C357.253 124.062 357.283 123.991 357.335 123.938C357.388 123.885 357.459 123.856 357.534 123.856H391.972C392.047 123.856 392.118 123.885 392.171 123.938C392.224 123.991 392.253 124.062 392.253 124.137C392.253 124.211 392.224 124.283 392.171 124.336C392.118 124.388 392.047 124.418 391.972 124.418Z" fill="#292A2E"/>
<path d="M422.378 124.418H398.059C397.984 124.418 397.913 124.388 397.86 124.336C397.807 124.283 397.778 124.211 397.778 124.137C397.778 124.062 397.807 123.991 397.86 123.938C397.913 123.885 397.984 123.856 398.059 123.856H422.378C422.452 123.856 422.524 123.885 422.577 123.938C422.629 123.991 422.659 124.062 422.659 124.137C422.659 124.211 422.629 124.283 422.577 124.336C422.524 124.388 422.452 124.418 422.378 124.418Z" fill="#0CBC8B"/>
<path d="M435.429 124.418H427.975C427.9 124.418 427.829 124.388 427.776 124.336C427.723 124.283 427.694 124.211 427.694 124.137C427.694 124.062 427.723 123.991 427.776 123.938C427.829 123.885 427.9 123.856 427.975 123.856H435.429C435.503 123.856 435.575 123.885 435.628 123.938C435.68 123.991 435.71 124.062 435.71 124.137C435.71 124.211 435.68 124.283 435.628 124.336C435.575 124.388 435.503 124.418 435.429 124.418Z" fill="#292A2E"/>
<path d="M408.837 134.559H357.534C357.459 134.559 357.388 134.53 357.335 134.477C357.283 134.424 357.253 134.353 357.253 134.278C357.253 134.204 357.283 134.132 357.335 134.079C357.388 134.027 357.459 133.997 357.534 133.997H408.837C408.912 133.997 408.983 134.027 409.036 134.079C409.089 134.132 409.118 134.204 409.118 134.278C409.118 134.353 409.089 134.424 409.036 134.477C408.983 134.53 408.912 134.559 408.837 134.559Z" fill="#292A2E"/>
<path d="M422.378 134.559H414.924C414.849 134.559 414.778 134.53 414.725 134.477C414.672 134.424 414.642 134.353 414.642 134.278C414.642 134.204 414.672 134.132 414.725 134.079C414.778 134.027 414.849 133.997 414.924 133.997H422.378C422.452 133.997 422.524 134.027 422.577 134.079C422.629 134.132 422.659 134.204 422.659 134.278C422.659 134.353 422.629 134.424 422.577 134.477C422.524 134.53 422.452 134.559 422.378 134.559Z" fill="#367CFF"/>
<path d="M363.864 129.489H357.534C357.459 129.489 357.388 129.459 357.335 129.406C357.283 129.354 357.253 129.282 357.253 129.208C357.253 129.133 357.283 129.062 357.335 129.009C357.388 128.956 357.459 128.926 357.534 128.926H363.864C363.939 128.926 364.011 128.956 364.063 129.009C364.116 129.062 364.146 129.133 364.146 129.208C364.146 129.282 364.116 129.354 364.063 129.406C364.011 129.459 363.939 129.489 363.864 129.489Z" fill="#0CBC8B"/>
<path d="M405.513 129.489H369.951C369.876 129.489 369.805 129.459 369.752 129.406C369.7 129.354 369.67 129.282 369.67 129.208C369.67 129.133 369.7 129.062 369.752 129.009C369.805 128.956 369.876 128.926 369.951 128.926H405.513C405.588 128.926 405.659 128.956 405.712 129.009C405.765 129.062 405.794 129.133 405.794 129.208C405.794 129.282 405.765 129.354 405.712 129.406C405.659 129.459 405.588 129.489 405.513 129.489Z" fill="#367CFF"/>
<path d="M435.478 129.489H412.281C412.207 129.489 412.135 129.459 412.083 129.406C412.03 129.354 412 129.282 412 129.208C412 129.133 412.03 129.062 412.083 129.009C412.135 128.956 412.207 128.926 412.281 128.926H435.477C435.551 128.926 435.623 128.956 435.675 129.009C435.728 129.062 435.758 129.133 435.758 129.208C435.758 129.282 435.728 129.354 435.675 129.406C435.623 129.459 435.551 129.489 435.477 129.489H435.478Z" fill="#292A2E"/>
<path d="M391.972 139.63H357.534C357.459 139.63 357.388 139.6 357.335 139.548C357.283 139.495 357.253 139.423 357.253 139.349C357.253 139.274 357.283 139.203 357.335 139.15C357.388 139.097 357.459 139.068 357.534 139.068H391.972C392.047 139.068 392.118 139.097 392.171 139.15C392.224 139.203 392.253 139.274 392.253 139.349C392.253 139.423 392.224 139.495 392.171 139.548C392.118 139.6 392.047 139.63 391.972 139.63Z" fill="#292A2E"/>
<path d="M411.135 139.63H398.059C397.984 139.63 397.913 139.6 397.86 139.548C397.807 139.495 397.778 139.423 397.778 139.349C397.778 139.274 397.807 139.203 397.86 139.15C397.913 139.097 397.984 139.068 398.059 139.068H411.135C411.209 139.068 411.281 139.097 411.333 139.15C411.386 139.203 411.416 139.274 411.416 139.349C411.416 139.423 411.386 139.495 411.333 139.548C411.281 139.6 411.209 139.63 411.135 139.63Z" fill="#0CBC8B"/>
<path d="M435.429 139.63H416.731C416.657 139.63 416.585 139.6 416.533 139.548C416.48 139.495 416.45 139.423 416.45 139.349C416.45 139.274 416.48 139.203 416.533 139.15C416.585 139.097 416.657 139.068 416.731 139.068H435.429C435.503 139.068 435.575 139.097 435.628 139.15C435.68 139.203 435.71 139.274 435.71 139.349C435.71 139.423 435.68 139.495 435.628 139.548C435.575 139.6 435.503 139.63 435.429 139.63Z" fill="#292A2E"/>
<path d="M363.864 144.701H357.534C357.459 144.701 357.388 144.671 357.335 144.618C357.283 144.566 357.253 144.494 357.253 144.42C357.253 144.345 357.283 144.274 357.335 144.221C357.388 144.168 357.459 144.138 357.534 144.138H363.864C363.939 144.138 364.011 144.168 364.063 144.221C364.116 144.274 364.146 144.345 364.146 144.42C364.146 144.494 364.116 144.566 364.063 144.618C364.011 144.671 363.939 144.701 363.864 144.701Z" fill="#367CFF"/>
<path d="M405.513 144.701H369.951C369.876 144.701 369.805 144.671 369.752 144.618C369.7 144.566 369.67 144.494 369.67 144.42C369.67 144.345 369.7 144.274 369.752 144.221C369.805 144.168 369.876 144.138 369.951 144.138H405.513C405.588 144.138 405.659 144.168 405.712 144.221C405.765 144.274 405.794 144.345 405.794 144.42C405.794 144.494 405.765 144.566 405.712 144.618C405.659 144.671 405.588 144.701 405.513 144.701Z" fill="#0CBC8B"/>
<path d="M390.848 164.983H356.41C356.335 164.983 356.264 164.954 356.211 164.901C356.158 164.848 356.129 164.777 356.129 164.702C356.129 164.628 356.158 164.556 356.211 164.503C356.264 164.451 356.335 164.421 356.41 164.421H390.848C390.923 164.421 390.994 164.451 391.047 164.503C391.1 164.556 391.129 164.628 391.129 164.702C391.129 164.777 391.1 164.848 391.047 164.901C390.994 164.954 390.923 164.983 390.848 164.983Z" fill="#292A2E"/>
<path d="M421.253 164.983H396.935C396.86 164.983 396.789 164.954 396.736 164.901C396.683 164.848 396.653 164.777 396.653 164.702C396.653 164.628 396.683 164.556 396.736 164.503C396.789 164.451 396.86 164.421 396.935 164.421H421.253C421.328 164.421 421.4 164.451 421.452 164.503C421.505 164.556 421.535 164.628 421.535 164.702C421.535 164.777 421.505 164.848 421.452 164.901C421.4 164.954 421.328 164.983 421.253 164.983Z" fill="#367CFF"/>
<path d="M373.983 159.913H356.41C356.335 159.913 356.264 159.883 356.211 159.83C356.158 159.778 356.129 159.706 356.129 159.632C356.129 159.557 356.158 159.485 356.211 159.433C356.264 159.38 356.335 159.35 356.41 159.35H373.983C374.058 159.35 374.129 159.38 374.182 159.433C374.235 159.485 374.264 159.557 374.264 159.632C374.264 159.706 374.235 159.778 374.182 159.83C374.129 159.883 374.058 159.913 373.983 159.913Z" fill="#0CBC8B"/>
<path d="M404.389 159.913H380.07C379.995 159.913 379.924 159.883 379.871 159.83C379.818 159.778 379.789 159.706 379.789 159.632C379.789 159.557 379.818 159.485 379.871 159.433C379.924 159.38 379.995 159.35 380.07 159.35H404.389C404.463 159.35 404.535 159.38 404.588 159.433C404.64 159.485 404.67 159.557 404.67 159.632C404.67 159.706 404.64 159.778 404.588 159.83C404.535 159.883 404.463 159.913 404.389 159.913Z" fill="#367CFF"/>
<path d="M434.353 159.913H411.157C411.083 159.913 411.011 159.883 410.958 159.83C410.906 159.778 410.876 159.706 410.876 159.632C410.876 159.557 410.906 159.485 410.958 159.433C411.011 159.38 411.083 159.35 411.157 159.35H434.352C434.427 159.35 434.498 159.38 434.551 159.433C434.604 159.485 434.633 159.557 434.633 159.632C434.633 159.706 434.604 159.778 434.551 159.83C434.498 159.883 434.427 159.913 434.352 159.913H434.353Z" fill="#292A2E"/>
<path d="M407.713 175.125H356.41C356.335 175.125 356.264 175.096 356.211 175.043C356.158 174.99 356.129 174.919 356.129 174.844C356.129 174.77 356.158 174.698 356.211 174.645C356.264 174.593 356.335 174.563 356.41 174.563H407.713C407.787 174.563 407.859 174.593 407.912 174.645C407.964 174.698 407.994 174.77 407.994 174.844C407.994 174.919 407.964 174.99 407.912 175.043C407.859 175.096 407.787 175.125 407.713 175.125Z" fill="#367CFF"/>
<path d="M421.253 175.125H413.799C413.725 175.125 413.653 175.096 413.601 175.043C413.548 174.99 413.518 174.919 413.518 174.844C413.518 174.77 413.548 174.698 413.601 174.645C413.653 174.593 413.725 174.563 413.799 174.563H421.253C421.328 174.563 421.4 174.593 421.452 174.645C421.505 174.698 421.535 174.77 421.535 174.844C421.535 174.919 421.505 174.99 421.452 175.043C421.4 175.096 421.328 175.125 421.253 175.125Z" fill="#292A2E"/>
<path d="M362.74 170.054H356.41C356.335 170.054 356.264 170.025 356.211 169.972C356.158 169.919 356.129 169.848 356.129 169.773C356.129 169.699 356.158 169.627 356.211 169.575C356.264 169.522 356.335 169.492 356.41 169.492H362.74C362.815 169.492 362.886 169.522 362.939 169.575C362.992 169.627 363.021 169.699 363.021 169.773C363.021 169.848 362.992 169.919 362.939 169.972C362.886 170.025 362.815 170.054 362.74 170.054Z" fill="#367CFF"/>
<path d="M404.389 170.054H368.827C368.752 170.054 368.681 170.025 368.628 169.972C368.575 169.919 368.546 169.848 368.546 169.773C368.546 169.699 368.575 169.627 368.628 169.575C368.681 169.522 368.752 169.492 368.827 169.492H404.389C404.463 169.492 404.535 169.522 404.588 169.575C404.64 169.627 404.67 169.699 404.67 169.773C404.67 169.848 404.64 169.919 404.588 169.972C404.535 170.025 404.463 170.054 404.389 170.054Z" fill="#292A2E"/>
<path d="M434.353 170.054H411.157C411.083 170.054 411.011 170.025 410.958 169.972C410.906 169.919 410.876 169.848 410.876 169.773C410.876 169.699 410.906 169.627 410.958 169.575C411.011 169.522 411.083 169.492 411.157 169.492H434.352C434.427 169.492 434.498 169.522 434.551 169.575C434.604 169.627 434.633 169.699 434.633 169.773C434.633 169.848 434.604 169.919 434.551 169.972C434.498 170.025 434.427 170.054 434.352 170.054H434.353Z" fill="#0CBC8B"/>
<path d="M390.848 180.196H356.41C356.335 180.196 356.264 180.166 356.211 180.113C356.158 180.061 356.129 179.989 356.129 179.915C356.129 179.84 356.158 179.769 356.211 179.716C356.264 179.663 356.335 179.634 356.41 179.634H390.848C390.923 179.634 390.994 179.663 391.047 179.716C391.1 179.769 391.129 179.84 391.129 179.915C391.129 179.989 391.1 180.061 391.047 180.113C390.994 180.166 390.923 180.196 390.848 180.196Z" fill="#0CBC8B"/>
<path d="M410.01 180.196H396.935C396.86 180.196 396.789 180.166 396.736 180.113C396.683 180.061 396.653 179.989 396.653 179.915C396.653 179.84 396.683 179.769 396.736 179.716C396.789 179.663 396.86 179.634 396.935 179.634H410.01C410.085 179.634 410.156 179.663 410.209 179.716C410.262 179.769 410.291 179.84 410.291 179.915C410.291 179.989 410.262 180.061 410.209 180.113C410.156 180.166 410.085 180.196 410.01 180.196Z" fill="#292A2E"/>
<path d="M434.305 180.196H415.607C415.533 180.196 415.461 180.166 415.408 180.113C415.356 180.061 415.326 179.989 415.326 179.915C415.326 179.84 415.356 179.769 415.408 179.716C415.461 179.663 415.533 179.634 415.607 179.634H434.305C434.379 179.634 434.451 179.663 434.503 179.716C434.556 179.769 434.586 179.84 434.586 179.915C434.586 179.989 434.556 180.061 434.503 180.113C434.451 180.166 434.379 180.196 434.305 180.196Z" fill="#367CFF"/>
<path d="M338.347 185.622C338.272 185.622 338.201 185.592 338.148 185.539C338.096 185.487 338.066 185.415 338.066 185.341V105.425C338.066 105.35 338.096 105.279 338.148 105.226C338.201 105.173 338.272 105.144 338.347 105.144C338.422 105.144 338.493 105.173 338.546 105.226C338.598 105.279 338.628 105.35 338.628 105.425V185.341C338.628 185.415 338.598 185.487 338.546 185.539C338.493 185.592 338.422 185.622 338.347 185.622Z" fill="#292A2E"/>
<path d="M432.484 100.083C434.975 100.083 436.994 98.0637 436.994 95.5731C436.994 93.0825 434.975 91.0635 432.484 91.0635C429.994 91.0635 427.975 93.0825 427.975 95.5731C427.975 98.0637 429.994 100.083 432.484 100.083Z" fill="white"/>
<path d="M325.491 108.936H313.319C313.245 108.936 313.173 108.907 313.12 108.854C313.068 108.801 313.038 108.73 313.038 108.655C313.038 108.581 313.068 108.509 313.12 108.456C313.173 108.404 313.245 108.374 313.319 108.374H325.491C325.566 108.374 325.637 108.404 325.69 108.456C325.742 108.509 325.772 108.581 325.772 108.655C325.772 108.73 325.742 108.801 325.69 108.854C325.637 108.907 325.566 108.936 325.491 108.936Z" fill="#292A2E"/>
<path d="M321.824 114.48H313.319C313.245 114.48 313.173 114.451 313.12 114.398C313.068 114.345 313.038 114.274 313.038 114.199C313.038 114.125 313.068 114.053 313.12 114C313.173 113.948 313.245 113.918 313.319 113.918H321.824C321.899 113.918 321.97 113.948 322.023 114C322.076 114.053 322.105 114.125 322.105 114.199C322.105 114.274 322.076 114.345 322.023 114.398C321.97 114.451 321.899 114.48 321.824 114.48Z" fill="#292A2E"/>
<path d="M329.304 120.024H313.319C313.245 120.024 313.173 119.995 313.12 119.942C313.068 119.889 313.038 119.818 313.038 119.743C313.038 119.669 313.068 119.597 313.12 119.544C313.173 119.492 313.245 119.462 313.319 119.462H329.304C329.378 119.462 329.45 119.492 329.502 119.544C329.555 119.597 329.585 119.669 329.585 119.743C329.585 119.818 329.555 119.889 329.502 119.942C329.45 119.995 329.378 120.024 329.304 120.024Z" fill="#292A2E"/>
<path d="M332.286 125.568H318.941C318.866 125.568 318.795 125.539 318.742 125.486C318.689 125.433 318.66 125.362 318.66 125.287C318.66 125.213 318.689 125.141 318.742 125.088C318.795 125.036 318.866 125.006 318.941 125.006H332.286C332.361 125.006 332.432 125.036 332.485 125.088C332.538 125.141 332.567 125.213 332.567 125.287C332.567 125.362 332.538 125.433 332.485 125.486C332.432 125.539 332.361 125.568 332.286 125.568Z" fill="#292A2E"/>
<path d="M325.833 131.113H318.941C318.866 131.113 318.795 131.083 318.742 131.03C318.689 130.978 318.66 130.906 318.66 130.832C318.66 130.757 318.689 130.686 318.742 130.633C318.795 130.58 318.866 130.551 318.941 130.551H325.833C325.907 130.551 325.979 130.58 326.032 130.633C326.084 130.686 326.114 130.757 326.114 130.832C326.114 130.906 326.084 130.978 326.032 131.03C325.979 131.083 325.907 131.113 325.833 131.113Z" fill="#292A2E"/>
<path d="M331.113 136.657H318.941C318.866 136.657 318.795 136.627 318.742 136.574C318.689 136.522 318.66 136.45 318.66 136.376C318.66 136.301 318.689 136.23 318.742 136.177C318.795 136.124 318.866 136.095 318.941 136.095H331.113C331.187 136.095 331.259 136.124 331.311 136.177C331.364 136.23 331.394 136.301 331.394 136.376C331.394 136.45 331.364 136.522 331.311 136.574C331.259 136.627 331.187 136.657 331.113 136.657Z" fill="#292A2E"/>
<path d="M322.704 142.201H313.319C313.245 142.201 313.173 142.171 313.12 142.118C313.068 142.066 313.038 141.994 313.038 141.92C313.038 141.845 313.068 141.774 313.12 141.721C313.173 141.668 313.245 141.639 313.319 141.639H322.704C322.779 141.639 322.85 141.668 322.903 141.721C322.956 141.774 322.985 141.845 322.985 141.92C322.985 141.994 322.956 142.066 322.903 142.118C322.85 142.171 322.779 142.201 322.704 142.201Z" fill="#292A2E"/>
<path d="M319.478 147.744H313.319C313.245 147.744 313.173 147.715 313.12 147.662C313.068 147.609 313.038 147.538 313.038 147.463C313.038 147.389 313.068 147.317 313.12 147.264C313.173 147.212 313.245 147.182 313.319 147.182H319.478C319.553 147.182 319.624 147.212 319.677 147.264C319.73 147.317 319.759 147.389 319.759 147.463C319.759 147.538 319.73 147.609 319.677 147.662C319.624 147.715 319.553 147.744 319.478 147.744Z" fill="#292A2E"/>
<path d="M343.03 107.747V107.848L346.543 109.152C346.593 109.172 346.636 109.208 346.666 109.253C346.696 109.298 346.712 109.351 346.712 109.405V109.501C346.713 109.543 346.703 109.585 346.683 109.622C346.664 109.659 346.635 109.691 346.599 109.714C346.564 109.739 346.522 109.755 346.479 109.76C346.436 109.765 346.392 109.759 346.352 109.742L342.383 108.191C342.334 108.171 342.291 108.137 342.261 108.093C342.231 108.049 342.215 107.997 342.215 107.943V107.657C342.214 107.603 342.23 107.551 342.26 107.507C342.29 107.462 342.333 107.428 342.383 107.409L346.352 105.852C346.384 105.841 346.418 105.835 346.453 105.835C346.505 105.836 346.556 105.852 346.599 105.88C346.635 105.905 346.664 105.937 346.683 105.976C346.703 106.014 346.713 106.056 346.712 106.099V106.195C346.713 106.249 346.697 106.301 346.667 106.346C346.637 106.39 346.594 106.424 346.543 106.442L343.03 107.747Z" fill="#367CFF"/>
<path d="M349.994 104.705L347.892 111.142C347.875 111.196 347.841 111.243 347.796 111.276C347.75 111.309 347.695 111.327 347.639 111.328C347.598 111.328 347.558 111.319 347.522 111.3C347.485 111.282 347.454 111.254 347.431 111.221C347.406 111.188 347.389 111.149 347.381 111.108C347.373 111.067 347.375 111.025 347.387 110.985L349.488 104.554C349.506 104.499 349.541 104.451 349.587 104.417C349.634 104.383 349.689 104.364 349.747 104.362C349.788 104.362 349.828 104.372 349.864 104.39C349.9 104.409 349.931 104.436 349.955 104.469C349.98 104.502 349.997 104.541 350.004 104.582C350.011 104.624 350.007 104.666 349.994 104.705Z" fill="#367CFF"/>
<path d="M355.157 107.657V107.943C355.158 107.996 355.143 108.048 355.114 108.092C355.085 108.136 355.043 108.171 354.994 108.191L351.02 109.742C350.98 109.759 350.938 109.765 350.895 109.76C350.853 109.755 350.813 109.739 350.778 109.714C350.742 109.691 350.712 109.66 350.692 109.622C350.671 109.585 350.66 109.543 350.66 109.501V109.405C350.66 109.35 350.676 109.296 350.707 109.251C350.738 109.206 350.783 109.171 350.834 109.152L354.348 107.848V107.747L350.834 106.442C350.783 106.425 350.738 106.392 350.706 106.347C350.675 106.303 350.659 106.25 350.66 106.195V106.099C350.66 106.056 350.671 106.013 350.692 105.975C350.712 105.937 350.742 105.904 350.778 105.88C350.822 105.852 350.872 105.836 350.924 105.835C350.957 105.835 350.989 105.841 351.02 105.852L354.994 107.409C355.043 107.429 355.086 107.463 355.115 107.507C355.144 107.552 355.159 107.604 355.157 107.657Z" fill="#367CFF"/>
<path d="M275.677 56H77.6711V254.006H275.677V56Z" fill="#F4F4F4"/>
<path d="M77.6711 56H75.4016V254.006H77.6711V56Z" fill="#F4F4F4"/>
<path opacity="0.05" d="M77.6711 56H75.4016V254.006H77.6711V56Z" fill="#292A2E"/>
<path opacity="0.05" d="M125.639 192.442V140.637H168.075V170.735H233.808V224.026H261.746V254.006H233.808H228.426H87.1963V192.442H125.639Z" fill="#292A2E"/>
<path opacity="0.34" d="M162.628 146.262H131.725V151.887H162.628V146.262Z" fill="#FFFFFA"/>
<path opacity="0.34" d="M162.628 157.918H131.725V163.543H162.628V157.918Z" fill="#FFFFFA"/>
<path opacity="0.34" d="M162.628 169.574H131.725V175.199H162.628V169.574Z" fill="#FFFFFA"/>
<path opacity="0.34" d="M98.3714 197.902H92.6756V203.527H98.3714V197.902Z" fill="#FFFFFA"/>
<path opacity="0.34" d="M98.3714 209.558H92.6756V215.183H98.3714V209.558Z" fill="#FFFFFA"/>
<path opacity="0.34" d="M98.3714 221.214H92.6756V226.839H98.3714V221.214Z" fill="#FFFFFA"/>
<path opacity="0.34" d="M108.908 197.902H103.213V203.527H108.908V197.902Z" fill="#FFFFFA"/>
<path opacity="0.34" d="M108.908 209.558H103.213V215.183H108.908V209.558Z" fill="#FFFFFA"/>
<path opacity="0.34" d="M108.908 221.214H103.213V226.839H108.908V221.214Z" fill="#FFFFFA"/>
<path opacity="0.34" d="M119.161 197.902H113.465V203.527H119.161V197.902Z" fill="#FFFFFA"/>
<path opacity="0.34" d="M119.161 209.558H113.465V215.183H119.161V209.558Z" fill="#FFFFFA"/>
<path opacity="0.34" d="M119.161 221.214H113.465V226.839H119.161V221.214Z" fill="#FFFFFA"/>
<path d="M77.6711 153.892H117.513V56H120.808V153.892H228.426V56H231.721V153.892H275.677V157.187H231.721V254.006H228.426V157.187H120.808V254.006H117.513V157.187H77.6711V153.892Z" fill="white"/>
<path d="M283.565 253.767H69.7834V260.352H283.565V253.767Z" fill="#F4F4F4"/>
<path opacity="0.1" d="M283.565 253.767H69.7834V260.352H283.565V253.767Z" fill="#292A2E"/>
<path opacity="0.1" d="M69.7834 253.767H66.6966V260.352H69.7834V253.767Z" fill="#292A2E"/>
<path opacity="0.1" d="M69.7834 253.767H66.6966V260.352H69.7834V253.767Z" fill="#292A2E"/>
<path d="M75.4016 64.4301L275.677 64.4301V59.5343L75.4016 59.5343V64.4301Z" fill="white"/>
<path d="M75.4016 73.5753L275.677 73.5753V68.6795L75.4016 68.6795V73.5753Z" fill="white"/>
<path d="M75.4016 82.7199L275.677 82.7199V77.8241L75.4016 77.8241V82.7199Z" fill="white"/>
<path d="M75.4016 91.8645L275.677 91.8645V86.9687L75.4016 86.9687V91.8645Z" fill="white"/>
<path d="M75.4016 101.009L275.677 101.009V96.1127L75.4016 96.1127V101.009Z" fill="white"/>
<path d="M96.6731 106.531H99.6745V56H96.6731V106.531Z" fill="white"/>
<path d="M97.9194 113.788C100.197 113.788 102.043 111.941 102.043 109.664C102.043 107.387 100.197 105.541 97.9194 105.541C95.6421 105.541 93.796 107.387 93.796 109.664C93.796 111.941 95.6421 113.788 97.9194 113.788Z" fill="white"/>
<path d="M77.1499 529.233L76.0459 529.021L93.3019 357.545L94.4059 357.758L77.1499 529.233Z" fill="#494949"/>
<path d="M141.403 529.233L140.299 529.021L157.555 357.545L158.659 357.758L141.403 529.233Z" fill="#494949"/>
<path d="M283.432 529.233L284.536 529.021L267.28 357.545L266.176 357.758L283.432 529.233Z" fill="#494949"/>
<path d="M219.178 529.233L220.282 529.021L203.027 357.545L201.923 357.758L219.178 529.233Z" fill="#494949"/>
<path d="M196.294 282.079L195.18 282.227L205.26 357.727L206.375 357.579L196.294 282.079Z" fill="#494949"/>
<path d="M80.5884 282.078L79.474 282.226L89.5545 357.727L90.669 357.578L80.5884 282.078Z" fill="#494949"/>
<path d="M206.278 352.123H93.104C90.0505 352.123 87.5752 354.598 87.5752 357.652V357.652C87.5752 360.706 90.0505 363.181 93.104 363.181H206.278C209.331 363.181 211.806 360.706 211.806 357.652V357.652C211.806 354.598 209.331 352.123 206.278 352.123Z" fill="#292A2E"/>
<path opacity="0.8" d="M206.278 352.123H93.104C90.0505 352.123 87.5752 354.598 87.5752 357.652V357.652C87.5752 360.706 90.0505 363.181 93.104 363.181H206.278C209.331 363.181 211.806 360.706 211.806 357.652V357.652C211.806 354.598 209.331 352.123 206.278 352.123Z" fill="white"/>
<path d="M206.278 363.743H93.1046C92.3047 363.743 91.5126 363.585 90.7736 363.279C90.0347 362.973 89.3632 362.524 88.7976 361.959C88.232 361.393 87.7833 360.722 87.4772 359.983C87.1711 359.244 87.0136 358.451 87.0136 357.652C87.0136 356.852 87.1711 356.06 87.4772 355.321C87.7833 354.582 88.232 353.91 88.7976 353.345C89.3632 352.779 90.0347 352.33 90.7736 352.024C91.5126 351.718 92.3047 351.561 93.1046 351.561H206.278C207.077 351.561 207.87 351.718 208.609 352.024C209.348 352.33 210.019 352.779 210.585 353.345C211.15 353.91 211.599 354.582 211.905 355.321C212.211 356.06 212.369 356.852 212.369 357.652C212.369 358.451 212.211 359.244 211.905 359.983C211.599 360.722 211.15 361.393 210.585 361.959C210.019 362.524 209.348 362.973 208.609 363.279C207.87 363.585 207.077 363.743 206.278 363.743ZM93.1046 352.685C92.4523 352.685 91.8065 352.813 91.2039 353.063C90.6013 353.313 90.0538 353.678 89.5926 354.14C89.1314 354.601 88.7656 355.148 88.516 355.751C88.2664 356.354 88.1379 356.999 88.1379 357.652C88.1379 358.304 88.2664 358.95 88.516 359.552C88.7656 360.155 89.1314 360.702 89.5926 361.164C90.0538 361.625 90.6013 361.991 91.2039 362.24C91.8065 362.49 92.4523 362.618 93.1046 362.618H206.278C206.93 362.618 207.576 362.49 208.178 362.24C208.781 361.991 209.328 361.625 209.79 361.164C210.251 360.702 210.617 360.155 210.866 359.552C211.116 358.95 211.244 358.304 211.244 357.652C211.244 356.999 211.116 356.354 210.866 355.751C210.617 355.148 210.251 354.601 209.79 354.14C209.328 353.678 208.781 353.313 208.178 353.063C207.576 352.813 206.93 352.685 206.278 352.685H93.1046Z" fill="#292A2E"/>
<path d="M268.394 352.123H155.22C152.167 352.123 149.691 354.598 149.691 357.652V357.652C149.691 360.706 152.167 363.181 155.22 363.181H268.394C271.447 363.181 273.923 360.706 273.923 357.652V357.652C273.923 354.598 271.447 352.123 268.394 352.123Z" fill="white"/>
<path d="M268.394 363.743H155.22C154.42 363.743 153.628 363.585 152.889 363.279C152.15 362.973 151.479 362.524 150.913 361.959C150.348 361.393 149.899 360.722 149.593 359.983C149.287 359.244 149.129 358.451 149.129 357.652C149.129 356.852 149.287 356.06 149.593 355.321C149.899 354.582 150.348 353.91 150.913 353.345C151.479 352.779 152.15 352.33 152.889 352.024C153.628 351.718 154.42 351.561 155.22 351.561H268.394C269.194 351.561 269.986 351.718 270.725 352.024C271.464 352.33 272.135 352.779 272.701 353.345C273.266 353.91 273.715 354.582 274.021 355.321C274.327 356.06 274.485 356.852 274.485 357.652C274.485 358.451 274.327 359.244 274.021 359.983C273.715 360.722 273.266 361.393 272.701 361.959C272.135 362.524 271.464 362.973 270.725 363.279C269.986 363.585 269.194 363.743 268.394 363.743ZM155.22 352.685C154.568 352.685 153.922 352.813 153.32 353.063C152.717 353.313 152.169 353.678 151.708 354.14C151.247 354.601 150.881 355.148 150.632 355.751C150.382 356.354 150.254 356.999 150.254 357.652C150.254 358.304 150.382 358.95 150.632 359.552C150.881 360.155 151.247 360.702 151.708 361.164C152.169 361.625 152.717 361.991 153.32 362.24C153.922 362.49 154.568 362.618 155.22 362.618H268.394C269.046 362.618 269.692 362.49 270.294 362.24C270.897 361.991 271.445 361.625 271.906 361.164C272.367 360.702 272.733 360.155 272.982 359.552C273.232 358.95 273.36 358.304 273.36 357.652C273.36 356.999 273.232 356.354 272.982 355.751C272.733 355.148 272.367 354.601 271.906 354.14C271.445 353.678 270.897 353.313 270.294 353.063C269.692 352.813 269.046 352.685 268.394 352.685H155.22Z" fill="#292A2E"/>
<path d="M190.094 282.152H80.3346C78.54 282.151 76.8068 281.498 75.4584 280.314C74.1101 279.13 73.2387 277.496 73.0069 275.716L65.7466 219.962C65.6109 218.919 65.6991 217.86 66.0053 216.855C66.3116 215.849 66.8288 214.921 67.5224 214.131C68.2161 213.341 69.0702 212.709 70.0278 212.275C70.9854 211.842 72.0244 211.618 73.0754 211.618H182.834C184.628 211.618 186.362 212.271 187.71 213.455C189.058 214.639 189.93 216.274 190.162 218.053L197.421 273.808C197.557 274.85 197.469 275.909 197.163 276.915C196.857 277.92 196.34 278.849 195.646 279.638C194.953 280.428 194.099 281.061 193.141 281.494C192.184 281.927 191.145 282.152 190.094 282.152Z" fill="#292A2E"/>
<path opacity="0.8" d="M190.094 282.152H80.3346C78.54 282.151 76.8068 281.498 75.4584 280.314C74.1101 279.13 73.2387 277.496 73.0069 275.716L65.7466 219.962C65.6109 218.919 65.6991 217.86 66.0053 216.855C66.3116 215.849 66.8288 214.921 67.5224 214.131C68.2161 213.341 69.0702 212.709 70.0278 212.275C70.9854 211.842 72.0244 211.618 73.0754 211.618H182.834C184.628 211.618 186.362 212.271 187.71 213.455C189.058 214.639 189.93 216.274 190.162 218.053L197.421 273.808C197.557 274.85 197.469 275.909 197.163 276.915C196.857 277.92 196.34 278.849 195.646 279.638C194.953 280.428 194.099 281.061 193.141 281.494C192.184 281.927 191.145 282.152 190.094 282.152Z" fill="white"/>
<path d="M190.094 282.714H80.3346C78.4047 282.709 76.5418 282.005 75.0917 280.732C73.6416 279.458 72.7027 277.702 72.4492 275.789L65.1895 220.034C65.0433 218.913 65.1381 217.773 65.4675 216.691C65.797 215.609 66.3535 214.609 67.0998 213.76C67.8462 212.91 68.7654 212.229 69.7958 211.763C70.8263 211.296 71.9444 211.055 73.0754 211.055H182.834C184.764 211.06 186.627 211.764 188.077 213.038C189.527 214.311 190.465 216.067 190.719 217.981L197.979 273.736C198.125 274.857 198.03 275.997 197.701 277.079C197.371 278.16 196.815 279.16 196.069 280.009C195.323 280.859 194.404 281.54 193.373 282.006C192.343 282.473 191.225 282.714 190.094 282.714ZM73.0754 212.18C72.1044 212.18 71.1446 212.387 70.26 212.787C69.3754 213.188 68.5864 213.772 67.9457 214.502C67.3049 215.232 66.8272 216.089 66.5443 217.018C66.2615 217.947 66.18 218.926 66.3054 219.889L73.5656 275.643C73.7831 277.286 74.5892 278.794 75.8342 279.888C77.0792 280.981 78.6787 281.586 80.3357 281.589H190.094C191.065 281.589 192.025 281.382 192.909 280.981C193.793 280.581 194.582 279.996 195.223 279.267C195.863 278.537 196.341 277.679 196.624 276.75C196.906 275.822 196.988 274.843 196.863 273.881L189.604 218.126C189.386 216.484 188.58 214.976 187.335 213.882C186.09 212.789 184.491 212.184 182.834 212.18L73.0754 212.18Z" fill="#292A2E"/>
<path d="M196.3 282.152H86.5408C84.7463 282.151 83.0132 281.498 81.6649 280.314C80.3166 279.13 79.4453 277.495 79.2136 275.716L71.9511 219.962C71.8154 218.92 71.9036 217.86 72.2098 216.855C72.516 215.85 73.0331 214.921 73.7266 214.132C74.4201 213.342 75.2741 212.709 76.2315 212.276C77.189 211.842 78.2279 211.618 79.2788 211.618H189.041C190.835 211.618 192.568 212.271 193.917 213.455C195.265 214.639 196.136 216.274 196.368 218.053L203.628 273.808C203.764 274.85 203.676 275.909 203.369 276.915C203.063 277.92 202.546 278.849 201.853 279.638C201.159 280.428 200.305 281.061 199.348 281.494C198.39 281.927 197.351 282.152 196.3 282.152Z" fill="white"/>
<path d="M196.3 282.714H86.5408C84.611 282.709 82.7482 282.005 81.2982 280.732C79.8482 279.458 78.9094 277.702 78.656 275.789L71.3957 220.034C71.2497 218.913 71.3446 217.773 71.6741 216.691C72.0036 215.609 72.56 214.61 73.3063 213.76C74.0526 212.91 74.9716 212.23 76.0019 211.763C77.0322 211.297 78.1501 211.056 79.2811 211.055H189.04C190.97 211.06 192.833 211.764 194.283 213.038C195.733 214.311 196.672 216.067 196.926 217.981L204.186 273.736C204.332 274.857 204.237 275.997 203.907 277.078C203.578 278.16 203.021 279.159 202.275 280.009C201.529 280.859 200.61 281.54 199.58 282.006C198.549 282.472 197.431 282.714 196.3 282.714ZM79.2811 212.18C78.3103 212.18 77.3507 212.388 76.4664 212.788C75.582 213.189 74.7933 213.774 74.1528 214.503C73.5124 215.233 73.0348 216.091 72.7521 217.019C72.4694 217.948 72.388 218.927 72.5133 219.889L79.7708 275.643C79.9885 277.286 80.7946 278.794 82.0396 279.887C83.2845 280.981 84.8839 281.586 86.5408 281.589H196.3C197.271 281.589 198.231 281.382 199.116 280.982C200 280.581 200.789 279.997 201.43 279.267C202.071 278.538 202.549 277.68 202.832 276.751C203.114 275.822 203.196 274.843 203.071 273.881L195.81 218.126C195.593 216.484 194.787 214.976 193.542 213.882C192.297 212.789 190.697 212.184 189.04 212.18L79.2811 212.18Z" fill="#292A2E"/>
<path d="M281.62 294.882L280.501 294.995L304.2 529.611L305.319 529.498L281.62 294.882Z" fill="#494949"/>
<path d="M184.472 126.024C184.472 126.024 191.765 120.519 193.573 107.847C194.972 98.0353 185.921 104.392 185.921 104.392C185.921 104.392 186.86 97.3169 181.705 98.019C176.55 98.7212 173.666 106.153 173.666 106.153" fill="#0C0C0C"/>
<path d="M155.065 98.8471C155.065 98.8471 129.49 101.591 138.735 136.245L140.999 136.396L145.593 136.704" fill="#0C0C0C"/>
<path d="M180.188 172.437C180.076 172.423 178.828 193.125 154.776 191.322C138.124 190.075 132.187 172.408 131.806 172.408C133.601 172.027 135.82 171.448 136.702 171.249C138.623 170.803 140.363 169.782 141.691 168.323C143.018 166.864 143.87 165.035 144.132 163.08C144.62 160.145 143.795 145.131 144.047 142.162L169.607 147.867C169.25 154.138 166.75 168.676 175.51 171.249C176.97 171.675 178.54 172.066 180.188 172.437Z" fill="#E98862"/>
<path opacity="0.52" d="M169.966 165.308C169.566 164.017 169.308 162.687 169.197 161.34C168.917 158.268 168.973 155.174 169.366 152.114C164.171 151.413 159.277 149.269 155.239 145.925C154.765 147.678 152.155 155.337 152.878 157.002C154.241 160.152 160.66 165.308 169.966 165.308Z" fill="#0C0C0C"/>
<path d="M164.691 161.21C154.607 160.306 142.538 153.935 142.364 140.247L142.207 127.896C142.033 114.209 149.081 103.021 161.969 102.857C174.856 102.693 184.631 113.667 184.804 127.355L184.874 132.822C184.865 134.7 184.728 136.575 184.464 138.434C183.803 143.353 182.778 150.832 179.44 155.89C176.288 160.666 171.133 161.787 164.691 161.21Z" fill="#E98862"/>
<path d="M169.369 148.7C171.45 148.794 173.524 148.398 175.424 147.543C175.463 147.527 175.498 147.502 175.528 147.472C175.558 147.441 175.582 147.405 175.598 147.366C175.614 147.326 175.622 147.284 175.621 147.241C175.621 147.198 175.612 147.156 175.595 147.117C175.578 147.077 175.554 147.042 175.523 147.012C175.493 146.982 175.457 146.959 175.417 146.943C175.378 146.927 175.335 146.919 175.293 146.919C175.25 146.92 175.208 146.929 175.168 146.945C171.076 148.691 167.359 148.435 164.422 146.206C164.362 146.159 164.301 146.115 164.237 146.075C164.163 146.041 164.079 146.036 164.001 146.06C163.924 146.085 163.858 146.138 163.818 146.208C163.777 146.279 163.764 146.362 163.782 146.441C163.8 146.521 163.847 146.591 163.913 146.637C163.937 146.652 163.975 146.682 164.026 146.723C165.57 147.899 167.431 148.587 169.369 148.7Z" fill="#0C0C0C"/>
<path d="M169.272 151.782C169.648 151.805 170.025 151.796 170.4 151.755C170.485 151.746 170.564 151.703 170.618 151.636C170.672 151.569 170.698 151.483 170.689 151.398C170.679 151.312 170.637 151.233 170.57 151.179C170.503 151.125 170.417 151.1 170.331 151.109C168.078 151.348 167.004 150.316 166.958 150.272C166.897 150.211 166.814 150.176 166.728 150.176C166.642 150.176 166.559 150.21 166.498 150.271C166.437 150.332 166.403 150.415 166.403 150.501C166.403 150.587 166.437 150.67 166.498 150.731C167.273 151.391 168.253 151.763 169.272 151.782Z" fill="#0C0C0C"/>
<path d="M180.548 135.454C181.425 135.454 182.136 134.743 182.136 133.867C182.136 132.99 181.425 132.279 180.548 132.279C179.671 132.279 178.961 132.99 178.961 133.867C178.961 134.743 179.671 135.454 180.548 135.454Z" fill="#0C0C0C"/>
<path d="M165.039 134.481C165.916 134.481 166.627 133.77 166.627 132.894C166.627 132.017 165.916 131.306 165.039 131.306C164.163 131.306 163.452 132.017 163.452 132.894C163.452 133.77 164.163 134.481 165.039 134.481Z" fill="#0C0C0C"/>
<path d="M143.218 144.407C139.301 144.457 136.073 140.307 136.022 136.39C135.971 132.474 139.119 130.273 143.036 130.224L145.087 132.822L146.584 144.364L143.218 144.407Z" fill="#E98862"/>
<path d="M147.112 138.113C147.112 138.113 148.434 118.745 154.307 117.549C158.219 116.752 167.704 122.301 176.489 120.625C180.333 119.894 183.982 120.843 184.353 122.659C184.5 123.378 186.895 113.046 180.876 105.207C176.084 98.9646 160.4 97.2022 153.266 99.2485C133.51 104.916 142.228 131.076 142.228 131.076L143.109 137.753L147.112 138.113Z" fill="#0C0C0C"/>
<path d="M171.734 144.128H171.759C173.021 144.115 175.137 143.953 175.128 143.009C175.12 142.226 172.894 133.803 172.639 132.845C172.615 132.766 172.561 132.699 172.488 132.658C172.415 132.618 172.33 132.607 172.249 132.629C172.169 132.65 172.1 132.702 172.057 132.773C172.014 132.844 172 132.929 172.018 133.01C173.007 136.74 174.48 142.483 174.486 143.016C174.364 143.241 173.06 143.473 171.753 143.486C171.671 143.488 171.592 143.521 171.534 143.58C171.475 143.638 171.441 143.716 171.439 143.798C171.436 143.881 171.466 143.961 171.521 144.022C171.576 144.084 171.652 144.122 171.734 144.128V144.128Z" fill="#0C0C0C"/>
<path d="M176.043 125.258C177.369 124.893 178.769 124.893 180.096 125.258C180.747 125.433 181.369 125.705 181.94 126.065C182.504 126.418 183.021 126.84 183.479 127.322C183.567 127.407 183.618 127.523 183.621 127.645C183.625 127.768 183.58 127.886 183.497 127.976C183.414 128.066 183.299 128.119 183.177 128.125C183.055 128.131 182.935 128.089 182.844 128.008L182.815 127.983C182.39 127.59 181.918 127.253 181.409 126.977C180.91 126.704 180.373 126.508 179.815 126.395C178.716 126.165 177.577 126.229 176.511 126.58L176.466 126.596C176.29 126.658 176.097 126.648 175.928 126.567C175.76 126.487 175.631 126.343 175.568 126.167C175.506 125.991 175.516 125.798 175.597 125.63C175.677 125.461 175.821 125.332 175.997 125.27L176.043 125.258Z" fill="#0C0C0C"/>
<path d="M166.65 126.056C165.641 125.565 164.52 125.35 163.401 125.432C162.833 125.469 162.274 125.592 161.742 125.796C161.202 126.001 160.69 126.273 160.218 126.606L160.187 126.626C160.086 126.691 159.963 126.715 159.845 126.692C159.727 126.669 159.622 126.601 159.553 126.503C159.483 126.404 159.454 126.283 159.471 126.164C159.489 126.045 159.552 125.937 159.647 125.863C160.165 125.446 160.734 125.096 161.34 124.822C161.954 124.541 162.606 124.355 163.275 124.267C164.639 124.081 166.027 124.267 167.293 124.806C167.465 124.88 167.599 125.02 167.668 125.194C167.736 125.368 167.733 125.562 167.658 125.733C167.584 125.905 167.444 126.04 167.27 126.108C167.096 126.177 166.902 126.173 166.731 126.099L166.692 126.08L166.65 126.056Z" fill="#0C0C0C"/>
<path d="M174.155 111.926C177.054 111.32 178.681 107.37 177.79 103.103C176.898 98.8363 173.825 95.8683 170.926 96.474C168.027 97.0796 166.4 101.03 167.291 105.297C168.183 109.563 171.256 112.531 174.155 111.926Z" fill="#0C0C0C"/>
<path d="M335.84 499.958C335.84 499.958 338.854 515.582 353.483 516.453C368.111 517.324 364.939 528.978 364.939 528.978H309.036V501.047L335.84 499.958Z" fill="#367CFF"/>
<path d="M229.486 490.093C229.486 490.093 225.294 505.443 238.037 512.682C250.779 519.92 242.788 528.978 242.788 528.978L192.626 504.299L204.954 479.237L229.486 490.093Z" fill="#367CFF"/>
<path d="M198.418 485.757L240.719 352.307H164.041C148.638 352.307 142.217 339.245 142.217 323.843C142.217 308.441 157.359 294.939 172.761 294.939H276.249C285.643 294.939 296.177 300.684 301.333 308.538C306.489 316.391 305.095 328.56 301.359 337.18L233.619 501.705" fill="#262626"/>
<path opacity="0.8" d="M198.418 485.757L240.719 352.307H164.041C148.638 352.307 142.217 339.245 142.217 323.843C142.217 308.441 157.359 294.939 172.761 294.939H276.249C285.643 294.939 296.177 300.684 301.333 308.538C306.489 316.391 305.095 328.56 301.359 337.18L233.619 501.705" fill="#0A0A0A"/>
<path d="M305.821 514.468L235.089 352.307L142.216 352.3C120.454 350.594 110.488 338.668 110.805 323.269C111.117 308.066 118.815 293.049 133.95 293.049H259.127C270.325 293.279 279.135 305.654 283.29 316.055L342.092 504.54" fill="#262626"/>
<path d="M104.47 293.235C104.47 293.235 100.346 320.132 106.884 335.086C115.046 353.755 145.643 352.3 145.643 352.3L143.919 293.049L104.47 293.235Z" fill="#262626"/>
<path d="M285.951 292.706L220.347 279.112C217.614 278.545 215.067 277.299 212.943 275.487C210.819 273.675 209.186 271.357 208.196 268.747L182.393 200.752C181.607 198.712 181.232 196.536 181.29 194.35C181.347 192.164 181.836 190.011 182.729 188.015C183.621 186.018 184.899 184.218 186.489 182.717C188.079 181.216 189.95 180.044 191.994 179.268C194.039 178.492 196.216 178.128 198.402 178.196C200.587 178.264 202.738 178.763 204.73 179.665C206.722 180.567 208.516 181.853 210.01 183.451C211.503 185.048 212.666 186.925 213.432 188.973L236.004 248.449L292.689 260.195C292.689 260.195 287.089 292.942 285.951 292.706Z" fill="#367CFF"/>
<path d="M210.073 218.019C209.316 226.92 203.946 282.448 203.215 293.411H104.514C103.946 283.523 102.105 241.543 99.9545 222.208C97.902 203.756 97.1572 193.227 99.5216 187.494C103.692 177.381 114.127 173.742 123.116 172.525C128.604 171.782 136.86 171.249 136.86 171.249C136.86 171.249 137.559 185.389 154.226 186.176C176.914 187.244 175.399 171.249 175.511 171.249C179.187 171.249 199.194 173.922 204.196 177.183C211.263 181.788 213.351 188.064 213.433 193.83C213.528 200.47 210.932 207.925 210.073 218.019Z" fill="#367CFF"/>
<path d="M206.194 263.392H206.171C206.134 263.389 206.098 263.378 206.065 263.362C206.032 263.345 206.003 263.321 205.979 263.293C205.956 263.265 205.937 263.232 205.926 263.197C205.915 263.162 205.911 263.125 205.914 263.088L208.476 232.308C208.478 232.271 208.488 232.234 208.504 232.201C208.521 232.168 208.544 232.138 208.572 232.114C208.601 232.09 208.634 232.072 208.669 232.061C208.705 232.05 208.742 232.047 208.779 232.051C208.816 232.054 208.852 232.064 208.885 232.081C208.918 232.098 208.947 232.121 208.971 232.15C208.994 232.178 209.013 232.21 209.024 232.245C209.035 232.281 209.039 232.318 209.036 232.355L206.474 263.135C206.468 263.205 206.436 263.27 206.384 263.318C206.332 263.365 206.265 263.392 206.194 263.392Z" fill="#0C0C0C"/>
<path d="M253.201 281.865L274.858 215.292C275.239 214.123 275.98 213.103 276.975 212.38C277.97 211.657 279.169 211.268 280.399 211.268H374.253C375.172 211.268 376.079 211.486 376.899 211.903C377.718 212.321 378.427 212.927 378.968 213.671C379.508 214.415 379.865 215.276 380.008 216.185C380.152 217.093 380.078 218.023 379.794 218.898L352.516 285.473C352.135 286.643 351.394 287.662 350.399 288.385C349.403 289.108 348.205 289.497 346.974 289.497H258.743C257.823 289.497 256.916 289.28 256.096 288.862C255.276 288.444 254.567 287.838 254.027 287.094C253.486 286.349 253.129 285.488 252.986 284.579C252.843 283.67 252.916 282.74 253.201 281.865Z" fill="#292A2E"/>
<path d="M253.201 281.865L274.858 215.292C275.239 214.123 275.98 213.103 276.975 212.38C277.97 211.657 279.169 211.268 280.399 211.268H374.253C375.172 211.268 376.079 211.486 376.899 211.903C377.718 212.321 378.427 212.927 378.968 213.671C379.508 214.415 379.865 215.276 380.008 216.185C380.152 217.093 380.078 218.023 379.794 218.898L352.516 285.473C352.135 286.643 351.394 287.662 350.399 288.385C349.403 289.108 348.205 289.497 346.974 289.497H258.743C257.823 289.497 256.916 289.28 256.096 288.862C255.276 288.444 254.567 287.838 254.027 287.094C253.486 286.349 253.129 285.488 252.986 284.579C252.843 283.67 252.916 282.74 253.201 281.865Z" fill="#292A2E"/>
<path d="M270.868 284.097H211.805C210.334 284.097 209.141 285.29 209.141 286.761V286.83C209.141 288.301 210.334 289.494 211.805 289.494H270.868C272.339 289.494 273.532 288.301 273.532 286.83V286.761C273.532 285.29 272.339 284.097 270.868 284.097Z" fill="#292A2E"/>
<path d="M270.868 284.097H211.805C210.334 284.097 209.141 285.29 209.141 286.761V286.83C209.141 288.301 210.334 289.494 211.805 289.494H270.868C272.339 289.494 273.532 288.301 273.532 286.83V286.761C273.532 285.29 272.339 284.097 270.868 284.097Z" fill="#292A2E"/>
<path d="M313.687 262.883C318.797 262.883 322.941 258.74 322.941 253.629C322.941 248.519 318.797 244.376 313.687 244.376C308.576 244.376 304.433 248.519 304.433 253.629C304.433 258.74 308.576 262.883 313.687 262.883Z" fill="white"/>
<path d="M248.265 266.271L233.524 261.104L235.64 260.958C236.322 260.897 236.956 260.579 237.413 260.069C237.87 259.559 238.117 258.895 238.102 258.21C238.083 257.857 237.992 257.511 237.834 257.195C237.677 256.878 237.456 256.597 237.187 256.368C236.917 256.14 236.603 255.968 236.265 255.865C235.927 255.761 235.571 255.728 235.22 255.766L209.141 258.538L209.815 266.918C210.026 269.521 211.009 272.002 212.638 274.043C214.268 276.083 216.47 277.591 218.962 278.372L230.255 281.89C230.839 282.084 231.471 282.071 232.046 281.852C232.62 281.634 233.102 281.223 233.408 280.691C233.675 280.204 233.779 279.644 233.706 279.094C233.632 278.544 233.384 278.031 232.999 277.632C233.024 277.614 233.045 277.591 233.061 277.565C233.077 277.539 233.088 277.51 233.092 277.48C233.096 277.449 233.094 277.419 233.086 277.389C233.078 277.359 233.064 277.332 233.045 277.308L235.125 277.961C235.774 278.179 236.482 278.142 237.105 277.858C237.728 277.574 238.22 277.065 238.482 276.432C238.696 275.858 238.7 275.227 238.495 274.65C238.289 274.073 237.886 273.587 237.358 273.277C237.382 273.264 237.404 273.247 237.422 273.226L238.277 273.494C238.861 273.688 239.493 273.675 240.068 273.456C240.642 273.238 241.124 272.827 241.43 272.294C241.754 271.704 241.836 271.011 241.66 270.361C241.484 269.712 241.063 269.155 240.486 268.809C240.491 268.792 240.493 268.774 240.494 268.756L246.633 270.907C246.938 271.018 247.262 271.067 247.586 271.051C247.91 271.035 248.228 270.956 248.521 270.817C248.815 270.677 249.077 270.481 249.294 270.24C249.511 269.999 249.678 269.717 249.786 269.41C249.893 269.104 249.938 268.78 249.92 268.456C249.901 268.132 249.818 267.814 249.676 267.523C249.533 267.231 249.335 266.97 249.091 266.756C248.848 266.541 248.564 266.377 248.257 266.273L248.265 266.271Z" fill="#E98862"/>
<path opacity="0.2" d="M240.261 268.994C240.233 268.993 240.204 268.988 240.177 268.979L234.24 266.82C234.179 266.797 234.129 266.752 234.102 266.693C234.075 266.634 234.072 266.567 234.094 266.506C234.117 266.445 234.162 266.395 234.221 266.368C234.28 266.34 234.348 266.338 234.409 266.36L240.347 268.519C240.401 268.539 240.446 268.577 240.475 268.627C240.504 268.677 240.514 268.735 240.504 268.792C240.494 268.848 240.464 268.9 240.42 268.937C240.376 268.974 240.32 268.994 240.263 268.994H240.261Z" fill="#0A0A0A"/>
<path opacity="0.2" d="M237.259 273.311C237.231 273.311 237.203 273.306 237.177 273.296L232.497 271.636C232.466 271.626 232.437 271.609 232.412 271.588C232.388 271.567 232.368 271.541 232.353 271.511C232.339 271.482 232.331 271.45 232.329 271.418C232.327 271.385 232.331 271.353 232.342 271.322C232.353 271.291 232.37 271.263 232.392 271.239C232.414 271.215 232.44 271.195 232.47 271.182C232.5 271.168 232.532 271.16 232.564 271.159C232.597 271.158 232.629 271.163 232.66 271.175L237.34 272.835C237.395 272.855 237.44 272.893 237.469 272.942C237.499 272.992 237.509 273.051 237.5 273.107C237.49 273.164 237.46 273.216 237.416 273.253C237.372 273.29 237.316 273.31 237.259 273.311Z" fill="#0A0A0A"/>
<path opacity="0.2" d="M232.851 277.691C232.822 277.691 232.792 277.686 232.764 277.675L230.572 276.839C230.511 276.816 230.462 276.77 230.436 276.71C230.409 276.651 230.408 276.584 230.431 276.523C230.454 276.463 230.5 276.414 230.559 276.387C230.619 276.361 230.686 276.359 230.747 276.382L232.939 277.218C232.993 277.238 233.037 277.277 233.066 277.327C233.094 277.377 233.104 277.435 233.093 277.491C233.083 277.548 233.053 277.598 233.009 277.635C232.965 277.672 232.909 277.692 232.852 277.691H232.851Z" fill="#0A0A0A"/>
<path d="M220.683 253.578L158.846 253.536L135.452 196.47L100.555 211.143L129.741 278.871L130.026 279.545C131.454 282.837 133.859 285.611 136.916 287.49C139.973 289.37 143.533 290.264 147.116 290.053L221.617 285.652L220.683 253.578Z" fill="#367CFF"/>
<path d="M146.092 290.364C142.625 290.358 139.235 289.342 136.337 287.44C133.438 285.539 131.156 282.834 129.77 279.657L129.484 278.982L104.612 221.274L105.129 221.05L130.285 279.436C131.697 282.67 134.065 285.394 137.071 287.242C140.077 289.089 143.576 289.973 147.099 289.772L221.328 285.387L220.409 253.86L158.657 253.818L140.668 209.94L141.188 209.728L159.033 253.256L220.954 253.298L221.906 285.916L221.633 285.933L147.134 290.333C146.786 290.353 146.437 290.364 146.092 290.364Z" fill="#0C0C0C"/>
<path d="M77.3115 294.885L53.596 529.499L54.7147 529.613L78.4301 294.998L77.3115 294.885Z" fill="#494949"/>
<path d="M175.295 294.885L151.579 529.499L152.698 529.612L176.413 294.998L175.295 294.885Z" fill="#494949"/>
<path d="M379.602 294.882L378.484 294.995L402.183 529.611L403.302 529.498L379.602 294.882Z" fill="#494949"/>
<path d="M400.973 290.333H57.493C54.949 290.333 52.8867 292.395 52.8867 294.939C52.8867 297.483 54.949 299.545 57.493 299.545H400.973C403.517 299.545 405.579 297.483 405.579 294.939C405.579 292.395 403.517 290.333 400.973 290.333Z" fill="#292A2E"/>
<path opacity="0.8" d="M400.973 290.333H57.493C54.949 290.333 52.8867 292.395 52.8867 294.939C52.8867 297.483 54.949 299.545 57.493 299.545H400.973C403.517 299.545 405.579 297.483 405.579 294.939C405.579 292.395 403.517 290.333 400.973 290.333Z" fill="white"/>
<path d="M400.974 300.107H57.4952C56.812 300.114 56.1341 299.986 55.5009 299.729C54.8676 299.473 54.2914 299.093 53.8058 298.612C53.3201 298.132 52.9346 297.56 52.6715 296.929C52.4083 296.298 52.2729 295.622 52.2729 294.939C52.2729 294.255 52.4083 293.579 52.6715 292.948C52.9346 292.318 53.3201 291.746 53.8058 291.265C54.2914 290.784 54.8676 290.405 55.5009 290.148C56.1341 289.892 56.812 289.763 57.4952 289.77H400.974C401.657 289.763 402.335 289.892 402.968 290.148C403.601 290.405 404.177 290.784 404.663 291.265C405.149 291.746 405.534 292.318 405.797 292.948C406.061 293.579 406.196 294.255 406.196 294.939C406.196 295.622 406.061 296.298 405.797 296.929C405.534 297.56 405.149 298.132 404.663 298.612C404.177 299.093 403.601 299.473 402.968 299.729C402.335 299.986 401.657 300.114 400.974 300.107ZM57.4952 290.895C56.9602 290.889 56.4292 290.988 55.933 291.189C55.4369 291.389 54.9854 291.686 54.6048 292.062C54.2242 292.438 53.922 292.886 53.7158 293.38C53.5096 293.874 53.4034 294.404 53.4034 294.939C53.4034 295.474 53.5096 296.004 53.7158 296.497C53.922 296.991 54.2242 297.439 54.6048 297.815C54.9854 298.191 55.4369 298.488 55.933 298.689C56.4292 298.889 56.9602 298.989 57.4952 298.983H400.974C401.509 298.989 402.04 298.889 402.536 298.689C403.032 298.488 403.483 298.191 403.864 297.815C404.245 297.439 404.547 296.991 404.753 296.497C404.959 296.004 405.065 295.474 405.065 294.939C405.065 294.404 404.959 293.874 404.753 293.38C404.547 292.886 404.245 292.438 403.864 292.062C403.483 291.686 403.032 291.389 402.536 291.189C402.04 290.988 401.509 290.889 400.974 290.895H57.4952Z" fill="#292A2E"/>
<path d="M400.973 290.333H159.222C156.678 290.333 154.615 292.395 154.615 294.939C154.615 297.483 156.678 299.545 159.222 299.545H400.973C403.517 299.545 405.579 297.483 405.579 294.939C405.579 292.395 403.517 290.333 400.973 290.333Z" fill="white"/>
<path d="M400.974 300.107H159.222C157.86 300.093 156.559 299.542 155.602 298.574C154.644 297.607 154.107 296.3 154.107 294.939C154.107 293.577 154.644 292.271 155.602 291.303C156.559 290.335 157.86 289.785 159.222 289.77H400.974C401.657 289.763 402.335 289.892 402.968 290.148C403.601 290.405 404.177 290.784 404.663 291.265C405.149 291.746 405.534 292.318 405.797 292.948C406.061 293.579 406.196 294.255 406.196 294.939C406.196 295.622 406.061 296.298 405.797 296.929C405.534 297.56 405.149 298.132 404.663 298.612C404.177 299.093 403.601 299.473 402.968 299.729C402.335 299.986 401.657 300.114 400.974 300.107ZM159.222 290.895C158.157 290.907 157.141 291.339 156.393 292.096C155.645 292.853 155.225 293.874 155.225 294.939C155.225 296.003 155.645 297.024 156.393 297.781C157.141 298.538 158.157 298.97 159.222 298.983H400.974C401.509 298.989 402.04 298.889 402.536 298.689C403.032 298.488 403.483 298.191 403.864 297.815C404.245 297.439 404.547 296.991 404.753 296.497C404.959 296.004 405.065 295.474 405.065 294.939C405.065 294.404 404.959 293.874 404.753 293.38C404.547 292.886 404.245 292.438 403.864 292.062C403.483 291.686 403.032 291.389 402.536 291.189C402.04 290.988 401.509 290.888 400.974 290.895H159.222Z" fill="#292A2E"/>
<path d="M437.141 529.329H43.3935C43.2891 529.329 43.1891 529.288 43.1153 529.214C43.0415 529.14 43 529.04 43 528.935C43 528.831 43.0415 528.731 43.1153 528.657C43.1891 528.583 43.2891 528.542 43.3935 528.542H437.14C437.244 528.542 437.345 528.583 437.418 528.657C437.492 528.731 437.534 528.831 437.534 528.935C437.534 529.04 437.492 529.14 437.418 529.214C437.345 529.288 437.244 529.329 437.14 529.329H437.141Z" fill="#292A2E"/>
<g opacity="0.65">
<path d="M437.141 529.329H43.3935C43.2891 529.329 43.1891 529.288 43.1153 529.214C43.0415 529.14 43 529.04 43 528.935C43 528.831 43.0415 528.731 43.1153 528.657C43.1891 528.583 43.2891 528.542 43.3935 528.542H437.14C437.244 528.542 437.345 528.583 437.418 528.657C437.492 528.731 437.534 528.831 437.534 528.935C437.534 529.04 437.492 529.14 437.418 529.214C437.345 529.288 437.244 529.329 437.14 529.329H437.141Z" fill="#292A2E"/>
</g>
</svg>
