<svg width="201" height="140" viewBox="0 0 201 140" fill="none" xmlns="http://www.w3.org/2000/svg">
<mask id="path-1-inside-1_223_565" fill="white">
<path d="M60.1117 18.5782L59.9695 18.5423L14.8366 113.032L173.939 125.314L174.119 125.328L179.948 48.6234L179.96 48.4726L60.1117 18.5782ZM105.817 79.3434L15.4628 112.553L60.1031 19.095L105.817 79.3434ZM106.082 79.628L173.29 124.903L15.9455 112.758L106.082 79.628ZM106.165 79.2091L60.5189 19.0487L179.201 48.6521L106.165 79.2091ZM173.798 124.813L106.482 79.4652L179.568 48.8875L173.798 124.813Z"/>
</mask>
<path d="M60.1117 18.5782L59.9695 18.5423L14.8366 113.032L173.939 125.314L174.119 125.328L179.948 48.6234L179.96 48.4726L60.1117 18.5782ZM105.817 79.3434L15.4628 112.553L60.1031 19.095L105.817 79.3434ZM106.082 79.628L173.29 124.903L15.9455 112.758L106.082 79.628ZM106.165 79.2091L60.5189 19.0487L179.201 48.6521L106.165 79.2091ZM173.798 124.813L106.482 79.4652L179.568 48.8875L173.798 124.813Z" fill="white"/>
<path d="M60.1117 18.5782L59.378 21.4871L59.3856 21.489L60.1117 18.5782ZM59.9695 18.5423L60.7031 15.6334L58.3212 15.0327L57.2624 17.2493L59.9695 18.5423ZM14.8366 113.032L12.1295 111.739L10.2441 115.686L14.6057 116.023L14.8366 113.032ZM173.939 125.314L173.708 128.305L173.709 128.305L173.939 125.314ZM174.119 125.328L173.888 128.319L176.882 128.549L177.11 125.555L174.119 125.328ZM179.948 48.6234L176.957 48.3957L176.957 48.3961L179.948 48.6234ZM179.96 48.4726L182.951 48.7003L183.143 46.1748L180.686 45.5618L179.96 48.4726ZM105.817 79.3434L106.852 82.1593L110.658 80.7604L108.207 77.5301L105.817 79.3434ZM15.4628 112.553L12.7557 111.26L9.57838 117.912L16.4977 115.369L15.4628 112.553ZM60.1031 19.095L62.493 17.2816L59.5176 13.3602L57.396 17.8019L60.1031 19.095ZM106.082 79.628L107.758 77.1399L106.486 76.2832L105.047 76.8122L106.082 79.628ZM173.29 124.903L173.059 127.894L184.399 128.769L174.966 122.415L173.29 124.903ZM15.9455 112.758L14.9106 109.942L15.7146 115.749L15.9455 112.758ZM106.165 79.2091L103.775 81.0225L105.179 82.8734L107.323 81.9767L106.165 79.2091ZM60.5189 19.0487L61.245 16.1379L52.9805 14.0764L58.129 20.862L60.5189 19.0487ZM179.201 48.6521L180.359 51.4196L188.701 47.9297L179.927 45.7413L179.201 48.6521ZM173.798 124.813L172.122 127.301L176.398 130.182L176.789 125.041L173.798 124.813ZM106.482 79.4652L105.324 76.6977L100.192 78.8449L104.806 81.9533L106.482 79.4652ZM179.568 48.8875L182.56 49.1149L182.931 44.2287L178.41 46.12L179.568 48.8875ZM60.8453 15.6692L60.7031 15.6334L59.2358 21.4512L59.378 21.4871L60.8453 15.6692ZM57.2624 17.2493L12.1295 111.739L17.5436 114.325L62.6765 19.8353L57.2624 17.2493ZM14.6057 116.023L173.708 128.305L174.17 122.323L15.0675 110.041L14.6057 116.023ZM173.709 128.305L173.888 128.319L174.349 122.336L174.17 122.323L173.709 128.305ZM177.11 125.555L182.94 48.8508L176.957 48.3961L171.127 125.1L177.11 125.555ZM182.94 48.8511L182.951 48.7003L176.968 48.2449L176.957 48.3957L182.94 48.8511ZM180.686 45.5618L60.8377 15.6673L59.3856 21.489L179.234 51.3834L180.686 45.5618ZM104.782 76.5276L14.4278 109.737L16.4977 115.369L106.852 82.1593L104.782 76.5276ZM18.1698 113.846L62.8101 20.388L57.396 17.8019L12.7557 111.26L18.1698 113.846ZM57.7131 20.9083L103.427 81.1568L108.207 77.5301L62.493 17.2816L57.7131 20.9083ZM104.406 82.1161L171.614 127.391L174.966 122.415L107.758 77.1399L104.406 82.1161ZM173.521 121.912L16.1764 109.766L15.7146 115.749L173.059 127.894L173.521 121.912ZM16.9805 115.573L107.117 82.4438L105.047 76.8122L14.9106 109.942L16.9805 115.573ZM108.555 77.3958L62.9088 17.2354L58.129 20.862L103.775 81.0225L108.555 77.3958ZM59.7928 21.9595L178.475 51.5629L179.927 45.7413L61.245 16.1379L59.7928 21.9595ZM178.043 45.8846L105.007 76.4416L107.323 81.9767L180.359 51.4196L178.043 45.8846ZM175.474 122.325L108.158 76.9771L104.806 81.9533L172.122 127.301L175.474 122.325ZM107.64 82.2327L180.726 51.6551L178.41 46.12L105.324 76.6977L107.64 82.2327ZM176.577 48.6602L170.807 124.586L176.789 125.041L182.56 49.1149L176.577 48.6602Z" fill="white" mask="url(#path-1-inside-1_223_565)"/>
<path d="M200.283 50.2208C200.139 53.8584 199.117 57.4071 197.303 60.5636C195.49 63.7201 192.939 66.3907 189.869 68.347C186.799 70.3033 183.301 71.4872 179.673 71.7975C176.046 72.1079 172.398 71.5354 169.04 70.1291C167.465 69.4691 165.971 68.63 164.589 67.6283C161.945 65.72 159.745 63.2634 158.139 60.4265V60.4239C156.426 57.3896 155.441 53.9995 155.259 50.5199C155.078 47.0404 155.706 43.5661 157.094 40.3702C158.482 37.1743 160.592 34.3437 163.258 32.1009C165.925 29.8581 169.075 28.2641 172.462 27.4442C175.848 26.6244 179.378 26.6009 182.775 27.3757C186.173 28.1505 189.344 29.7024 192.04 31.9096C194.736 34.1167 196.883 36.919 198.314 40.0962C199.744 43.2734 200.418 46.739 200.283 50.2206L200.283 50.2208Z" fill="white"/>
<path opacity="0.09" d="M200.283 50.2208C200.139 53.8584 199.117 57.4071 197.303 60.5636C195.49 63.7201 192.939 66.3907 189.869 68.347C186.799 70.3033 183.301 71.4872 179.673 71.7975C176.046 72.1079 172.398 71.5354 169.04 70.1291C167.465 69.4691 165.971 68.63 164.589 67.6283C161.945 65.72 159.745 63.2634 158.139 60.4265V60.4239C156.426 57.3896 155.441 53.9995 155.259 50.5199C155.078 47.0404 155.706 43.5661 157.094 40.3702C158.482 37.1743 160.592 34.3437 163.258 32.1009C165.925 29.8581 169.075 28.2641 172.462 27.4442C175.848 26.6244 179.378 26.6009 182.775 27.3757C186.173 28.1505 189.344 29.7024 192.04 31.9096C194.736 34.1167 196.883 36.919 198.314 40.0962C199.744 43.2734 200.418 46.739 200.283 50.2206L200.283 50.2208Z" fill="#367CFF"/>
<path d="M183.093 32.1849C183.093 32.1849 188.48 32.2509 186.623 39.6757L186.117 39.7004L185.09 39.7504" fill="#0C0C0C"/>
<path d="M177.077 47.4655C177.102 47.4632 177.201 52.0943 182.584 51.8997C186.311 51.7656 187.789 47.8745 187.874 47.8777C187.477 47.7771 186.807 47.6267 186.633 47.5252C186.06 47.1883 185.349 46.833 185.204 45.6893C185.121 45.0301 185.435 41.6869 185.404 41.0222L179.651 42.0739C179.676 43.4765 180.108 46.7423 178.131 47.2406C177.802 47.3231 177.448 47.3968 177.077 47.4655Z" fill="#E98862"/>
<path opacity="0.52" d="M179.42 45.9628C179.52 45.6783 179.589 45.3837 179.626 45.0842C179.715 44.4009 179.729 43.7099 179.668 43.0236C180.834 42.9121 181.944 42.476 182.874 41.7648C182.965 42.1593 183.481 43.8919 183.305 44.2573C182.973 44.9484 181.496 46.0435 179.42 45.9628Z" fill="#0C0C0C"/>
<path d="M180.726 45.1446C182.981 44.9832 185.702 43.6101 185.796 40.554L185.882 37.7969C185.976 34.7413 184.447 32.2145 181.571 32.1256C178.694 32.0359 176.467 34.4471 176.372 37.5027L176.335 38.7233C176.329 39.1428 176.352 39.5622 176.403 39.9786C176.531 41.0796 176.729 42.7537 177.454 43.8969C178.138 44.976 179.285 45.2473 180.726 45.1446Z" fill="#E98862"/>
<path d="M185.589 41.48C186.463 41.5069 187.201 40.5934 187.228 39.7192C187.255 38.845 186.561 38.3408 185.687 38.3137L185.218 38.8856L184.837 41.4567L185.589 41.48Z" fill="#E98862"/>
<path d="M176.52 40.9013C176.678 41.0886 176.88 41.2334 177.109 41.3225C177.337 41.4116 177.584 41.4423 177.827 41.4116C178.347 41.3462 178.692 41.5596 179.126 41.5167C179.49 41.4809 179.553 41.3125 180.175 41.2757C182.576 41.1335 184.377 40.9822 184.494 37.9698L186.022 36.6129C186.022 36.6129 186.704 44.9606 182.189 46.0702C179.415 46.7516 176.813 46.5025 176.478 43.8968C176.206 41.7796 176.52 40.9013 176.52 40.9013Z" fill="#0C0C0C"/>
<path d="M177.658 39.1579C177.853 39.1579 178.012 38.9992 178.012 38.8034C178.012 38.6076 177.853 38.4489 177.658 38.4489C177.462 38.4489 177.303 38.6076 177.303 38.8034C177.303 38.9992 177.462 39.1579 177.658 39.1579Z" fill="#0C0C0C"/>
<path d="M180.825 39.092C181.02 39.092 181.179 38.9333 181.179 38.7375C181.179 38.5417 181.02 38.383 180.825 38.383C180.629 38.383 180.47 38.5417 180.47 38.7375C180.47 38.9333 180.629 39.092 180.825 39.092Z" fill="#0C0C0C"/>
<path d="M184.744 40.0587C184.744 40.0587 184.528 35.7288 183.221 35.4378C182.351 35.244 180.211 36.4443 178.256 36.0344C177.4 35.8551 176.582 36.0523 176.491 36.4565C176.456 36.6165 175.779 35.1979 177.155 33.4717C178.25 32.0974 181.813 31.7108 183.397 32.1968C187.786 33.5428 185.864 38.5076 185.864 38.5076L185.64 39.9949L184.744 40.0587Z" fill="#0C0C0C"/>
<path d="M186.738 36.5674C188.03 36.5674 189.077 35.5203 189.077 34.2287C189.077 32.9371 188.03 31.89 186.738 31.89C185.447 31.89 184.4 32.9371 184.4 34.2287C184.4 35.5203 185.447 36.5674 186.738 36.5674Z" fill="#0C0C0C"/>
<g opacity="0.52">
<path d="M179.168 41.3777H179.163C178.881 41.3696 178.41 41.3248 178.415 41.1141C178.42 40.9394 178.952 39.0677 179.012 38.8546C179.018 38.8363 179.03 38.8208 179.046 38.8116C179.063 38.8023 179.083 38.8 179.101 38.8052C179.119 38.8104 179.135 38.8227 179.144 38.8393C179.153 38.856 179.156 38.8756 179.15 38.8939C178.914 39.7229 178.562 40.9993 178.559 41.1175C178.585 41.168 178.875 41.2251 179.167 41.2335C179.186 41.2333 179.204 41.2406 179.218 41.2539C179.231 41.2672 179.239 41.2854 179.239 41.3044C179.24 41.3234 179.232 41.3418 179.219 41.3554C179.206 41.369 179.188 41.3767 179.168 41.3769V41.3777Z" fill="#0C0C0C"/>
</g>
<path d="M178.311 37.599C178.02 37.5128 177.711 37.5066 177.417 37.581C177.272 37.6166 177.133 37.6738 177.005 37.7507C176.879 37.826 176.762 37.9171 176.658 38.0216C176.64 38.0377 176.629 38.0604 176.628 38.0845C176.627 38.1086 176.635 38.1323 176.651 38.1503C176.667 38.1683 176.69 38.1791 176.714 38.1805C176.738 38.1818 176.762 38.1735 176.78 38.1574L176.785 38.1527C176.882 38.0654 176.989 37.9907 177.105 37.9302C177.218 37.87 177.341 37.8273 177.467 37.8036C177.716 37.7548 177.974 37.7728 178.215 37.8558L178.224 37.8592C178.241 37.8657 178.259 37.8689 178.277 37.8684C178.295 37.8679 178.313 37.8637 178.33 37.8562C178.346 37.8488 178.361 37.838 178.373 37.8247C178.386 37.8114 178.395 37.7957 178.402 37.7787C178.408 37.7616 178.411 37.7434 178.41 37.7253C178.409 37.7071 178.405 37.6893 178.397 37.6728C178.389 37.6564 178.378 37.6417 178.365 37.6295C178.351 37.6173 178.335 37.608 178.318 37.602L178.311 37.599Z" fill="#0C0C0C"/>
<path d="M180.4 37.8561C180.631 37.75 180.885 37.707 181.138 37.7315C181.267 37.7427 181.392 37.7733 181.511 37.8224C181.632 37.8713 181.746 37.9352 181.851 38.0126L181.856 38.0166C181.876 38.0293 181.9 38.0341 181.923 38.0299C181.945 38.0257 181.966 38.0129 181.98 37.9941C181.993 37.9754 182 37.952 181.997 37.9289C181.994 37.9058 181.982 37.8847 181.964 37.8699C181.851 37.7759 181.726 37.6966 181.592 37.6339C181.458 37.5699 181.314 37.5264 181.166 37.505C180.866 37.4597 180.559 37.4961 180.278 37.6102C180.245 37.6245 180.219 37.6512 180.205 37.6846C180.192 37.718 180.192 37.7553 180.206 37.7885C180.22 37.8218 180.246 37.8483 180.279 37.8623C180.312 37.8762 180.35 37.8766 180.383 37.8633L180.39 37.8604L180.4 37.8561Z" fill="#0C0C0C"/>
<path d="M194.762 59.0293C194.561 60.5433 194.366 62.6229 194.191 64.7731C193.508 65.4999 192.778 66.1808 192.005 66.8113C191.514 67.2103 191.007 67.5896 190.484 67.9492C187.657 69.8788 184.429 71.1405 181.043 71.639C177.657 72.1375 174.202 71.8597 170.939 70.8266C170.894 68.8293 170.834 66.1352 170.774 63.6671C170.705 60.82 170.635 58.2708 170.597 57.4332C170.443 54.1089 169.562 51.8909 170.228 50.0773C170.427 49.5404 170.747 49.0567 171.164 48.6637C172.716 47.1447 176.571 47.1793 178.117 47.2394C178.144 47.2405 177.666 50.8091 182.754 50.7661C186.493 50.7354 186.774 47.5752 186.774 47.5752C186.774 47.5752 188.616 47.7669 189.84 47.9794C191.842 48.33 193.143 49.0641 194.156 50.1605C195.1 51.1828 195.658 52.268 194.762 59.0293Z" fill="#367CFF"/>
<path d="M164.852 47.5912L165.006 43.7834C165.01 43.6996 164.996 43.6161 164.965 43.538C164.935 43.46 164.888 43.3892 164.829 43.3301C164.769 43.2711 164.698 43.2251 164.62 43.195C164.542 43.165 164.458 43.1516 164.374 43.1558C164.22 43.1682 164.076 43.2375 163.97 43.3501C163.864 43.4628 163.804 43.6108 163.8 43.7654L163.767 44.5821L162.692 41.967C162.578 41.6742 162.25 41.388 161.93 41.5381C161.803 41.5878 161.696 41.679 161.628 41.7969C161.56 41.9148 161.533 42.0524 161.553 42.1872C161.55 42.1876 161.547 42.1883 161.544 42.1892C161.542 42.1904 161.54 42.1917 161.538 42.1932L161.362 41.7416C161.329 41.658 161.278 41.5827 161.213 41.5213C161.147 41.4598 161.069 41.4138 160.983 41.3865C160.898 41.3592 160.807 41.3513 160.718 41.3635C160.629 41.3756 160.544 41.4075 160.469 41.4567C160.352 41.5366 160.266 41.6541 160.226 41.7897C160.186 41.9253 160.193 42.0706 160.247 42.2014L160.322 42.3935C160.317 42.3982 160.314 42.4038 160.311 42.4098C160.23 42.2919 160.11 42.2065 159.972 42.169C159.834 42.1314 159.687 42.1441 159.558 42.2048C159.418 42.2756 159.31 42.3964 159.256 42.5432C159.201 42.69 159.204 42.852 159.263 42.9969L159.45 43.4742C159.443 43.4693 159.434 43.4662 159.425 43.4652C159.417 43.4643 159.408 43.4654 159.399 43.4685C159.39 43.4728 159.382 43.4798 159.376 43.4886C159.274 43.4034 159.148 43.3539 159.016 43.3476C158.884 43.3412 158.753 43.3785 158.644 43.4536C158.532 43.5349 158.45 43.6518 158.412 43.7854C158.374 43.9191 158.382 44.0617 158.435 44.1901L160.009 48.2174C160.229 48.7808 160.612 49.2657 161.11 49.6097C161.607 49.9538 162.196 50.1415 162.801 50.1487C163.323 50.1549 163.826 49.9574 164.205 49.5984C164.583 49.2393 164.806 48.7469 164.828 48.2257L164.852 47.5912Z" fill="#E98862"/>
<g opacity="0.2">
<path d="M162.604 44.7811C162.591 44.7864 162.576 44.7861 162.562 44.7803C162.549 44.7745 162.538 44.7638 162.533 44.7502L161.514 42.2618C161.51 42.255 161.509 42.2475 161.508 42.24C161.508 42.2324 161.509 42.2249 161.512 42.2178C161.515 42.2108 161.519 42.2044 161.524 42.199C161.53 42.1936 161.536 42.1893 161.543 42.1865C161.55 42.1836 161.557 42.1822 161.565 42.1823C161.573 42.1825 161.58 42.1841 161.587 42.1872C161.594 42.1903 161.6 42.1948 161.605 42.2004C161.61 42.206 161.614 42.2125 161.617 42.2197L162.636 44.7081C162.639 44.7149 162.64 44.7221 162.64 44.7294C162.64 44.7368 162.638 44.744 162.636 44.7507C162.633 44.7575 162.629 44.7636 162.623 44.7688C162.618 44.7739 162.612 44.778 162.605 44.7807L162.604 44.7811Z" fill="#0C0C0C"/>
</g>
<g opacity="0.2">
<path d="M161.519 45.2609C161.506 45.2662 161.49 45.2659 161.477 45.2601C161.464 45.2543 161.453 45.2435 161.448 45.2299L160.31 42.4528C160.305 42.4392 160.305 42.4241 160.311 42.4107C160.317 42.3973 160.327 42.3866 160.341 42.381C160.354 42.3762 160.369 42.3766 160.383 42.3822C160.396 42.3878 160.407 42.3982 160.413 42.4113L161.55 45.1885C161.555 45.2021 161.555 45.2175 161.55 45.2311C161.544 45.2447 161.533 45.2555 161.519 45.2611V45.2609Z" fill="#0C0C0C"/>
</g>
<g opacity="0.2">
<path d="M160.347 45.7873C160.333 45.7926 160.318 45.7924 160.305 45.7865C160.291 45.7807 160.281 45.7699 160.275 45.7563L159.368 43.5412C159.363 43.5275 159.363 43.5122 159.368 43.4986C159.374 43.485 159.385 43.4742 159.399 43.4686C159.412 43.463 159.428 43.4631 159.441 43.4688C159.455 43.4745 159.465 43.4854 159.471 43.499L160.379 45.7136C160.384 45.7273 160.384 45.7426 160.379 45.7562C160.373 45.7698 160.362 45.7806 160.348 45.7862L160.347 45.7873Z" fill="#0C0C0C"/>
</g>
<path d="M177.457 53.5611L168.19 67.8092C167.853 68.3271 167.402 68.7608 166.871 69.077C166.081 68.6414 165.319 68.1576 164.588 67.6283C163.032 66.5052 161.625 65.1878 160.403 63.708L158.456 48.6157L166.247 47.3674L167.135 54.632L170.694 49.1605L177.457 53.5611Z" fill="#367CFF"/>
<path d="M178.544 42.155C179.394 42.2114 180.239 41.9829 180.944 41.5056C180.969 41.4892 180.997 41.4801 181.027 41.4794C181.056 41.4786 181.085 41.4863 181.111 41.5015C181.136 41.5166 181.156 41.5387 181.17 41.5651C181.183 41.5914 181.188 41.621 181.185 41.6504C181.128 42.1524 180.88 43.0759 179.827 43.1936C179.147 43.2694 178.654 42.7471 178.405 42.3997C178.388 42.3757 178.378 42.3473 178.377 42.3178C178.375 42.2883 178.382 42.2589 178.397 42.2332C178.411 42.2075 178.433 42.1865 178.459 42.1726C178.485 42.1588 178.514 42.1526 178.544 42.155Z" fill="white"/>
<path d="M197.275 60.6307C195.905 62.9918 194.12 65.0857 192.005 66.8113C191.514 67.2103 191.007 67.5897 190.484 67.9493L186.864 54.1791L195.016 52.035L197.275 60.6307Z" fill="#367CFF"/>
<path d="M190.563 67.8954C190.537 67.9123 190.509 67.9313 190.484 67.9492C190.458 67.9672 190.432 67.9851 190.406 68.0018L187.648 57.5116L187.822 57.4662L190.563 67.8954Z" fill="#0C0C0C"/>
<path d="M170.796 64.3157C170.773 64.3148 170.752 64.3055 170.736 64.2897C170.72 64.2738 170.711 64.2526 170.71 64.2302L170.532 60.321C170.531 60.2972 170.539 60.274 170.555 60.2564C170.571 60.2389 170.594 60.2284 170.617 60.2273C170.641 60.2263 170.664 60.2347 170.682 60.2507C170.7 60.2668 170.71 60.2892 170.711 60.3129L170.889 64.2221C170.89 64.2459 170.881 64.269 170.865 64.2866C170.849 64.3041 170.827 64.3146 170.803 64.3157H170.796Z" fill="#0C0C0C"/>
<path d="M103.753 100.49C116.441 100.49 126.727 90.2041 126.727 77.5161C126.727 64.8282 116.441 54.5425 103.753 54.5425C91.0652 54.5425 80.7795 64.8282 80.7795 77.5161C80.7795 90.2041 91.0652 100.49 103.753 100.49Z" fill="white"/>
<path opacity="0.09" d="M126.727 77.5154C126.727 82.0591 125.38 86.5007 122.855 90.2787C120.331 94.0566 116.743 97.0011 112.545 98.7399C108.347 100.479 103.728 100.934 99.2719 100.047C94.8155 99.1608 90.7221 96.9728 87.5092 93.76C84.2963 90.5471 82.1083 86.4537 81.2219 81.9973C80.3355 77.5409 80.7904 72.9218 82.5292 68.724C84.268 64.5262 87.2125 60.9382 90.9905 58.4139C94.7684 55.8896 99.21 54.5422 103.754 54.5422C106.774 54.531 109.766 55.1176 112.558 56.2682C115.351 57.4188 117.888 59.1105 120.023 61.246C122.159 63.3815 123.85 65.9185 125.001 68.7108C126.151 71.5031 126.738 74.4954 126.727 77.5154Z" fill="#367CFF"/>
<path d="M93.5839 63.9657C93.5839 63.9657 93.3529 67.4337 92.5725 68.692C90.3264 72.3143 89.6756 76.3893 91.925 78.5188C94.1744 80.6482 108.522 80.6774 109.609 75.7805C110.523 71.658 108.56 71.2147 108.082 67.8139C107.866 66.2751 107.271 63.0485 107.271 63.0485" fill="#0A0A0A"/>
<path d="M105.895 75.062C105.87 75.0588 105.596 79.6191 100.298 79.2222C96.6304 78.9475 95.3228 75.0563 95.2387 75.0563C95.6341 74.9723 96.2999 74.85 96.476 74.7564C97.0534 74.446 97.768 74.1233 97.9541 73.0016C98.0617 72.3561 97.8793 69.0483 97.9362 68.3943L103.566 69.6508C103.487 71.0316 102.937 74.2343 104.866 74.8009C105.186 74.894 105.532 74.9802 105.895 75.062Z" fill="#E98862"/>
<path opacity="0.5" d="M103.644 73.4917C103.555 73.2075 103.499 72.9145 103.474 72.6179C103.412 71.9412 103.425 71.2597 103.511 70.5857C102.367 70.4314 101.289 69.9592 100.4 69.2228C100.295 69.6089 99.7202 71.2958 99.8796 71.6628C100.181 72.3559 101.594 73.4917 103.644 73.4917Z" fill="#0C0C0C"/>
<path d="M102.916 72.071C100.696 72.2862 97.8243 71.3978 97.2295 68.4421L96.6926 65.775C96.0978 62.8193 97.168 60.1107 99.9508 59.5507C102.734 58.9905 105.296 60.9673 105.891 63.9237L106.129 65.1044C106.357 66.2386 106.876 71.6878 102.916 72.071Z" fill="#E98862"/>
<path opacity="0.1" d="M101.505 68.1983C101.87 68.1548 102.14 67.9022 102.108 67.6342C102.076 67.3663 101.754 67.1843 101.389 67.2279C101.024 67.2715 100.754 67.5241 100.785 67.792C100.817 68.06 101.139 68.2419 101.505 68.1983Z" fill="#0C0C0C"/>
<path opacity="0.1" d="M105.364 67.1265C105.397 67.3939 105.719 67.5748 106.084 67.5325C106.147 67.525 106.21 67.5109 106.27 67.4905C106.287 67.1715 106.288 66.8645 106.278 66.5805C106.177 66.5552 106.072 66.5491 105.968 66.5626C105.603 66.6054 105.333 66.8579 105.364 67.1265Z" fill="#0C0C0C"/>
<path opacity="0.5" d="M103.75 67.9534H103.756C103.869 67.9296 103.98 67.8997 104.089 67.8637C104.253 67.8099 104.466 67.7194 104.437 67.5716C104.403 67.403 103.576 65.6789 103.482 65.4827C103.473 65.4666 103.458 65.4545 103.441 65.4489C103.423 65.4433 103.404 65.4446 103.388 65.4526C103.371 65.4605 103.358 65.4745 103.352 65.4916C103.345 65.5088 103.345 65.5278 103.353 65.5447C103.705 66.2799 104.274 67.4864 104.296 67.5997C104.278 67.6526 104.007 67.7559 103.727 67.8124C103.71 67.8165 103.694 67.8272 103.684 67.8423C103.674 67.8574 103.67 67.8758 103.673 67.8938C103.676 67.9118 103.685 67.928 103.7 67.9391C103.714 67.9503 103.732 67.9555 103.75 67.9537V67.9534Z" fill="#0C0C0C"/>
<path d="M94.4721 66.7324L96.9671 66.245C98.8518 65.456 99.3865 62.1723 99.3865 62.1723C99.3865 62.1723 101.712 64.3874 107.271 63.0479C107.271 63.0479 106.064 55.2877 97.8557 57.6432C95.2089 58.4026 93.3341 61.1005 93.6129 64.6736C93.8082 67.1782 94.4721 66.7324 94.4721 66.7324Z" fill="#0A0A0A"/>
<path d="M97.5834 69.3078C96.7378 69.478 95.87 68.7112 95.7006 67.8654C95.5311 67.0195 96.122 66.4152 96.9678 66.2451L97.5176 66.724L98.3113 69.1615L97.5834 69.3078Z" fill="#E98862"/>
<path d="M104.081 64.1077C104.293 63.9579 104.541 63.8669 104.799 63.8441C104.928 63.8317 105.059 63.8389 105.187 63.8654C105.315 63.8916 105.44 63.9338 105.558 63.991L105.562 63.9926C105.575 63.9978 105.589 63.9979 105.603 63.9928C105.616 63.9877 105.626 63.9778 105.632 63.9651C105.638 63.9524 105.639 63.9379 105.635 63.9245C105.63 63.9112 105.621 63.9001 105.609 63.8934C105.483 63.8273 105.35 63.7773 105.213 63.7446C105.074 63.7108 104.931 63.6981 104.789 63.7069C104.501 63.7229 104.222 63.8158 103.982 63.9759C103.973 63.9818 103.965 63.9896 103.959 63.9986C103.952 64.0077 103.948 64.018 103.946 64.0288C103.943 64.0396 103.943 64.0507 103.946 64.0615C103.948 64.0724 103.952 64.0826 103.958 64.0917C103.965 64.1009 103.972 64.1086 103.982 64.1146C103.991 64.1206 104.001 64.1246 104.012 64.1265C104.023 64.1283 104.034 64.128 104.045 64.1255C104.056 64.123 104.066 64.1183 104.075 64.1118L104.077 64.1106L104.081 64.1077Z" fill="#0C0C0C"/>
<path d="M101.802 64.4226C101.519 64.3663 101.226 64.387 100.953 64.4827C100.819 64.5291 100.692 64.5956 100.577 64.6799C100.462 64.763 100.358 64.8601 100.268 64.969C100.259 64.9798 100.254 64.9938 100.255 65.008C100.256 65.0221 100.262 65.0354 100.273 65.045C100.283 65.0546 100.297 65.0597 100.311 65.0593C100.326 65.0589 100.339 65.053 100.349 65.0428L100.352 65.0398C100.439 64.9416 100.538 64.8548 100.647 64.7814C100.755 64.7079 100.873 64.6512 100.997 64.613C101.244 64.5355 101.508 64.5248 101.761 64.582L101.767 64.5834C101.778 64.5862 101.789 64.5869 101.799 64.5854C101.81 64.5839 101.821 64.5802 101.83 64.5746C101.84 64.569 101.848 64.5616 101.854 64.5527C101.861 64.5439 101.866 64.5339 101.868 64.5232C101.871 64.5126 101.871 64.5015 101.869 64.4907C101.868 64.4799 101.864 64.4695 101.858 64.4602C101.852 64.4509 101.844 64.4429 101.836 64.4366C101.827 64.4303 101.816 64.4258 101.806 64.4235L101.802 64.4226Z" fill="#0C0C0C"/>
<path d="M96.9687 66.2041C98.6459 65.5799 99.2023 64.4217 99.374 63.5597C99.4848 62.9849 99.4744 62.3932 99.3435 61.8226L99.2915 61.837C99.4206 62.4001 99.4305 62.9841 99.3207 63.5513C99.1516 64.3989 98.6034 65.5387 96.9499 66.1538L96.9687 66.2041Z" fill="#0C0C0C"/>
<path d="M118.174 74.1537L119.178 70.7466C119.2 70.6718 119.237 70.6024 119.288 70.5428C119.338 70.4832 119.4 70.4347 119.47 70.4004C119.541 70.3662 119.617 70.3469 119.695 70.3439C119.773 70.3408 119.851 70.354 119.923 70.3826C120.056 70.4396 120.162 70.5438 120.222 70.6749C120.282 70.8059 120.291 70.9546 120.248 71.092L120.033 71.8226L121.763 69.836C121.952 69.6117 122.327 69.4571 122.565 69.6854C122.662 69.7672 122.728 69.8795 122.753 70.004C122.778 70.1286 122.761 70.2579 122.703 70.371C122.705 70.3722 122.708 70.3737 122.71 70.3754C122.711 70.377 122.713 70.3788 122.714 70.3806L123.005 70.0347C123.059 69.9707 123.126 69.9196 123.202 69.885C123.279 69.8504 123.361 69.8332 123.445 69.8347C123.529 69.8362 123.611 69.8564 123.686 69.8937C123.761 69.931 123.826 69.9846 123.878 70.0505C123.957 70.1559 123.998 70.2853 123.993 70.417C123.988 70.5487 123.938 70.6748 123.851 70.7741L123.728 70.9213C123.73 70.9269 123.732 70.933 123.732 70.9392C123.839 70.8593 123.971 70.8198 124.104 70.828C124.237 70.8362 124.363 70.8914 124.459 70.9839C124.561 71.0881 124.62 71.227 124.624 71.3729C124.629 71.5188 124.578 71.6609 124.482 71.7709L124.174 72.1364C124.182 72.1342 124.191 72.134 124.199 72.1358C124.207 72.1375 124.214 72.1411 124.221 72.1464C124.228 72.1531 124.233 72.1618 124.236 72.1713C124.351 72.1266 124.477 72.1208 124.595 72.155C124.714 72.1892 124.818 72.2614 124.891 72.3605C124.966 72.466 125.004 72.5937 124.997 72.723C124.991 72.8523 124.941 72.9756 124.856 73.073L122.262 76.1573C121.899 76.5886 121.416 76.9018 120.874 77.0566C120.332 77.2114 119.756 77.2009 119.22 77.0262C118.758 76.8757 118.372 76.5509 118.146 76.1209C117.919 75.6908 117.87 75.1894 118.007 74.7232L118.174 74.1537Z" fill="#E98862"/>
<g opacity="0.2">
<path d="M120.998 72.3466C121.009 72.355 121.022 72.3591 121.035 72.358C121.049 72.3569 121.061 72.3507 121.07 72.3407L122.714 70.4494C122.723 70.439 122.727 70.4254 122.726 70.4117C122.725 70.398 122.719 70.3852 122.709 70.3762C122.698 70.3672 122.685 70.3627 122.671 70.3637C122.657 70.3646 122.644 70.371 122.635 70.3814L120.992 72.2725C120.987 72.2777 120.984 72.2836 120.982 72.2901C120.98 72.2966 120.979 72.3034 120.979 72.3102C120.98 72.317 120.981 72.3236 120.984 72.3297C120.988 72.3358 120.992 72.3412 120.997 72.3457L120.998 72.3466Z" fill="#0C0C0C"/>
</g>
<g opacity="0.2">
<path d="M121.812 73.0943C121.823 73.1028 121.836 73.1069 121.85 73.1058C121.863 73.1047 121.875 73.0985 121.884 73.0884L123.718 70.9778C123.723 70.9727 123.726 70.9667 123.728 70.9602C123.731 70.9538 123.731 70.9469 123.731 70.9401C123.731 70.9333 123.729 70.9267 123.726 70.9206C123.723 70.9145 123.718 70.9091 123.713 70.9046C123.703 70.8961 123.689 70.8919 123.676 70.8928C123.662 70.8938 123.649 70.8999 123.64 70.9098L121.807 73.0204C121.803 73.0256 121.799 73.0316 121.797 73.038C121.795 73.0445 121.794 73.0513 121.795 73.0581C121.795 73.0649 121.797 73.0715 121.8 73.0776C121.803 73.0837 121.807 73.0891 121.812 73.0936L121.812 73.0943Z" fill="#0C0C0C"/>
</g>
<g opacity="0.2">
<path d="M122.69 73.9096C122.7 73.9181 122.713 73.9222 122.727 73.9211C122.74 73.92 122.752 73.9137 122.761 73.9036L124.224 72.2202C124.233 72.2097 124.236 72.1965 124.235 72.1832C124.234 72.17 124.228 72.1578 124.218 72.149C124.208 72.1403 124.195 72.1358 124.181 72.1363C124.168 72.1369 124.155 72.1425 124.146 72.152L122.683 73.8357C122.678 73.8408 122.675 73.8468 122.673 73.8533C122.671 73.8597 122.67 73.8666 122.67 73.8733C122.671 73.8801 122.673 73.8868 122.676 73.8929C122.679 73.899 122.683 73.9044 122.688 73.9088L122.69 73.9096Z" fill="#0C0C0C"/>
</g>
<path d="M124.285 75.6411L120.403 93.2539C120.394 93.2933 120.385 93.3346 120.374 93.374C119.502 94.2864 118.558 95.1265 117.55 95.8861C117.347 96.0369 117.145 96.1858 116.937 96.3292C116.808 96.3435 116.679 96.3507 116.549 96.3507C115.857 96.3505 115.178 96.1683 114.578 95.8224C113.979 95.4765 113.481 94.9791 113.135 94.38L105.736 81.5777L112.568 77.631L114.883 81.637L116.58 73.9424L124.285 75.6411Z" fill="#0CBC8B"/>
<path d="M112.337 83.671C112.314 83.9505 112.267 84.4492 112.203 85.1055C111.88 88.4606 111.125 95.9383 110.775 99.3938C106.358 100.806 101.617 100.854 97.1719 99.5318H97.1701C93.8873 98.5492 90.8664 96.8433 88.3296 94.5396C88.344 91.4499 88.2992 87.9747 88.0911 85.7403C87.4689 79.0641 88.0571 78.0188 89.0236 77.0523C89.1025 76.9734 89.185 76.8963 89.2675 76.821C90.2663 75.9136 91.5197 75.3218 93.347 75.0742C94.5556 74.9112 96.3739 74.7928 96.3739 74.7928C96.3739 74.7928 96.5281 77.9092 100.199 78.0814C105.196 78.3165 104.863 74.7928 104.888 74.7928C106.145 74.7928 108.942 74.8717 110.707 75.7701C110.709 75.7701 110.709 75.7701 110.711 75.7719C111.066 75.9449 111.389 76.1771 111.666 76.4587C113.687 78.5998 112.69 79.5154 112.337 83.671Z" fill="#0CBC8B"/>
<path d="M104.494 68.536C103.773 68.9026 102.951 69.0186 102.156 68.8656C102.129 68.8603 102.1 68.8631 102.074 68.8734C102.048 68.8838 102.026 68.9013 102.009 68.924C101.993 68.9467 101.983 68.9736 101.982 69.0015C101.98 69.0295 101.986 69.0573 102 69.0818C102.237 69.4991 102.798 70.2126 103.762 69.9219C104.384 69.7342 104.62 69.094 104.707 68.6979C104.713 68.6705 104.711 68.6419 104.701 68.6156C104.692 68.5893 104.675 68.5662 104.652 68.5492C104.63 68.5322 104.603 68.5219 104.575 68.5196C104.547 68.5172 104.519 68.5229 104.494 68.536Z" fill="white"/>
<path d="M104.54 65.3287C104.732 65.3287 104.888 65.1727 104.888 64.9803C104.888 64.7879 104.732 64.6319 104.54 64.6319C104.347 64.6319 104.191 64.7879 104.191 64.9803C104.191 65.1727 104.347 65.3287 104.54 65.3287Z" fill="#0C0C0C"/>
<path d="M101.191 65.9149C101.383 65.9149 101.539 65.7589 101.539 65.5664C101.539 65.374 101.383 65.218 101.191 65.218C100.999 65.218 100.843 65.374 100.843 65.5664C100.843 65.7589 100.999 65.9149 101.191 65.9149Z" fill="#0C0C0C"/>
<path d="M111.566 91.1926C111.564 91.1927 111.562 91.1927 111.56 91.1926C111.546 91.1906 111.533 91.1831 111.524 91.1717C111.516 91.1604 111.512 91.1461 111.514 91.1319L112.13 84.9259C112.131 84.9188 112.133 84.912 112.136 84.9058C112.14 84.8996 112.145 84.8942 112.15 84.8899C112.156 84.8856 112.162 84.8825 112.169 84.8808C112.176 84.8791 112.183 84.8788 112.19 84.8799C112.205 84.8819 112.217 84.8894 112.226 84.9008C112.235 84.9121 112.238 84.9264 112.236 84.9406L111.62 91.1466C111.619 91.1595 111.612 91.1713 111.602 91.1797C111.592 91.1882 111.579 91.1927 111.566 91.1926Z" fill="#0C0C0C"/>
<path d="M107.838 90.8936L111.205 89.39C111.279 89.3572 111.359 89.34 111.44 89.3397C111.521 89.3394 111.601 89.3559 111.675 89.3882C111.749 89.4205 111.816 89.4679 111.871 89.5273C111.925 89.5867 111.967 89.6569 111.994 89.7334C112.038 89.8763 112.028 90.0305 111.965 90.1662C111.902 90.3019 111.791 90.4093 111.653 90.4678L110.931 90.7905L113.667 90.8187C113.972 90.8165 114.346 91.0084 114.326 91.3498C114.327 91.4817 114.283 91.61 114.201 91.7138C114.12 91.8175 114.006 91.8906 113.877 91.9211C113.878 91.924 113.879 91.9268 113.879 91.9298C113.878 91.932 113.878 91.9342 113.877 91.9364L114.346 91.9332C114.433 91.9326 114.519 91.9514 114.598 91.9882C114.676 92.0249 114.746 92.0788 114.801 92.1458C114.856 92.2127 114.896 92.2912 114.917 92.3754C114.938 92.4596 114.94 92.5474 114.923 92.6325C114.893 92.766 114.818 92.8851 114.71 92.97C114.603 93.0549 114.47 93.1003 114.333 93.0987L114.133 93.1002C114.131 93.106 114.127 93.1113 114.123 93.1158C114.258 93.1461 114.378 93.2235 114.461 93.3341C114.544 93.4447 114.585 93.5813 114.577 93.7195C114.564 93.8705 114.494 94.0108 114.382 94.1125C114.269 94.2142 114.123 94.2698 113.971 94.2683L113.475 94.2717C113.482 94.2766 113.488 94.2831 113.492 94.2907C113.496 94.2982 113.498 94.3067 113.498 94.3152C113.498 94.3254 113.495 94.3352 113.489 94.3436C113.602 94.4041 113.692 94.5001 113.745 94.6167C113.798 94.7334 113.811 94.8642 113.782 94.9891C113.75 95.1196 113.674 95.2352 113.568 95.3173C113.461 95.3994 113.33 95.4432 113.196 95.4416L109.013 95.4713C108.427 95.4755 107.854 95.3048 107.367 94.9811C106.879 94.6574 106.499 94.1954 106.276 93.6544C106.083 93.188 106.08 92.6648 106.267 92.196C106.454 91.7272 106.816 91.3498 107.277 91.144L107.838 90.8936Z" fill="#E98862"/>
<g opacity="0.2">
<path d="M111.169 91.9065C111.169 91.9207 111.175 91.9344 111.185 91.9445C111.195 91.9546 111.209 91.9603 111.223 91.9603L113.825 91.9837C113.839 91.9839 113.853 91.9783 113.863 91.9683C113.873 91.9583 113.879 91.9447 113.879 91.9304C113.879 91.9161 113.874 91.9024 113.864 91.8922C113.854 91.8821 113.84 91.8763 113.826 91.8762L111.224 91.8527C111.21 91.8527 111.196 91.8583 111.186 91.8684C111.176 91.8785 111.17 91.8922 111.17 91.9065H111.169Z" fill="#0C0C0C"/>
</g>
<g opacity="0.2">
<path d="M111.127 93.0541C111.127 93.0684 111.133 93.082 111.143 93.0921C111.153 93.1022 111.167 93.1079 111.181 93.1079L114.084 93.1341C114.099 93.1341 114.112 93.1284 114.123 93.1183C114.133 93.1082 114.138 93.0945 114.138 93.0803C114.138 93.0661 114.132 93.0527 114.122 93.0427C114.112 93.0327 114.099 93.0269 114.084 93.0265L111.181 93.0003C111.167 93.0003 111.153 93.006 111.143 93.0161C111.133 93.0261 111.127 93.0398 111.127 93.0541H111.127Z" fill="#0C0C0C"/>
</g>
<g opacity="0.2">
<path d="M111.075 94.2955C111.075 94.3098 111.08 94.3235 111.091 94.3335C111.101 94.3436 111.114 94.3493 111.129 94.3493L113.444 94.3703C113.459 94.3703 113.472 94.3646 113.483 94.3545C113.493 94.3444 113.498 94.3307 113.498 94.3165C113.498 94.3022 113.493 94.2885 113.483 94.2784C113.472 94.2684 113.459 94.2627 113.444 94.2627L111.129 94.2419C111.114 94.2419 111.101 94.2476 111.091 94.2576C111.08 94.2677 111.075 94.2814 111.075 94.2957V94.2955Z" fill="#0C0C0C"/>
</g>
<path d="M108.803 96.8887L97.1719 99.5318H97.1701C93.8873 98.5492 90.8664 96.8433 88.3296 94.5396C88.0571 94.2921 87.7905 94.0386 87.5299 93.7791C87.0756 93.3256 86.641 92.8541 86.2262 92.3644L87.8544 79.2669C88.0321 78.2111 88.6218 77.2691 89.494 76.6481C90.3662 76.0272 91.4493 75.7781 92.5051 75.9557C93.5609 76.1334 94.5029 76.7232 95.1239 77.5953C95.7448 78.4675 95.9939 79.5506 95.8162 80.6064L94.787 92.9042L107.755 89.9685L108.803 96.8887Z" fill="#0CBC8B"/>
<path d="M92.1637 93.3872C92.1566 93.3878 92.1495 93.3869 92.1428 93.3847C92.1361 93.3825 92.1298 93.379 92.1245 93.3743C92.1191 93.3697 92.1147 93.3641 92.1115 93.3578C92.1083 93.3514 92.1064 93.3446 92.1058 93.3375C92.1053 93.3304 92.1062 93.3233 92.1084 93.3166C92.1106 93.3099 92.1141 93.3036 92.1187 93.2983C92.1234 93.2929 92.129 93.2885 92.1353 93.2853C92.1417 93.2821 92.1485 93.2802 92.1556 93.2797L94.7557 92.7238C94.7627 92.7227 94.7699 92.723 94.7768 92.7247C94.7836 92.7264 94.7901 92.7294 94.7958 92.7336C94.8015 92.7378 94.8063 92.7431 94.8099 92.7492C94.8136 92.7552 94.816 92.762 94.8171 92.769C94.8181 92.7759 94.8178 92.7831 94.8161 92.7899C94.8143 92.7968 94.8113 92.8033 94.8071 92.8089C94.8029 92.8146 94.7976 92.8194 94.7915 92.823C94.7854 92.8267 94.7787 92.8291 94.7717 92.8301L92.1707 93.386C92.1684 93.3866 92.166 93.387 92.1637 93.3872Z" fill="#0C0C0C"/>
<path d="M108.803 96.8886C108.806 96.9024 108.803 96.9168 108.796 96.9288C108.788 96.9408 108.777 96.9495 108.763 96.9532L97.4642 99.6161C97.3925 99.5962 97.3225 99.5767 97.2526 99.555L108.684 96.8635L107.666 90.0494L94.7744 92.8305C94.7661 92.8318 94.7575 92.8313 94.7494 92.8288C94.7414 92.8263 94.7339 92.8221 94.7278 92.8163C94.7224 92.8099 94.7184 92.8024 94.7159 92.7944C94.7135 92.7864 94.7126 92.778 94.7134 92.7697L95.4361 85.7421C95.4374 85.7352 95.44 85.7285 95.4438 85.7226C95.4477 85.7166 95.4527 85.7115 95.4585 85.7075C95.4643 85.7035 95.4709 85.7006 95.4778 85.6992C95.4847 85.6977 95.4919 85.6976 95.4988 85.6989C95.5129 85.7011 95.5255 85.7088 95.5339 85.7202C95.5423 85.7317 95.5458 85.746 95.5437 85.76L94.8318 92.7159L107.689 89.9292C107.696 89.9273 107.703 89.9269 107.71 89.9281C107.718 89.9294 107.724 89.9322 107.73 89.9364C107.736 89.9397 107.742 89.9443 107.746 89.9498C107.751 89.9554 107.754 89.9617 107.755 89.9685L108.803 96.8886Z" fill="#0C0C0C"/>
<path d="M21.3653 126.959C32.9994 126.959 42.4307 117.528 42.4307 105.894C42.4307 94.2598 32.9994 84.8285 21.3653 84.8285C9.73115 84.8285 0.299835 94.2598 0.299835 105.894C0.299835 117.528 9.73115 126.959 21.3653 126.959Z" fill="white"/>
<path opacity="0.09" d="M21.3653 126.959C32.9994 126.959 42.4307 117.528 42.4307 105.894C42.4307 94.2598 32.9994 84.8285 21.3653 84.8285C9.73115 84.8285 0.299835 94.2598 0.299835 105.894C0.299835 117.528 9.73115 126.959 21.3653 126.959Z" fill="#367CFF"/>
<path d="M15.5641 93.9457C15.5641 93.9457 15.7924 100.29 20.027 100.582L20.7443 92.2155L15.5641 93.9457Z" fill="#0A0A0A"/>
<path d="M16.3796 101.878C17.7652 101.878 18.8883 100.754 18.8883 99.369C18.8883 97.9835 17.7652 96.8603 16.3796 96.8603C14.9941 96.8603 13.871 97.9835 13.871 99.369C13.871 100.754 14.9941 101.878 16.3796 101.878Z" fill="#0A0A0A"/>
<path d="M26.1954 103.526C26.173 103.523 25.9252 107.637 21.146 107.279C17.8373 107.031 16.6578 103.521 16.5821 103.521C16.9602 103.458 17.3331 103.368 17.698 103.25C18.2189 102.97 18.8636 102.679 19.0314 101.668C19.1283 101.084 18.9642 98.101 19.0146 97.511L24.0933 98.6447C24.0215 99.8906 23.5255 102.779 25.2664 103.291C25.5558 103.375 25.8678 103.453 26.1954 103.526Z" fill="#E98862"/>
<path opacity="0.5" d="M24.1643 102.11C24.0847 101.853 24.0334 101.589 24.0115 101.321C23.9557 100.71 23.9669 100.096 24.0447 99.4875C23.0124 99.3482 22.04 98.9221 21.2378 98.2578C21.1435 98.606 20.6249 100.128 20.7685 100.459C21.04 101.086 22.3155 102.11 24.1643 102.11Z" fill="#0C0C0C"/>
<path d="M23.3686 101.001C21.3572 101.027 18.8426 100.012 18.5309 97.3101L18.2498 94.8713C17.9379 92.1693 19.1044 89.8145 21.6486 89.5217C24.1926 89.2283 26.3468 91.1992 26.6586 93.9014L26.7831 94.9807C26.9027 96.0181 26.9576 100.956 23.3686 101.001Z" fill="#E98862"/>
<path d="M26.054 94.9083C26.2282 94.9083 26.3694 94.767 26.3694 94.5928C26.3694 94.4186 26.2282 94.2774 26.054 94.2774C25.8798 94.2774 25.7385 94.4186 25.7385 94.5928C25.7385 94.767 25.8798 94.9083 26.054 94.9083Z" fill="#0C0C0C"/>
<path d="M22.83 95.2769C23.0042 95.2769 23.1454 95.1357 23.1454 94.9615C23.1454 94.7873 23.0042 94.6461 22.83 94.6461C22.6558 94.6461 22.5145 94.7873 22.5145 94.9615C22.5145 95.1357 22.6558 95.2769 22.83 95.2769Z" fill="#0C0C0C"/>
<path opacity="0.5" d="M24.4299 97.3629H24.4349C24.5379 97.3503 24.6403 97.3319 24.7413 97.3081C24.8923 97.2713 25.0914 97.2068 25.0758 97.0716C25.0578 96.9177 24.4447 95.3051 24.3748 95.1218C24.3718 95.1139 24.3672 95.1066 24.3614 95.1005C24.3556 95.0943 24.3486 95.0894 24.3408 95.0859C24.3331 95.0824 24.3247 95.0805 24.3163 95.0803C24.3078 95.08 24.2993 95.0815 24.2914 95.0845C24.2835 95.0875 24.2762 95.0921 24.2701 95.0979C24.2639 95.1037 24.259 95.1107 24.2555 95.1185C24.252 95.1262 24.2501 95.1346 24.2499 95.143C24.2497 95.1515 24.2511 95.16 24.2541 95.1679C24.5157 95.8545 24.9355 96.9828 24.9474 97.0866C24.786 97.1775 24.6051 97.2283 24.42 97.2347C24.4029 97.236 24.3871 97.2441 24.3759 97.2571C24.3648 97.2701 24.3592 97.287 24.3605 97.304C24.3619 97.3211 24.3699 97.337 24.3829 97.3481C24.3959 97.3593 24.4128 97.3648 24.4299 97.3635V97.3629Z" fill="#0C0C0C"/>
<path opacity="0.5" d="M23.9751 98.4875C24.3883 98.4639 24.7902 98.3435 25.1484 98.1362C25.1625 98.1275 25.1727 98.1136 25.1769 98.0975C25.1811 98.0815 25.1789 98.0644 25.1709 98.0499C25.1629 98.0354 25.1495 98.0245 25.1337 98.0195C25.1179 98.0145 25.1007 98.0158 25.0858 98.0231C24.3122 98.4511 23.5723 98.4758 22.9465 98.0948C22.9339 98.0867 22.9208 98.0793 22.9074 98.0725C22.8919 98.0665 22.8747 98.0667 22.8593 98.073C22.8439 98.0794 22.8315 98.0914 22.8248 98.1066C22.818 98.1218 22.8174 98.139 22.823 98.1547C22.8286 98.1703 22.84 98.1833 22.8549 98.1907C22.8597 98.1932 22.868 98.1983 22.8793 98.2053C23.2083 98.4063 23.5899 98.5046 23.9751 98.4875Z" fill="#0C0C0C"/>
<path d="M16.1813 95.5646L18.461 95.3148C20.2146 94.7485 20.9432 91.836 20.9432 91.836C20.9432 91.836 22.5145 93.6229 27.1711 92.807C27.1711 92.807 26.9907 86.8037 19.9087 87.6489C17.4428 87.9435 15.5835 90.4163 15.5643 93.6496C15.551 95.9153 16.1813 95.5646 16.1813 95.5646Z" fill="#0A0A0A"/>
<path d="M18.784 98.115C18.0107 98.2047 17.2886 97.4494 17.1995 96.6762C17.1104 95.9029 17.6878 95.4044 18.461 95.3153L18.9192 95.7873L19.4487 98.0383L18.784 98.115Z" fill="#E98862"/>
<path d="M24.9384 93.8058C25.1664 93.6796 25.4242 93.6169 25.6847 93.6243C25.8134 93.6271 25.9409 93.6493 26.0629 93.6901C26.1842 93.73 26.2999 93.785 26.4074 93.8538C26.4181 93.8607 26.4259 93.8714 26.4289 93.8838C26.4319 93.8962 26.4301 93.9092 26.4237 93.9203C26.4174 93.9313 26.407 93.9395 26.3948 93.9431C26.3825 93.9467 26.3694 93.9454 26.3581 93.9395L26.3548 93.9378C26.253 93.8773 26.144 93.8299 26.0303 93.7966C25.9177 93.763 25.8006 93.7466 25.6831 93.748C25.4493 93.7492 25.2199 93.8122 25.0184 93.9308L25.0135 93.9338C25.0052 93.9393 24.9959 93.943 24.9861 93.9448C24.9762 93.9466 24.9662 93.9464 24.9565 93.9442C24.9467 93.942 24.9375 93.9379 24.9295 93.9321C24.9214 93.9262 24.9145 93.9189 24.9093 93.9103C24.9042 93.9018 24.9007 93.8924 24.8993 93.8825C24.8979 93.8726 24.8984 93.8626 24.901 93.8529C24.9035 93.8433 24.9079 93.8343 24.914 93.8264C24.9201 93.8185 24.9277 93.8119 24.9364 93.807L24.9384 93.8058Z" fill="#0C0C0C"/>
<path d="M22.8952 94.1816C22.6723 94.1109 22.4346 94.1007 22.2065 94.152C22.0916 94.1771 21.9811 94.2194 21.8788 94.2775C21.7755 94.3353 21.6799 94.4059 21.5941 94.4875L21.5914 94.49C21.5816 94.4972 21.5696 94.5006 21.5575 94.4995C21.5454 94.4984 21.5341 94.4929 21.5258 94.4841C21.5175 94.4752 21.5128 94.4637 21.5125 94.4515C21.5122 94.4394 21.5163 94.4276 21.5242 94.4183C21.6136 94.3272 21.714 94.2478 21.8233 94.1818C21.9332 94.1148 22.0525 94.0647 22.1772 94.0331C22.4296 93.9678 22.6948 93.9713 22.9453 94.0433C22.9549 94.0458 22.964 94.0502 22.972 94.0563C22.9799 94.0624 22.9865 94.07 22.9915 94.0787C22.9964 94.0873 22.9995 94.097 23.0006 94.1069C23.0018 94.1168 23.0009 94.1269 22.998 94.1364C22.9952 94.146 22.9904 94.1549 22.9841 94.1626C22.9777 94.1703 22.9698 94.1766 22.9609 94.1812C22.9521 94.1858 22.9423 94.1886 22.9324 94.1893C22.9224 94.19 22.9124 94.1888 22.9029 94.1855H22.901L22.8952 94.1816Z" fill="#0C0C0C"/>
<path opacity="0.52" d="M24.0183 99.0984C24.0931 99.0953 24.1675 99.0858 24.2407 99.0702C24.257 99.0662 24.271 99.056 24.2799 99.0418C24.2888 99.0275 24.2919 99.0104 24.2884 98.994C24.285 98.9776 24.2753 98.9632 24.2614 98.9538C24.2475 98.9444 24.2305 98.9407 24.214 98.9436C24.0997 98.977 23.9796 98.9857 23.8617 98.9689C23.7438 98.9522 23.6309 98.9105 23.5304 98.8466C23.5171 98.8358 23.5001 98.8306 23.483 98.8324C23.466 98.8341 23.4503 98.8425 23.4395 98.8558C23.4286 98.869 23.4235 98.8861 23.4252 98.9031C23.4269 98.9202 23.4353 98.9358 23.4486 98.9467C23.6153 99.0616 23.8166 99.1152 24.0183 99.0984Z" fill="#0C0C0C"/>
<path opacity="0.1" d="M22.3931 97.4129C22.7248 97.4013 22.9867 97.1947 22.9782 96.9514C22.9697 96.7082 22.6939 96.5203 22.3623 96.532C22.0306 96.5436 21.7686 96.7502 21.7771 96.9935C21.7857 97.2368 22.0614 97.4246 22.3931 97.4129Z" fill="#0C0C0C"/>
<path opacity="0.1" d="M25.9426 96.7414C25.9519 96.9844 26.2275 97.1718 26.5593 97.1608C26.6166 97.1588 26.6736 97.1508 26.7293 97.137C26.7685 96.8515 26.7926 96.5757 26.8057 96.3197C26.7164 96.2892 26.6222 96.2757 26.5279 96.2798C26.1969 96.291 25.9351 96.497 25.9426 96.7414Z" fill="#0C0C0C"/>
<path d="M33.3333 107.859C33.3189 109.296 32.8258 111.008 32.6501 113.078C32.6034 113.63 31.418 115.228 31.2458 117.005C31.0288 119.268 31.5114 122.797 31.5759 124.323C28.2438 126.167 24.4746 127.073 20.6684 126.947C16.8623 126.821 13.1615 125.666 9.95891 123.606C9.87283 119.686 9.77062 114.846 9.63972 113.686C9.21473 109.855 9.32949 107.433 9.94277 106.299C10.9452 104.449 12.7294 103.884 14.5961 103.629C15.7366 103.475 17.4491 103.366 17.4491 103.366C17.4491 103.366 17.5944 106.301 21.0552 106.464C25.766 106.687 25.4522 103.366 25.4755 103.366C27.1844 103.366 30.4229 103.775 31.6638 104.621C32.98 105.516 33.3494 106.577 33.3333 107.859Z" fill="#FFC239"/>
<path d="M17.0582 110.094L10.6672 124.041C8.2134 122.592 6.07841 120.661 4.39103 118.365L9.72221 106.731L17.0582 110.094Z" fill="#FFC239"/>
<path d="M38.4959 118.154C37.2439 119.901 35.7328 121.447 34.0147 122.738C33.4492 123.165 32.862 123.562 32.2556 123.928L25.696 109.507L33.041 106.165L38.4959 118.154Z" fill="#FFC239"/>
<path d="M65.2058 44.4436C77.3188 44.4436 87.1382 34.6241 87.1382 22.5112C87.1382 10.3982 77.3188 0.578735 65.2058 0.578735C53.0928 0.578735 43.2733 10.3982 43.2733 22.5112C43.2733 34.6241 53.0928 44.4436 65.2058 44.4436Z" fill="white"/>
<path opacity="0.09" d="M65.2058 44.4436C77.3188 44.4436 87.1382 34.6241 87.1382 22.5112C87.1382 10.3982 77.3188 0.578735 65.2058 0.578735C53.0928 0.578735 43.2733 10.3982 43.2733 22.5112C43.2733 34.6241 53.0928 44.4436 65.2058 44.4436Z" fill="#367CFF"/>
<path d="M69.4467 9.37765C69.4467 9.37765 70.8355 7.87244 70.7281 5.00547C70.6451 2.78567 68.9028 4.54892 68.9028 4.54892C68.9028 4.54892 68.8273 2.95118 67.7193 3.31162C66.6113 3.67205 66.2706 5.42652 66.2706 5.42652" fill="#0C0C0C"/>
<path d="M61.8762 4.55786C61.8762 4.55786 56.345 6.1834 59.7676 13.4577L60.2727 13.4007L61.298 13.2852" fill="#0C0C0C"/>
<path d="M69.7146 21.0033C69.6895 21.0001 69.4098 25.6405 64.0189 25.2352C60.2869 24.9557 58.9561 20.9961 58.8706 20.9961C59.273 20.9106 59.7702 20.7809 59.9679 20.7363C60.3986 20.6363 60.7887 20.4076 61.0862 20.0805C61.3838 19.7534 61.5747 19.3435 61.6336 18.9052C61.7428 18.2475 61.5575 14.8824 61.6145 14.2169L67.3431 15.4955C67.2631 16.9012 66.7029 20.1596 68.6665 20.7363C68.9934 20.8319 69.3454 20.9197 69.7146 21.0033Z" fill="#E98862"/>
<path opacity="0.52" d="M67.4236 19.4048C67.334 19.1156 67.2762 18.8175 67.2513 18.5157C67.1884 17.8271 67.2009 17.1337 67.2888 16.4478C66.1244 16.2907 65.0275 15.8101 64.1227 15.0606C64.0162 15.4535 63.4312 17.1701 63.5932 17.5435C63.8994 18.2493 65.3381 19.4048 67.4236 19.4048Z" fill="#0C0C0C"/>
<path d="M66.4885 17.9274C64.229 18.1306 61.3124 17.2073 60.7276 14.1954L60.1999 11.4778C59.6151 8.46524 60.723 5.71717 63.5587 5.16665C66.3945 4.61596 68.9882 6.64604 69.5731 9.6579L69.8062 10.861C69.8794 11.2754 69.9241 11.6944 69.94 12.1149C69.9906 13.2267 70.0632 14.9165 69.5288 16.1656C69.0246 17.3452 67.9323 17.7978 66.4885 17.9274Z" fill="#E98862"/>
<path opacity="0.5" d="M66.8301 14.9498C67.2439 14.9421 67.6501 14.8371 68.0159 14.6436C68.0239 14.64 68.031 14.6348 68.0369 14.6284C68.0428 14.6219 68.0473 14.6144 68.0503 14.6061C68.0532 14.5979 68.0544 14.5892 68.0538 14.5804C68.0532 14.5717 68.0509 14.5632 68.047 14.5554C68.0431 14.5476 68.0376 14.5407 68.0309 14.5351C68.0242 14.5295 68.0165 14.5252 68.0081 14.5227C67.9998 14.5201 67.991 14.5193 67.9823 14.5202C67.9737 14.5211 67.9653 14.5238 67.9576 14.5281C67.1686 14.9263 66.4282 14.9226 65.8173 14.5184C65.8049 14.5099 65.7922 14.502 65.7791 14.4947C65.7715 14.491 65.7632 14.4888 65.7547 14.4882C65.7462 14.4877 65.7377 14.4888 65.7297 14.4916C65.7217 14.4943 65.7143 14.4986 65.7079 14.5042C65.7015 14.5098 65.6963 14.5166 65.6925 14.5242C65.6888 14.5318 65.6866 14.5401 65.6861 14.5486C65.6855 14.5571 65.6866 14.5656 65.6894 14.5736C65.6921 14.5816 65.6964 14.589 65.702 14.5954C65.7076 14.6018 65.7144 14.607 65.722 14.6107C65.7269 14.6134 65.7348 14.6188 65.7459 14.6262C66.067 14.8396 66.4445 14.9523 66.8301 14.9498Z" fill="#0C0C0C"/>
<path opacity="0.52" d="M66.85 15.5625C66.9248 15.5623 66.9995 15.5557 67.0732 15.5428C67.0816 15.5414 67.0896 15.5383 67.0968 15.5338C67.1039 15.5293 67.1102 15.5234 67.1151 15.5165C67.12 15.5096 67.1235 15.5018 67.1253 15.4935C67.1272 15.4852 67.1275 15.4767 67.126 15.4683C67.1246 15.4599 67.1215 15.4519 67.117 15.4448C67.1125 15.4376 67.1066 15.4314 67.0997 15.4265C67.0928 15.4216 67.085 15.4181 67.0767 15.4162C67.0684 15.4143 67.0599 15.4141 67.0515 15.4155C66.936 15.4444 66.8157 15.4484 66.6985 15.4272C66.5814 15.406 66.4701 15.3601 66.3721 15.2925C66.3592 15.2816 66.3425 15.2762 66.3257 15.2774C66.3088 15.2786 66.2932 15.2864 66.282 15.2991C66.2708 15.3118 66.2651 15.3283 66.2659 15.3452C66.2668 15.362 66.2743 15.3779 66.2867 15.3893C66.4488 15.5105 66.6478 15.5717 66.85 15.5625Z" fill="#0C0C0C"/>
<path d="M68.8944 11.6198C69.0909 11.6198 69.2502 11.4605 69.2502 11.264C69.2502 11.0675 69.0909 10.9083 68.8944 10.9083C68.6979 10.9083 68.5386 11.0675 68.5386 11.264C68.5386 11.4605 68.6979 11.6198 68.8944 11.6198Z" fill="#0C0C0C"/>
<path d="M65.435 12.0242C65.6315 12.0242 65.7907 11.8649 65.7907 11.6685C65.7907 11.472 65.6315 11.3127 65.435 11.3127C65.2385 11.3127 65.0792 11.472 65.0792 11.6685C65.0792 11.8649 65.2385 12.0242 65.435 12.0242Z" fill="#0C0C0C"/>
<path d="M61.082 15.0787C60.2202 15.246 59.3426 14.4597 59.1751 13.5979C59.0076 12.7361 59.6142 12.1253 60.4759 11.958L61.0318 12.4492L61.8226 14.9349L61.082 15.0787Z" fill="#E98862"/>
<path d="M61.69 13.5352C61.69 13.5352 61.2086 9.21088 62.4561 8.71273C63.2869 8.38081 65.6003 9.22576 67.4711 8.50561C68.2896 8.19037 69.1324 8.25457 69.2866 8.64028C69.3477 8.79288 69.4636 6.41887 67.823 4.92997C66.5168 3.74467 62.9878 3.98191 61.4958 4.7182C57.3648 6.75688 60.3319 12.1779 60.3319 12.1779L60.7927 13.6153L61.69 13.5352Z" fill="#0C0C0C"/>
<g opacity="0.52">
<path d="M67.3605 13.8789H67.3661C67.644 13.8251 68.1041 13.7055 68.0654 13.4977C68.0322 13.3253 67.2047 11.5565 67.1107 11.3555C67.1067 11.3469 67.101 11.3393 67.0941 11.3329C67.0871 11.3265 67.0789 11.3216 67.07 11.3184C67.0611 11.3152 67.0517 11.3137 67.0422 11.3142C67.0328 11.3146 67.0235 11.3169 67.015 11.3209C67.0064 11.3249 66.9987 11.3306 66.9923 11.3376C66.986 11.3445 66.981 11.3527 66.9778 11.3616C66.9746 11.3705 66.9732 11.3799 66.9736 11.3894C66.974 11.3988 66.9763 11.4081 66.9803 11.4167C67.3472 12.1999 67.9013 13.4071 67.9239 13.5246C67.906 13.5784 67.6277 13.6822 67.3401 13.7372C67.321 13.7401 67.3039 13.7503 67.2925 13.7658C67.281 13.7812 67.2762 13.8006 67.279 13.8196C67.2818 13.8387 67.2921 13.8558 67.3076 13.8672C67.323 13.8787 67.3424 13.8835 67.3614 13.8807L67.3605 13.8789Z" fill="#0C0C0C"/>
</g>
<path d="M67.557 9.54477C67.8351 9.41146 68.144 9.3557 68.4511 9.38338C68.6018 9.39606 68.7497 9.43124 68.8899 9.48775C69.0284 9.5428 69.1594 9.6151 69.2798 9.70293C69.3021 9.71838 69.3176 9.7419 69.3229 9.76854C69.3283 9.79517 69.3231 9.82284 69.3085 9.84573C69.2938 9.86862 69.2709 9.88493 69.2445 9.89124C69.218 9.89755 69.1902 9.89336 69.1668 9.87956L69.1587 9.87669C69.0496 9.80699 68.9321 9.75126 68.8091 9.71082C68.6881 9.67043 68.5616 9.6486 68.4341 9.64608C68.1827 9.63908 67.9339 9.69865 67.7129 9.81877L67.7037 9.82397C67.6857 9.83424 67.6659 9.84086 67.6454 9.84347C67.6248 9.84607 67.604 9.84461 67.584 9.83915C67.564 9.8337 67.5453 9.82437 67.529 9.81169C67.5126 9.799 67.4989 9.78322 67.4886 9.76524C67.4784 9.74726 67.4717 9.72744 67.4691 9.7069C67.4665 9.68636 67.468 9.66551 67.4735 9.64553C67.4789 9.62556 67.4882 9.60686 67.5009 9.59049C67.5136 9.57412 67.5294 9.56042 67.5474 9.55015L67.557 9.54477Z" fill="#0C0C0C"/>
<path d="M65.5173 10.096C65.2751 10.0282 65.0193 10.0256 64.7758 10.0883C64.652 10.1191 64.5336 10.1685 64.4247 10.2348C64.3135 10.3015 64.2111 10.382 64.1198 10.4742L64.1141 10.4799C64.0944 10.4989 64.0681 10.5095 64.0408 10.5094C64.0134 10.5094 63.9872 10.4986 63.9677 10.4794C63.9481 10.4603 63.9369 10.4343 63.9362 10.4069C63.9356 10.3796 63.9457 10.3531 63.9644 10.333C64.062 10.2204 64.1735 10.1206 64.2963 10.0359C64.4205 9.94958 64.5569 9.88231 64.701 9.83633C64.845 9.78884 64.9949 9.76133 65.1464 9.75456C65.3016 9.74602 65.4572 9.75954 65.6085 9.79473C65.6493 9.80424 65.6845 9.82953 65.7066 9.86504C65.7286 9.90056 65.7357 9.94338 65.7262 9.98409C65.7167 10.0248 65.6914 10.0601 65.6559 10.0821C65.6203 10.1042 65.5775 10.1112 65.5368 10.1017L65.5275 10.0992L65.5173 10.096Z" fill="#0C0C0C"/>
<path d="M66.6083 6.67979C67.2235 6.4305 67.4247 5.49439 67.0577 4.58893C66.6908 3.68347 65.8946 3.15155 65.2795 3.40084C64.6644 3.65014 64.4632 4.58625 64.8301 5.49171C65.1971 6.39716 65.9932 6.92909 66.6083 6.67979Z" fill="#0C0C0C"/>
<path d="M77.1654 25.7985C77.1869 27.285 76.6059 28.9563 76.4122 31.2193C76.3728 31.6784 76.2795 32.6897 76.1558 34.0077C75.9532 36.1901 75.6663 39.208 75.4152 41.9283C71.825 43.8127 67.7832 44.6664 63.7377 44.3948C59.6921 44.1233 55.8007 42.737 52.4945 40.3897C52.4156 40.3306 52.3367 40.2732 52.2578 40.2176C52.048 37.1423 51.8005 33.9145 51.5746 31.8756C51.1496 28.0687 50.5704 26.1732 50.895 24.8929C50.921 24.7839 50.9558 24.6771 50.999 24.5737C51.9332 22.3071 54.9082 21.2957 56.9237 21.0232C58.1539 20.8564 60.0044 20.7363 60.0044 20.7363C60.0044 20.7363 60.1604 23.9066 63.8957 24.0824C68.9812 24.3227 68.6423 20.7363 68.6674 20.7363C69.4905 20.7363 73.9753 21.3352 75.096 22.0668C75.2839 22.1888 75.4636 22.323 75.634 22.4685C76.1209 22.8746 76.5111 23.3843 76.776 23.9604C77.0409 24.5365 77.174 25.1644 77.1654 25.7985Z" fill="#383838"/>
<path d="M58.4408 28.0974L52.4945 40.3897C52.4156 40.3306 52.3367 40.2732 52.2578 40.2176C49.9527 38.5274 47.9978 36.4056 46.5016 33.9701L50.895 24.8929L51.0689 24.5325L58.4408 28.0974Z" fill="#383838"/>
<path d="M57.8669 29.5122L52.4587 40.3628C52.4228 40.3359 52.3887 40.3108 52.3529 40.2875L57.754 29.4566C57.7617 29.4415 57.7751 29.4301 57.7912 29.4247C57.8073 29.4194 57.8248 29.4205 57.8401 29.4279C57.8548 29.4355 57.8659 29.4487 57.8709 29.4645C57.876 29.4803 57.8746 29.4974 57.8669 29.5122Z" fill="white"/>
<path d="M85.2886 31.3413C84.2106 33.7843 82.697 36.0107 80.8217 37.9116L76.1558 34.0078L70.2293 29.0478L75.634 22.4685L75.6501 22.4488L85.2886 31.3413Z" fill="#383838"/>
<path d="M76.2277 34.0556C76.2429 34.0549 76.2574 34.0486 76.2683 34.0381C76.2793 34.0275 76.2861 34.0133 76.2874 33.9981L76.5953 30.3884C76.5967 30.3717 76.5915 30.3551 76.5808 30.3423C76.57 30.3295 76.5546 30.3215 76.5379 30.3201C76.5213 30.3188 76.5049 30.3242 76.4922 30.3349C76.4795 30.3456 76.4714 30.3609 76.4698 30.3774L76.1619 33.9873C76.1605 34.004 76.1658 34.0205 76.1765 34.0332C76.1873 34.046 76.2026 34.054 76.2193 34.0555L76.2277 34.0556Z" fill="white"/>
<path d="M168.48 139.417C180.033 139.417 189.399 130.052 189.399 118.498C189.399 106.945 180.033 97.5794 168.48 97.5794C156.927 97.5794 147.561 106.945 147.561 118.498C147.561 130.052 156.927 139.417 168.48 139.417Z" fill="white"/>
<path opacity="0.09" d="M147.561 118.498C147.561 122.635 148.788 126.679 151.086 130.12C153.385 133.56 156.652 136.241 160.474 137.824C164.296 139.407 168.502 139.822 172.56 139.015C176.618 138.207 180.345 136.215 183.271 133.29C186.197 130.364 188.189 126.637 188.996 122.579C189.803 118.521 189.389 114.315 187.806 110.493C186.222 106.67 183.541 103.403 180.101 101.105C176.661 98.8062 172.617 97.5794 168.479 97.5794C165.73 97.5692 163.005 98.1034 160.462 99.1511C157.92 100.199 155.61 101.739 153.665 103.684C151.721 105.628 150.18 107.938 149.133 110.481C148.085 113.023 147.551 115.748 147.561 118.498Z" fill="#367CFF"/>
<path d="M177.972 106.955C177.638 110.828 177.948 112.141 179.556 114.36C180.913 116.232 173.194 114.641 169.779 114.033L172.793 105.225C172.793 105.225 178.089 105.594 177.972 106.955Z" fill="#0A0A0A"/>
<path d="M166.19 105.343C165.182 109.098 165.295 110.259 163.324 112.231C161.689 113.866 168.059 114.198 171.476 114.792L171.649 105.485C171.649 105.485 166.544 104.025 166.19 105.343Z" fill="#0A0A0A"/>
<path d="M166.529 116.264C166.552 116.261 166.802 120.413 171.626 120.051C174.966 119.801 176.156 116.258 176.233 116.258C175.851 116.195 175.475 116.103 175.107 115.985C174.581 115.702 173.93 115.408 173.761 114.387C173.663 113.798 173.829 110.787 173.778 110.191L168.651 111.335C168.723 112.593 169.225 115.509 167.468 116.025C167.175 116.111 166.86 116.189 166.529 116.264Z" fill="#E98862"/>
<path opacity="0.5" d="M168.579 114.834C168.66 114.575 168.712 114.308 168.734 114.038C168.79 113.422 168.779 112.802 168.7 112.188C169.742 112.047 170.724 111.617 171.534 110.947C171.629 111.298 172.152 112.834 172.007 113.168C171.733 113.8 170.446 114.834 168.579 114.834Z" fill="#0C0C0C"/>
<path d="M169.242 113.54C171.264 113.736 173.878 112.927 174.42 110.236L174.909 107.807C175.451 105.116 174.476 102.65 171.942 102.14C169.408 101.63 167.075 103.431 166.533 106.122L166.317 107.198C166.109 108.23 165.636 113.192 169.242 113.54Z" fill="#E98862"/>
<path d="M177.355 108.574L175.075 108.324C170.614 107.504 169.522 103.904 169.522 103.904C169.522 103.904 167.651 106.403 166.062 105.829C166.062 105.829 166.574 99.8054 173.627 100.864C176.398 101.28 177.972 103.577 177.972 106.658C177.972 108.924 177.355 108.574 177.355 108.574Z" fill="#0A0A0A"/>
<path opacity="0.1" d="M171.181 109.643C171.21 109.399 170.964 109.169 170.631 109.129C170.299 109.089 170.006 109.255 169.977 109.499C169.947 109.743 170.193 109.973 170.526 110.013C170.859 110.052 171.152 109.887 171.181 109.643Z" fill="#0C0C0C"/>
<path opacity="0.1" d="M167.014 109.038C166.984 109.282 166.691 109.447 166.358 109.408C166.301 109.401 166.244 109.388 166.189 109.369C166.174 109.079 166.173 108.8 166.181 108.541C166.274 108.518 166.369 108.512 166.464 108.524C166.796 108.564 167.042 108.794 167.014 109.038Z" fill="#0C0C0C"/>
<path opacity="0.5" d="M168.482 109.791H168.477C168.375 109.77 168.273 109.743 168.174 109.71C168.025 109.66 167.83 109.579 167.857 109.444C167.888 109.291 168.641 107.72 168.727 107.542C168.731 107.534 168.736 107.527 168.742 107.521C168.748 107.515 168.756 107.51 168.764 107.507C168.772 107.504 168.781 107.503 168.79 107.503C168.799 107.504 168.807 107.506 168.815 107.51C168.823 107.514 168.83 107.519 168.836 107.525C168.841 107.532 168.846 107.54 168.849 107.548C168.851 107.556 168.852 107.565 168.852 107.574C168.851 107.582 168.849 107.591 168.845 107.598C168.523 108.267 168.006 109.366 167.985 109.47C168.14 109.575 168.317 109.641 168.503 109.663C168.52 109.667 168.534 109.676 168.543 109.69C168.553 109.704 168.557 109.721 168.554 109.737C168.551 109.754 168.543 109.769 168.529 109.779C168.516 109.789 168.499 109.794 168.482 109.792V109.791Z" fill="#0C0C0C"/>
<path d="M174.098 111.024C174.868 111.179 175.658 110.481 175.813 109.711C175.968 108.941 175.429 108.39 174.659 108.235L174.158 108.672L173.436 110.891L174.098 111.024Z" fill="#E98862"/>
<path d="M168.181 106.289C168.086 106.222 167.982 106.167 167.873 106.128C167.762 106.086 167.646 106.06 167.528 106.05C167.41 106.039 167.291 106.045 167.175 106.07C167.057 106.093 166.944 106.132 166.836 106.184L166.833 106.186C166.821 106.19 166.808 106.19 166.797 106.185C166.786 106.18 166.776 106.171 166.771 106.16C166.766 106.149 166.765 106.136 166.768 106.124C166.772 106.112 166.78 106.102 166.79 106.096C166.904 106.036 167.025 105.99 167.151 105.96C167.277 105.93 167.407 105.918 167.537 105.926C167.799 105.941 168.053 106.026 168.272 106.172C168.288 106.183 168.299 106.2 168.302 106.219C168.305 106.239 168.301 106.258 168.29 106.275C168.279 106.291 168.262 106.302 168.243 106.306C168.224 106.31 168.204 106.306 168.188 106.296L168.186 106.294L168.181 106.289Z" fill="#0C0C0C"/>
<path d="M170.256 106.576C170.514 106.525 170.781 106.544 171.029 106.631C171.152 106.673 171.268 106.733 171.373 106.81C171.477 106.886 171.572 106.974 171.654 107.073C171.663 107.083 171.668 107.096 171.667 107.109C171.666 107.122 171.66 107.135 171.651 107.144C171.641 107.152 171.628 107.157 171.615 107.157C171.602 107.156 171.589 107.15 171.58 107.14L171.578 107.138C171.498 107.048 171.408 106.969 171.309 106.902C171.211 106.836 171.103 106.784 170.99 106.749C170.764 106.678 170.524 106.669 170.294 106.721L170.289 106.722C170.269 106.727 170.249 106.724 170.232 106.714C170.215 106.703 170.203 106.687 170.198 106.667C170.193 106.648 170.196 106.628 170.207 106.611C170.217 106.594 170.234 106.581 170.253 106.577L170.256 106.576Z" fill="#0C0C0C"/>
<path d="M158.76 137.025C157.938 136.666 157.323 136.283 155.918 135.225C154.905 134.464 153.963 133.613 153.105 132.681L160.316 118.96L160.629 118.364L167.133 121.783L161.491 132.519L161.465 132.566L161.514 132.757" fill="#EA394A"/>
<path d="M182.74 125.988C182.551 128.022 182.51 131.187 182.523 134C179.804 136.466 176.484 138.173 172.896 138.949C169.308 139.725 165.58 139.542 162.085 138.42C161.657 134.177 161.021 127.943 160.663 124.103C160.299 120.127 159.231 118.814 162.147 116.909C163.754 116.091 166.301 116.019 167.445 116.019C167.057 119.789 175.001 120.253 175.198 116.019C181.139 116.575 183.89 116.713 182.74 125.988Z" fill="#EA394A"/>
<path d="M167.805 110.321C168.461 110.655 169.211 110.761 169.934 110.621C169.959 110.617 169.985 110.619 170.009 110.629C170.032 110.638 170.053 110.654 170.068 110.675C170.083 110.696 170.092 110.72 170.093 110.746C170.095 110.771 170.089 110.796 170.076 110.819C169.861 111.199 169.349 111.848 168.472 111.584C167.905 111.413 167.691 110.831 167.611 110.469C167.605 110.444 167.607 110.418 167.616 110.394C167.625 110.37 167.64 110.349 167.661 110.333C167.681 110.318 167.705 110.308 167.731 110.306C167.757 110.304 167.782 110.309 167.805 110.321Z" fill="white"/>
<path d="M167.764 107.401C167.939 107.401 168.081 107.259 168.081 107.084C168.081 106.909 167.939 106.767 167.764 106.767C167.589 106.767 167.447 106.909 167.447 107.084C167.447 107.259 167.589 107.401 167.764 107.401Z" fill="#0C0C0C"/>
<path d="M170.813 107.935C170.988 107.935 171.13 107.793 171.13 107.618C171.13 107.442 170.988 107.3 170.813 107.3C170.638 107.3 170.496 107.442 170.496 107.618C170.496 107.793 170.638 107.935 170.813 107.935Z" fill="#0C0C0C"/>
<path d="M161.365 130.952H161.371C161.384 130.95 161.396 130.943 161.404 130.933C161.411 130.922 161.415 130.909 161.413 130.896L160.852 125.245C160.851 125.239 160.849 125.233 160.846 125.227C160.843 125.222 160.839 125.217 160.833 125.213C160.828 125.209 160.822 125.206 160.816 125.204C160.81 125.203 160.803 125.203 160.797 125.204C160.79 125.204 160.784 125.207 160.779 125.21C160.773 125.213 160.768 125.217 160.764 125.223C160.761 125.228 160.758 125.234 160.756 125.24C160.754 125.246 160.754 125.252 160.755 125.259L161.316 130.91C161.318 130.922 161.324 130.932 161.333 130.94C161.342 130.948 161.353 130.952 161.365 130.952Z" fill="#0C0C0C"/>
<path d="M160.632 126.648H154.906V133.67H160.632V126.648Z" fill="white"/>
<path d="M158.287 130.159C158.287 129.695 158.425 129.242 158.683 128.857C158.94 128.471 159.307 128.171 159.735 127.993C160.164 127.816 160.635 127.769 161.09 127.86C161.545 127.951 161.962 128.174 162.29 128.502C162.618 128.83 162.841 129.248 162.932 129.702C163.022 130.157 162.976 130.629 162.798 131.057C162.621 131.486 162.32 131.852 161.935 132.109C161.549 132.367 161.096 132.504 160.632 132.504C160.01 132.504 159.414 132.256 158.974 131.817C158.535 131.377 158.288 130.781 158.287 130.159ZM159.247 130.159C159.247 130.433 159.329 130.701 159.481 130.928C159.633 131.156 159.849 131.333 160.102 131.438C160.355 131.543 160.633 131.57 160.902 131.517C161.17 131.463 161.417 131.332 161.611 131.138C161.804 130.944 161.936 130.698 161.99 130.429C162.043 130.161 162.016 129.882 161.911 129.629C161.806 129.376 161.629 129.16 161.401 129.008C161.173 128.856 160.906 128.775 160.632 128.775C160.265 128.775 159.913 128.921 159.653 129.181C159.394 129.44 159.248 129.792 159.247 130.159Z" fill="white"/>
<path d="M160.586 131.028C160.606 130.909 160.666 130.801 160.757 130.722C160.848 130.644 160.964 130.6 161.084 130.598C161.081 130.593 161.079 130.587 161.077 130.582L160.907 130.545C160.788 130.521 160.681 130.457 160.604 130.364C160.526 130.271 160.484 130.153 160.483 130.032C160.484 129.956 160.502 129.882 160.536 129.813C160.569 129.745 160.617 129.685 160.677 129.638C160.736 129.591 160.806 129.557 160.88 129.54C160.954 129.523 161.031 129.522 161.105 129.538L161.507 129.625C161.507 129.623 161.507 129.622 161.507 129.62C161.508 129.617 161.509 129.614 161.511 129.611C161.406 129.562 161.321 129.478 161.269 129.375C161.218 129.271 161.203 129.153 161.228 129.039C161.272 128.742 161.629 128.644 161.89 128.7L162.932 128.887L162.58 128.654C162.469 128.577 162.392 128.461 162.363 128.329C162.334 128.197 162.357 128.059 162.426 127.943C162.464 127.885 162.513 127.834 162.571 127.796C162.628 127.757 162.694 127.73 162.762 127.717C162.831 127.704 162.901 127.705 162.969 127.72C163.037 127.735 163.101 127.764 163.158 127.805L167.357 132.611L166.425 132.188C166.135 132.614 165.725 132.943 165.248 133.134C164.77 133.325 164.246 133.369 163.742 133.261L161.465 132.764C161.346 132.741 161.239 132.677 161.162 132.584C161.085 132.49 161.042 132.373 161.041 132.252C161.043 132.142 161.08 132.037 161.146 131.949C161.212 131.862 161.304 131.799 161.409 131.768C161.406 131.76 161.404 131.751 161.405 131.743C161.407 131.735 161.41 131.728 161.415 131.722C161.419 131.715 161.426 131.711 161.433 131.707L161.013 131.617C160.88 131.591 160.763 131.516 160.683 131.406C160.604 131.297 160.57 131.162 160.586 131.028Z" fill="#E98862"/>
<path opacity="0.2" d="M162.268 129.794C162.279 129.792 162.289 129.786 162.295 129.777C162.302 129.768 162.306 129.757 162.306 129.746C162.306 129.735 162.302 129.724 162.294 129.715C162.287 129.707 162.277 129.701 162.266 129.699L161.563 129.58C161.556 129.579 161.55 129.579 161.543 129.58C161.537 129.581 161.531 129.584 161.525 129.588C161.52 129.591 161.515 129.596 161.512 129.601C161.508 129.607 161.506 129.613 161.505 129.619C161.504 129.626 161.504 129.632 161.506 129.639C161.507 129.645 161.51 129.651 161.514 129.656C161.518 129.661 161.523 129.666 161.528 129.669C161.534 129.672 161.54 129.674 161.546 129.675L162.25 129.794C162.256 129.795 162.262 129.795 162.268 129.794Z" fill="#0C0C0C"/>
<path opacity="0.2" d="M162.098 130.789C162.109 130.787 162.119 130.781 162.126 130.772C162.133 130.763 162.136 130.752 162.136 130.741C162.136 130.73 162.132 130.719 162.125 130.711C162.118 130.702 162.108 130.696 162.097 130.694L161.133 130.523C161.126 130.522 161.12 130.522 161.113 130.523C161.107 130.524 161.101 130.527 161.095 130.53C161.09 130.534 161.085 130.538 161.082 130.544C161.078 130.549 161.076 130.556 161.074 130.562C161.073 130.568 161.074 130.575 161.075 130.581C161.076 130.588 161.079 130.594 161.083 130.599C161.087 130.604 161.092 130.609 161.098 130.612C161.103 130.615 161.109 130.618 161.116 130.618L162.08 130.789C162.086 130.79 162.092 130.79 162.098 130.789Z" fill="#0C0C0C"/>
<path opacity="0.2" d="M161.921 131.868C161.932 131.865 161.942 131.859 161.949 131.85C161.956 131.842 161.959 131.831 161.959 131.819C161.959 131.808 161.955 131.797 161.947 131.789C161.94 131.78 161.929 131.775 161.918 131.773L161.461 131.703C161.449 131.702 161.437 131.705 161.427 131.713C161.417 131.721 161.411 131.732 161.409 131.744C161.407 131.756 161.41 131.768 161.417 131.779C161.424 131.789 161.435 131.796 161.447 131.798L161.904 131.868C161.909 131.869 161.915 131.869 161.921 131.868Z" fill="#0C0C0C"/>
<path d="M185.657 130.434C183.081 134.139 179.378 136.914 175.099 138.348L175.098 138.347C174.147 138.161 165.081 134.581 163.882 134.346L165.194 128.224C168.563 128.895 174.709 131.479 178.097 132.152L175.707 121.313C175.62 120.834 175.629 120.343 175.734 119.868C175.839 119.393 176.037 118.943 176.316 118.545C176.596 118.147 176.952 117.808 177.364 117.549C177.775 117.289 178.234 117.114 178.714 117.033C179.194 116.953 179.685 116.968 180.159 117.079C180.633 117.189 181.08 117.393 181.475 117.677C181.869 117.962 182.203 118.322 182.458 118.737C182.712 119.152 182.881 119.613 182.956 120.094L185.657 130.434Z" fill="#EA394A"/>
<path d="M180.666 132.95C180.678 132.95 180.69 132.945 180.698 132.937C180.707 132.928 180.713 132.917 180.714 132.905C180.715 132.893 180.711 132.881 180.703 132.871C180.696 132.861 180.685 132.855 180.673 132.853L178.125 131.988C178.119 131.987 178.112 131.988 178.106 131.989C178.1 131.991 178.094 131.993 178.089 131.997C178.083 132.001 178.079 132.006 178.076 132.011C178.072 132.017 178.07 132.023 178.069 132.03C178.068 132.042 178.071 132.056 178.079 132.066C178.086 132.076 178.098 132.083 178.111 132.085L180.658 132.95C180.661 132.95 180.663 132.95 180.666 132.95Z" fill="#0C0C0C"/>
<path d="M178.164 132.03C178.166 132.045 178.161 132.06 178.151 132.072C178.146 132.078 178.139 132.082 178.131 132.084C178.124 132.086 178.116 132.087 178.109 132.085L165.275 128.298L163.989 134.323L175.04 138.366C175.006 138.377 174.97 138.389 174.936 138.4C174.911 138.409 174.887 138.417 174.861 138.423L163.918 134.405C163.905 134.402 163.895 134.394 163.888 134.383C163.881 134.372 163.879 134.359 163.882 134.346L165.194 128.225C165.195 128.218 165.198 128.213 165.202 128.207C165.206 128.202 165.211 128.198 165.217 128.195C165.222 128.191 165.228 128.189 165.235 128.188C165.241 128.187 165.248 128.187 165.254 128.189L178.057 131.981L176.607 126.006C176.606 125.993 176.609 125.98 176.616 125.97C176.624 125.959 176.635 125.952 176.648 125.95C176.654 125.949 176.661 125.949 176.667 125.95C176.674 125.952 176.68 125.954 176.685 125.958C176.69 125.961 176.695 125.966 176.698 125.972C176.702 125.977 176.704 125.983 176.705 125.989L178.164 132.03Z" fill="#0C0C0C"/>
<path d="M10.82 124.221C10.808 124.221 10.7962 124.219 10.7852 124.214C10.7743 124.21 10.7645 124.203 10.7562 124.195C10.7479 124.186 10.7414 124.176 10.7369 124.165C10.7325 124.154 10.7302 124.143 10.7303 124.131C10.7304 124.119 10.7327 124.108 10.7373 124.097L14.2509 115.745C14.2602 115.723 14.2777 115.706 14.2998 115.697C14.3218 115.688 14.3465 115.688 14.3685 115.697C14.3904 115.707 14.4077 115.724 14.4167 115.746C14.4257 115.768 14.4255 115.793 14.4162 115.815L10.9027 124.166C10.8958 124.182 10.8843 124.196 10.8696 124.206C10.8549 124.216 10.8377 124.221 10.82 124.221Z" fill="#0C0C0C"/>
<path d="M31.4952 124.316H31.4913C31.4795 124.317 31.4678 124.315 31.4567 124.311C31.4456 124.307 31.4355 124.301 31.4268 124.293C31.4181 124.285 31.411 124.275 31.4061 124.264C31.4011 124.254 31.3982 124.242 31.3977 124.23L31.0061 115.689C31.0058 115.665 31.0144 115.642 31.0302 115.625C31.0461 115.608 31.068 115.597 31.0914 115.595C31.1032 115.594 31.115 115.596 31.1261 115.6C31.1371 115.604 31.1473 115.61 31.156 115.618C31.1648 115.626 31.1718 115.636 31.1768 115.646C31.1818 115.657 31.1847 115.669 31.1852 115.68L31.5768 124.222C31.578 124.245 31.5701 124.268 31.5549 124.286C31.5397 124.303 31.5183 124.314 31.4952 124.316Z" fill="#0C0C0C"/>
</svg>
