<svg width="300" height="172" viewBox="0 0 300 172" fill="none" xmlns="http://www.w3.org/2000/svg">
<path d="M263.063 0.557495H148.507C145.694 0.557495 143.413 2.68377 143.413 5.30667V83.5058C143.413 86.1287 145.694 88.255 148.507 88.255H263.063C265.876 88.255 268.156 86.1287 268.156 83.5058V5.30667C268.156 2.68377 265.876 0.557495 263.063 0.557495Z" fill="white"/>
<path d="M263.062 88.4132H148.507C147.111 88.4117 145.773 87.8942 144.787 86.9742C143.8 86.0542 143.245 84.8068 143.243 83.5057V5.30653C143.245 4.00545 143.8 2.75809 144.787 1.83808C145.773 0.918077 147.111 0.400556 148.507 0.399048H263.062C264.458 0.400514 265.796 0.918022 266.782 1.83804C267.769 2.75805 268.324 4.00544 268.326 5.30653V83.5057C268.324 84.8068 267.769 86.0542 266.782 86.9743C265.796 87.8943 264.458 88.4118 263.062 88.4132ZM148.507 0.71566C147.201 0.717001 145.95 1.20111 145.027 2.06178C144.103 2.92244 143.584 4.08937 143.583 5.30653V83.5057C143.584 84.7229 144.103 85.8898 145.027 86.7505C145.95 87.6111 147.201 88.0952 148.507 88.0966H263.062C264.368 88.0952 265.619 87.6111 266.542 86.7505C267.466 85.8898 267.985 84.7229 267.986 83.5057V5.30653C267.985 4.08937 267.466 2.92244 266.542 2.06178C265.619 1.20111 264.368 0.717001 263.062 0.71566H148.507Z" fill="#292A2E"/>
<path d="M268.156 5.30655V10.0855H143.413V5.30655C143.413 4.04699 143.95 2.83902 144.905 1.94838C145.861 1.05773 147.156 0.557373 148.507 0.557373H263.062C264.413 0.557373 265.709 1.05773 266.664 1.94838C267.619 2.83902 268.156 4.04699 268.156 5.30655Z" fill="#292A2E"/>
<path opacity="0.2" d="M197.169 48.6953H178.72C176.392 48.6953 174.505 50.4547 174.505 52.6249C174.505 54.7952 176.392 56.5546 178.72 56.5546H197.169C199.496 56.5546 201.383 54.7952 201.383 52.6249C201.383 50.4547 199.496 48.6953 197.169 48.6953Z" fill="#367CFF"/>
<path opacity="0.2" d="M232.603 48.6953H214.155C211.827 48.6953 209.94 50.4547 209.94 52.6249C209.94 54.7952 211.827 56.5546 214.155 56.5546H232.603C234.931 56.5546 236.818 54.7952 236.818 52.6249C236.818 50.4547 234.931 48.6953 232.603 48.6953Z" fill="#367CFF"/>
<path opacity="0.1" d="M255.835 31.1367C255.835 32.1276 255.626 33.1088 255.219 34.0244C254.813 34.9399 254.217 35.7718 253.465 36.4726C252.714 37.1734 251.822 37.7293 250.84 38.1085C249.858 38.4878 248.806 38.6831 247.743 38.6831H167.031C165.968 38.6831 164.916 38.4879 163.934 38.1087C162.952 37.7295 162.06 37.1737 161.308 36.473C160.557 35.7724 159.961 34.9405 159.554 34.025C159.147 33.1096 158.938 32.1284 158.938 31.1375C158.938 30.1465 159.147 29.1653 159.554 28.2499C159.961 27.3344 160.557 26.5025 161.308 25.8019C162.06 25.1012 162.952 24.5454 163.934 24.1662C164.916 23.787 165.968 23.5918 167.031 23.5918H247.743C249.889 23.5919 251.947 24.3868 253.465 25.8017C254.982 27.2166 255.835 29.1357 255.835 31.1367Z" fill="#367CFF"/>
<path d="M255.835 31.1367C255.835 32.1276 255.626 33.1088 255.219 34.0244C254.813 34.9399 254.217 35.7718 253.465 36.4726C252.714 37.1734 251.822 37.7293 250.84 38.1085C249.858 38.4878 248.805 38.6831 247.743 38.6831H235.205V23.5918H247.743C249.889 23.5919 251.947 24.3868 253.465 25.8017C254.982 27.2166 255.835 29.1357 255.835 31.1367Z" fill="#367CFF"/>
<path d="M170.215 33.5071L169.394 31.0567C169.342 30.9067 169.245 30.5663 169.104 30.0353H169.071C168.962 30.4799 168.867 30.8229 168.785 31.0643L167.939 33.5071H167.154L165.931 29.3304H166.643C166.931 30.3796 167.151 31.1787 167.303 31.7275C167.412 32.0918 167.499 32.4618 167.562 32.8356H167.595C167.625 32.6908 167.673 32.5034 167.74 32.2734C167.807 32.0435 167.865 31.8612 167.914 31.7267L168.735 29.3296H169.471L170.272 31.7267C170.403 32.0865 170.507 32.4545 170.583 32.828H170.616C170.637 32.6856 170.666 32.5444 170.704 32.405C170.751 32.2144 171.035 31.1893 171.556 29.3296H172.259L171.019 33.5063L170.215 33.5071Z" fill="#0A0A0A"/>
<path d="M177.062 33.5071L176.24 31.0567C176.188 30.9067 176.091 30.5663 175.95 30.0353H175.917C175.808 30.4799 175.713 30.8229 175.631 31.0643L174.785 33.5071H174L172.778 29.3304H173.489C173.778 30.3796 173.998 31.1787 174.149 31.7275C174.259 32.0918 174.345 32.4618 174.408 32.8356H174.441C174.471 32.6908 174.52 32.5034 174.586 32.2734C174.653 32.0435 174.711 31.8612 174.76 31.7267L175.582 29.3296H176.317L177.118 31.7267C177.25 32.0865 177.354 32.4545 177.429 32.828H177.462C177.483 32.6856 177.512 32.5444 177.55 32.405C177.597 32.2144 177.881 31.1893 178.402 29.3296H179.105L177.867 33.5063L177.062 33.5071Z" fill="#0A0A0A"/>
<path d="M183.908 33.5071L183.086 31.0567C183.034 30.9067 182.938 30.5663 182.796 30.0353H182.763C182.654 30.4799 182.559 30.8229 182.477 31.0643L181.63 33.5071H180.846L179.623 29.3304H180.334C180.623 30.3796 180.843 31.1787 180.994 31.7275C181.104 32.0918 181.191 32.4618 181.254 32.8356H181.287C181.317 32.6908 181.365 32.5034 181.432 32.2734C181.499 32.0435 181.556 31.8612 181.606 31.7267L182.427 29.3296H183.163L183.965 31.7278C184.096 32.0876 184.2 32.4557 184.276 32.8291H184.308C184.33 32.6867 184.359 32.5455 184.396 32.4061C184.444 32.2155 184.728 31.1904 185.249 29.3307H185.952L184.712 33.5074L183.908 33.5071Z" fill="#0A0A0A"/>
<path d="M243.569 33.2358C242.618 33.2366 241.698 32.9191 240.976 32.3411C240.255 31.7631 239.78 30.9629 239.637 30.086C239.495 29.2091 239.695 28.3137 240.2 27.5624C240.706 26.8112 241.484 26.254 242.393 25.9922C243.302 25.7304 244.281 25.7812 245.153 26.1356C246.025 26.4899 246.732 27.1242 247.145 27.9231C247.558 28.722 247.65 29.6326 247.404 30.4894C247.158 31.3461 246.59 32.0921 245.804 32.5918C245.145 33.0107 244.367 33.2351 243.569 33.2358ZM243.557 26.6145C242.751 26.6149 241.976 26.9047 241.393 27.4237C240.81 27.9426 240.464 28.6509 240.427 29.4015C240.389 30.152 240.663 30.8872 241.192 31.4544C241.721 32.0216 242.463 32.3772 243.266 32.4473C244.068 32.5175 244.869 32.2969 245.501 31.8313C246.134 31.3656 246.549 30.6908 246.662 29.9468C246.775 29.2029 246.577 28.4469 246.107 27.836C245.638 27.225 244.935 26.8059 244.143 26.6658C243.95 26.6317 243.753 26.6146 243.557 26.6145Z" fill="white"/>
<path d="M249.427 36.4508C249.365 36.4509 249.304 36.4383 249.247 36.4139C249.191 36.3894 249.141 36.3537 249.102 36.3093L245.562 32.3711C245.489 32.2907 245.454 32.1868 245.464 32.0822C245.474 31.9776 245.528 31.881 245.614 31.8136C245.7 31.7462 245.812 31.7135 245.924 31.7227C246.036 31.7319 246.14 31.7822 246.212 31.8627L249.752 35.8008C249.804 35.8586 249.837 35.9289 249.848 36.0035C249.858 36.0782 249.846 36.1541 249.812 36.2224C249.777 36.2906 249.723 36.3484 249.655 36.3888C249.587 36.4293 249.508 36.4508 249.427 36.4508Z" fill="white"/>
<path d="M215.054 29.4262H100.498C97.6847 29.4262 95.4041 31.5525 95.4041 34.1754V112.375C95.4041 114.997 97.6847 117.124 100.498 117.124H215.054C217.867 117.124 220.148 114.997 220.148 112.375V34.1754C220.148 31.5525 217.867 29.4262 215.054 29.4262Z" fill="white"/>
<path d="M215.053 117.282H100.498C99.1024 117.28 97.7645 116.763 96.7777 115.843C95.791 114.923 95.2359 113.675 95.2343 112.374V34.1752C95.236 32.8741 95.791 31.6267 96.7778 30.7067C97.7645 29.7867 99.1024 29.2692 100.498 29.2677H215.053C216.449 29.2692 217.787 29.7867 218.774 30.7067C219.76 31.6267 220.315 32.8741 220.317 34.1752V112.374C220.315 113.675 219.76 114.923 218.774 115.843C217.787 116.763 216.449 117.28 215.053 117.282ZM100.498 29.5843C99.1924 29.5857 97.9408 30.0698 97.0177 30.9304C96.0946 31.7911 95.5754 32.958 95.5739 34.1752V112.374C95.5754 113.592 96.0946 114.758 97.0177 115.619C97.9408 116.48 99.1924 116.964 100.498 116.965H215.053C216.359 116.964 217.61 116.48 218.534 115.619C219.457 114.758 219.976 113.592 219.977 112.374V34.1752C219.976 32.958 219.457 31.7911 218.534 30.9304C217.61 30.0698 216.359 29.5857 215.053 29.5843H100.498Z" fill="#292A2E"/>
<path d="M220.147 34.1751V38.9541H95.4047V34.1751C95.4047 32.9156 95.9413 31.7076 96.8966 30.817C97.8518 29.9263 99.1475 29.426 100.498 29.426H215.053C216.404 29.426 217.7 29.9263 218.655 30.817C219.611 31.7076 220.147 32.9156 220.147 34.1751Z" fill="#292A2E"/>
<path opacity="0.2" d="M149.16 77.564H130.711C128.384 77.564 126.497 79.3234 126.497 81.4937C126.497 83.6639 128.384 85.4233 130.711 85.4233H149.16C151.488 85.4233 153.375 83.6639 153.375 81.4937C153.375 79.3234 151.488 77.564 149.16 77.564Z" fill="#367CFF"/>
<path opacity="0.2" d="M184.594 77.564H166.146C163.818 77.564 161.931 79.3234 161.931 81.4937C161.931 83.6639 163.818 85.4233 166.146 85.4233H184.594C186.922 85.4233 188.809 83.6639 188.809 81.4937C188.809 79.3234 186.922 77.564 184.594 77.564Z" fill="#367CFF"/>
<path opacity="0.1" d="M207.826 60.0053C207.826 60.9962 207.617 61.9775 207.211 62.893C206.804 63.8086 206.208 64.6405 205.456 65.3413C204.705 66.042 203.813 66.5979 202.831 66.9772C201.849 67.3565 200.797 67.5517 199.734 67.5518H119.022C117.959 67.5518 116.907 67.3566 115.925 66.9774C114.943 66.5982 114.051 66.0424 113.299 65.3417C112.548 64.641 111.952 63.8092 111.545 62.8937C111.138 61.9782 110.929 60.997 110.929 60.0061C110.929 59.0152 111.138 58.034 111.545 57.1185C111.952 56.203 112.548 55.3712 113.299 54.6705C114.051 53.9698 114.943 53.414 115.925 53.0348C116.907 52.6556 117.959 52.4604 119.022 52.4604H199.734C201.88 52.4605 203.938 53.2555 205.456 54.6704C206.973 56.0853 207.826 58.0043 207.826 60.0053Z" fill="#367CFF"/>
<path d="M207.826 60.0053C207.826 60.9962 207.617 61.9775 207.211 62.893C206.804 63.8086 206.208 64.6405 205.456 65.3413C204.705 66.042 203.813 66.5979 202.831 66.9772C201.849 67.3565 200.797 67.5517 199.734 67.5518H187.197V52.4604H199.734C201.88 52.4605 203.938 53.2555 205.456 54.6704C206.973 56.0853 207.826 58.0043 207.826 60.0053Z" fill="#367CFF"/>
<path d="M122.207 62.3758L121.385 59.9254C121.333 59.7754 121.237 59.4349 121.095 58.904H121.062C120.953 59.3486 120.858 59.6916 120.776 59.933L119.93 62.3758H119.145L117.923 58.199H118.634C118.923 59.2483 119.143 60.0473 119.294 60.5961C119.403 60.9605 119.49 61.3305 119.554 61.7042H119.586C119.616 61.5594 119.665 61.3721 119.731 61.1421C119.798 60.9121 119.856 60.7299 119.905 60.5953L120.727 58.1982H121.462L122.264 60.5953C122.395 60.9552 122.498 61.3232 122.574 61.6966H122.607C122.628 61.5543 122.657 61.4131 122.695 61.2737C122.742 61.0831 123.026 60.0579 123.547 58.1982H124.25L123.011 62.375L122.207 62.3758Z" fill="#0A0A0A"/>
<path d="M129.053 62.3758L128.231 59.9254C128.179 59.7754 128.083 59.4349 127.941 58.904H127.908C127.799 59.3486 127.704 59.6916 127.622 59.933L126.776 62.3758H125.991L124.769 58.199H125.48C125.769 59.2483 125.989 60.0473 126.14 60.5961C126.25 60.9605 126.336 61.3305 126.4 61.7042H126.432C126.463 61.5594 126.511 61.3721 126.578 61.1421C126.644 60.9121 126.702 60.7299 126.751 60.5953L127.573 58.1982H128.309L129.11 60.5953C129.241 60.9552 129.345 61.3232 129.42 61.6966H129.453C129.474 61.5543 129.504 61.4131 129.541 61.2737C129.589 61.0831 129.873 60.0579 130.393 58.1982H131.096L129.858 62.375L129.053 62.3758Z" fill="#0A0A0A"/>
<path d="M135.899 62.3758L135.077 59.9254C135.026 59.7754 134.929 59.4349 134.787 58.904H134.755C134.646 59.3486 134.55 59.6916 134.468 59.933L133.622 62.3758H132.837L131.614 58.199H132.326C132.614 59.2483 132.834 60.0473 132.986 60.5961C133.095 60.9605 133.182 61.3305 133.245 61.7042H133.278C133.308 61.5594 133.356 61.3721 133.423 61.1421C133.49 60.9121 133.548 60.7299 133.597 60.5953L134.418 58.1982H135.154L135.956 60.5964C136.087 60.9563 136.191 61.3243 136.267 61.6978H136.3C136.321 61.5554 136.35 61.4142 136.388 61.2748C136.435 61.0842 136.719 60.059 137.24 58.1994H137.943L136.703 62.3761L135.899 62.3758Z" fill="#0A0A0A"/>
<path d="M195.56 62.1045C194.609 62.1052 193.689 61.7877 192.968 61.2097C192.246 60.6317 191.771 59.8315 191.629 58.9546C191.486 58.0777 191.686 57.1823 192.192 56.4311C192.697 55.6799 193.475 55.1227 194.384 54.8609C195.293 54.599 196.272 54.6499 197.144 55.0042C198.016 55.3585 198.723 55.9928 199.136 56.7918C199.549 57.5907 199.641 58.5013 199.395 59.358C199.149 60.2147 198.581 60.9608 197.796 61.4605C197.137 61.8794 196.358 62.1038 195.56 62.1045ZM195.548 55.4832C194.742 55.4836 193.967 55.7733 193.384 56.2923C192.802 56.8113 192.456 57.5196 192.418 58.2701C192.381 59.0207 192.655 59.7559 193.183 60.3231C193.712 60.8902 194.454 61.2458 195.257 61.316C196.059 61.3862 196.86 61.1655 197.492 60.6999C198.125 60.2343 198.541 59.5594 198.654 58.8155C198.766 58.0715 198.568 57.3156 198.099 56.7046C197.63 56.0936 196.926 55.6746 196.134 55.5344C195.941 55.5004 195.745 55.4832 195.548 55.4832Z" fill="white"/>
<path d="M201.418 65.3195C201.356 65.3196 201.295 65.307 201.239 65.2825C201.182 65.2581 201.133 65.2224 201.093 65.178L197.553 61.2398C197.48 61.1594 197.445 61.0554 197.455 60.9509C197.465 60.8463 197.519 60.7497 197.605 60.6822C197.692 60.6148 197.803 60.5821 197.915 60.5913C198.027 60.6005 198.131 60.6509 198.203 60.7313L201.743 64.6695C201.795 64.7272 201.828 64.7975 201.839 64.8722C201.849 64.9469 201.837 65.0228 201.803 65.091C201.769 65.1593 201.714 65.217 201.646 65.2575C201.578 65.298 201.499 65.3195 201.418 65.3195Z" fill="white"/>
<path d="M155.336 49.1414H40.7797C37.9665 49.1414 35.686 51.2676 35.686 53.8905V132.09C35.686 134.713 37.9665 136.839 40.7797 136.839H155.336C158.149 136.839 160.429 134.713 160.429 132.09V53.8905C160.429 51.2676 158.149 49.1414 155.336 49.1414Z" fill="white"/>
<path d="M155.335 136.997H40.7797C39.3842 136.996 38.0463 136.478 37.0596 135.558C36.0728 134.638 35.5177 133.391 35.5162 132.09V53.8904C35.5178 52.5893 36.0729 51.3419 37.0596 50.4219C38.0464 49.5019 39.3842 48.9844 40.7797 48.9829H155.335C156.731 48.9844 158.069 49.5019 159.055 50.4219C160.042 51.3419 160.597 52.5893 160.599 53.8904V132.09C160.597 133.391 160.042 134.638 159.055 135.558C158.069 136.478 156.731 136.996 155.335 136.997ZM40.7797 49.2995C39.4742 49.3009 38.2226 49.785 37.2995 50.6456C36.3764 51.5063 35.8572 52.6732 35.8558 53.8904V132.09C35.8572 133.307 36.3764 134.474 37.2995 135.334C38.2226 136.195 39.4742 136.679 40.7797 136.68H155.335C156.641 136.679 157.892 136.195 158.815 135.334C159.739 134.474 160.258 133.307 160.259 132.09V53.8904C160.258 52.6732 159.739 51.5063 158.815 50.6456C157.892 49.785 156.641 49.3009 155.335 49.2995H40.7797Z" fill="#292A2E"/>
<path d="M160.429 53.8904V58.6693H35.6865V53.8904C35.6865 52.6308 36.2231 51.4228 37.1784 50.5322C38.1336 49.6415 39.4292 49.1412 40.7802 49.1412H155.335C156.686 49.1412 157.982 49.6415 158.937 50.5322C159.892 51.4228 160.429 52.6308 160.429 53.8904Z" fill="#292A2E"/>
<path opacity="0.2" d="M89.4417 97.2792H70.9931C68.6654 97.2792 66.7784 99.0386 66.7784 101.209C66.7784 103.379 68.6654 105.138 70.9931 105.138H89.4417C91.7695 105.138 93.6565 103.379 93.6565 101.209C93.6565 99.0386 91.7695 97.2792 89.4417 97.2792Z" fill="#367CFF"/>
<path opacity="0.2" d="M124.876 97.2792H106.428C104.1 97.2792 102.213 99.0386 102.213 101.209C102.213 103.379 104.1 105.138 106.428 105.138H124.876C127.204 105.138 129.091 103.379 129.091 101.209C129.091 99.0386 127.204 97.2792 124.876 97.2792Z" fill="#367CFF"/>
<path opacity="0.1" d="M148.108 79.7205C148.108 80.7114 147.899 81.6927 147.492 82.6083C147.086 83.5238 146.49 84.3557 145.738 85.0565C144.987 85.7572 144.095 86.3131 143.113 86.6924C142.131 87.0717 141.079 87.2669 140.016 87.267H59.304C58.2412 87.267 57.1888 87.0718 56.2069 86.6926C55.225 86.3134 54.3328 85.7576 53.5813 85.0569C52.8298 84.3562 52.2336 83.5244 51.8269 82.6089C51.4202 81.6934 51.2109 80.7122 51.2109 79.7213C51.2109 78.7304 51.4202 77.7492 51.8269 76.8337C52.2336 75.9182 52.8298 75.0864 53.5813 74.3857C54.3328 73.6851 55.225 73.1292 56.2069 72.75C57.1888 72.3708 58.2412 72.1757 59.304 72.1757H140.016C142.162 72.1757 144.22 72.9707 145.738 74.3856C147.255 75.8005 148.108 77.7195 148.108 79.7205Z" fill="#367CFF"/>
<path d="M148.108 79.7205C148.108 80.7114 147.899 81.6927 147.492 82.6083C147.086 83.5238 146.49 84.3557 145.738 85.0565C144.987 85.7572 144.095 86.3131 143.113 86.6924C142.131 87.0717 141.079 87.2669 140.016 87.267H127.478V72.1757H140.016C142.162 72.1757 144.22 72.9707 145.738 74.3856C147.255 75.8005 148.108 77.7195 148.108 79.7205Z" fill="#367CFF"/>
<path d="M62.4885 82.091L61.6669 79.6406C61.6152 79.4906 61.5185 79.1501 61.3767 78.6192H61.344C61.235 79.0638 61.1396 79.4068 61.0579 79.6482L60.2118 82.091H59.427L58.2045 77.9142H58.9156C59.2044 78.9635 59.4244 79.7625 59.5758 80.3113C59.6854 80.6757 59.772 81.0457 59.8354 81.4195H59.868C59.8981 81.2747 59.9465 81.0873 60.0131 80.8573C60.0798 80.6273 60.1377 80.4451 60.1868 80.3105L61.0085 77.9135H61.7442L62.5454 80.3105C62.6765 80.6704 62.7803 81.0384 62.856 81.4119H62.8887C62.9099 81.2695 62.9393 81.1283 62.9767 80.9889C63.0242 80.7983 63.3083 79.7731 63.8289 77.9135H64.532L63.2925 82.0902L62.4885 82.091Z" fill="#0A0A0A"/>
<path d="M69.3347 82.091L68.5131 79.6406C68.4613 79.4906 68.3645 79.1501 68.2229 78.6192H68.1903C68.0812 79.0638 67.9858 79.4068 67.9042 79.6482L67.058 82.091H66.2732L65.0507 77.9142H65.762C66.0507 78.9635 66.2708 79.7625 66.4221 80.3113C66.5317 80.6757 66.6183 81.0457 66.6816 81.4195H66.7143C66.7444 81.2747 66.7928 81.0873 66.8595 80.8573C66.9262 80.6273 66.9841 80.4451 67.0332 80.3105L67.8548 77.9135H68.5905L69.3916 80.3105C69.5228 80.6704 69.6266 81.0384 69.7023 81.4119H69.7351C69.7561 81.2695 69.7854 81.1283 69.8229 80.9889C69.8705 80.7983 70.1546 79.7731 70.675 77.9135H71.3781L70.1397 82.0902L69.3347 82.091Z" fill="#0A0A0A"/>
<path d="M76.181 82.091L75.3594 79.6406C75.3075 79.4906 75.2108 79.1501 75.0692 78.6192H75.0364C74.9274 79.0638 74.8321 79.4068 74.7503 79.6482L73.9036 82.091H73.1186L71.8961 77.9142H72.6074C72.8963 78.9635 73.1163 79.7625 73.2675 80.3113C73.3771 80.6757 73.4638 81.0457 73.5272 81.4195H73.5598C73.5899 81.2747 73.6383 81.0873 73.7049 80.8573C73.7716 80.6273 73.8295 80.4451 73.8786 80.3105L74.7002 77.9135H75.4359L76.2382 80.3116C76.3693 80.6715 76.4731 81.0395 76.5488 81.413H76.5815C76.6027 81.2706 76.632 81.1294 76.6695 80.99C76.717 80.7994 77.0011 79.7742 77.5217 77.9146H78.2248L76.9853 82.0913L76.181 82.091Z" fill="#0A0A0A"/>
<path d="M135.842 81.8197C134.891 81.8205 133.971 81.503 133.249 80.925C132.528 80.347 132.053 79.5468 131.91 78.6699C131.768 77.793 131.968 76.8976 132.473 76.1464C132.979 75.3951 133.757 74.838 134.666 74.5761C135.575 74.3143 136.554 74.3652 137.426 74.7195C138.298 75.0738 139.005 75.7081 139.418 76.507C139.831 77.306 139.923 78.2166 139.677 79.0733C139.431 79.93 138.863 80.676 138.077 81.1757C137.418 81.5946 136.64 81.819 135.842 81.8197ZM135.83 75.1984C135.024 75.1988 134.249 75.4886 133.666 76.0076C133.083 76.5265 132.737 77.2348 132.7 77.9854C132.663 78.736 132.937 79.4712 133.465 80.0383C133.994 80.6055 134.736 80.9611 135.539 81.0313C136.341 81.1014 137.142 80.8808 137.774 80.4152C138.407 79.9496 138.822 79.2747 138.935 78.5307C139.048 77.7868 138.85 77.0308 138.38 76.4199C137.911 75.8089 137.208 75.3899 136.416 75.2497C136.223 75.2157 136.026 75.1985 135.83 75.1984Z" fill="white"/>
<path d="M141.7 85.0348C141.638 85.0349 141.577 85.0223 141.52 84.9978C141.464 84.9734 141.414 84.9377 141.375 84.8933L137.835 80.9551C137.762 80.8747 137.727 80.7708 137.737 80.6662C137.747 80.5616 137.801 80.465 137.887 80.3976C137.974 80.3301 138.085 80.2974 138.197 80.3066C138.309 80.3158 138.413 80.3662 138.485 80.4467L142.025 84.3848C142.077 84.4425 142.11 84.5129 142.121 84.5875C142.131 84.6622 142.119 84.7381 142.085 84.8063C142.05 84.8746 141.996 84.9323 141.928 84.9728C141.86 85.0133 141.781 85.0348 141.7 85.0348Z" fill="white"/>
<path d="M282.589 128.142H196.694L185.682 135.582V97.1233C185.682 95.4063 186.439 93.7596 187.785 92.5455C189.131 91.3314 190.956 90.6494 192.86 90.6494H282.589C284.493 90.6494 286.318 91.3314 287.664 92.5455C289.01 93.7596 289.767 95.4063 289.767 97.1233V121.668C289.767 123.385 289.01 125.032 287.664 126.246C286.318 127.46 284.493 128.142 282.589 128.142Z" fill="white"/>
<path d="M185.682 135.758C185.652 135.758 185.622 135.752 185.595 135.74C185.563 135.725 185.535 135.703 185.516 135.675C185.497 135.647 185.487 135.615 185.487 135.582V97.1234C185.49 95.3603 186.267 93.6701 187.649 92.4234C189.031 91.1767 190.905 90.4754 192.86 90.4734H282.589C284.544 90.4754 286.418 91.1767 287.8 92.4234C289.182 93.6701 289.96 95.3603 289.962 97.1234V121.668C289.96 123.431 289.182 125.121 287.8 126.368C286.418 127.615 284.544 128.316 282.589 128.318H196.759L185.8 135.723C185.766 135.746 185.725 135.758 185.682 135.758ZM192.86 90.8254C191.009 90.8273 189.234 91.4914 187.925 92.6721C186.616 93.8528 185.88 95.4536 185.878 97.1234V135.231L196.579 128.001C196.613 127.978 196.654 127.966 196.696 127.966H282.589C284.44 127.964 286.215 127.3 287.524 126.119C288.833 124.939 289.569 123.338 289.571 121.668V97.1234C289.569 95.4536 288.833 93.8528 287.524 92.6721C286.215 91.4914 284.44 90.8273 282.589 90.8254H192.86Z" fill="#292A2E"/>
<path d="M285.602 108.342H229.348C229.275 108.342 229.205 108.316 229.153 108.269C229.101 108.222 229.072 108.159 229.072 108.093C229.072 108.027 229.101 107.964 229.153 107.917C229.205 107.87 229.275 107.844 229.348 107.844H285.602C285.675 107.844 285.745 107.87 285.797 107.917C285.849 107.964 285.878 108.027 285.878 108.093C285.878 108.159 285.849 108.222 285.797 108.269C285.745 108.316 285.675 108.342 285.602 108.342Z" fill="#367CFF"/>
<path d="M285.602 115.656H229.348C229.312 115.656 229.276 115.65 229.243 115.637C229.209 115.625 229.179 115.606 229.153 115.583C229.128 115.56 229.107 115.533 229.093 115.502C229.079 115.472 229.072 115.44 229.072 115.407C229.072 115.374 229.079 115.342 229.093 115.312C229.107 115.282 229.128 115.254 229.153 115.231C229.179 115.208 229.209 115.19 229.243 115.177C229.276 115.165 229.312 115.158 229.348 115.158H285.602C285.638 115.158 285.674 115.165 285.708 115.177C285.741 115.19 285.772 115.208 285.797 115.231C285.823 115.254 285.843 115.282 285.857 115.312C285.871 115.342 285.878 115.374 285.878 115.407C285.878 115.44 285.871 115.472 285.857 115.502C285.843 115.533 285.823 115.56 285.797 115.583C285.772 115.606 285.741 115.625 285.708 115.637C285.674 115.65 285.638 115.656 285.602 115.656Z" fill="#367CFF"/>
<path d="M259.941 122.97H229.348C229.275 122.97 229.205 122.944 229.153 122.897C229.101 122.85 229.072 122.787 229.072 122.721C229.072 122.655 229.101 122.592 229.153 122.545C229.205 122.498 229.275 122.472 229.348 122.472H259.941C259.977 122.472 260.013 122.479 260.046 122.491C260.08 122.504 260.11 122.522 260.136 122.545C260.162 122.568 260.182 122.596 260.196 122.626C260.21 122.656 260.217 122.688 260.217 122.721C260.217 122.754 260.21 122.786 260.196 122.816C260.182 122.847 260.162 122.874 260.136 122.897C260.11 122.92 260.08 122.939 260.046 122.951C260.013 122.964 259.977 122.97 259.941 122.97Z" fill="#367CFF"/>
<path d="M209.474 121.859C217.124 121.859 223.325 116.266 223.325 109.366C223.325 102.467 217.124 96.8732 209.474 96.8732C201.825 96.8732 195.623 102.467 195.623 109.366C195.623 116.266 201.825 121.859 209.474 121.859Z" fill="#292A2E"/>
<path d="M233.811 95.9589L234.939 98.5908L238.063 98.7447L235.636 100.526L236.439 103.253L233.811 101.721L231.183 103.253L231.986 100.526L229.56 98.7447L232.683 98.5908L233.811 95.9589Z" fill="#367CFF"/>
<path d="M244.978 95.9589L246.106 98.5908L249.23 98.7447L246.803 100.526L247.606 103.253L244.978 101.721L242.35 103.253L243.153 100.526L240.727 98.7447L243.85 98.5908L244.978 95.9589Z" fill="#367CFF"/>
<path d="M256.145 95.9589L257.273 98.5908L260.397 98.7447L257.97 100.526L258.772 103.253L256.145 101.721L253.517 103.253L254.32 100.526L251.894 98.7447L255.017 98.5908L256.145 95.9589Z" fill="#367CFF"/>
<path d="M267.312 95.9589L268.44 98.5908L271.563 98.7447L269.137 100.526L269.939 103.253L267.312 101.721L264.684 103.253L265.487 100.526L263.06 98.7447L266.184 98.5908L267.312 95.9589Z" fill="#367CFF"/>
<path d="M278.479 95.9589L279.607 98.5908L282.73 98.7447L280.304 100.526L281.106 103.253L278.479 101.721L275.851 103.253L276.654 100.526L274.227 98.7447L277.351 98.5908L278.479 95.9589Z" fill="#367CFF"/>
<path d="M209.67 110.056C212.869 110.056 215.463 107.717 215.463 104.831C215.463 101.945 212.869 99.6059 209.67 99.6059C206.47 99.6059 203.877 101.945 203.877 104.831C203.877 107.717 206.47 110.056 209.67 110.056Z" fill="white"/>
<path d="M220.66 117.096C219.367 118.616 217.702 119.847 215.797 120.694C213.891 121.541 211.796 121.982 209.671 121.982C207.547 121.982 205.451 121.541 203.545 120.694C201.64 119.847 199.976 118.616 198.682 117.096C200.048 115.677 201.736 114.539 203.632 113.759C205.528 112.98 207.587 112.576 209.671 112.576C211.755 112.576 213.814 112.98 215.71 113.759C217.606 114.539 219.294 115.677 220.66 117.096Z" fill="white"/>
<path d="M209.67 122.16C206.892 122.16 204.176 121.417 201.866 120.025C199.556 118.633 197.756 116.654 196.693 114.339C195.629 112.024 195.351 109.477 195.893 107.019C196.435 104.562 197.773 102.304 199.737 100.532C201.702 98.7604 204.204 97.5537 206.929 97.0649C209.654 96.576 212.478 96.8269 215.044 97.7858C217.611 98.7446 219.805 100.368 221.348 102.452C222.891 104.535 223.715 106.985 223.715 109.491C223.711 112.849 222.23 116.07 219.597 118.445C216.964 120.82 213.394 122.156 209.67 122.16ZM209.67 97.1735C206.969 97.1734 204.329 97.8957 202.083 99.2491C199.837 100.602 198.087 102.526 197.053 104.777C196.02 107.027 195.749 109.504 196.276 111.893C196.803 114.283 198.103 116.477 200.013 118.2C201.923 119.922 204.356 121.096 207.005 121.571C209.654 122.046 212.4 121.802 214.895 120.87C217.39 119.938 219.523 118.359 221.023 116.334C222.524 114.308 223.325 111.927 223.325 109.491C223.321 106.225 221.881 103.094 219.321 100.785C216.761 98.4761 213.29 97.1772 209.67 97.1735Z" fill="#292A2E"/>
<path d="M299.61 172H0.577876C0.474358 172 0.37508 171.963 0.301882 171.897C0.228683 171.831 0.187561 171.741 0.187561 171.648C0.187561 171.555 0.228683 171.465 0.301882 171.399C0.37508 171.333 0.474358 171.296 0.577876 171.296H299.61C299.713 171.296 299.812 171.333 299.886 171.399C299.959 171.465 300 171.555 300 171.648C300 171.741 299.959 171.831 299.886 171.897C299.812 171.963 299.713 172 299.61 172Z" fill="#292A2E"/>
</svg>
